%FSLAX34Y34*%
%MOMM*%
%LNSILK_TOP*%
G71*
G01*
%ADD10C, 0.26*%
%ADD11C, 0.21*%
%ADD12C, 0.24*%
%ADD13C, 0.00*%
%ADD14C, 0.20*%
%ADD15C, 0.30*%
%LPD*%
G54D10*
X229664Y-1641908D02*
X229664Y-1654175D01*
X230942Y-1654175D01*
X233498Y-1652642D01*
X241164Y-1643442D01*
X243720Y-1641908D01*
X246276Y-1641908D01*
X248831Y-1643442D01*
X250109Y-1646508D01*
X250109Y-1649575D01*
X248831Y-1652642D01*
X246276Y-1654175D01*
G54D10*
X246276Y-1624020D02*
X233498Y-1624020D01*
X230942Y-1625552D01*
X229664Y-1628620D01*
X229664Y-1631686D01*
X230942Y-1634752D01*
X233498Y-1636286D01*
X246276Y-1636286D01*
X248831Y-1634752D01*
X250109Y-1631686D01*
X250109Y-1628620D01*
X248831Y-1625552D01*
X246276Y-1624020D01*
G54D10*
X242442Y-1618397D02*
X250109Y-1610730D01*
X229664Y-1610730D01*
G54D10*
X250109Y-1605108D02*
X250109Y-1592842D01*
X247553Y-1594374D01*
X243720Y-1597442D01*
X238609Y-1600508D01*
X234776Y-1602042D01*
X229664Y-1602042D01*
G54D10*
X250109Y-1576690D02*
X248831Y-1579756D01*
X246276Y-1581290D01*
X233498Y-1581290D01*
X230942Y-1579756D01*
X229664Y-1576690D01*
G54D10*
X240398Y-1563402D02*
X241164Y-1566468D01*
X240398Y-1569534D01*
X237842Y-1571068D01*
X232731Y-1571068D01*
X230176Y-1569534D01*
X229664Y-1566468D01*
X230176Y-1563402D01*
G54D10*
X250109Y-1557779D02*
X248831Y-1554712D01*
X246276Y-1553179D01*
X233498Y-1553179D01*
X230942Y-1554712D01*
X229664Y-1557779D01*
G54D10*
X229664Y-1541628D02*
X250109Y-1541628D01*
X237331Y-1533962D01*
X250109Y-1526294D01*
X229664Y-1526294D01*
G54D10*
X241164Y-1511473D02*
X229664Y-1511473D01*
G54D10*
X232220Y-1511473D02*
X230176Y-1513006D01*
X229664Y-1516073D01*
X230176Y-1519140D01*
X232220Y-1520673D01*
X241164Y-1520673D01*
G54D10*
X229664Y-1505851D02*
X241164Y-1505851D01*
G54D10*
X238609Y-1505851D02*
X241164Y-1502784D01*
X241164Y-1499718D01*
G54D10*
X239887Y-1494096D02*
X241164Y-1491030D01*
X241164Y-1487350D01*
X238609Y-1484896D01*
X229664Y-1484896D01*
G54D10*
X233498Y-1484896D02*
X236053Y-1486430D01*
X236564Y-1489496D01*
X236053Y-1492562D01*
X233498Y-1494096D01*
X230942Y-1493482D01*
X229664Y-1491030D01*
X229664Y-1489496D01*
X229664Y-1488882D01*
X230942Y-1486430D01*
X233498Y-1484896D01*
G54D10*
X240398Y-1471608D02*
X241164Y-1474674D01*
X240398Y-1477740D01*
X237842Y-1479274D01*
X232731Y-1479274D01*
X230176Y-1477740D01*
X229664Y-1474674D01*
X230176Y-1471608D01*
G54D10*
X229664Y-1465985D02*
X250109Y-1465985D01*
G54D10*
X237842Y-1465985D02*
X240398Y-1464452D01*
X241164Y-1461385D01*
X240398Y-1458318D01*
X237842Y-1456785D01*
X229664Y-1456785D01*
G54D10*
X250109Y-1445234D02*
X229664Y-1437568D01*
X250109Y-1429900D01*
G54D10*
X229664Y-1424279D02*
X241164Y-1424279D01*
G54D10*
X244998Y-1424279D02*
X244998Y-1424279D01*
G54D10*
X250109Y-1415590D02*
X230942Y-1415590D01*
X229664Y-1414057D01*
X230176Y-1412524D01*
G54D10*
X241164Y-1418657D02*
X241164Y-1412524D01*
G54D10*
X239887Y-1406902D02*
X241164Y-1403835D01*
X241164Y-1400155D01*
X238609Y-1397702D01*
X229664Y-1397702D01*
G54D10*
X233498Y-1397702D02*
X236053Y-1399235D01*
X236564Y-1402302D01*
X236053Y-1405369D01*
X233498Y-1406902D01*
X230942Y-1406289D01*
X229664Y-1403835D01*
X229664Y-1402302D01*
X229664Y-1401689D01*
X230942Y-1399235D01*
X233498Y-1397702D01*
G54D10*
X229664Y-1392080D02*
X250109Y-1392080D01*
G54D10*
X229664Y-1386458D02*
X241164Y-1386458D01*
G54D10*
X244998Y-1386458D02*
X244998Y-1386458D01*
G54D11*
X95772Y-1874090D02*
X100105Y-1869756D01*
X88550Y-1869756D01*
G54D11*
X100105Y-1858780D02*
X100105Y-1865713D01*
X95050Y-1865713D01*
X95050Y-1864846D01*
X95772Y-1863113D01*
X95772Y-1861380D01*
X95050Y-1859646D01*
X93605Y-1858780D01*
X90716Y-1858780D01*
X89272Y-1859646D01*
X88550Y-1861380D01*
X88550Y-1863113D01*
X89272Y-1864846D01*
X90716Y-1865713D01*
G54D11*
X97938Y-1847802D02*
X90716Y-1847802D01*
X89272Y-1848670D01*
X88550Y-1850402D01*
X88550Y-1852136D01*
X89272Y-1853870D01*
X90716Y-1854736D01*
X97938Y-1854736D01*
X99383Y-1853870D01*
X100105Y-1852136D01*
X100105Y-1850402D01*
X99383Y-1848670D01*
X97938Y-1847802D01*
G54D11*
X97938Y-1832608D02*
X90716Y-1832608D01*
X89272Y-1833476D01*
X88550Y-1835208D01*
X88550Y-1836942D01*
X89272Y-1838676D01*
X90716Y-1839542D01*
X97938Y-1839542D01*
X99383Y-1838676D01*
X100105Y-1836942D01*
X100105Y-1835208D01*
X99383Y-1833476D01*
X97938Y-1832608D01*
G54D11*
X88550Y-1828565D02*
X95050Y-1828565D01*
X91438Y-1825098D01*
X95050Y-1821632D01*
X88550Y-1821632D01*
G54D12*
X1826675Y-1891045D02*
X1813341Y-1891045D01*
X1813341Y-1884045D01*
G54D12*
X1826675Y-1879378D02*
X1826675Y-1871378D01*
X1825008Y-1872378D01*
X1822508Y-1874378D01*
X1819175Y-1876378D01*
X1816675Y-1877378D01*
X1813341Y-1877378D01*
G54D12*
X1826674Y-1821076D02*
X1813341Y-1821076D01*
X1813341Y-1814076D01*
G54D12*
X1824174Y-1801408D02*
X1825841Y-1802408D01*
X1826674Y-1804408D01*
X1826674Y-1806408D01*
X1825841Y-1808408D01*
X1824174Y-1809408D01*
X1820008Y-1809408D01*
X1819174Y-1809408D01*
X1820841Y-1806408D01*
X1820841Y-1804408D01*
X1820008Y-1802408D01*
X1818341Y-1801408D01*
X1815841Y-1801408D01*
X1814174Y-1802408D01*
X1813341Y-1804408D01*
X1813341Y-1806408D01*
X1814174Y-1808408D01*
X1815841Y-1809408D01*
X1820008Y-1809408D01*
G54D12*
X1826674Y-1722664D02*
X1813341Y-1722664D01*
X1813341Y-1715664D01*
G54D12*
X1826674Y-1702996D02*
X1826674Y-1710996D01*
X1820841Y-1710996D01*
X1820841Y-1709996D01*
X1821674Y-1707996D01*
X1821674Y-1705996D01*
X1820841Y-1703996D01*
X1819174Y-1702996D01*
X1815841Y-1702996D01*
X1814174Y-1703996D01*
X1813341Y-1705996D01*
X1813341Y-1707996D01*
X1814174Y-1709996D01*
X1815841Y-1710996D01*
G54D12*
X1824428Y-1160256D02*
X1811095Y-1160256D01*
X1811095Y-1153256D01*
G54D12*
X1821928Y-1140588D02*
X1813595Y-1140588D01*
X1811928Y-1141588D01*
X1811095Y-1143588D01*
X1811095Y-1145588D01*
X1811928Y-1147588D01*
X1813595Y-1148588D01*
X1821928Y-1148588D01*
X1823595Y-1147588D01*
X1824428Y-1145588D01*
X1824428Y-1143588D01*
X1823595Y-1141588D01*
X1821928Y-1140588D01*
G54D12*
X1824459Y-1220276D02*
X1811126Y-1220276D01*
X1811126Y-1213276D01*
G54D12*
X1819459Y-1208609D02*
X1824459Y-1203609D01*
X1811126Y-1203609D01*
G54D12*
X1826674Y-1411076D02*
X1813341Y-1411076D01*
X1813341Y-1404076D01*
G54D12*
X1813341Y-1391408D02*
X1813341Y-1399408D01*
X1814174Y-1399408D01*
X1815841Y-1398408D01*
X1820841Y-1392408D01*
X1822508Y-1391408D01*
X1824174Y-1391408D01*
X1825841Y-1392408D01*
X1826674Y-1394408D01*
X1826674Y-1396408D01*
X1825841Y-1398408D01*
X1824174Y-1399408D01*
G54D12*
X1826674Y-1499650D02*
X1813341Y-1499650D01*
X1813341Y-1492650D01*
G54D12*
X1824174Y-1487984D02*
X1825841Y-1486984D01*
X1826674Y-1484984D01*
X1826674Y-1482984D01*
X1825841Y-1480984D01*
X1824174Y-1479984D01*
X1822508Y-1479984D01*
X1820841Y-1480984D01*
X1820008Y-1482984D01*
X1819174Y-1480984D01*
X1817508Y-1479984D01*
X1815841Y-1479984D01*
X1814174Y-1480984D01*
X1813341Y-1482984D01*
X1813341Y-1484984D01*
X1814174Y-1486984D01*
X1815841Y-1487984D01*
G54D12*
X1826674Y-1657868D02*
X1813341Y-1657868D01*
X1813341Y-1650868D01*
G54D12*
X1813341Y-1640201D02*
X1826674Y-1640201D01*
X1818341Y-1646201D01*
X1816674Y-1646201D01*
X1816674Y-1638201D01*
G54D12*
X99934Y-768988D02*
X99934Y-760988D01*
X98267Y-761988D01*
X95767Y-763988D01*
X92434Y-765988D01*
X89934Y-766988D01*
X86600Y-766988D01*
G54D12*
X86600Y-750320D02*
X99934Y-750320D01*
X91600Y-756320D01*
X89934Y-756320D01*
X89934Y-748320D01*
G54D12*
X86600Y-743654D02*
X99934Y-743654D01*
G54D12*
X86600Y-735654D02*
X99934Y-735654D01*
G54D12*
X93267Y-743654D02*
X93267Y-735654D01*
G54D12*
X89100Y-722986D02*
X87434Y-723986D01*
X86600Y-725986D01*
X86600Y-727986D01*
X87434Y-729986D01*
X89100Y-730986D01*
X97434Y-730986D01*
X99100Y-729986D01*
X99934Y-727986D01*
X99934Y-725986D01*
X99100Y-723986D01*
X97434Y-722986D01*
G54D12*
X99934Y-710320D02*
X99934Y-718320D01*
X94100Y-718320D01*
X94100Y-717320D01*
X94934Y-715320D01*
X94934Y-713320D01*
X94100Y-711320D01*
X92434Y-710320D01*
X89100Y-710320D01*
X87434Y-711320D01*
X86600Y-713320D01*
X86600Y-715320D01*
X87434Y-717320D01*
X89100Y-718320D01*
G54D12*
X89100Y-705652D02*
X87434Y-704652D01*
X86600Y-702652D01*
X86600Y-700652D01*
X87434Y-698652D01*
X89100Y-697652D01*
X93267Y-697652D01*
X94100Y-697652D01*
X92434Y-700652D01*
X92434Y-702652D01*
X93267Y-704652D01*
X94934Y-705652D01*
X97434Y-705652D01*
X99100Y-704652D01*
X99934Y-702652D01*
X99934Y-700652D01*
X99100Y-698652D01*
X97434Y-697652D01*
X93267Y-697652D01*
G54D12*
X99934Y-684986D02*
X99934Y-692986D01*
X94100Y-692986D01*
X94100Y-691986D01*
X94934Y-689986D01*
X94934Y-687986D01*
X94100Y-685986D01*
X92434Y-684986D01*
X89100Y-684986D01*
X87434Y-685986D01*
X86600Y-687986D01*
X86600Y-689986D01*
X87434Y-691986D01*
X89100Y-692986D01*
G54D12*
X88466Y-824013D02*
X86800Y-823013D01*
X85966Y-821013D01*
X85966Y-819013D01*
X86800Y-817013D01*
X88466Y-816013D01*
X90133Y-816013D01*
X91800Y-817013D01*
X92633Y-819013D01*
X92633Y-821013D01*
X93466Y-823013D01*
X95133Y-824013D01*
X96800Y-824013D01*
X98466Y-823013D01*
X99300Y-821013D01*
X99300Y-819013D01*
X98466Y-817013D01*
X96800Y-816013D01*
G54D12*
X92633Y-807346D02*
X90966Y-804346D01*
X89300Y-803346D01*
X85966Y-803346D01*
G54D12*
X85966Y-811346D02*
X99300Y-811346D01*
X99300Y-806346D01*
X98466Y-804346D01*
X96800Y-803346D01*
X95133Y-803346D01*
X93466Y-804346D01*
X92633Y-806346D01*
X92633Y-811346D01*
G54D12*
X96800Y-790679D02*
X88466Y-790679D01*
X86800Y-791679D01*
X85966Y-793679D01*
X85966Y-795679D01*
X86800Y-797679D01*
X88466Y-798679D01*
X96800Y-798679D01*
X98466Y-797679D01*
X99300Y-795679D01*
X99300Y-793679D01*
X98466Y-791679D01*
X96800Y-790679D01*
G54D12*
X1880420Y-1199054D02*
X1867086Y-1189054D01*
G54D12*
X1867086Y-1199054D02*
X1880420Y-1189054D01*
G54D12*
X1880420Y-1184387D02*
X1880420Y-1176387D01*
X1878753Y-1177387D01*
X1876253Y-1179387D01*
X1872920Y-1181387D01*
X1870420Y-1182387D01*
X1867086Y-1182387D01*
G54D12*
X1880420Y-1171720D02*
X1873753Y-1166720D01*
X1867086Y-1166720D01*
G54D12*
X1873753Y-1166720D02*
X1880420Y-1161720D01*
G54D12*
X1880420Y-1157053D02*
X1880420Y-1149053D01*
X1878753Y-1150053D01*
X1876253Y-1152053D01*
X1872920Y-1154053D01*
X1870420Y-1155053D01*
X1867086Y-1155053D01*
G54D11*
X98589Y-132500D02*
X100632Y-146799D01*
G54D11*
X106760Y-140670D02*
X92460Y-138628D01*
G54D11*
X86230Y-147922D02*
X91337Y-153029D01*
X92971Y-153438D01*
X94708Y-152723D01*
X95933Y-151497D01*
X96648Y-149761D01*
X96240Y-148126D01*
X91133Y-143020D01*
X89498Y-142611D01*
X87762Y-143326D01*
X86537Y-144552D01*
X85822Y-146288D01*
X86230Y-147922D01*
G54D11*
X81839Y-149250D02*
X82860Y-156399D01*
X86946Y-160485D01*
G54D11*
X82860Y-156399D02*
X75710Y-155378D01*
G54D11*
X69480Y-164672D02*
X74587Y-169779D01*
X76221Y-170188D01*
X77958Y-169473D01*
X79183Y-168247D01*
X79898Y-166511D01*
X79490Y-164876D01*
X74383Y-159770D01*
X72749Y-159361D01*
X71012Y-160076D01*
X69787Y-161302D01*
X69072Y-163038D01*
X69480Y-164672D01*
G54D12*
X356523Y-180243D02*
X343190Y-170243D01*
G54D12*
X343190Y-180243D02*
X356523Y-170243D01*
G54D12*
X351523Y-165576D02*
X356523Y-160576D01*
X343190Y-160576D01*
G54D12*
X356523Y-155909D02*
X349856Y-150909D01*
X343190Y-150909D01*
G54D12*
X349856Y-150909D02*
X356523Y-145909D01*
G54D12*
X354023Y-133242D02*
X345690Y-133242D01*
X344023Y-134242D01*
X343190Y-136242D01*
X343190Y-138242D01*
X344023Y-140242D01*
X345690Y-141242D01*
X354023Y-141242D01*
X355690Y-140242D01*
X356523Y-138242D01*
X356523Y-136242D01*
X355690Y-134242D01*
X354023Y-133242D01*
G54D12*
X605323Y-181744D02*
X591990Y-171744D01*
G54D12*
X591990Y-181744D02*
X605323Y-171744D01*
G54D12*
X591990Y-159077D02*
X591990Y-167077D01*
X592823Y-167077D01*
X594490Y-166077D01*
X599490Y-160077D01*
X601157Y-159077D01*
X602823Y-159077D01*
X604490Y-160077D01*
X605323Y-162077D01*
X605323Y-164077D01*
X604490Y-166077D01*
X602823Y-167077D01*
G54D12*
X605323Y-154410D02*
X598657Y-149410D01*
X591990Y-149410D01*
G54D12*
X598657Y-149410D02*
X605323Y-144410D01*
G54D12*
X602823Y-131743D02*
X594490Y-131743D01*
X592823Y-132743D01*
X591990Y-134743D01*
X591990Y-136743D01*
X592823Y-138743D01*
X594490Y-139743D01*
X602823Y-139743D01*
X604490Y-138743D01*
X605323Y-136743D01*
X605323Y-134743D01*
X604490Y-132743D01*
X602823Y-131743D01*
G54D12*
X855323Y-181744D02*
X841990Y-171744D01*
G54D12*
X841990Y-181744D02*
X855323Y-171744D01*
G54D12*
X852823Y-167077D02*
X854490Y-166077D01*
X855323Y-164077D01*
X855323Y-162077D01*
X854490Y-160077D01*
X852823Y-159077D01*
X851157Y-159077D01*
X849490Y-160077D01*
X848657Y-162077D01*
X847823Y-160077D01*
X846157Y-159077D01*
X844490Y-159077D01*
X842823Y-160077D01*
X841990Y-162077D01*
X841990Y-164077D01*
X842823Y-166077D01*
X844490Y-167077D01*
G54D12*
X855323Y-154410D02*
X848657Y-149410D01*
X841990Y-149410D01*
G54D12*
X848657Y-149410D02*
X855323Y-144410D01*
G54D12*
X852823Y-131743D02*
X844490Y-131743D01*
X842823Y-132743D01*
X841990Y-134743D01*
X841990Y-136743D01*
X842823Y-138743D01*
X844490Y-139743D01*
X852823Y-139743D01*
X854490Y-138743D01*
X855323Y-136743D01*
X855323Y-134743D01*
X854490Y-132743D01*
X852823Y-131743D01*
G54D12*
X1105324Y-181743D02*
X1091991Y-171743D01*
G54D12*
X1091991Y-181743D02*
X1105324Y-171743D01*
G54D12*
X1091991Y-161076D02*
X1105324Y-161076D01*
X1096991Y-167076D01*
X1095324Y-167076D01*
X1095324Y-159076D01*
G54D12*
X1105324Y-154409D02*
X1098658Y-149409D01*
X1091991Y-149409D01*
G54D12*
X1098658Y-149409D02*
X1105324Y-144409D01*
G54D12*
X1102824Y-131742D02*
X1094491Y-131742D01*
X1092824Y-132742D01*
X1091991Y-134742D01*
X1091991Y-136742D01*
X1092824Y-138742D01*
X1094491Y-139742D01*
X1102824Y-139742D01*
X1104491Y-138742D01*
X1105324Y-136742D01*
X1105324Y-134742D01*
X1104491Y-132742D01*
X1102824Y-131742D01*
G54D12*
X1355324Y-181743D02*
X1341991Y-171743D01*
G54D12*
X1341991Y-181743D02*
X1355324Y-171743D01*
G54D12*
X1355324Y-159076D02*
X1355324Y-167076D01*
X1349491Y-167076D01*
X1349491Y-166076D01*
X1350324Y-164076D01*
X1350324Y-162076D01*
X1349491Y-160076D01*
X1347824Y-159076D01*
X1344491Y-159076D01*
X1342824Y-160076D01*
X1341991Y-162076D01*
X1341991Y-164076D01*
X1342824Y-166076D01*
X1344491Y-167076D01*
G54D12*
X1355324Y-154409D02*
X1348658Y-149409D01*
X1341991Y-149409D01*
G54D12*
X1348658Y-149409D02*
X1355324Y-144409D01*
G54D12*
X1352824Y-131742D02*
X1344491Y-131742D01*
X1342824Y-132742D01*
X1341991Y-134742D01*
X1341991Y-136742D01*
X1342824Y-138742D01*
X1344491Y-139742D01*
X1352824Y-139742D01*
X1354491Y-138742D01*
X1355324Y-136742D01*
X1355324Y-134742D01*
X1354491Y-132742D01*
X1352824Y-131742D01*
G54D12*
X1604583Y-182052D02*
X1591250Y-172052D01*
G54D12*
X1591250Y-182052D02*
X1604583Y-172052D01*
G54D12*
X1602083Y-159384D02*
X1603750Y-160384D01*
X1604583Y-162384D01*
X1604583Y-164384D01*
X1603750Y-166384D01*
X1602083Y-167384D01*
X1597916Y-167384D01*
X1597083Y-167384D01*
X1598750Y-164384D01*
X1598750Y-162384D01*
X1597916Y-160384D01*
X1596250Y-159384D01*
X1593750Y-159384D01*
X1592083Y-160384D01*
X1591250Y-162384D01*
X1591250Y-164384D01*
X1592083Y-166384D01*
X1593750Y-167384D01*
X1597916Y-167384D01*
G54D12*
X1604583Y-154718D02*
X1597916Y-149718D01*
X1591250Y-149718D01*
G54D12*
X1597916Y-149718D02*
X1604583Y-144718D01*
G54D12*
X1602083Y-132050D02*
X1593750Y-132050D01*
X1592083Y-133050D01*
X1591250Y-135050D01*
X1591250Y-137050D01*
X1592083Y-139050D01*
X1593750Y-140050D01*
X1602083Y-140050D01*
X1603750Y-139050D01*
X1604583Y-137050D01*
X1604583Y-135050D01*
X1603750Y-133050D01*
X1602083Y-132050D01*
G54D12*
X1853843Y-183944D02*
X1840510Y-173944D01*
G54D12*
X1840510Y-183944D02*
X1853843Y-173944D01*
G54D12*
X1853843Y-169276D02*
X1853843Y-161276D01*
X1852176Y-162276D01*
X1849676Y-164276D01*
X1846343Y-166276D01*
X1843843Y-167276D01*
X1840510Y-167276D01*
G54D12*
X1853843Y-156610D02*
X1847176Y-151610D01*
X1840510Y-151610D01*
G54D12*
X1847176Y-151610D02*
X1853843Y-146610D01*
G54D12*
X1851343Y-133942D02*
X1843010Y-133942D01*
X1841343Y-134942D01*
X1840510Y-136942D01*
X1840510Y-138942D01*
X1841343Y-140942D01*
X1843010Y-141942D01*
X1851343Y-141942D01*
X1853010Y-140942D01*
X1853843Y-138942D01*
X1853843Y-136942D01*
X1853010Y-134942D01*
X1851343Y-133942D01*
G54D12*
X124664Y-357030D02*
X111330Y-347030D01*
G54D12*
X111330Y-357030D02*
X124664Y-347030D01*
G54D12*
X122164Y-334362D02*
X113830Y-334362D01*
X112164Y-335362D01*
X111330Y-337362D01*
X111330Y-339362D01*
X112164Y-341362D01*
X113830Y-342362D01*
X122164Y-342362D01*
X123830Y-341362D01*
X124664Y-339362D01*
X124664Y-337362D01*
X123830Y-335362D01*
X122164Y-334362D01*
G54D12*
X124664Y-329696D02*
X117997Y-324696D01*
X111330Y-324696D01*
G54D12*
X117997Y-324696D02*
X124664Y-319696D01*
G54D12*
X119664Y-315028D02*
X124664Y-310028D01*
X111330Y-310028D01*
G54D12*
X381426Y-354742D02*
X368093Y-344742D01*
G54D12*
X368093Y-354742D02*
X381426Y-344742D01*
G54D12*
X376426Y-340075D02*
X381426Y-335075D01*
X368093Y-335075D01*
G54D12*
X381426Y-330408D02*
X374760Y-325408D01*
X368093Y-325408D01*
G54D12*
X374760Y-325408D02*
X381426Y-320408D01*
G54D12*
X376426Y-315741D02*
X381426Y-310741D01*
X368093Y-310741D01*
G54D12*
X630226Y-356244D02*
X616893Y-346244D01*
G54D12*
X616893Y-356244D02*
X630226Y-346244D01*
G54D12*
X616893Y-333576D02*
X616893Y-341576D01*
X617726Y-341576D01*
X619393Y-340576D01*
X624393Y-334576D01*
X626060Y-333576D01*
X627726Y-333576D01*
X629393Y-334576D01*
X630226Y-336576D01*
X630226Y-338576D01*
X629393Y-340576D01*
X627726Y-341576D01*
G54D12*
X630226Y-328910D02*
X623560Y-323910D01*
X616893Y-323910D01*
G54D12*
X623560Y-323910D02*
X630226Y-318910D01*
G54D12*
X625226Y-314242D02*
X630226Y-309242D01*
X616893Y-309242D01*
G54D12*
X880226Y-356244D02*
X866893Y-346244D01*
G54D12*
X866893Y-356244D02*
X880226Y-346244D01*
G54D12*
X877726Y-341576D02*
X879393Y-340576D01*
X880226Y-338576D01*
X880226Y-336576D01*
X879393Y-334576D01*
X877726Y-333576D01*
X876060Y-333576D01*
X874393Y-334576D01*
X873560Y-336576D01*
X872726Y-334576D01*
X871060Y-333576D01*
X869393Y-333576D01*
X867726Y-334576D01*
X866893Y-336576D01*
X866893Y-338576D01*
X867726Y-340576D01*
X869393Y-341576D01*
G54D12*
X880226Y-328910D02*
X873560Y-323910D01*
X866893Y-323910D01*
G54D12*
X873560Y-323910D02*
X880226Y-318910D01*
G54D12*
X875226Y-314242D02*
X880226Y-309242D01*
X866893Y-309242D01*
G54D12*
X1130226Y-356244D02*
X1116892Y-346244D01*
G54D12*
X1116892Y-356244D02*
X1130226Y-346244D01*
G54D12*
X1116892Y-335576D02*
X1130226Y-335576D01*
X1121892Y-341576D01*
X1120226Y-341576D01*
X1120226Y-333576D01*
G54D12*
X1130226Y-328910D02*
X1123559Y-323910D01*
X1116892Y-323910D01*
G54D12*
X1123559Y-323910D02*
X1130226Y-318910D01*
G54D12*
X1125226Y-314242D02*
X1130226Y-309242D01*
X1116892Y-309242D01*
G54D12*
X1380226Y-356244D02*
X1366893Y-346244D01*
G54D12*
X1366893Y-356244D02*
X1380226Y-346244D01*
G54D12*
X1380226Y-333576D02*
X1380226Y-341576D01*
X1374393Y-341576D01*
X1374393Y-340576D01*
X1375226Y-338576D01*
X1375226Y-336576D01*
X1374393Y-334576D01*
X1372726Y-333576D01*
X1369393Y-333576D01*
X1367726Y-334576D01*
X1366893Y-336576D01*
X1366893Y-338576D01*
X1367726Y-340576D01*
X1369393Y-341576D01*
G54D12*
X1380226Y-328910D02*
X1373560Y-323910D01*
X1366893Y-323910D01*
G54D12*
X1373560Y-323910D02*
X1380226Y-318910D01*
G54D12*
X1375226Y-314242D02*
X1380226Y-309242D01*
X1366893Y-309242D01*
G54D12*
X1630211Y-356250D02*
X1616877Y-346250D01*
G54D12*
X1616877Y-356250D02*
X1630211Y-346250D01*
G54D12*
X1627711Y-333584D02*
X1629377Y-334584D01*
X1630211Y-336584D01*
X1630211Y-338584D01*
X1629377Y-340584D01*
X1627711Y-341584D01*
X1623544Y-341584D01*
X1622711Y-341584D01*
X1624377Y-338584D01*
X1624377Y-336584D01*
X1623544Y-334584D01*
X1621877Y-333584D01*
X1619377Y-333584D01*
X1617711Y-334584D01*
X1616877Y-336584D01*
X1616877Y-338584D01*
X1617711Y-340584D01*
X1619377Y-341584D01*
X1623544Y-341584D01*
G54D12*
X1630211Y-328916D02*
X1623544Y-323916D01*
X1616877Y-323916D01*
G54D12*
X1623544Y-323916D02*
X1630211Y-318916D01*
G54D12*
X1625211Y-314250D02*
X1630211Y-309250D01*
X1616877Y-309250D01*
G54D12*
X1880206Y-356247D02*
X1866873Y-346247D01*
G54D12*
X1866873Y-356247D02*
X1880206Y-346247D01*
G54D12*
X1880206Y-341580D02*
X1880206Y-333580D01*
X1878540Y-334580D01*
X1876040Y-336580D01*
X1872706Y-338580D01*
X1870206Y-339580D01*
X1866873Y-339580D01*
G54D12*
X1880206Y-328913D02*
X1873540Y-323913D01*
X1866873Y-323913D01*
G54D12*
X1873540Y-323913D02*
X1880206Y-318913D01*
G54D12*
X1875206Y-314246D02*
X1880206Y-309246D01*
X1866873Y-309246D01*
G54D12*
X147733Y-562682D02*
X134400Y-552682D01*
G54D12*
X134400Y-562682D02*
X147733Y-552682D01*
G54D12*
X145233Y-540015D02*
X136900Y-540015D01*
X135233Y-541015D01*
X134400Y-543015D01*
X134400Y-545015D01*
X135233Y-547015D01*
X136900Y-548015D01*
X145233Y-548015D01*
X146900Y-547015D01*
X147733Y-545015D01*
X147733Y-543015D01*
X146900Y-541015D01*
X145233Y-540015D01*
G54D12*
X147733Y-535348D02*
X141067Y-530348D01*
X134400Y-530348D01*
G54D12*
X141067Y-530348D02*
X147733Y-525348D01*
G54D12*
X134400Y-512681D02*
X134400Y-520681D01*
X135233Y-520681D01*
X136900Y-519681D01*
X141900Y-513681D01*
X143567Y-512681D01*
X145233Y-512681D01*
X146900Y-513681D01*
X147733Y-515681D01*
X147733Y-517681D01*
X146900Y-519681D01*
X145233Y-520681D01*
G54D12*
X388220Y-599682D02*
X374887Y-589682D01*
G54D12*
X374887Y-599682D02*
X388220Y-589682D01*
G54D12*
X383220Y-585015D02*
X388220Y-580015D01*
X374887Y-580015D01*
G54D12*
X388220Y-575348D02*
X381554Y-570348D01*
X374887Y-570348D01*
G54D12*
X381554Y-570348D02*
X388220Y-565348D01*
G54D12*
X374887Y-552681D02*
X374887Y-560681D01*
X375720Y-560681D01*
X377387Y-559681D01*
X382387Y-553681D01*
X384054Y-552681D01*
X385720Y-552681D01*
X387387Y-553681D01*
X388220Y-555681D01*
X388220Y-557681D01*
X387387Y-559681D01*
X385720Y-560681D01*
G54D12*
X637020Y-601183D02*
X623687Y-591183D01*
G54D12*
X623687Y-601183D02*
X637020Y-591183D01*
G54D12*
X623687Y-578516D02*
X623687Y-586516D01*
X624520Y-586516D01*
X626187Y-585516D01*
X631187Y-579516D01*
X632853Y-578516D01*
X634520Y-578516D01*
X636187Y-579516D01*
X637020Y-581516D01*
X637020Y-583516D01*
X636187Y-585516D01*
X634520Y-586516D01*
G54D12*
X637020Y-573849D02*
X630353Y-568849D01*
X623687Y-568849D01*
G54D12*
X630353Y-568849D02*
X637020Y-563849D01*
G54D12*
X623687Y-551182D02*
X623687Y-559182D01*
X624520Y-559182D01*
X626187Y-558182D01*
X631187Y-552182D01*
X632853Y-551182D01*
X634520Y-551182D01*
X636187Y-552182D01*
X637020Y-554182D01*
X637020Y-556182D01*
X636187Y-558182D01*
X634520Y-559182D01*
G54D12*
X885432Y-599596D02*
X872099Y-589596D01*
G54D12*
X872099Y-599596D02*
X885432Y-589596D01*
G54D12*
X882932Y-584928D02*
X884599Y-583928D01*
X885432Y-581928D01*
X885432Y-579928D01*
X884599Y-577928D01*
X882932Y-576928D01*
X881266Y-576928D01*
X879599Y-577928D01*
X878766Y-579928D01*
X877932Y-577928D01*
X876266Y-576928D01*
X874599Y-576928D01*
X872932Y-577928D01*
X872099Y-579928D01*
X872099Y-581928D01*
X872932Y-583928D01*
X874599Y-584928D01*
G54D12*
X885432Y-572262D02*
X878766Y-567262D01*
X872099Y-567262D01*
G54D12*
X878766Y-567262D02*
X885432Y-562262D01*
G54D12*
X872099Y-549594D02*
X872099Y-557594D01*
X872932Y-557594D01*
X874599Y-556594D01*
X879599Y-550594D01*
X881266Y-549594D01*
X882932Y-549594D01*
X884599Y-550594D01*
X885432Y-552594D01*
X885432Y-554594D01*
X884599Y-556594D01*
X882932Y-557594D01*
G54D12*
X1137020Y-596420D02*
X1123687Y-586420D01*
G54D12*
X1123687Y-596420D02*
X1137020Y-586420D01*
G54D12*
X1123687Y-575754D02*
X1137020Y-575754D01*
X1128687Y-581754D01*
X1127020Y-581754D01*
X1127020Y-573754D01*
G54D12*
X1137020Y-569086D02*
X1130353Y-564086D01*
X1123687Y-564086D01*
G54D12*
X1130353Y-564086D02*
X1137020Y-559086D01*
G54D12*
X1123687Y-546420D02*
X1123687Y-554420D01*
X1124520Y-554420D01*
X1126187Y-553420D01*
X1131187Y-547420D01*
X1132853Y-546420D01*
X1134520Y-546420D01*
X1136187Y-547420D01*
X1137020Y-549420D01*
X1137020Y-551420D01*
X1136187Y-553420D01*
X1134520Y-554420D01*
G54D12*
X1385432Y-598008D02*
X1372099Y-588008D01*
G54D12*
X1372099Y-598008D02*
X1385432Y-588008D01*
G54D12*
X1385432Y-575341D02*
X1385432Y-583341D01*
X1379599Y-583341D01*
X1379599Y-582341D01*
X1380432Y-580341D01*
X1380432Y-578341D01*
X1379599Y-576341D01*
X1377932Y-575341D01*
X1374599Y-575341D01*
X1372932Y-576341D01*
X1372099Y-578341D01*
X1372099Y-580341D01*
X1372932Y-582341D01*
X1374599Y-583341D01*
G54D12*
X1385432Y-570674D02*
X1378766Y-565674D01*
X1372099Y-565674D01*
G54D12*
X1378766Y-565674D02*
X1385432Y-560674D01*
G54D12*
X1372099Y-548007D02*
X1372099Y-556007D01*
X1372932Y-556007D01*
X1374599Y-555007D01*
X1379599Y-549007D01*
X1381266Y-548007D01*
X1382932Y-548007D01*
X1384599Y-549007D01*
X1385432Y-551007D01*
X1385432Y-553007D01*
X1384599Y-555007D01*
X1382932Y-556007D01*
G54D12*
X1637020Y-598008D02*
X1623687Y-588008D01*
G54D12*
X1623687Y-598008D02*
X1637020Y-588008D01*
G54D12*
X1634520Y-575341D02*
X1636187Y-576341D01*
X1637020Y-578341D01*
X1637020Y-580341D01*
X1636187Y-582341D01*
X1634520Y-583341D01*
X1630353Y-583341D01*
X1629520Y-583341D01*
X1631187Y-580341D01*
X1631187Y-578341D01*
X1630353Y-576341D01*
X1628687Y-575341D01*
X1626187Y-575341D01*
X1624520Y-576341D01*
X1623687Y-578341D01*
X1623687Y-580341D01*
X1624520Y-582341D01*
X1626187Y-583341D01*
X1630353Y-583341D01*
G54D12*
X1637020Y-570674D02*
X1630353Y-565674D01*
X1623687Y-565674D01*
G54D12*
X1630353Y-565674D02*
X1637020Y-560674D01*
G54D12*
X1623687Y-548007D02*
X1623687Y-556007D01*
X1624520Y-556007D01*
X1626187Y-555007D01*
X1631187Y-549007D01*
X1632853Y-548007D01*
X1634520Y-548007D01*
X1636187Y-549007D01*
X1637020Y-551007D01*
X1637020Y-553007D01*
X1636187Y-555007D01*
X1634520Y-556007D01*
G54D12*
X1885432Y-598008D02*
X1872099Y-588008D01*
G54D12*
X1872099Y-598008D02*
X1885432Y-588008D01*
G54D12*
X1885432Y-583341D02*
X1885432Y-575341D01*
X1883766Y-576341D01*
X1881266Y-578341D01*
X1877932Y-580341D01*
X1875432Y-581341D01*
X1872099Y-581341D01*
G54D12*
X1885432Y-570674D02*
X1878766Y-565674D01*
X1872099Y-565674D01*
G54D12*
X1878766Y-565674D02*
X1885432Y-560674D01*
G54D12*
X1872099Y-548007D02*
X1872099Y-556007D01*
X1872932Y-556007D01*
X1874599Y-555007D01*
X1879599Y-549007D01*
X1881266Y-548007D01*
X1882932Y-548007D01*
X1884599Y-549007D01*
X1885432Y-551007D01*
X1885432Y-553007D01*
X1884599Y-555007D01*
X1882932Y-556007D01*
G54D12*
X100956Y-899923D02*
X87622Y-889923D01*
G54D12*
X87622Y-899923D02*
X100956Y-889923D01*
G54D12*
X98456Y-877256D02*
X90122Y-877256D01*
X88456Y-878256D01*
X87622Y-880256D01*
X87622Y-882256D01*
X88456Y-884256D01*
X90122Y-885256D01*
X98456Y-885256D01*
X100122Y-884256D01*
X100956Y-882256D01*
X100956Y-880256D01*
X100122Y-878256D01*
X98456Y-877256D01*
G54D12*
X100956Y-872589D02*
X94289Y-867589D01*
X87622Y-867589D01*
G54D12*
X94289Y-867589D02*
X100956Y-862589D01*
G54D12*
X98456Y-857922D02*
X100122Y-856922D01*
X100956Y-854922D01*
X100956Y-852922D01*
X100122Y-850922D01*
X98456Y-849922D01*
X96789Y-849922D01*
X95122Y-850922D01*
X94289Y-852922D01*
X93456Y-850922D01*
X91789Y-849922D01*
X90122Y-849922D01*
X88456Y-850922D01*
X87622Y-852922D01*
X87622Y-854922D01*
X88456Y-856922D01*
X90122Y-857922D01*
G54D12*
X1862323Y-895039D02*
X1864680Y-911538D01*
G54D12*
X1871751Y-904467D02*
X1855252Y-902110D01*
G54D12*
X1851952Y-905410D02*
X1846295Y-911067D01*
X1848180Y-911538D01*
X1851362Y-911892D01*
X1855134Y-912834D01*
X1857608Y-913895D01*
X1859965Y-916252D01*
G54D12*
X1842995Y-914367D02*
X1844173Y-922616D01*
X1848887Y-927330D01*
G54D12*
X1844173Y-922616D02*
X1835924Y-921438D01*
G54D12*
X1834391Y-926506D02*
X1832506Y-926034D01*
X1830502Y-926860D01*
X1829088Y-928274D01*
X1828263Y-930277D01*
X1828734Y-932163D01*
X1829913Y-933341D01*
X1831798Y-933812D01*
X1833802Y-932988D01*
X1832977Y-934991D01*
X1833448Y-936877D01*
X1834627Y-938055D01*
X1836513Y-938526D01*
X1838516Y-937702D01*
X1839930Y-936288D01*
X1840755Y-934284D01*
X1840284Y-932398D01*
G54D12*
X130508Y-1200257D02*
X117174Y-1190257D01*
G54D12*
X117174Y-1200257D02*
X130508Y-1190257D01*
G54D12*
X128008Y-1177590D02*
X119674Y-1177590D01*
X118008Y-1178590D01*
X117174Y-1180590D01*
X117174Y-1182590D01*
X118008Y-1184590D01*
X119674Y-1185590D01*
X128008Y-1185590D01*
X129674Y-1184590D01*
X130508Y-1182590D01*
X130508Y-1180590D01*
X129674Y-1178590D01*
X128008Y-1177590D01*
G54D12*
X130508Y-1172923D02*
X123841Y-1167923D01*
X117174Y-1167923D01*
G54D12*
X123841Y-1167923D02*
X130508Y-1162923D01*
G54D12*
X117174Y-1152256D02*
X130508Y-1152256D01*
X122174Y-1158256D01*
X120508Y-1158256D01*
X120508Y-1150256D01*
G54D12*
X381707Y-1198757D02*
X368374Y-1188757D01*
G54D12*
X368374Y-1198757D02*
X381707Y-1188757D01*
G54D12*
X376707Y-1184090D02*
X381707Y-1179090D01*
X368374Y-1179090D01*
G54D12*
X381707Y-1174423D02*
X375041Y-1169423D01*
X368374Y-1169423D01*
G54D12*
X375041Y-1169423D02*
X381707Y-1164423D01*
G54D12*
X368374Y-1153756D02*
X381707Y-1153756D01*
X373374Y-1159756D01*
X371707Y-1159756D01*
X371707Y-1151756D01*
G54D12*
X630508Y-1200257D02*
X617174Y-1190257D01*
G54D12*
X617174Y-1200257D02*
X630508Y-1190257D01*
G54D12*
X617174Y-1177590D02*
X617174Y-1185590D01*
X618008Y-1185590D01*
X619674Y-1184590D01*
X624674Y-1178590D01*
X626341Y-1177590D01*
X628008Y-1177590D01*
X629674Y-1178590D01*
X630508Y-1180590D01*
X630508Y-1182590D01*
X629674Y-1184590D01*
X628008Y-1185590D01*
G54D12*
X630508Y-1172923D02*
X623841Y-1167923D01*
X617174Y-1167923D01*
G54D12*
X623841Y-1167923D02*
X630508Y-1162923D01*
G54D12*
X617174Y-1152256D02*
X630508Y-1152256D01*
X622174Y-1158256D01*
X620508Y-1158256D01*
X620508Y-1150256D01*
G54D12*
X880508Y-1200257D02*
X867174Y-1190257D01*
G54D12*
X867174Y-1200257D02*
X880508Y-1190257D01*
G54D12*
X878008Y-1185590D02*
X879674Y-1184590D01*
X880508Y-1182590D01*
X880508Y-1180590D01*
X879674Y-1178590D01*
X878008Y-1177590D01*
X876341Y-1177590D01*
X874674Y-1178590D01*
X873841Y-1180590D01*
X873008Y-1178590D01*
X871341Y-1177590D01*
X869674Y-1177590D01*
X868008Y-1178590D01*
X867174Y-1180590D01*
X867174Y-1182590D01*
X868008Y-1184590D01*
X869674Y-1185590D01*
G54D12*
X880508Y-1172923D02*
X873841Y-1167923D01*
X867174Y-1167923D01*
G54D12*
X873841Y-1167923D02*
X880508Y-1162923D01*
G54D12*
X867174Y-1152256D02*
X880508Y-1152256D01*
X872174Y-1158256D01*
X870508Y-1158256D01*
X870508Y-1150256D01*
G54D12*
X1130507Y-1200257D02*
X1117174Y-1190257D01*
G54D12*
X1117174Y-1200257D02*
X1130507Y-1190257D01*
G54D12*
X1117174Y-1179590D02*
X1130507Y-1179590D01*
X1122174Y-1185590D01*
X1120507Y-1185590D01*
X1120507Y-1177590D01*
G54D12*
X1130507Y-1172923D02*
X1123841Y-1167923D01*
X1117174Y-1167923D01*
G54D12*
X1123841Y-1167923D02*
X1130507Y-1162923D01*
G54D12*
X1117174Y-1152256D02*
X1130507Y-1152256D01*
X1122174Y-1158256D01*
X1120507Y-1158256D01*
X1120507Y-1150256D01*
G54D12*
X1459883Y-1149457D02*
X1446550Y-1139457D01*
G54D12*
X1446550Y-1149457D02*
X1459883Y-1139457D01*
G54D12*
X1459883Y-1126790D02*
X1459883Y-1134790D01*
X1454050Y-1134790D01*
X1454050Y-1133790D01*
X1454883Y-1131790D01*
X1454883Y-1129790D01*
X1454050Y-1127790D01*
X1452383Y-1126790D01*
X1449050Y-1126790D01*
X1447383Y-1127790D01*
X1446550Y-1129790D01*
X1446550Y-1131790D01*
X1447383Y-1133790D01*
X1449050Y-1134790D01*
G54D12*
X1459883Y-1122123D02*
X1453216Y-1117123D01*
X1446550Y-1117123D01*
G54D12*
X1453216Y-1117123D02*
X1459883Y-1112123D01*
G54D12*
X1446550Y-1101456D02*
X1459883Y-1101456D01*
X1451550Y-1107456D01*
X1449883Y-1107456D01*
X1449883Y-1099456D01*
G54D12*
X1706708Y-1127232D02*
X1693374Y-1117232D01*
G54D12*
X1693374Y-1127232D02*
X1706708Y-1117232D01*
G54D12*
X1704208Y-1104565D02*
X1705874Y-1105565D01*
X1706708Y-1107565D01*
X1706708Y-1109565D01*
X1705874Y-1111565D01*
X1704208Y-1112565D01*
X1700041Y-1112565D01*
X1699208Y-1112565D01*
X1700874Y-1109565D01*
X1700874Y-1107565D01*
X1700041Y-1105565D01*
X1698374Y-1104565D01*
X1695874Y-1104565D01*
X1694208Y-1105565D01*
X1693374Y-1107565D01*
X1693374Y-1109565D01*
X1694208Y-1111565D01*
X1695874Y-1112565D01*
X1700041Y-1112565D01*
G54D12*
X1706708Y-1099898D02*
X1700041Y-1094898D01*
X1693374Y-1094898D01*
G54D12*
X1700041Y-1094898D02*
X1706708Y-1089898D01*
G54D12*
X1693374Y-1079231D02*
X1706708Y-1079231D01*
X1698374Y-1085231D01*
X1696708Y-1085231D01*
X1696708Y-1077231D01*
G54D12*
X131590Y-1453324D02*
X118256Y-1443324D01*
G54D12*
X118257Y-1453324D02*
X131590Y-1443324D01*
G54D12*
X129090Y-1430658D02*
X120757Y-1430658D01*
X119090Y-1431658D01*
X118256Y-1433658D01*
X118257Y-1435658D01*
X119090Y-1437658D01*
X120756Y-1438658D01*
X129090Y-1438658D01*
X130756Y-1437658D01*
X131590Y-1435658D01*
X131590Y-1433658D01*
X130757Y-1431658D01*
X129090Y-1430658D01*
G54D12*
X131590Y-1425990D02*
X124923Y-1420990D01*
X118257Y-1420990D01*
G54D12*
X124923Y-1420990D02*
X131590Y-1415990D01*
G54D12*
X131590Y-1403324D02*
X131590Y-1411324D01*
X125757Y-1411324D01*
X125757Y-1410324D01*
X126590Y-1408324D01*
X126590Y-1406324D01*
X125757Y-1404324D01*
X124090Y-1403324D01*
X120756Y-1403324D01*
X119090Y-1404324D01*
X118257Y-1406324D01*
X118256Y-1408324D01*
X119090Y-1410324D01*
X120757Y-1411324D01*
G54D12*
X382790Y-1451824D02*
X369457Y-1441824D01*
G54D12*
X369457Y-1451824D02*
X382790Y-1441824D01*
G54D12*
X377790Y-1437158D02*
X382790Y-1432158D01*
X369457Y-1432158D01*
G54D12*
X382790Y-1427490D02*
X376124Y-1422490D01*
X369457Y-1422490D01*
G54D12*
X376124Y-1422490D02*
X382790Y-1417490D01*
G54D12*
X382790Y-1404824D02*
X382790Y-1412824D01*
X376957Y-1412824D01*
X376957Y-1411824D01*
X377790Y-1409824D01*
X377790Y-1407824D01*
X376957Y-1405824D01*
X375290Y-1404824D01*
X371957Y-1404824D01*
X370290Y-1405824D01*
X369457Y-1407824D01*
X369457Y-1409824D01*
X370290Y-1411824D01*
X371957Y-1412824D01*
G54D12*
X631590Y-1453324D02*
X618256Y-1443324D01*
G54D12*
X618256Y-1453324D02*
X631590Y-1443324D01*
G54D12*
X618256Y-1430658D02*
X618256Y-1438658D01*
X619090Y-1438658D01*
X620756Y-1437658D01*
X625756Y-1431658D01*
X627423Y-1430658D01*
X629090Y-1430658D01*
X630757Y-1431658D01*
X631590Y-1433658D01*
X631590Y-1435658D01*
X630756Y-1437658D01*
X629090Y-1438658D01*
G54D12*
X631590Y-1425990D02*
X624923Y-1420990D01*
X618257Y-1420990D01*
G54D12*
X624923Y-1420990D02*
X631590Y-1415990D01*
G54D12*
X631590Y-1403324D02*
X631590Y-1411324D01*
X625756Y-1411324D01*
X625756Y-1410324D01*
X626590Y-1408324D01*
X626590Y-1406324D01*
X625756Y-1404324D01*
X624090Y-1403324D01*
X620756Y-1403324D01*
X619090Y-1404324D01*
X618257Y-1406324D01*
X618256Y-1408324D01*
X619090Y-1410324D01*
X620756Y-1411324D01*
G54D12*
X881590Y-1453324D02*
X868256Y-1443324D01*
G54D12*
X868256Y-1453324D02*
X881590Y-1443324D01*
G54D12*
X879090Y-1438658D02*
X880756Y-1437658D01*
X881590Y-1435658D01*
X881590Y-1433658D01*
X880757Y-1431658D01*
X879090Y-1430658D01*
X877423Y-1430658D01*
X875756Y-1431658D01*
X874923Y-1433658D01*
X874090Y-1431658D01*
X872423Y-1430658D01*
X870756Y-1430658D01*
X869090Y-1431658D01*
X868256Y-1433658D01*
X868257Y-1435658D01*
X869090Y-1437658D01*
X870756Y-1438658D01*
G54D12*
X881590Y-1425990D02*
X874923Y-1420990D01*
X868257Y-1420990D01*
G54D12*
X874923Y-1420990D02*
X881590Y-1415990D01*
G54D12*
X881590Y-1403324D02*
X881590Y-1411324D01*
X875756Y-1411324D01*
X875756Y-1410324D01*
X876590Y-1408324D01*
X876590Y-1406324D01*
X875756Y-1404324D01*
X874090Y-1403324D01*
X870756Y-1403324D01*
X869090Y-1404324D01*
X868257Y-1406324D01*
X868256Y-1408324D01*
X869090Y-1410324D01*
X870756Y-1411324D01*
G54D12*
X1131306Y-1453976D02*
X1117973Y-1443976D01*
G54D12*
X1117973Y-1453976D02*
X1131306Y-1443976D01*
G54D12*
X1117973Y-1433310D02*
X1131306Y-1433310D01*
X1122973Y-1439309D01*
X1121306Y-1439309D01*
X1121306Y-1431310D01*
G54D12*
X1131306Y-1426642D02*
X1124640Y-1421642D01*
X1117973Y-1421642D01*
G54D12*
X1124640Y-1421642D02*
X1131306Y-1416642D01*
G54D12*
X1131306Y-1403976D02*
X1131306Y-1411975D01*
X1125473Y-1411975D01*
X1125473Y-1410976D01*
X1126306Y-1408976D01*
X1126306Y-1406976D01*
X1125473Y-1404976D01*
X1123806Y-1403976D01*
X1120473Y-1403975D01*
X1118806Y-1404975D01*
X1117973Y-1406976D01*
X1117973Y-1408976D01*
X1118806Y-1410975D01*
X1120473Y-1411975D01*
G54D12*
X1378415Y-1453324D02*
X1365082Y-1443324D01*
G54D12*
X1365082Y-1453324D02*
X1378415Y-1443324D01*
G54D12*
X1378415Y-1430658D02*
X1378415Y-1438658D01*
X1372582Y-1438658D01*
X1372582Y-1437658D01*
X1373415Y-1435658D01*
X1373415Y-1433658D01*
X1372582Y-1431658D01*
X1370915Y-1430658D01*
X1367582Y-1430658D01*
X1365915Y-1431658D01*
X1365082Y-1433658D01*
X1365082Y-1435658D01*
X1365915Y-1437658D01*
X1367582Y-1438658D01*
G54D12*
X1378415Y-1425990D02*
X1371748Y-1420990D01*
X1365082Y-1420990D01*
G54D12*
X1371748Y-1420990D02*
X1378415Y-1415990D01*
G54D12*
X1378415Y-1403324D02*
X1378415Y-1411324D01*
X1372582Y-1411324D01*
X1372582Y-1410324D01*
X1373415Y-1408324D01*
X1373415Y-1406324D01*
X1372582Y-1404324D01*
X1370915Y-1403324D01*
X1367582Y-1403324D01*
X1365915Y-1404324D01*
X1365082Y-1406324D01*
X1365082Y-1408324D01*
X1365915Y-1410324D01*
X1367582Y-1411324D01*
G54D12*
X130859Y-1703914D02*
X117526Y-1693914D01*
G54D12*
X117526Y-1703914D02*
X130859Y-1693914D01*
G54D12*
X128359Y-1681246D02*
X120026Y-1681247D01*
X118359Y-1682247D01*
X117526Y-1684247D01*
X117526Y-1686246D01*
X118359Y-1688247D01*
X120026Y-1689247D01*
X128359Y-1689247D01*
X130026Y-1688247D01*
X130859Y-1686247D01*
X130859Y-1684247D01*
X130026Y-1682246D01*
X128359Y-1681246D01*
G54D12*
X130859Y-1676580D02*
X124192Y-1671580D01*
X117526Y-1671580D01*
G54D12*
X124192Y-1671580D02*
X130859Y-1666580D01*
G54D12*
X128359Y-1653913D02*
X130026Y-1654913D01*
X130859Y-1656912D01*
X130859Y-1658913D01*
X130026Y-1660913D01*
X128359Y-1661913D01*
X124192Y-1661912D01*
X123359Y-1661913D01*
X125026Y-1658913D01*
X125026Y-1656913D01*
X124192Y-1654912D01*
X122526Y-1653912D01*
X120026Y-1653913D01*
X118359Y-1654912D01*
X117526Y-1656913D01*
X117526Y-1658913D01*
X118359Y-1660912D01*
X120026Y-1661912D01*
X124192Y-1661912D01*
G54D12*
X381402Y-1702686D02*
X368069Y-1692686D01*
G54D12*
X368069Y-1702686D02*
X381402Y-1692686D01*
G54D12*
X376402Y-1688018D02*
X381402Y-1683018D01*
X368069Y-1683018D01*
G54D12*
X381402Y-1678352D02*
X374736Y-1673352D01*
X368069Y-1673352D01*
G54D12*
X374736Y-1673352D02*
X381402Y-1668352D01*
G54D12*
X378902Y-1655684D02*
X380569Y-1656684D01*
X381402Y-1658684D01*
X381402Y-1660684D01*
X380569Y-1662684D01*
X378902Y-1663684D01*
X374736Y-1663684D01*
X373902Y-1663684D01*
X375569Y-1660684D01*
X375569Y-1658684D01*
X374736Y-1656684D01*
X373069Y-1655684D01*
X370569Y-1655684D01*
X368902Y-1656684D01*
X368069Y-1658684D01*
X368069Y-1660684D01*
X368902Y-1662684D01*
X370569Y-1663684D01*
X374736Y-1663684D01*
G54D12*
X630202Y-1704186D02*
X616869Y-1694186D01*
G54D12*
X616869Y-1704186D02*
X630202Y-1694186D01*
G54D12*
X616869Y-1681518D02*
X616869Y-1689518D01*
X617702Y-1689518D01*
X619369Y-1688518D01*
X624369Y-1682518D01*
X626036Y-1681518D01*
X627702Y-1681518D01*
X629369Y-1682518D01*
X630202Y-1684518D01*
X630202Y-1686518D01*
X629369Y-1688518D01*
X627702Y-1689518D01*
G54D12*
X630202Y-1676852D02*
X623536Y-1671852D01*
X616869Y-1671852D01*
G54D12*
X623536Y-1671852D02*
X630202Y-1666852D01*
G54D12*
X627702Y-1654184D02*
X619369Y-1654184D01*
X617702Y-1655184D01*
X616869Y-1657184D01*
X616869Y-1659184D01*
X617702Y-1661184D01*
X619369Y-1662184D01*
X627702Y-1662184D01*
X629369Y-1661184D01*
X630202Y-1659184D01*
X630202Y-1657184D01*
X629369Y-1655184D01*
X627702Y-1654184D01*
G54D12*
X880202Y-1704186D02*
X866869Y-1694186D01*
G54D12*
X866869Y-1704186D02*
X880202Y-1694186D01*
G54D12*
X877702Y-1689518D02*
X879369Y-1688518D01*
X880202Y-1686518D01*
X880202Y-1684518D01*
X879369Y-1682518D01*
X877702Y-1681518D01*
X876036Y-1681518D01*
X874369Y-1682518D01*
X873536Y-1684518D01*
X872702Y-1682518D01*
X871036Y-1681518D01*
X869369Y-1681518D01*
X867702Y-1682518D01*
X866869Y-1684518D01*
X866869Y-1686518D01*
X867702Y-1688518D01*
X869369Y-1689518D01*
G54D12*
X880202Y-1676852D02*
X873536Y-1671852D01*
X866869Y-1671852D01*
G54D12*
X873536Y-1671852D02*
X880202Y-1666852D01*
G54D12*
X877702Y-1654184D02*
X879369Y-1655184D01*
X880202Y-1657184D01*
X880202Y-1659184D01*
X879369Y-1661184D01*
X877702Y-1662184D01*
X873536Y-1662184D01*
X872702Y-1662184D01*
X874369Y-1659184D01*
X874369Y-1657184D01*
X873536Y-1655184D01*
X871869Y-1654184D01*
X869369Y-1654184D01*
X867702Y-1655184D01*
X866869Y-1657184D01*
X866869Y-1659184D01*
X867702Y-1661184D01*
X869369Y-1662184D01*
X873536Y-1662184D01*
G54D12*
X1130202Y-1704186D02*
X1116869Y-1694186D01*
G54D12*
X1116869Y-1704186D02*
X1130202Y-1694186D01*
G54D12*
X1116869Y-1683518D02*
X1130202Y-1683518D01*
X1121869Y-1689518D01*
X1120202Y-1689518D01*
X1120202Y-1681518D01*
G54D12*
X1130202Y-1676852D02*
X1123536Y-1671852D01*
X1116869Y-1671852D01*
G54D12*
X1123536Y-1671852D02*
X1130202Y-1666852D01*
G54D12*
X1127702Y-1654184D02*
X1129369Y-1655184D01*
X1130202Y-1657184D01*
X1130202Y-1659184D01*
X1129369Y-1661184D01*
X1127702Y-1662184D01*
X1123536Y-1662184D01*
X1122702Y-1662184D01*
X1124369Y-1659184D01*
X1124369Y-1657184D01*
X1123536Y-1655184D01*
X1121869Y-1654184D01*
X1119369Y-1654184D01*
X1117702Y-1655184D01*
X1116869Y-1657184D01*
X1116869Y-1659184D01*
X1117702Y-1661184D01*
X1119369Y-1662184D01*
X1123536Y-1662184D01*
G54D12*
X1380202Y-1704186D02*
X1366869Y-1694186D01*
G54D12*
X1366869Y-1704186D02*
X1380202Y-1694186D01*
G54D12*
X1380202Y-1681518D02*
X1380202Y-1689518D01*
X1374369Y-1689518D01*
X1374369Y-1688518D01*
X1375202Y-1686518D01*
X1375202Y-1684518D01*
X1374369Y-1682518D01*
X1372702Y-1681518D01*
X1369369Y-1681518D01*
X1367702Y-1682518D01*
X1366869Y-1684518D01*
X1366869Y-1686518D01*
X1367702Y-1688518D01*
X1369369Y-1689518D01*
G54D12*
X1380202Y-1676852D02*
X1373536Y-1671852D01*
X1366869Y-1671852D01*
G54D12*
X1373536Y-1671852D02*
X1380202Y-1666852D01*
G54D12*
X1377702Y-1654184D02*
X1379369Y-1655184D01*
X1380202Y-1657184D01*
X1380202Y-1659184D01*
X1379369Y-1661184D01*
X1377702Y-1662184D01*
X1373536Y-1662184D01*
X1372702Y-1662184D01*
X1374369Y-1659184D01*
X1374369Y-1657184D01*
X1373536Y-1655184D01*
X1371869Y-1654184D01*
X1369369Y-1654184D01*
X1367702Y-1655184D01*
X1366869Y-1657184D01*
X1366869Y-1659184D01*
X1367702Y-1661184D01*
X1369369Y-1662184D01*
X1373536Y-1662184D01*
G54D12*
X1629801Y-1745060D02*
X1616468Y-1735060D01*
G54D12*
X1616468Y-1745060D02*
X1629801Y-1735060D01*
G54D12*
X1627301Y-1722394D02*
X1628968Y-1723394D01*
X1629801Y-1725394D01*
X1629801Y-1727394D01*
X1628968Y-1729394D01*
X1627301Y-1730394D01*
X1623135Y-1730394D01*
X1622301Y-1730394D01*
X1623968Y-1727394D01*
X1623968Y-1725394D01*
X1623135Y-1723394D01*
X1621468Y-1722394D01*
X1618968Y-1722394D01*
X1617301Y-1723394D01*
X1616468Y-1725394D01*
X1616468Y-1727394D01*
X1617301Y-1729394D01*
X1618968Y-1730394D01*
X1623135Y-1730394D01*
G54D12*
X1629801Y-1717726D02*
X1623135Y-1712726D01*
X1616468Y-1712726D01*
G54D12*
X1623135Y-1712726D02*
X1629801Y-1707726D01*
G54D12*
X1627301Y-1695060D02*
X1628968Y-1696060D01*
X1629801Y-1698060D01*
X1629801Y-1700060D01*
X1628968Y-1702060D01*
X1627301Y-1703060D01*
X1623135Y-1703060D01*
X1622301Y-1703060D01*
X1623968Y-1700060D01*
X1623968Y-1698060D01*
X1623135Y-1696060D01*
X1621468Y-1695060D01*
X1618968Y-1695060D01*
X1617301Y-1696060D01*
X1616468Y-1698060D01*
X1616468Y-1700060D01*
X1617301Y-1702060D01*
X1618968Y-1703060D01*
X1623135Y-1703060D01*
G54D12*
X1880202Y-1704186D02*
X1866869Y-1694186D01*
G54D12*
X1866869Y-1704186D02*
X1880202Y-1694186D01*
G54D12*
X1880202Y-1689518D02*
X1880202Y-1681518D01*
X1878536Y-1682518D01*
X1876036Y-1684518D01*
X1872702Y-1686518D01*
X1870202Y-1687518D01*
X1866869Y-1687518D01*
G54D12*
X1880202Y-1676852D02*
X1873536Y-1671852D01*
X1866869Y-1671852D01*
G54D12*
X1873536Y-1671852D02*
X1880202Y-1666852D01*
G54D12*
X1877702Y-1654184D02*
X1879369Y-1655184D01*
X1880202Y-1657184D01*
X1880202Y-1659184D01*
X1879369Y-1661184D01*
X1877702Y-1662184D01*
X1873536Y-1662184D01*
X1872702Y-1662184D01*
X1874369Y-1659184D01*
X1874369Y-1657184D01*
X1873536Y-1655184D01*
X1871869Y-1654184D01*
X1869369Y-1654184D01*
X1867702Y-1655184D01*
X1866869Y-1657184D01*
X1866869Y-1659184D01*
X1867702Y-1661184D01*
X1869369Y-1662184D01*
X1873536Y-1662184D01*
G54D12*
X161592Y-1882274D02*
X148259Y-1872274D01*
G54D12*
X148259Y-1882274D02*
X161592Y-1872274D01*
G54D12*
X159092Y-1859606D02*
X150759Y-1859606D01*
X149092Y-1860606D01*
X148259Y-1862606D01*
X148259Y-1864606D01*
X149092Y-1866606D01*
X150759Y-1867606D01*
X159092Y-1867606D01*
X160759Y-1866606D01*
X161592Y-1864606D01*
X161592Y-1862606D01*
X160759Y-1860606D01*
X159092Y-1859606D01*
G54D12*
X161592Y-1854940D02*
X154926Y-1849940D01*
X148259Y-1849940D01*
G54D12*
X154926Y-1849940D02*
X161592Y-1844940D01*
G54D12*
X161592Y-1840272D02*
X161592Y-1832272D01*
X159926Y-1833272D01*
X157426Y-1835272D01*
X154092Y-1837272D01*
X151592Y-1838272D01*
X148259Y-1838272D01*
G54D12*
X412789Y-1880772D02*
X399456Y-1870772D01*
G54D12*
X399456Y-1880772D02*
X412789Y-1870772D01*
G54D12*
X407789Y-1866104D02*
X412789Y-1861104D01*
X399456Y-1861104D01*
G54D12*
X412789Y-1856438D02*
X406122Y-1851438D01*
X399456Y-1851438D01*
G54D12*
X406122Y-1851438D02*
X412789Y-1846438D01*
G54D12*
X412789Y-1841770D02*
X412789Y-1833770D01*
X411122Y-1834770D01*
X408622Y-1836770D01*
X405289Y-1838770D01*
X402789Y-1839770D01*
X399456Y-1839770D01*
G54D12*
X661592Y-1882274D02*
X648259Y-1872274D01*
G54D12*
X648259Y-1882274D02*
X661592Y-1872274D01*
G54D12*
X648259Y-1859606D02*
X648259Y-1867606D01*
X649092Y-1867606D01*
X650759Y-1866606D01*
X655759Y-1860606D01*
X657426Y-1859606D01*
X659092Y-1859606D01*
X660759Y-1860606D01*
X661592Y-1862606D01*
X661592Y-1864606D01*
X660759Y-1866606D01*
X659092Y-1867606D01*
G54D12*
X661592Y-1854940D02*
X654926Y-1849940D01*
X648259Y-1849940D01*
G54D12*
X654926Y-1849940D02*
X661592Y-1844940D01*
G54D12*
X661592Y-1840272D02*
X661592Y-1832272D01*
X659926Y-1833272D01*
X657426Y-1835272D01*
X654092Y-1837272D01*
X651592Y-1838272D01*
X648259Y-1838272D01*
G54D12*
X911592Y-1882274D02*
X898259Y-1872274D01*
G54D12*
X898259Y-1882274D02*
X911592Y-1872274D01*
G54D12*
X909092Y-1867606D02*
X910759Y-1866606D01*
X911592Y-1864606D01*
X911592Y-1862606D01*
X910759Y-1860606D01*
X909092Y-1859606D01*
X907426Y-1859606D01*
X905759Y-1860606D01*
X904926Y-1862606D01*
X904092Y-1860606D01*
X902426Y-1859606D01*
X900759Y-1859606D01*
X899092Y-1860606D01*
X898259Y-1862606D01*
X898259Y-1864606D01*
X899092Y-1866606D01*
X900759Y-1867606D01*
G54D12*
X911592Y-1854940D02*
X904926Y-1849940D01*
X898259Y-1849940D01*
G54D12*
X904926Y-1849940D02*
X911592Y-1844940D01*
G54D12*
X911592Y-1840272D02*
X911592Y-1832272D01*
X909926Y-1833272D01*
X907426Y-1835272D01*
X904092Y-1837272D01*
X901592Y-1838272D01*
X898259Y-1838272D01*
G54D12*
X1161589Y-1882272D02*
X1148256Y-1872272D01*
G54D12*
X1148256Y-1882272D02*
X1161589Y-1872272D01*
G54D12*
X1148256Y-1861604D02*
X1161589Y-1861604D01*
X1153256Y-1867604D01*
X1151589Y-1867604D01*
X1151589Y-1859604D01*
G54D12*
X1161589Y-1854938D02*
X1154922Y-1849938D01*
X1148256Y-1849938D01*
G54D12*
X1154922Y-1849938D02*
X1161589Y-1844938D01*
G54D12*
X1161589Y-1840270D02*
X1161589Y-1832270D01*
X1159922Y-1833270D01*
X1157422Y-1835270D01*
X1154089Y-1837270D01*
X1151589Y-1838270D01*
X1148256Y-1838270D01*
G54D12*
X1351267Y-1877511D02*
X1337934Y-1867511D01*
G54D12*
X1337934Y-1877511D02*
X1351267Y-1867511D01*
G54D12*
X1351267Y-1854844D02*
X1351267Y-1862844D01*
X1345434Y-1862844D01*
X1345434Y-1861844D01*
X1346267Y-1859844D01*
X1346267Y-1857844D01*
X1345434Y-1855844D01*
X1343767Y-1854844D01*
X1340434Y-1854844D01*
X1338767Y-1855844D01*
X1337934Y-1857844D01*
X1337934Y-1859844D01*
X1338767Y-1861844D01*
X1340434Y-1862844D01*
G54D12*
X1351267Y-1850177D02*
X1344601Y-1845177D01*
X1337934Y-1845177D01*
G54D12*
X1344601Y-1845177D02*
X1351267Y-1840177D01*
G54D12*
X1351267Y-1835510D02*
X1351267Y-1827510D01*
X1349601Y-1828510D01*
X1347101Y-1830510D01*
X1343767Y-1832510D01*
X1341267Y-1833510D01*
X1337934Y-1833510D01*
G54D12*
X1653655Y-1864811D02*
X1640322Y-1854811D01*
G54D12*
X1640322Y-1864811D02*
X1653655Y-1854811D01*
G54D12*
X1651155Y-1842144D02*
X1652822Y-1843144D01*
X1653655Y-1845144D01*
X1653655Y-1847144D01*
X1652822Y-1849144D01*
X1651155Y-1850144D01*
X1646988Y-1850144D01*
X1646155Y-1850144D01*
X1647822Y-1847144D01*
X1647822Y-1845144D01*
X1646988Y-1843144D01*
X1645322Y-1842144D01*
X1642822Y-1842144D01*
X1641155Y-1843144D01*
X1640322Y-1845144D01*
X1640322Y-1847144D01*
X1641155Y-1849144D01*
X1642822Y-1850144D01*
X1646988Y-1850144D01*
G54D12*
X1653655Y-1837477D02*
X1646988Y-1832477D01*
X1640322Y-1832477D01*
G54D12*
X1646988Y-1832477D02*
X1653655Y-1827477D01*
G54D12*
X1653655Y-1822810D02*
X1653655Y-1814810D01*
X1651988Y-1815810D01*
X1649488Y-1817810D01*
X1646155Y-1819810D01*
X1643655Y-1820810D01*
X1640322Y-1820810D01*
G54D12*
X1911589Y-1882272D02*
X1898256Y-1872272D01*
G54D12*
X1898256Y-1882272D02*
X1911589Y-1872272D01*
G54D12*
X1911589Y-1867604D02*
X1911589Y-1859604D01*
X1909922Y-1860604D01*
X1907422Y-1862604D01*
X1904089Y-1864604D01*
X1901589Y-1865604D01*
X1898256Y-1865604D01*
G54D12*
X1911589Y-1854938D02*
X1904922Y-1849938D01*
X1898256Y-1849938D01*
G54D12*
X1904922Y-1849938D02*
X1911589Y-1844938D01*
G54D12*
X1911589Y-1840270D02*
X1911589Y-1832270D01*
X1909922Y-1833270D01*
X1907422Y-1835270D01*
X1904089Y-1837270D01*
X1901589Y-1838270D01*
X1898256Y-1838270D01*
G54D12*
X1882007Y-1452229D02*
X1868674Y-1442229D01*
G54D12*
X1868674Y-1452229D02*
X1882007Y-1442229D01*
G54D12*
X1882007Y-1437562D02*
X1882007Y-1429562D01*
X1880340Y-1430562D01*
X1877840Y-1432562D01*
X1874507Y-1434562D01*
X1872007Y-1435562D01*
X1868674Y-1435562D01*
G54D12*
X1882007Y-1424895D02*
X1875340Y-1419895D01*
X1868674Y-1419895D01*
G54D12*
X1875340Y-1419895D02*
X1882007Y-1414895D01*
G54D12*
X1882007Y-1410228D02*
X1882007Y-1402228D01*
X1880340Y-1403228D01*
X1877840Y-1405228D01*
X1874507Y-1407228D01*
X1872007Y-1408228D01*
X1868674Y-1408228D01*
G54D12*
X281074Y-408142D02*
X281074Y-416476D01*
X282074Y-418142D01*
X284074Y-418976D01*
X286074Y-418976D01*
X288074Y-418142D01*
X289074Y-416476D01*
X289074Y-408142D01*
X288074Y-406476D01*
X286074Y-405642D01*
X284074Y-405642D01*
X282074Y-406476D01*
X281074Y-408142D01*
G54D12*
X282662Y-1833717D02*
X282662Y-1842050D01*
X283662Y-1843717D01*
X285662Y-1844550D01*
X287662Y-1844550D01*
X289662Y-1843717D01*
X290662Y-1842050D01*
X290662Y-1833717D01*
X289662Y-1832050D01*
X287662Y-1831217D01*
X285662Y-1831217D01*
X283662Y-1832050D01*
X282662Y-1833717D01*
G54D12*
X484608Y-743406D02*
X482941Y-742406D01*
X482108Y-740406D01*
X482108Y-738406D01*
X482941Y-736406D01*
X484608Y-735406D01*
X486275Y-735406D01*
X487941Y-736406D01*
X488775Y-738406D01*
X488775Y-740406D01*
X489608Y-742406D01*
X491275Y-743406D01*
X492941Y-743406D01*
X494608Y-742406D01*
X495441Y-740406D01*
X495441Y-738406D01*
X494608Y-736406D01*
X492941Y-735406D01*
G54D12*
X488775Y-726738D02*
X487108Y-723738D01*
X485441Y-722738D01*
X482108Y-722738D01*
G54D12*
X482108Y-730738D02*
X495441Y-730738D01*
X495441Y-725738D01*
X494608Y-723738D01*
X492941Y-722738D01*
X491275Y-722738D01*
X489608Y-723738D01*
X488775Y-725738D01*
X488775Y-730738D01*
G54D12*
X490441Y-718072D02*
X495441Y-713072D01*
X482108Y-713072D01*
G54D12*
X236624Y-408142D02*
X236624Y-416476D01*
X237624Y-418142D01*
X239624Y-418976D01*
X241624Y-418976D01*
X243624Y-418142D01*
X244624Y-416476D01*
X244624Y-408142D01*
X243624Y-406476D01*
X241624Y-405642D01*
X239624Y-405642D01*
X237624Y-406476D01*
X236624Y-408142D01*
G54D12*
X117562Y-252567D02*
X117562Y-260900D01*
X118562Y-262567D01*
X120562Y-263400D01*
X122562Y-263400D01*
X124562Y-262567D01*
X125562Y-260900D01*
X125562Y-252567D01*
X124562Y-250900D01*
X122562Y-250067D01*
X120562Y-250067D01*
X118562Y-250900D01*
X117562Y-252567D01*
G54D12*
X192174Y-236692D02*
X192174Y-245026D01*
X193174Y-246692D01*
X195174Y-247526D01*
X197174Y-247526D01*
X199174Y-246692D01*
X200174Y-245026D01*
X200174Y-236692D01*
X199174Y-235026D01*
X197174Y-234192D01*
X195174Y-234192D01*
X193174Y-235026D01*
X192174Y-236692D01*
G54D12*
X230275Y-297017D02*
X230275Y-305350D01*
X231275Y-307017D01*
X233275Y-307850D01*
X235275Y-307850D01*
X237275Y-307017D01*
X238275Y-305350D01*
X238275Y-297017D01*
X237275Y-295350D01*
X235275Y-294517D01*
X233275Y-294517D01*
X231275Y-295350D01*
X230275Y-297017D01*
G54D12*
X528724Y-408142D02*
X528724Y-416476D01*
X529724Y-418142D01*
X531724Y-418976D01*
X533724Y-418976D01*
X535724Y-418142D01*
X536724Y-416476D01*
X536724Y-408142D01*
X535724Y-406476D01*
X533724Y-405642D01*
X531724Y-405642D01*
X529724Y-406476D01*
X528724Y-408142D01*
G54D12*
X484274Y-408142D02*
X484274Y-416476D01*
X485274Y-418142D01*
X487274Y-418976D01*
X489274Y-418976D01*
X491274Y-418142D01*
X492274Y-416476D01*
X492274Y-408142D01*
X491274Y-406476D01*
X489274Y-405642D01*
X487274Y-405642D01*
X485274Y-406476D01*
X484274Y-408142D01*
G54D12*
X530312Y-1833717D02*
X530312Y-1842050D01*
X531312Y-1843717D01*
X533312Y-1844550D01*
X535312Y-1844550D01*
X537312Y-1843717D01*
X538312Y-1842050D01*
X538312Y-1833717D01*
X537312Y-1832050D01*
X535312Y-1831217D01*
X533312Y-1831217D01*
X531312Y-1832050D01*
X530312Y-1833717D01*
G54D12*
X345887Y-996405D02*
X345887Y-1004738D01*
X346887Y-1006405D01*
X348887Y-1007238D01*
X350887Y-1007238D01*
X352887Y-1006405D01*
X353887Y-1004738D01*
X353887Y-996405D01*
X352887Y-994738D01*
X350887Y-993905D01*
X348887Y-993905D01*
X346887Y-994738D01*
X345887Y-996405D01*
G54D12*
X306200Y-961480D02*
X306200Y-969813D01*
X307200Y-971480D01*
X309200Y-972313D01*
X311200Y-972313D01*
X313200Y-971480D01*
X314200Y-969813D01*
X314200Y-961480D01*
X313200Y-959813D01*
X311200Y-958980D01*
X309200Y-958980D01*
X307200Y-959813D01*
X306200Y-961480D01*
G54D12*
X290007Y-919411D02*
X290007Y-927744D01*
X291007Y-929411D01*
X293007Y-930244D01*
X295007Y-930244D01*
X297007Y-929411D01*
X298007Y-927744D01*
X298007Y-919411D01*
X297007Y-917744D01*
X295007Y-916911D01*
X293007Y-916911D01*
X291007Y-917744D01*
X290007Y-919411D01*
G54D12*
X732802Y-745094D02*
X731135Y-744094D01*
X730302Y-742094D01*
X730302Y-740094D01*
X731135Y-738094D01*
X732802Y-737094D01*
X734468Y-737094D01*
X736135Y-738094D01*
X736968Y-740094D01*
X736968Y-742094D01*
X737802Y-744094D01*
X739468Y-745094D01*
X741135Y-745094D01*
X742802Y-744094D01*
X743635Y-742094D01*
X743635Y-740094D01*
X742802Y-738094D01*
X741135Y-737094D01*
G54D12*
X736968Y-728428D02*
X735302Y-725428D01*
X733635Y-724428D01*
X730302Y-724428D01*
G54D12*
X730302Y-732428D02*
X743635Y-732428D01*
X743635Y-727428D01*
X742802Y-725428D01*
X741135Y-724428D01*
X739468Y-724428D01*
X737802Y-725428D01*
X736968Y-727428D01*
X736968Y-732428D01*
G54D12*
X730302Y-711760D02*
X730302Y-719760D01*
X731135Y-719760D01*
X732802Y-718760D01*
X737802Y-712760D01*
X739468Y-711760D01*
X741135Y-711760D01*
X742802Y-712760D01*
X743635Y-714760D01*
X743635Y-716760D01*
X742802Y-718760D01*
X741135Y-719760D01*
G54D12*
X777962Y-408142D02*
X777962Y-416476D01*
X778962Y-418142D01*
X780962Y-418976D01*
X782962Y-418976D01*
X784962Y-418142D01*
X785962Y-416476D01*
X785962Y-408142D01*
X784962Y-406476D01*
X782962Y-405642D01*
X780962Y-405642D01*
X778962Y-406476D01*
X777962Y-408142D01*
G54D12*
X733512Y-408142D02*
X733512Y-416476D01*
X734512Y-418142D01*
X736512Y-418976D01*
X738512Y-418976D01*
X740512Y-418142D01*
X741512Y-416476D01*
X741512Y-408142D01*
X740512Y-406476D01*
X738512Y-405642D01*
X736512Y-405642D01*
X734512Y-406476D01*
X733512Y-408142D01*
G54D12*
X779550Y-1833717D02*
X779550Y-1842050D01*
X780550Y-1843717D01*
X782550Y-1844550D01*
X784550Y-1844550D01*
X786550Y-1843717D01*
X787550Y-1842050D01*
X787550Y-1833717D01*
X786550Y-1832050D01*
X784550Y-1831217D01*
X782550Y-1831217D01*
X780550Y-1832050D01*
X779550Y-1833717D01*
G54D12*
X595124Y-996405D02*
X595124Y-1004738D01*
X596124Y-1006405D01*
X598124Y-1007238D01*
X600124Y-1007238D01*
X602124Y-1006405D01*
X603124Y-1004738D01*
X603124Y-996405D01*
X602124Y-994738D01*
X600124Y-993905D01*
X598124Y-993905D01*
X596124Y-994738D01*
X595124Y-996405D01*
G54D12*
X555436Y-961480D02*
X555436Y-969813D01*
X556436Y-971480D01*
X558436Y-972313D01*
X560436Y-972313D01*
X562436Y-971480D01*
X563436Y-969813D01*
X563436Y-961480D01*
X562436Y-959813D01*
X560436Y-958980D01*
X558436Y-958980D01*
X556436Y-959813D01*
X555436Y-961480D01*
G54D12*
X539244Y-919411D02*
X539244Y-927744D01*
X540244Y-929411D01*
X542244Y-930244D01*
X544244Y-930244D01*
X546244Y-929411D01*
X547244Y-927744D01*
X547244Y-919411D01*
X546244Y-917744D01*
X544244Y-916911D01*
X542244Y-916911D01*
X540244Y-917744D01*
X539244Y-919411D01*
G54D11*
X985374Y-740803D02*
X983930Y-739936D01*
X983207Y-738203D01*
X983207Y-736470D01*
X983930Y-734736D01*
X985374Y-733870D01*
X986818Y-733870D01*
X988263Y-734736D01*
X988985Y-736470D01*
X988985Y-738203D01*
X989707Y-739936D01*
X991152Y-740803D01*
X992596Y-740803D01*
X994041Y-739936D01*
X994763Y-738203D01*
X994763Y-736470D01*
X994041Y-734736D01*
X992596Y-733870D01*
G54D11*
X988985Y-726360D02*
X987541Y-723760D01*
X986096Y-722893D01*
X983207Y-722893D01*
G54D11*
X983207Y-729826D02*
X994763Y-729826D01*
X994763Y-725493D01*
X994041Y-723760D01*
X992596Y-722893D01*
X991152Y-722893D01*
X989707Y-723760D01*
X988985Y-725493D01*
X988985Y-729826D01*
G54D11*
X992596Y-718849D02*
X994041Y-717983D01*
X994763Y-716249D01*
X994763Y-714516D01*
X994041Y-712783D01*
X992596Y-711916D01*
X991152Y-711916D01*
X989707Y-712783D01*
X988985Y-714516D01*
X988263Y-712783D01*
X986818Y-711916D01*
X985374Y-711916D01*
X983930Y-712783D01*
X983207Y-714516D01*
X983207Y-716249D01*
X983930Y-717983D01*
X985374Y-718849D01*
G54D12*
X1027200Y-408142D02*
X1027200Y-416476D01*
X1028200Y-418142D01*
X1030200Y-418976D01*
X1032200Y-418976D01*
X1034200Y-418142D01*
X1035200Y-416476D01*
X1035200Y-408142D01*
X1034200Y-406476D01*
X1032200Y-405642D01*
X1030200Y-405642D01*
X1028200Y-406476D01*
X1027200Y-408142D01*
G54D12*
X982750Y-408142D02*
X982750Y-416476D01*
X983750Y-418142D01*
X985750Y-418976D01*
X987750Y-418976D01*
X989750Y-418142D01*
X990750Y-416476D01*
X990750Y-408142D01*
X989750Y-406476D01*
X987750Y-405642D01*
X985750Y-405642D01*
X983750Y-406476D01*
X982750Y-408142D01*
G54D12*
X1028788Y-1833717D02*
X1028788Y-1842050D01*
X1029788Y-1843717D01*
X1031788Y-1844550D01*
X1033788Y-1844550D01*
X1035788Y-1843717D01*
X1036788Y-1842050D01*
X1036788Y-1833717D01*
X1035788Y-1832050D01*
X1033788Y-1831217D01*
X1031788Y-1831217D01*
X1029788Y-1832050D01*
X1028788Y-1833717D01*
G54D12*
X844362Y-996405D02*
X844362Y-1004738D01*
X845362Y-1006405D01*
X847362Y-1007238D01*
X849362Y-1007238D01*
X851362Y-1006405D01*
X852362Y-1004738D01*
X852362Y-996405D01*
X851362Y-994738D01*
X849362Y-993905D01*
X847362Y-993905D01*
X845362Y-994738D01*
X844362Y-996405D01*
G54D12*
X804674Y-961480D02*
X804674Y-969813D01*
X805674Y-971480D01*
X807674Y-972313D01*
X809674Y-972313D01*
X811674Y-971480D01*
X812674Y-969813D01*
X812674Y-961480D01*
X811674Y-959813D01*
X809674Y-958980D01*
X807674Y-958980D01*
X805674Y-959813D01*
X804674Y-961480D01*
G54D12*
X788482Y-919411D02*
X788482Y-927744D01*
X789482Y-929411D01*
X791482Y-930244D01*
X793482Y-930244D01*
X795482Y-929411D01*
X796482Y-927744D01*
X796482Y-919411D01*
X795482Y-917744D01*
X793482Y-916911D01*
X791482Y-916911D01*
X789482Y-917744D01*
X788482Y-919411D01*
G54D12*
X1233132Y-744549D02*
X1231465Y-743549D01*
X1230632Y-741549D01*
X1230632Y-739549D01*
X1231465Y-737549D01*
X1233132Y-736549D01*
X1234798Y-736549D01*
X1236465Y-737549D01*
X1237298Y-739549D01*
X1237298Y-741549D01*
X1238132Y-743549D01*
X1239798Y-744549D01*
X1241465Y-744549D01*
X1243132Y-743549D01*
X1243965Y-741549D01*
X1243965Y-739549D01*
X1243132Y-737549D01*
X1241465Y-736549D01*
G54D12*
X1237298Y-727882D02*
X1235632Y-724882D01*
X1233965Y-723882D01*
X1230632Y-723882D01*
G54D12*
X1230632Y-731882D02*
X1243965Y-731882D01*
X1243965Y-726882D01*
X1243132Y-724882D01*
X1241465Y-723882D01*
X1239798Y-723882D01*
X1238132Y-724882D01*
X1237298Y-726882D01*
X1237298Y-731882D01*
G54D12*
X1230632Y-713215D02*
X1243965Y-713215D01*
X1235632Y-719215D01*
X1233965Y-719215D01*
X1233965Y-711215D01*
G54D12*
X1278024Y-408142D02*
X1278024Y-416476D01*
X1279024Y-418142D01*
X1281024Y-418976D01*
X1283024Y-418976D01*
X1285024Y-418142D01*
X1286024Y-416476D01*
X1286024Y-408142D01*
X1285024Y-406476D01*
X1283024Y-405642D01*
X1281024Y-405642D01*
X1279024Y-406476D01*
X1278024Y-408142D01*
G54D12*
X1233574Y-408142D02*
X1233574Y-416476D01*
X1234574Y-418142D01*
X1236574Y-418976D01*
X1238574Y-418976D01*
X1240574Y-418142D01*
X1241574Y-416476D01*
X1241574Y-408142D01*
X1240574Y-406476D01*
X1238574Y-405642D01*
X1236574Y-405642D01*
X1234574Y-406476D01*
X1233574Y-408142D01*
G54D12*
X1279612Y-1833717D02*
X1279612Y-1842050D01*
X1280612Y-1843717D01*
X1282612Y-1844550D01*
X1284612Y-1844550D01*
X1286612Y-1843717D01*
X1287612Y-1842050D01*
X1287612Y-1833717D01*
X1286612Y-1832050D01*
X1284612Y-1831217D01*
X1282612Y-1831217D01*
X1280612Y-1832050D01*
X1279612Y-1833717D01*
G54D12*
X1095187Y-996405D02*
X1095187Y-1004738D01*
X1096187Y-1006405D01*
X1098187Y-1007238D01*
X1100187Y-1007238D01*
X1102187Y-1006405D01*
X1103187Y-1004738D01*
X1103187Y-996405D01*
X1102187Y-994738D01*
X1100187Y-993905D01*
X1098187Y-993905D01*
X1096187Y-994738D01*
X1095187Y-996405D01*
G54D12*
X1055500Y-961480D02*
X1055500Y-969813D01*
X1056500Y-971480D01*
X1058500Y-972313D01*
X1060500Y-972313D01*
X1062500Y-971480D01*
X1063500Y-969813D01*
X1063500Y-961480D01*
X1062500Y-959813D01*
X1060500Y-958980D01*
X1058500Y-958980D01*
X1056500Y-959813D01*
X1055500Y-961480D01*
G54D12*
X1039307Y-919411D02*
X1039307Y-927744D01*
X1040307Y-929411D01*
X1042307Y-930244D01*
X1044307Y-930244D01*
X1046307Y-929411D01*
X1047307Y-927744D01*
X1047307Y-919411D01*
X1046307Y-917744D01*
X1044307Y-916911D01*
X1042307Y-916911D01*
X1040307Y-917744D01*
X1039307Y-919411D01*
G54D12*
X1481835Y-744449D02*
X1480168Y-743449D01*
X1479335Y-741449D01*
X1479335Y-739449D01*
X1480168Y-737449D01*
X1481835Y-736449D01*
X1483502Y-736449D01*
X1485168Y-737449D01*
X1486002Y-739449D01*
X1486002Y-741449D01*
X1486835Y-743449D01*
X1488502Y-744449D01*
X1490168Y-744449D01*
X1491835Y-743449D01*
X1492668Y-741449D01*
X1492668Y-739449D01*
X1491835Y-737449D01*
X1490168Y-736449D01*
G54D12*
X1486002Y-727782D02*
X1484335Y-724782D01*
X1482668Y-723782D01*
X1479335Y-723782D01*
G54D12*
X1479335Y-731782D02*
X1492668Y-731782D01*
X1492668Y-726782D01*
X1491835Y-724782D01*
X1490168Y-723782D01*
X1488502Y-723782D01*
X1486835Y-724782D01*
X1486002Y-726782D01*
X1486002Y-731782D01*
G54D12*
X1492668Y-711115D02*
X1492668Y-719115D01*
X1486835Y-719115D01*
X1486835Y-718115D01*
X1487668Y-716115D01*
X1487668Y-714115D01*
X1486835Y-712115D01*
X1485168Y-711115D01*
X1481835Y-711115D01*
X1480168Y-712115D01*
X1479335Y-714115D01*
X1479335Y-716115D01*
X1480168Y-718115D01*
X1481835Y-719115D01*
G54D12*
X1527262Y-408142D02*
X1527262Y-416476D01*
X1528262Y-418142D01*
X1530262Y-418976D01*
X1532262Y-418976D01*
X1534262Y-418142D01*
X1535262Y-416476D01*
X1535262Y-408142D01*
X1534262Y-406476D01*
X1532262Y-405642D01*
X1530262Y-405642D01*
X1528262Y-406476D01*
X1527262Y-408142D01*
G54D12*
X1482812Y-408142D02*
X1482812Y-416476D01*
X1483812Y-418142D01*
X1485812Y-418976D01*
X1487812Y-418976D01*
X1489812Y-418142D01*
X1490812Y-416476D01*
X1490812Y-408142D01*
X1489812Y-406476D01*
X1487812Y-405642D01*
X1485812Y-405642D01*
X1483812Y-406476D01*
X1482812Y-408142D01*
G54D12*
X1530438Y-1833717D02*
X1530438Y-1842050D01*
X1531438Y-1843717D01*
X1533438Y-1844550D01*
X1535438Y-1844550D01*
X1537438Y-1843717D01*
X1538438Y-1842050D01*
X1538438Y-1833717D01*
X1537438Y-1832050D01*
X1535438Y-1831217D01*
X1533438Y-1831217D01*
X1531438Y-1832050D01*
X1530438Y-1833717D01*
G54D12*
X1344424Y-996405D02*
X1344424Y-1004738D01*
X1345424Y-1006405D01*
X1347424Y-1007238D01*
X1349424Y-1007238D01*
X1351424Y-1006405D01*
X1352424Y-1004738D01*
X1352424Y-996405D01*
X1351424Y-994738D01*
X1349424Y-993905D01*
X1347424Y-993905D01*
X1345424Y-994738D01*
X1344424Y-996405D01*
G54D12*
X1304736Y-961480D02*
X1304736Y-969813D01*
X1305736Y-971480D01*
X1307736Y-972313D01*
X1309736Y-972313D01*
X1311736Y-971480D01*
X1312736Y-969813D01*
X1312736Y-961480D01*
X1311736Y-959813D01*
X1309736Y-958980D01*
X1307736Y-958980D01*
X1305736Y-959813D01*
X1304736Y-961480D01*
G54D12*
X1288544Y-919411D02*
X1288544Y-927744D01*
X1289544Y-929411D01*
X1291544Y-930244D01*
X1293544Y-930244D01*
X1295544Y-929411D01*
X1296544Y-927744D01*
X1296544Y-919411D01*
X1295544Y-917744D01*
X1293544Y-916911D01*
X1291544Y-916911D01*
X1289544Y-917744D01*
X1288544Y-919411D01*
G54D12*
X1731528Y-744638D02*
X1729862Y-743638D01*
X1729028Y-741638D01*
X1729028Y-739638D01*
X1729862Y-737638D01*
X1731528Y-736638D01*
X1733195Y-736638D01*
X1734862Y-737638D01*
X1735695Y-739638D01*
X1735695Y-741638D01*
X1736528Y-743638D01*
X1738195Y-744638D01*
X1739862Y-744638D01*
X1741528Y-743638D01*
X1742362Y-741638D01*
X1742362Y-739638D01*
X1741528Y-737638D01*
X1739862Y-736638D01*
G54D12*
X1735695Y-727971D02*
X1734028Y-724971D01*
X1732362Y-723971D01*
X1729028Y-723971D01*
G54D12*
X1729028Y-731971D02*
X1742362Y-731971D01*
X1742362Y-726971D01*
X1741528Y-724971D01*
X1739862Y-723971D01*
X1738195Y-723971D01*
X1736528Y-724971D01*
X1735695Y-726971D01*
X1735695Y-731971D01*
G54D12*
X1739862Y-711304D02*
X1741528Y-712304D01*
X1742362Y-714304D01*
X1742362Y-716304D01*
X1741528Y-718304D01*
X1739862Y-719304D01*
X1735695Y-719304D01*
X1734862Y-719304D01*
X1736528Y-716304D01*
X1736528Y-714304D01*
X1735695Y-712304D01*
X1734028Y-711304D01*
X1731528Y-711304D01*
X1729862Y-712304D01*
X1729028Y-714304D01*
X1729028Y-716304D01*
X1729862Y-718304D01*
X1731528Y-719304D01*
X1735695Y-719304D01*
G54D12*
X1740650Y-408142D02*
X1740650Y-416476D01*
X1739650Y-418142D01*
X1737650Y-418976D01*
X1735650Y-418976D01*
X1733650Y-418142D01*
X1732650Y-416476D01*
X1732650Y-408142D01*
X1733650Y-406476D01*
X1735650Y-405642D01*
X1737650Y-405642D01*
X1739650Y-406476D01*
X1740650Y-408142D01*
G54D12*
X1695538Y-1900391D02*
X1695538Y-1908724D01*
X1696538Y-1910391D01*
X1698538Y-1911224D01*
X1700538Y-1911224D01*
X1702538Y-1910391D01*
X1703538Y-1908724D01*
X1703538Y-1900391D01*
X1702538Y-1898724D01*
X1700538Y-1897891D01*
X1698538Y-1897891D01*
X1696538Y-1898724D01*
X1695538Y-1900391D01*
G54D12*
X1593662Y-996405D02*
X1593662Y-1004738D01*
X1594662Y-1006405D01*
X1596662Y-1007238D01*
X1598662Y-1007238D01*
X1600662Y-1006405D01*
X1601662Y-1004738D01*
X1601662Y-996405D01*
X1600662Y-994738D01*
X1598662Y-993905D01*
X1596662Y-993905D01*
X1594662Y-994738D01*
X1593662Y-996405D01*
G54D12*
X1553974Y-961480D02*
X1553974Y-969813D01*
X1554974Y-971480D01*
X1556974Y-972313D01*
X1558974Y-972313D01*
X1560974Y-971480D01*
X1561974Y-969813D01*
X1561974Y-961480D01*
X1560974Y-959813D01*
X1558974Y-958980D01*
X1556974Y-958980D01*
X1554974Y-959813D01*
X1553974Y-961480D01*
G54D12*
X1537782Y-919411D02*
X1537782Y-927744D01*
X1538782Y-929411D01*
X1540782Y-930244D01*
X1542782Y-930244D01*
X1544782Y-929411D01*
X1545782Y-927744D01*
X1545782Y-919411D01*
X1544782Y-917744D01*
X1542782Y-916911D01*
X1540782Y-916911D01*
X1538782Y-917744D01*
X1537782Y-919411D01*
G54D12*
X1982345Y-743346D02*
X1980678Y-742346D01*
X1979845Y-740346D01*
X1979845Y-738346D01*
X1980678Y-736346D01*
X1982345Y-735346D01*
X1984012Y-735346D01*
X1985678Y-736346D01*
X1986512Y-738346D01*
X1986512Y-740346D01*
X1987345Y-742346D01*
X1989012Y-743346D01*
X1990678Y-743346D01*
X1992345Y-742346D01*
X1993178Y-740346D01*
X1993178Y-738346D01*
X1992345Y-736346D01*
X1990678Y-735346D01*
G54D12*
X1986512Y-726678D02*
X1984845Y-723678D01*
X1983178Y-722678D01*
X1979845Y-722678D01*
G54D12*
X1979845Y-730678D02*
X1993178Y-730678D01*
X1993178Y-725678D01*
X1992345Y-723678D01*
X1990678Y-722678D01*
X1989012Y-722678D01*
X1987345Y-723678D01*
X1986512Y-725678D01*
X1986512Y-730678D01*
G54D12*
X1993178Y-718012D02*
X1993178Y-710012D01*
X1991512Y-711012D01*
X1989012Y-713012D01*
X1985678Y-715012D01*
X1983178Y-716012D01*
X1979845Y-716012D01*
G54D12*
X1844487Y-996405D02*
X1844487Y-1004738D01*
X1845487Y-1006405D01*
X1847487Y-1007238D01*
X1849487Y-1007238D01*
X1851487Y-1006405D01*
X1852487Y-1004738D01*
X1852487Y-996405D01*
X1851487Y-994738D01*
X1849487Y-993905D01*
X1847487Y-993905D01*
X1845487Y-994738D01*
X1844487Y-996405D01*
G54D12*
X207774Y-89942D02*
X207774Y-98276D01*
X208774Y-99942D01*
X210774Y-100776D01*
X212774Y-100776D01*
X214774Y-99942D01*
X215774Y-98276D01*
X215774Y-89942D01*
X214774Y-88276D01*
X212774Y-87442D01*
X210774Y-87442D01*
X208774Y-88276D01*
X207774Y-89942D01*
G54D12*
X1486561Y-1842553D02*
X1486561Y-1850886D01*
X1487561Y-1852553D01*
X1489561Y-1853386D01*
X1491561Y-1853386D01*
X1493561Y-1852553D01*
X1494561Y-1850886D01*
X1494561Y-1842553D01*
X1493561Y-1840886D01*
X1491561Y-1840053D01*
X1489561Y-1840053D01*
X1487561Y-1840886D01*
X1486561Y-1842553D01*
G54D12*
X1486561Y-1921928D02*
X1486561Y-1930262D01*
X1487561Y-1931928D01*
X1489561Y-1932762D01*
X1491561Y-1932762D01*
X1493561Y-1931928D01*
X1494561Y-1930262D01*
X1494561Y-1921928D01*
X1493561Y-1920262D01*
X1491561Y-1919428D01*
X1489561Y-1919428D01*
X1487561Y-1920262D01*
X1486561Y-1921928D01*
G54D13*
X1506538Y-1874838D02*
X1506538Y-1874838D01*
G54D13*
X1506738Y-1868538D02*
X1506738Y-1868538D01*
G54D13*
X1506738Y-1875538D02*
X1506738Y-1875538D01*
G54D14*
X1500438Y-1875538D02*
X1506738Y-1875538D01*
G54D14*
X1506738Y-1875538D02*
X1513038Y-1875538D01*
G54D14*
X1506738Y-1869238D02*
X1506738Y-1875538D01*
G54D14*
X1502438Y-1879238D02*
X1510438Y-1879238D01*
G54D14*
X1505638Y-1882738D02*
X1507638Y-1882738D01*
G54D10*
X199502Y-1654176D02*
X219946Y-1654176D01*
X207169Y-1646509D01*
X219946Y-1638842D01*
X199502Y-1638842D01*
G54D10*
X199502Y-1633220D02*
X211002Y-1633220D01*
G54D10*
X214835Y-1633220D02*
X214835Y-1633220D01*
G54D10*
X199502Y-1627598D02*
X211002Y-1627598D01*
G54D10*
X208446Y-1627598D02*
X210235Y-1626065D01*
X211002Y-1622998D01*
X210235Y-1619932D01*
X208446Y-1618398D01*
X199502Y-1618398D01*
G54D10*
X200780Y-1612776D02*
X199502Y-1609710D01*
X199502Y-1606643D01*
X200780Y-1603576D01*
X203335Y-1603576D01*
X204613Y-1605110D01*
X205891Y-1611243D01*
X207169Y-1612776D01*
X209724Y-1612776D01*
X211002Y-1609710D01*
X211002Y-1606643D01*
X209724Y-1603576D01*
G54D10*
X199502Y-1597954D02*
X219946Y-1597954D01*
G54D10*
X207169Y-1593354D02*
X199502Y-1588754D01*
G54D10*
X204613Y-1597954D02*
X211002Y-1588754D01*
G54D10*
X199502Y-1580066D02*
X196946Y-1580066D01*
X194391Y-1581599D01*
X194391Y-1583132D01*
G54D10*
X209724Y-1562381D02*
X207169Y-1557781D01*
X204613Y-1556248D01*
X199502Y-1556248D01*
G54D10*
X199502Y-1568514D02*
X219946Y-1568514D01*
X219946Y-1560848D01*
X218669Y-1557781D01*
X216113Y-1556248D01*
X213558Y-1556248D01*
X211002Y-1557781D01*
X209724Y-1560848D01*
X209724Y-1568514D01*
G54D10*
X200780Y-1541426D02*
X199502Y-1543879D01*
X199502Y-1546946D01*
X200780Y-1550012D01*
X203335Y-1550626D01*
X207680Y-1550626D01*
X210235Y-1549092D01*
X211002Y-1546026D01*
X210235Y-1542959D01*
X208446Y-1541426D01*
X205891Y-1541426D01*
X205891Y-1550626D01*
G54D10*
X211002Y-1535804D02*
X194391Y-1535804D01*
G54D10*
X203335Y-1535804D02*
X200013Y-1534270D01*
X199502Y-1531204D01*
X200013Y-1528137D01*
X202569Y-1526604D01*
X207680Y-1526604D01*
X210235Y-1528137D01*
X211002Y-1531204D01*
X210235Y-1534270D01*
X207169Y-1535804D01*
G54D10*
X211002Y-1511782D02*
X199502Y-1511782D01*
G54D10*
X202058Y-1511782D02*
X200013Y-1513315D01*
X199502Y-1516382D01*
X200013Y-1519448D01*
X202058Y-1520982D01*
X211002Y-1520982D01*
G54D10*
X199502Y-1506160D02*
X219946Y-1506160D01*
G54D10*
X207680Y-1506160D02*
X210235Y-1504626D01*
X211002Y-1501560D01*
X210235Y-1498493D01*
X207680Y-1496960D01*
X202569Y-1496960D01*
X200013Y-1498493D01*
X199502Y-1501560D01*
X200013Y-1504626D01*
X202569Y-1506160D01*
G54D10*
X199502Y-1491338D02*
X219946Y-1491338D01*
G54D10*
X199502Y-1485716D02*
X211002Y-1485716D01*
G54D10*
X214835Y-1485716D02*
X214835Y-1485716D01*
G54D10*
X210235Y-1472427D02*
X211002Y-1475494D01*
X210235Y-1478560D01*
X207680Y-1480094D01*
X202569Y-1480094D01*
X200013Y-1478560D01*
X199502Y-1475494D01*
X200013Y-1472427D01*
G54D10*
X202569Y-1451676D02*
X207680Y-1451676D01*
X210235Y-1453209D01*
X211002Y-1456276D01*
X210235Y-1459342D01*
X207680Y-1460876D01*
X202569Y-1460876D01*
X200013Y-1459342D01*
X199502Y-1456276D01*
X200013Y-1453209D01*
X202569Y-1451676D01*
G54D10*
X199502Y-1442987D02*
X218669Y-1442987D01*
X219946Y-1441454D01*
X219180Y-1439920D01*
G54D10*
X211002Y-1446054D02*
X211002Y-1439920D01*
G54D10*
X199502Y-1428370D02*
X219946Y-1428370D01*
X219946Y-1420703D01*
X218669Y-1417636D01*
X216113Y-1416103D01*
X213558Y-1416103D01*
X211002Y-1417636D01*
X209724Y-1420703D01*
X208446Y-1417636D01*
X205891Y-1416103D01*
X203335Y-1416103D01*
X200780Y-1417636D01*
X199502Y-1420703D01*
X199502Y-1428370D01*
G54D10*
X209724Y-1428370D02*
X209724Y-1420703D01*
G54D10*
X200780Y-1401280D02*
X199502Y-1403734D01*
X199502Y-1406800D01*
X200780Y-1409867D01*
X203335Y-1410480D01*
X207680Y-1410480D01*
X210235Y-1408947D01*
X211002Y-1405880D01*
X210235Y-1402814D01*
X208446Y-1401280D01*
X205891Y-1401280D01*
X205891Y-1410480D01*
G54D10*
X199502Y-1395658D02*
X219946Y-1395658D01*
G54D10*
X209724Y-1390036D02*
X211002Y-1386970D01*
X211002Y-1383290D01*
X208446Y-1380836D01*
X199502Y-1380836D01*
G54D10*
X203335Y-1380836D02*
X205891Y-1382370D01*
X206402Y-1385436D01*
X205891Y-1388503D01*
X203335Y-1390036D01*
X200780Y-1389423D01*
X199502Y-1386970D01*
X199502Y-1385436D01*
X199502Y-1384823D01*
X200780Y-1382370D01*
X203335Y-1380836D01*
G54D10*
X199502Y-1375214D02*
X211002Y-1375214D01*
G54D10*
X208446Y-1375214D02*
X211002Y-1372148D01*
X211002Y-1369081D01*
G54D10*
X211002Y-1354260D02*
X199502Y-1354260D01*
G54D10*
X202058Y-1354260D02*
X200013Y-1355793D01*
X199502Y-1358860D01*
X200013Y-1361926D01*
X202058Y-1363460D01*
X211002Y-1363460D01*
G54D10*
X200780Y-1348638D02*
X199502Y-1345571D01*
X199502Y-1342504D01*
X200780Y-1339438D01*
X203335Y-1339438D01*
X204613Y-1340971D01*
X205891Y-1347104D01*
X207169Y-1348638D01*
X209724Y-1348638D01*
X211002Y-1345571D01*
X211002Y-1342504D01*
X209724Y-1339438D01*
G54D10*
X170617Y-1644976D02*
X169340Y-1647429D01*
X169340Y-1650496D01*
X170617Y-1653562D01*
X173173Y-1654176D01*
X177517Y-1654176D01*
X180073Y-1652642D01*
X180840Y-1649576D01*
X180073Y-1646509D01*
X178284Y-1644976D01*
X175728Y-1644976D01*
X175728Y-1654176D01*
G54D10*
X169340Y-1639354D02*
X180840Y-1639354D01*
G54D10*
X178795Y-1639354D02*
X180840Y-1636287D01*
X180073Y-1633220D01*
X178284Y-1631687D01*
X169340Y-1631687D01*
G54D10*
X178795Y-1631687D02*
X180840Y-1628620D01*
X180073Y-1625554D01*
X178284Y-1624020D01*
X169340Y-1624020D01*
G54D10*
X179562Y-1618398D02*
X180840Y-1615332D01*
X180840Y-1611652D01*
X178284Y-1609198D01*
X169340Y-1609198D01*
G54D10*
X173173Y-1609198D02*
X175728Y-1610732D01*
X176240Y-1613798D01*
X175728Y-1616865D01*
X173173Y-1618398D01*
X170617Y-1617785D01*
X169340Y-1615332D01*
X169340Y-1613798D01*
X169340Y-1613185D01*
X170617Y-1610732D01*
X173173Y-1609198D01*
G54D10*
X169340Y-1603576D02*
X180840Y-1603576D01*
G54D10*
X184673Y-1603576D02*
X184673Y-1603576D01*
G54D10*
X169340Y-1597954D02*
X189784Y-1597954D01*
G54D10*
X169340Y-1592332D02*
X169340Y-1591106D01*
X170362Y-1591106D01*
X170362Y-1592332D01*
X169340Y-1592332D01*
G54D10*
X184673Y-1591106D02*
X184673Y-1592332D01*
X185695Y-1592332D01*
X185695Y-1591106D01*
X184673Y-1591106D01*
G54D10*
X169340Y-1579554D02*
X180840Y-1579554D01*
G54D10*
X178795Y-1579554D02*
X180840Y-1576488D01*
X180073Y-1573421D01*
X178284Y-1571888D01*
X169340Y-1571888D01*
G54D10*
X178795Y-1571888D02*
X180840Y-1568821D01*
X180073Y-1565754D01*
X178284Y-1564221D01*
X169340Y-1564221D01*
G54D10*
X180840Y-1549400D02*
X169340Y-1549400D01*
G54D10*
X171895Y-1549400D02*
X169851Y-1550933D01*
X169340Y-1554000D01*
X169851Y-1557066D01*
X171895Y-1558600D01*
X180840Y-1558600D01*
G54D10*
X169340Y-1543778D02*
X180840Y-1543778D01*
G54D10*
X178284Y-1543778D02*
X180840Y-1540711D01*
X180840Y-1537644D01*
G54D10*
X179562Y-1532022D02*
X180840Y-1528956D01*
X180840Y-1525276D01*
X178284Y-1522822D01*
X169340Y-1522822D01*
G54D10*
X173173Y-1522822D02*
X175728Y-1524356D01*
X176240Y-1527422D01*
X175728Y-1530489D01*
X173173Y-1532022D01*
X170617Y-1531409D01*
X169340Y-1528956D01*
X169340Y-1527422D01*
X169340Y-1526809D01*
X170617Y-1524356D01*
X173173Y-1522822D01*
G54D10*
X180073Y-1509534D02*
X180840Y-1512600D01*
X180073Y-1515667D01*
X177517Y-1517200D01*
X172406Y-1517200D01*
X169851Y-1515667D01*
X169340Y-1512600D01*
X169851Y-1509534D01*
G54D10*
X169340Y-1503912D02*
X189784Y-1503912D01*
G54D10*
X177517Y-1503912D02*
X180073Y-1502378D01*
X180840Y-1499312D01*
X180073Y-1496245D01*
X177517Y-1494712D01*
X169340Y-1494712D01*
G54D10*
X169340Y-1487863D02*
X169340Y-1489090D01*
X170362Y-1489090D01*
X170362Y-1487863D01*
X169340Y-1487863D01*
X169340Y-1489090D01*
G54D10*
X180840Y-1482240D02*
X169340Y-1476107D01*
X180840Y-1469974D01*
G54D10*
X169340Y-1464352D02*
X180840Y-1464352D01*
G54D10*
X184673Y-1464352D02*
X184673Y-1464352D01*
G54D10*
X171128Y-1447996D02*
X169340Y-1450143D01*
X169340Y-1454130D01*
X171128Y-1456890D01*
X173940Y-1458730D01*
X181351Y-1458730D01*
X184162Y-1456890D01*
X185440Y-1454130D01*
X185440Y-1450143D01*
X183140Y-1447996D01*
X174962Y-1447996D01*
G54D10*
X178028Y-1448610D02*
X180073Y-1448916D01*
X181351Y-1451983D01*
X180073Y-1454130D01*
X178028Y-1454743D01*
X175728Y-1454130D01*
X174451Y-1451983D01*
X175728Y-1448916D01*
X178028Y-1448610D01*
G54D10*
X165506Y-1442374D02*
X164228Y-1439308D01*
X164228Y-1437161D01*
X165506Y-1434094D01*
X168062Y-1433174D01*
X180840Y-1433174D01*
G54D10*
X177517Y-1433174D02*
X180073Y-1434708D01*
X180840Y-1437774D01*
X180073Y-1440841D01*
X177517Y-1442374D01*
X172406Y-1442374D01*
X169851Y-1440841D01*
X169340Y-1437774D01*
X169851Y-1434708D01*
X172406Y-1433174D01*
G54D10*
X169340Y-1427552D02*
X180840Y-1427552D01*
G54D10*
X178795Y-1427552D02*
X180840Y-1424486D01*
X180073Y-1421419D01*
X178284Y-1419886D01*
X169340Y-1419886D01*
G54D10*
X178795Y-1419886D02*
X180840Y-1416819D01*
X180073Y-1413752D01*
X178284Y-1412219D01*
X169340Y-1412219D01*
G54D10*
X179562Y-1406598D02*
X180840Y-1403531D01*
X180840Y-1399851D01*
X178284Y-1397398D01*
X169340Y-1397398D01*
G54D10*
X173173Y-1397398D02*
X175728Y-1398931D01*
X176240Y-1401998D01*
X175728Y-1405064D01*
X173173Y-1406598D01*
X170617Y-1405984D01*
X169340Y-1403531D01*
X169340Y-1401998D01*
X169340Y-1401384D01*
X170617Y-1398931D01*
X173173Y-1397398D01*
G54D10*
X169340Y-1391776D02*
X180840Y-1391776D01*
G54D10*
X184673Y-1391776D02*
X184673Y-1391776D01*
G54D10*
X169340Y-1386154D02*
X189784Y-1386154D01*
G54D10*
X169340Y-1379305D02*
X169340Y-1380532D01*
X170362Y-1380532D01*
X170362Y-1379305D01*
X169340Y-1379305D01*
X169340Y-1380532D01*
G54D10*
X180073Y-1366016D02*
X180840Y-1369082D01*
X180073Y-1372149D01*
X177517Y-1373682D01*
X172406Y-1373682D01*
X169851Y-1372149D01*
X169340Y-1369082D01*
X169851Y-1366016D01*
G54D10*
X172406Y-1351194D02*
X177517Y-1351194D01*
X180073Y-1352727D01*
X180840Y-1355794D01*
X180073Y-1358860D01*
X177517Y-1360394D01*
X172406Y-1360394D01*
X169851Y-1358860D01*
X169340Y-1355794D01*
X169851Y-1352727D01*
X172406Y-1351194D01*
G54D10*
X169340Y-1345572D02*
X180840Y-1345572D01*
G54D10*
X178795Y-1345572D02*
X180840Y-1342505D01*
X180073Y-1339438D01*
X178284Y-1337905D01*
X169340Y-1337905D01*
G54D10*
X178795Y-1337905D02*
X180840Y-1334838D01*
X180073Y-1331772D01*
X178284Y-1330238D01*
X169340Y-1330238D01*
G54D15*
X166638Y-1709525D02*
X241638Y-1709525D01*
X241638Y-1784525D01*
X166638Y-1784525D01*
X166638Y-1709525D01*
G54D15*
X166638Y-1709525D02*
X206638Y-1669525D01*
X281638Y-1669525D01*
G54D15*
X241638Y-1709525D02*
X281638Y-1669525D01*
X281638Y-1744525D01*
X241638Y-1784525D01*
G54D14*
X231660Y-1760860D02*
X233660Y-1759660D01*
X234660Y-1757260D01*
X234660Y-1754860D01*
X233660Y-1752460D01*
X231660Y-1751260D01*
X229660Y-1751260D01*
X227660Y-1752460D01*
X226660Y-1754860D01*
X225660Y-1752460D01*
X223660Y-1751260D01*
X221660Y-1751260D01*
X219660Y-1752460D01*
X218660Y-1754860D01*
X218660Y-1757260D01*
X219660Y-1759660D01*
X221660Y-1760860D01*
G54D14*
X218660Y-1746860D02*
X234660Y-1746860D01*
X234660Y-1740860D01*
X233660Y-1738460D01*
X231660Y-1737260D01*
X221660Y-1737260D01*
X219660Y-1738460D01*
X218660Y-1740860D01*
X218660Y-1746860D01*
G54D14*
X177840Y-1761596D02*
X175840Y-1762796D01*
X174840Y-1765196D01*
X174840Y-1767596D01*
X175840Y-1769996D01*
X177840Y-1771196D01*
X187840Y-1771196D01*
X189840Y-1769996D01*
X190840Y-1767596D01*
X190840Y-1765196D01*
X189840Y-1762796D01*
X187840Y-1761596D01*
G54D14*
X183840Y-1749996D02*
X174840Y-1749996D01*
G54D14*
X176840Y-1749996D02*
X175240Y-1751196D01*
X174840Y-1753596D01*
X175240Y-1755996D01*
X176840Y-1757196D01*
X183840Y-1757196D01*
G54D14*
X174840Y-1745596D02*
X190840Y-1745596D01*
G54D14*
X181240Y-1745596D02*
X183240Y-1744396D01*
X183840Y-1741996D01*
X183240Y-1739596D01*
X181240Y-1738396D01*
X177240Y-1738396D01*
X175240Y-1739596D01*
X174840Y-1741996D01*
X175240Y-1744396D01*
X177240Y-1745596D01*
G54D14*
X175840Y-1726796D02*
X174840Y-1728716D01*
X174840Y-1731116D01*
X175840Y-1733516D01*
X177840Y-1733996D01*
X181240Y-1733996D01*
X183240Y-1732796D01*
X183840Y-1730396D01*
X183240Y-1727996D01*
X181840Y-1726796D01*
X179840Y-1726796D01*
X179840Y-1733996D01*
G54D14*
X213366Y-1764796D02*
X197366Y-1764796D01*
X197366Y-1756396D01*
G54D14*
X198366Y-1744796D02*
X197366Y-1746716D01*
X197366Y-1749116D01*
X198366Y-1751516D01*
X200366Y-1751996D01*
X203766Y-1751996D01*
X205766Y-1750796D01*
X206366Y-1748396D01*
X205766Y-1745996D01*
X204366Y-1744796D01*
X202366Y-1744796D01*
X202366Y-1751996D01*
G54D14*
X197366Y-1733196D02*
X213366Y-1733196D01*
G54D14*
X203766Y-1733196D02*
X205766Y-1734396D01*
X206366Y-1736796D01*
X205766Y-1739196D01*
X203766Y-1740396D01*
X199766Y-1740396D01*
X197766Y-1739196D01*
X197366Y-1736796D01*
X197766Y-1734396D01*
X199766Y-1733196D01*
G54D10*
X281859Y-1654175D02*
X261414Y-1654175D01*
X261414Y-1643442D01*
G54D10*
X261414Y-1627086D02*
X261414Y-1637820D01*
X281859Y-1637820D01*
X281859Y-1627086D01*
G54D10*
X271637Y-1637820D02*
X271637Y-1627086D01*
G54D10*
X261414Y-1621465D02*
X281859Y-1621465D01*
X281859Y-1613798D01*
X280581Y-1610732D01*
X278026Y-1609198D01*
X265248Y-1609198D01*
X262692Y-1610732D01*
X261414Y-1613798D01*
X261414Y-1621465D01*
G54D10*
X265248Y-1585380D02*
X262692Y-1586914D01*
X261414Y-1589980D01*
X261414Y-1593047D01*
X262692Y-1596114D01*
X265248Y-1597647D01*
X278026Y-1597647D01*
X280581Y-1596114D01*
X281859Y-1593047D01*
X281859Y-1589980D01*
X280581Y-1586914D01*
X278026Y-1585380D01*
G54D10*
X272914Y-1570558D02*
X261414Y-1570558D01*
G54D10*
X263970Y-1570558D02*
X261926Y-1572092D01*
X261414Y-1575158D01*
X261926Y-1578224D01*
X263970Y-1579758D01*
X272914Y-1579758D01*
G54D10*
X261414Y-1564936D02*
X281859Y-1564936D01*
G54D10*
X269592Y-1564936D02*
X272148Y-1563402D01*
X272914Y-1560336D01*
X272148Y-1557270D01*
X269592Y-1555736D01*
X264481Y-1555736D01*
X261926Y-1557270D01*
X261414Y-1560336D01*
X261926Y-1563402D01*
X264481Y-1564936D01*
G54D10*
X262692Y-1540914D02*
X261414Y-1543368D01*
X261414Y-1546434D01*
X262692Y-1549500D01*
X265248Y-1550114D01*
X269592Y-1550114D01*
X272148Y-1548580D01*
X272914Y-1545514D01*
X272148Y-1542448D01*
X270359Y-1540914D01*
X267803Y-1540914D01*
X267803Y-1550114D01*
G54D10*
X271637Y-1521696D02*
X271637Y-1524763D01*
X272914Y-1527830D01*
X275470Y-1529363D01*
X278026Y-1529363D01*
X280581Y-1527830D01*
X281859Y-1524763D01*
X281859Y-1521696D01*
X280581Y-1518630D01*
X278026Y-1517096D01*
X275470Y-1517096D01*
X272914Y-1518630D01*
X271637Y-1521696D01*
X270359Y-1518630D01*
X267803Y-1517096D01*
X265248Y-1517096D01*
X262692Y-1518630D01*
X261414Y-1521696D01*
X261414Y-1524763D01*
X262692Y-1527830D01*
X265248Y-1529363D01*
X267803Y-1529363D01*
X270359Y-1527830D01*
X271637Y-1524763D01*
G54D10*
X272914Y-1511474D02*
X261414Y-1499208D01*
G54D10*
X261414Y-1511474D02*
X272914Y-1499208D01*
G54D10*
X271637Y-1485918D02*
X271637Y-1488985D01*
X272914Y-1492052D01*
X275470Y-1493585D01*
X278026Y-1493585D01*
X280581Y-1492052D01*
X281859Y-1488985D01*
X281859Y-1485918D01*
X280581Y-1482852D01*
X278026Y-1481318D01*
X275470Y-1481318D01*
X272914Y-1482852D01*
X271637Y-1485918D01*
X270359Y-1482852D01*
X267803Y-1481318D01*
X265248Y-1481318D01*
X262692Y-1482852D01*
X261414Y-1485918D01*
X261414Y-1488985D01*
X262692Y-1492052D01*
X265248Y-1493585D01*
X267803Y-1493585D01*
X270359Y-1492052D01*
X271637Y-1488985D01*
G54D10*
X272914Y-1475696D02*
X261414Y-1463430D01*
G54D10*
X261414Y-1475696D02*
X272914Y-1463430D01*
G54D10*
X271637Y-1450140D02*
X271637Y-1453207D01*
X272914Y-1456274D01*
X275470Y-1457807D01*
X278026Y-1457807D01*
X280581Y-1456274D01*
X281859Y-1453207D01*
X281859Y-1450140D01*
X280581Y-1447074D01*
X278026Y-1445540D01*
X275470Y-1445540D01*
X272914Y-1447074D01*
X271637Y-1450140D01*
X270359Y-1447074D01*
X267803Y-1445540D01*
X265248Y-1445540D01*
X262692Y-1447074D01*
X261414Y-1450140D01*
X261414Y-1453207D01*
X262692Y-1456274D01*
X265248Y-1457807D01*
X267803Y-1457807D01*
X270359Y-1456274D01*
X271637Y-1453207D01*
G54D10*
X272914Y-1433989D02*
X261414Y-1427856D01*
X272914Y-1421722D01*
G54D10*
X278026Y-1416100D02*
X280581Y-1414567D01*
X281859Y-1411500D01*
X281859Y-1408433D01*
X280581Y-1405367D01*
X278026Y-1403833D01*
X275470Y-1403833D01*
X272914Y-1405367D01*
X271637Y-1408433D01*
X270359Y-1405367D01*
X267803Y-1403833D01*
X265248Y-1403833D01*
X262692Y-1405367D01*
X261414Y-1408433D01*
X261414Y-1411500D01*
X262692Y-1414567D01*
X265248Y-1416100D01*
G54D10*
X261414Y-1396984D02*
X261414Y-1398211D01*
X262437Y-1398211D01*
X262437Y-1396984D01*
X261414Y-1396984D01*
X261414Y-1398211D01*
G54D10*
X278026Y-1379095D02*
X265248Y-1379095D01*
X262692Y-1380629D01*
X261414Y-1383695D01*
X261414Y-1386762D01*
X262692Y-1389829D01*
X265248Y-1391362D01*
X278026Y-1391362D01*
X280581Y-1389829D01*
X281859Y-1386762D01*
X281859Y-1383695D01*
X280581Y-1380629D01*
X278026Y-1379095D01*
G54D13*
X1492420Y-1163308D02*
X1492420Y-1163308D01*
G54D13*
X1492220Y-1169608D02*
X1492220Y-1169608D01*
G54D13*
X1492220Y-1162608D02*
X1492220Y-1162608D01*
G54D14*
X1498520Y-1162608D02*
X1492220Y-1162608D01*
G54D14*
X1492220Y-1162608D02*
X1485920Y-1162608D01*
G54D14*
X1492220Y-1168908D02*
X1492220Y-1162608D01*
G54D14*
X1496520Y-1158908D02*
X1488520Y-1158908D01*
G54D14*
X1493320Y-1155408D02*
X1491320Y-1155408D01*
G36*
X228600Y-1854200D02*
X218600Y-1854198D01*
X213600Y-1859198D01*
X218600Y-1864200D01*
X228600Y-1854200D01*
G37*
G54D13*
X228600Y-1854200D02*
X218600Y-1854198D01*
X213600Y-1859198D01*
X218600Y-1864200D01*
X228600Y-1854200D01*
G36*
X178600Y-1854200D02*
X178600Y-1844198D01*
X228600Y-1844200D01*
X228600Y-1854200D01*
X178600Y-1854200D01*
G37*
G54D13*
X178600Y-1854200D02*
X178600Y-1844198D01*
X228600Y-1844200D01*
X228600Y-1854200D01*
X178600Y-1854200D01*
G36*
X208600Y-1834198D02*
X208600Y-1844198D01*
X198600Y-1844198D01*
X198600Y-1834198D01*
X208600Y-1834198D01*
G37*
G54D13*
X208600Y-1834198D02*
X208600Y-1844198D01*
X198600Y-1844198D01*
X198600Y-1834198D01*
X208600Y-1834198D01*
G36*
X188600Y-1834198D02*
X188600Y-1844198D01*
X178600Y-1844198D01*
X178600Y-1834198D01*
X188600Y-1834198D01*
G37*
G54D13*
X188600Y-1834198D02*
X188600Y-1844198D01*
X178600Y-1844198D01*
X178600Y-1834198D01*
X188600Y-1834198D01*
G36*
X178600Y-1834200D02*
X178600Y-1824198D01*
X228600Y-1824200D01*
X228600Y-1834200D01*
X178600Y-1834200D01*
G37*
G54D13*
X178600Y-1834200D02*
X178600Y-1824198D01*
X228600Y-1824200D01*
X228600Y-1834200D01*
X178600Y-1834200D01*
G36*
X178600Y-1879200D02*
X178600Y-1869198D01*
X228600Y-1869200D01*
X228600Y-1879200D01*
X178600Y-1879200D01*
G37*
G54D13*
X178600Y-1879200D02*
X178600Y-1869198D01*
X228600Y-1869200D01*
X228600Y-1879200D01*
X178600Y-1879200D01*
G36*
X228600Y-1834200D02*
X228600Y-1844200D01*
X218600Y-1844200D01*
X218600Y-1834200D01*
X228600Y-1834200D01*
G37*
G54D13*
X228600Y-1834200D02*
X228600Y-1844200D01*
X218600Y-1844200D01*
X218600Y-1834200D01*
X228600Y-1834200D01*
G36*
X178600Y-1809200D02*
X178600Y-1799198D01*
X228600Y-1799200D01*
X228600Y-1809200D01*
X178600Y-1809200D01*
G37*
G54D13*
X178600Y-1809200D02*
X178600Y-1799198D01*
X228600Y-1799200D01*
X228600Y-1809200D01*
X178600Y-1809200D01*
G36*
X228600Y-1869200D02*
X218600Y-1869200D01*
X211100Y-1861700D01*
X216100Y-1856698D01*
X228600Y-1869200D01*
G37*
G54D13*
X228600Y-1869200D02*
X218600Y-1869200D01*
X211100Y-1861700D01*
X216100Y-1856698D01*
X228600Y-1869200D01*
G36*
X213600Y-1809200D02*
X201100Y-1809198D01*
X186100Y-1824198D01*
X198600Y-1824200D01*
X213600Y-1809200D01*
G37*
G54D13*
X213600Y-1809200D02*
X201100Y-1809198D01*
X186100Y-1824198D01*
X198600Y-1824200D01*
X213600Y-1809200D01*
M02*
