; Drill file
; Format: 2.4 (00.0000)
M48
INCH
T01C0.0236
T02C0.0315
T03C0.0787
%
G05
G90
T01
X004860Y-073880
X004860Y-064040
X004860Y-054200
X004860Y-044350
X004860Y-034510
X004860Y-024670
X004860Y-014830
X004860Y-004980
X014700Y-004980
X024540Y-004980
X034390Y-004980
X044230Y-004980
X054070Y-004980
X063910Y-004980
X073760Y-004980
X073760Y-014830
X063910Y-014830
X054070Y-014830
X044230Y-014830
X034390Y-014830
X024540Y-014830
X014700Y-014830
X014700Y-024670
X024540Y-024670
X034390Y-024670
X044230Y-024670
X054070Y-024670
X063910Y-024670
X073760Y-024670
X073760Y-034510
X073760Y-044350
X071590Y-044160
X071590Y-046520
X071590Y-054000
X073760Y-054200
X071590Y-056360
X071590Y-063840
X073760Y-064040
X071590Y-066200
X071590Y-070140
X071590Y-072900
X073760Y-073880
X063910Y-073880
X063910Y-064040
X063910Y-054200
X063910Y-044350
X063910Y-034510
X054070Y-034510
X044230Y-034510
X034390Y-034510
X024540Y-034510
X014700Y-034510
X014700Y-044350
X024540Y-044350
X034390Y-044350
X044230Y-044350
X054070Y-044350
X054070Y-054200
X044230Y-054200
X034390Y-054200
X024540Y-054200
X014700Y-054200
X014700Y-064040
X024540Y-064040
X034390Y-064040
X044230Y-064040
X054070Y-064040
X054070Y-073880
X044230Y-073880
X034390Y-073880
X024540Y-073880
X014700Y-073880
T02
X000000Y-078740
X078740Y-078740
X078740Y000000
X000000Y000000
T03
X001910Y-076830
X076710Y-076830
X076710Y-002030
X001910Y-002030
M30
