%FSLAX34Y34*%
%MOMM*%
%LNSOLDERMASK_BOTTOM*%
G71*
G01*
%ADD10R, 2.00X1.50*%
%ADD11R, 1.50X2.00*%
%ADD12C, 2.60*%
%ADD13R, 1.90X0.96*%
%ADD14C, 2.90*%
%ADD15C, 3.10*%
%ADD16R, 1.20X2.00*%
%ADD17R, 6.20X2.20*%
%ADD18C, 4.80*%
%LPD*%
X374650Y-176212D02*
G54D10*
D03*
X374650Y-143712D02*
G54D10*
D03*
X374650Y-425450D02*
G54D10*
D03*
X374650Y-392950D02*
G54D10*
D03*
X390525Y-625475D02*
G54D11*
D03*
X423025Y-625475D02*
G54D11*
D03*
X328612Y-865188D02*
G54D11*
D03*
X361112Y-865188D02*
G54D11*
D03*
X423862Y-1127125D02*
G54D11*
D03*
X391362Y-1127125D02*
G54D11*
D03*
X374650Y-1327150D02*
G54D10*
D03*
X374650Y-1359650D02*
G54D10*
D03*
X373062Y-1577975D02*
G54D10*
D03*
X373062Y-1610475D02*
G54D10*
D03*
X373062Y-1858962D02*
G54D10*
D03*
X373062Y-1826462D02*
G54D10*
D03*
X123825Y-176212D02*
G54D10*
D03*
X123825Y-143712D02*
G54D10*
D03*
X123825Y-425450D02*
G54D10*
D03*
X123825Y-392950D02*
G54D10*
D03*
X141288Y-625475D02*
G54D11*
D03*
X173788Y-625475D02*
G54D11*
D03*
X123825Y-925512D02*
G54D10*
D03*
X123825Y-893012D02*
G54D10*
D03*
X174625Y-1127125D02*
G54D11*
D03*
X142125Y-1127125D02*
G54D11*
D03*
X123825Y-1327150D02*
G54D10*
D03*
X123825Y-1359650D02*
G54D10*
D03*
X123825Y-1577975D02*
G54D10*
D03*
X123825Y-1610475D02*
G54D10*
D03*
X123825Y-1860550D02*
G54D10*
D03*
X123825Y-1828050D02*
G54D10*
D03*
X1818425Y-1851600D02*
G54D12*
D03*
X1818425Y-1781600D02*
G54D12*
D03*
X1818425Y-1681600D02*
G54D12*
D03*
X1818425Y-1121600D02*
G54D12*
D03*
X1818425Y-1181600D02*
G54D12*
D03*
X1818425Y-1371600D02*
G54D12*
D03*
X1818425Y-1431600D02*
G54D12*
D03*
X1818425Y-1621600D02*
G54D12*
D03*
X196850Y-704850D02*
G54D13*
D03*
X196850Y-717550D02*
G54D13*
D03*
X196850Y-730250D02*
G54D13*
D03*
X196850Y-742950D02*
G54D13*
D03*
X142850Y-704850D02*
G54D13*
D03*
X142850Y-717550D02*
G54D13*
D03*
X142850Y-730250D02*
G54D13*
D03*
X142850Y-742950D02*
G54D13*
D03*
X196850Y-755650D02*
G54D13*
D03*
X196850Y-768350D02*
G54D13*
D03*
X196850Y-781050D02*
G54D13*
D03*
X142850Y-755650D02*
G54D13*
D03*
X142850Y-768350D02*
G54D13*
D03*
X142850Y-781050D02*
G54D13*
D03*
X196850Y-793750D02*
G54D13*
D03*
X142850Y-793750D02*
G54D13*
D03*
X1873425Y-1126600D02*
G54D14*
D03*
X123425Y-126600D02*
G54D15*
D03*
X373425Y-126600D02*
G54D15*
D03*
X623425Y-126600D02*
G54D15*
D03*
X873425Y-126600D02*
G54D15*
D03*
X1123425Y-126600D02*
G54D15*
D03*
X1373425Y-126600D02*
G54D15*
D03*
X1623425Y-126600D02*
G54D15*
D03*
X1873425Y-126600D02*
G54D15*
D03*
X123425Y-376600D02*
G54D15*
D03*
X373425Y-376600D02*
G54D15*
D03*
X623425Y-376600D02*
G54D15*
D03*
X873425Y-376600D02*
G54D15*
D03*
X1123425Y-376600D02*
G54D15*
D03*
X1373425Y-376600D02*
G54D15*
D03*
X1623425Y-376600D02*
G54D15*
D03*
X1873425Y-376600D02*
G54D15*
D03*
X123425Y-626600D02*
G54D15*
D03*
X373425Y-626600D02*
G54D15*
D03*
X623425Y-626600D02*
G54D15*
D03*
X873425Y-626600D02*
G54D15*
D03*
X1123425Y-626600D02*
G54D15*
D03*
X1373425Y-626600D02*
G54D15*
D03*
X1623425Y-626600D02*
G54D15*
D03*
X1873425Y-626600D02*
G54D15*
D03*
X123425Y-876600D02*
G54D15*
D03*
X373425Y-876600D02*
G54D15*
D03*
X623425Y-876600D02*
G54D15*
D03*
X873425Y-876600D02*
G54D15*
D03*
X1123425Y-876600D02*
G54D15*
D03*
X1373425Y-876600D02*
G54D15*
D03*
X1623425Y-876600D02*
G54D15*
D03*
X1873425Y-876600D02*
G54D15*
D03*
X123425Y-1126600D02*
G54D15*
D03*
X373425Y-1126600D02*
G54D15*
D03*
X623425Y-1126600D02*
G54D15*
D03*
X873425Y-1126600D02*
G54D15*
D03*
X1123425Y-1126600D02*
G54D15*
D03*
X1373425Y-1126600D02*
G54D15*
D03*
X1623425Y-1126600D02*
G54D15*
D03*
X123425Y-1376600D02*
G54D15*
D03*
X373425Y-1376600D02*
G54D15*
D03*
X623425Y-1376600D02*
G54D15*
D03*
X873425Y-1376600D02*
G54D15*
D03*
X1123425Y-1376600D02*
G54D15*
D03*
X1373425Y-1376600D02*
G54D15*
D03*
X1623425Y-1376600D02*
G54D15*
D03*
X123425Y-1626600D02*
G54D15*
D03*
X373425Y-1626600D02*
G54D15*
D03*
X623425Y-1626600D02*
G54D15*
D03*
X873425Y-1626600D02*
G54D15*
D03*
X1123425Y-1626600D02*
G54D15*
D03*
X1373425Y-1626600D02*
G54D15*
D03*
X1623425Y-1626600D02*
G54D15*
D03*
X1873425Y-1626600D02*
G54D15*
D03*
X123425Y-1876600D02*
G54D15*
D03*
X373425Y-1876600D02*
G54D15*
D03*
X623425Y-1876600D02*
G54D15*
D03*
X873425Y-1876600D02*
G54D15*
D03*
X1123425Y-1876600D02*
G54D15*
D03*
X1373425Y-1876600D02*
G54D15*
D03*
X1623425Y-1876600D02*
G54D15*
D03*
X1873425Y-1876600D02*
G54D15*
D03*
X1873425Y-1376600D02*
G54D14*
D03*
X282575Y-434975D02*
G54D11*
D03*
X250075Y-434975D02*
G54D11*
D03*
X320675Y-1860550D02*
G54D11*
D03*
X288175Y-1860550D02*
G54D11*
D03*
X428625Y-708025D02*
G54D13*
D03*
X428625Y-720725D02*
G54D13*
D03*
X428625Y-733425D02*
G54D13*
D03*
X428625Y-746125D02*
G54D13*
D03*
X374625Y-708025D02*
G54D13*
D03*
X374625Y-720725D02*
G54D13*
D03*
X374625Y-733425D02*
G54D13*
D03*
X374625Y-746125D02*
G54D13*
D03*
X428625Y-758825D02*
G54D13*
D03*
X428625Y-771525D02*
G54D13*
D03*
X428625Y-784225D02*
G54D13*
D03*
X374625Y-758825D02*
G54D13*
D03*
X374625Y-771525D02*
G54D13*
D03*
X374625Y-784225D02*
G54D13*
D03*
X428625Y-796925D02*
G54D13*
D03*
X374625Y-796925D02*
G54D13*
D03*
X238125Y-434975D02*
G54D11*
D03*
X205625Y-434975D02*
G54D11*
D03*
X153988Y-279400D02*
G54D11*
D03*
X121488Y-279400D02*
G54D11*
D03*
X193675Y-263525D02*
G54D11*
D03*
X161175Y-263525D02*
G54D11*
D03*
X233362Y-279400D02*
G54D11*
D03*
X200862Y-279400D02*
G54D11*
D03*
X155580Y-273046D02*
G54D16*
D03*
X200030Y-273045D02*
G54D16*
D03*
X530225Y-434975D02*
G54D11*
D03*
X497725Y-434975D02*
G54D11*
D03*
X485775Y-434975D02*
G54D11*
D03*
X453275Y-434975D02*
G54D11*
D03*
X568325Y-1860550D02*
G54D11*
D03*
X535825Y-1860550D02*
G54D11*
D03*
X330200Y-1003300D02*
G54D10*
D03*
X330200Y-970800D02*
G54D10*
D03*
X330200Y-958850D02*
G54D10*
D03*
X330200Y-926350D02*
G54D10*
D03*
X312420Y-926306D02*
G54D10*
D03*
X312420Y-893806D02*
G54D10*
D03*
X623888Y-176212D02*
G54D10*
D03*
X623888Y-143712D02*
G54D10*
D03*
X623888Y-425450D02*
G54D10*
D03*
X623888Y-392950D02*
G54D10*
D03*
X639762Y-625475D02*
G54D11*
D03*
X672263Y-625475D02*
G54D11*
D03*
X577850Y-865188D02*
G54D11*
D03*
X610350Y-865188D02*
G54D11*
D03*
X673100Y-1127125D02*
G54D11*
D03*
X640600Y-1127125D02*
G54D11*
D03*
X623888Y-1327150D02*
G54D10*
D03*
X623888Y-1359650D02*
G54D10*
D03*
X622300Y-1577975D02*
G54D10*
D03*
X622300Y-1610475D02*
G54D10*
D03*
X622300Y-1858962D02*
G54D10*
D03*
X622300Y-1826462D02*
G54D10*
D03*
X677862Y-708025D02*
G54D13*
D03*
X677862Y-720725D02*
G54D13*
D03*
X677862Y-733425D02*
G54D13*
D03*
X677862Y-746125D02*
G54D13*
D03*
X623863Y-708025D02*
G54D13*
D03*
X623863Y-720725D02*
G54D13*
D03*
X623863Y-733425D02*
G54D13*
D03*
X623863Y-746125D02*
G54D13*
D03*
X677862Y-758825D02*
G54D13*
D03*
X677862Y-771525D02*
G54D13*
D03*
X677862Y-784225D02*
G54D13*
D03*
X623863Y-758825D02*
G54D13*
D03*
X623862Y-771525D02*
G54D13*
D03*
X623862Y-784225D02*
G54D13*
D03*
X677862Y-796925D02*
G54D13*
D03*
X623862Y-796925D02*
G54D13*
D03*
X779462Y-434975D02*
G54D11*
D03*
X746962Y-434975D02*
G54D11*
D03*
X735012Y-434975D02*
G54D11*
D03*
X702512Y-434975D02*
G54D11*
D03*
X817562Y-1860550D02*
G54D11*
D03*
X785062Y-1860550D02*
G54D11*
D03*
X579438Y-1003300D02*
G54D10*
D03*
X579438Y-970800D02*
G54D10*
D03*
X579438Y-958850D02*
G54D10*
D03*
X579438Y-926350D02*
G54D10*
D03*
X561658Y-926306D02*
G54D10*
D03*
X561658Y-893806D02*
G54D10*
D03*
X873125Y-176212D02*
G54D10*
D03*
X873125Y-143712D02*
G54D10*
D03*
X873125Y-425450D02*
G54D10*
D03*
X873125Y-392950D02*
G54D10*
D03*
X889000Y-625475D02*
G54D11*
D03*
X921500Y-625475D02*
G54D11*
D03*
X827088Y-865188D02*
G54D11*
D03*
X859588Y-865188D02*
G54D11*
D03*
X922338Y-1127125D02*
G54D11*
D03*
X889838Y-1127125D02*
G54D11*
D03*
X873125Y-1327150D02*
G54D10*
D03*
X873125Y-1359650D02*
G54D10*
D03*
X871538Y-1577975D02*
G54D10*
D03*
X871538Y-1610475D02*
G54D10*
D03*
X871538Y-1858962D02*
G54D10*
D03*
X871538Y-1826462D02*
G54D10*
D03*
X927100Y-708025D02*
G54D13*
D03*
X927100Y-720725D02*
G54D13*
D03*
X927100Y-733425D02*
G54D13*
D03*
X927100Y-746125D02*
G54D13*
D03*
X873100Y-708025D02*
G54D13*
D03*
X873100Y-720725D02*
G54D13*
D03*
X873100Y-733425D02*
G54D13*
D03*
X873100Y-746125D02*
G54D13*
D03*
X927100Y-758825D02*
G54D13*
D03*
X927100Y-771525D02*
G54D13*
D03*
X927100Y-784225D02*
G54D13*
D03*
X873100Y-758825D02*
G54D13*
D03*
X873100Y-771525D02*
G54D13*
D03*
X873100Y-784225D02*
G54D13*
D03*
X927100Y-796925D02*
G54D13*
D03*
X873100Y-796925D02*
G54D13*
D03*
X1028700Y-434975D02*
G54D11*
D03*
X996200Y-434975D02*
G54D11*
D03*
X984250Y-434975D02*
G54D11*
D03*
X951750Y-434975D02*
G54D11*
D03*
X1066800Y-1860550D02*
G54D11*
D03*
X1034300Y-1860550D02*
G54D11*
D03*
X828675Y-1003300D02*
G54D10*
D03*
X828675Y-970800D02*
G54D10*
D03*
X828675Y-958850D02*
G54D10*
D03*
X828675Y-926350D02*
G54D10*
D03*
X810895Y-926306D02*
G54D10*
D03*
X810895Y-893806D02*
G54D10*
D03*
X1123950Y-176212D02*
G54D10*
D03*
X1123950Y-143712D02*
G54D10*
D03*
X1123950Y-425450D02*
G54D10*
D03*
X1123950Y-392950D02*
G54D10*
D03*
X1139825Y-625475D02*
G54D11*
D03*
X1172325Y-625475D02*
G54D11*
D03*
X1077912Y-865188D02*
G54D11*
D03*
X1110412Y-865188D02*
G54D11*
D03*
X1173162Y-1127125D02*
G54D11*
D03*
X1140662Y-1127125D02*
G54D11*
D03*
X1123950Y-1327150D02*
G54D10*
D03*
X1123950Y-1359650D02*
G54D10*
D03*
X1122362Y-1577975D02*
G54D10*
D03*
X1122362Y-1610475D02*
G54D10*
D03*
X1122362Y-1858962D02*
G54D10*
D03*
X1122362Y-1826462D02*
G54D10*
D03*
X1177925Y-708025D02*
G54D13*
D03*
X1177925Y-720725D02*
G54D13*
D03*
X1177925Y-733425D02*
G54D13*
D03*
X1177925Y-746125D02*
G54D13*
D03*
X1123925Y-708025D02*
G54D13*
D03*
X1123925Y-720725D02*
G54D13*
D03*
X1123925Y-733425D02*
G54D13*
D03*
X1123925Y-746125D02*
G54D13*
D03*
X1177925Y-758825D02*
G54D13*
D03*
X1177925Y-771525D02*
G54D13*
D03*
X1177925Y-784225D02*
G54D13*
D03*
X1123925Y-758825D02*
G54D13*
D03*
X1123925Y-771525D02*
G54D13*
D03*
X1123925Y-784225D02*
G54D13*
D03*
X1177925Y-796925D02*
G54D13*
D03*
X1123925Y-796925D02*
G54D13*
D03*
X1279525Y-434975D02*
G54D11*
D03*
X1247025Y-434975D02*
G54D11*
D03*
X1235075Y-434975D02*
G54D11*
D03*
X1202575Y-434975D02*
G54D11*
D03*
X1317625Y-1860550D02*
G54D11*
D03*
X1285125Y-1860550D02*
G54D11*
D03*
X1079500Y-1003300D02*
G54D10*
D03*
X1079500Y-970800D02*
G54D10*
D03*
X1079500Y-958850D02*
G54D10*
D03*
X1079500Y-926350D02*
G54D10*
D03*
X1061720Y-926306D02*
G54D10*
D03*
X1061720Y-893806D02*
G54D10*
D03*
X1373188Y-176212D02*
G54D10*
D03*
X1373188Y-143712D02*
G54D10*
D03*
X1373188Y-425450D02*
G54D10*
D03*
X1373188Y-392950D02*
G54D10*
D03*
X1389062Y-625475D02*
G54D11*
D03*
X1421562Y-625475D02*
G54D11*
D03*
X1327150Y-865188D02*
G54D11*
D03*
X1359650Y-865188D02*
G54D11*
D03*
X1422400Y-1127125D02*
G54D11*
D03*
X1389900Y-1127125D02*
G54D11*
D03*
X1373188Y-1327150D02*
G54D10*
D03*
X1373188Y-1359650D02*
G54D10*
D03*
X1371600Y-1577975D02*
G54D10*
D03*
X1371600Y-1610475D02*
G54D10*
D03*
X1371600Y-1858962D02*
G54D10*
D03*
X1371600Y-1826462D02*
G54D10*
D03*
X1427162Y-708025D02*
G54D13*
D03*
X1427162Y-720725D02*
G54D13*
D03*
X1427162Y-733425D02*
G54D13*
D03*
X1427162Y-746125D02*
G54D13*
D03*
X1373163Y-708025D02*
G54D13*
D03*
X1373163Y-720725D02*
G54D13*
D03*
X1373163Y-733425D02*
G54D13*
D03*
X1373163Y-746125D02*
G54D13*
D03*
X1427162Y-758825D02*
G54D13*
D03*
X1427162Y-771525D02*
G54D13*
D03*
X1427162Y-784225D02*
G54D13*
D03*
X1373163Y-758825D02*
G54D13*
D03*
X1373162Y-771525D02*
G54D13*
D03*
X1373162Y-784225D02*
G54D13*
D03*
X1427162Y-796925D02*
G54D13*
D03*
X1373162Y-796925D02*
G54D13*
D03*
X1528762Y-434975D02*
G54D11*
D03*
X1496262Y-434975D02*
G54D11*
D03*
X1484312Y-434975D02*
G54D11*
D03*
X1451812Y-434975D02*
G54D11*
D03*
X1568450Y-1860550D02*
G54D11*
D03*
X1535950Y-1860550D02*
G54D11*
D03*
X1328738Y-1003300D02*
G54D10*
D03*
X1328738Y-970800D02*
G54D10*
D03*
X1328738Y-958850D02*
G54D10*
D03*
X1328738Y-926350D02*
G54D10*
D03*
X1310958Y-926306D02*
G54D10*
D03*
X1310958Y-893806D02*
G54D10*
D03*
X1622425Y-176212D02*
G54D10*
D03*
X1622425Y-143712D02*
G54D10*
D03*
X1622425Y-425450D02*
G54D10*
D03*
X1622425Y-392950D02*
G54D10*
D03*
X1638300Y-625475D02*
G54D11*
D03*
X1670800Y-625475D02*
G54D11*
D03*
X1576388Y-865188D02*
G54D11*
D03*
X1608888Y-865188D02*
G54D11*
D03*
X1671638Y-1127125D02*
G54D11*
D03*
X1639138Y-1127125D02*
G54D11*
D03*
X1622425Y-1327150D02*
G54D10*
D03*
X1622425Y-1359650D02*
G54D10*
D03*
X1623286Y-1675097D02*
G54D10*
D03*
X1623286Y-1642597D02*
G54D10*
D03*
X1620838Y-1858962D02*
G54D10*
D03*
X1620838Y-1826462D02*
G54D10*
D03*
X1676400Y-708025D02*
G54D13*
D03*
X1676400Y-720725D02*
G54D13*
D03*
X1676400Y-733425D02*
G54D13*
D03*
X1676400Y-746125D02*
G54D13*
D03*
X1622400Y-708025D02*
G54D13*
D03*
X1622400Y-720725D02*
G54D13*
D03*
X1622400Y-733425D02*
G54D13*
D03*
X1622400Y-746125D02*
G54D13*
D03*
X1676400Y-758825D02*
G54D13*
D03*
X1676400Y-771525D02*
G54D13*
D03*
X1676400Y-784225D02*
G54D13*
D03*
X1622400Y-758825D02*
G54D13*
D03*
X1622400Y-771525D02*
G54D13*
D03*
X1622400Y-784225D02*
G54D13*
D03*
X1676400Y-796925D02*
G54D13*
D03*
X1622400Y-796925D02*
G54D13*
D03*
X1736725Y-434975D02*
G54D11*
D03*
X1704225Y-434975D02*
G54D11*
D03*
X1698625Y-1882775D02*
G54D11*
D03*
X1666125Y-1882775D02*
G54D11*
D03*
X1577975Y-1003300D02*
G54D10*
D03*
X1577975Y-970800D02*
G54D10*
D03*
X1577975Y-958850D02*
G54D10*
D03*
X1577975Y-926350D02*
G54D10*
D03*
X1560195Y-926306D02*
G54D10*
D03*
X1560195Y-893806D02*
G54D10*
D03*
X1873250Y-176212D02*
G54D10*
D03*
X1873250Y-143712D02*
G54D10*
D03*
X1873250Y-425450D02*
G54D10*
D03*
X1873250Y-392950D02*
G54D10*
D03*
X1889125Y-625475D02*
G54D11*
D03*
X1921625Y-625475D02*
G54D11*
D03*
X1827212Y-865188D02*
G54D11*
D03*
X1859712Y-865188D02*
G54D11*
D03*
X1922462Y-1127125D02*
G54D11*
D03*
X1889962Y-1127125D02*
G54D11*
D03*
X1873250Y-1327150D02*
G54D10*
D03*
X1873250Y-1359650D02*
G54D10*
D03*
X1871662Y-1577975D02*
G54D10*
D03*
X1871662Y-1610475D02*
G54D10*
D03*
X1871662Y-1858962D02*
G54D10*
D03*
X1871662Y-1826462D02*
G54D10*
D03*
X1927225Y-708025D02*
G54D13*
D03*
X1927225Y-720725D02*
G54D13*
D03*
X1927225Y-733425D02*
G54D13*
D03*
X1927225Y-746125D02*
G54D13*
D03*
X1873225Y-708025D02*
G54D13*
D03*
X1873225Y-720725D02*
G54D13*
D03*
X1873225Y-733425D02*
G54D13*
D03*
X1873225Y-746125D02*
G54D13*
D03*
X1927225Y-758825D02*
G54D13*
D03*
X1927225Y-771525D02*
G54D13*
D03*
X1927225Y-784225D02*
G54D13*
D03*
X1873225Y-758825D02*
G54D13*
D03*
X1873225Y-771525D02*
G54D13*
D03*
X1873225Y-784225D02*
G54D13*
D03*
X1927225Y-796925D02*
G54D13*
D03*
X1873225Y-796925D02*
G54D13*
D03*
X1828800Y-1003300D02*
G54D10*
D03*
X1828800Y-970800D02*
G54D10*
D03*
X233362Y-92075D02*
G54D10*
D03*
X233363Y-59575D02*
G54D10*
D03*
X1467699Y-1882786D02*
G54D10*
D03*
X1467699Y-1850286D02*
G54D10*
D03*
X1467699Y-1927236D02*
G54D10*
D03*
X1467699Y-1894736D02*
G54D10*
D03*
X1718425Y-1406600D02*
G54D17*
D03*
X1718425Y-1434600D02*
G54D17*
D03*
X1718425Y-1462600D02*
G54D17*
D03*
X1718425Y-1489600D02*
G54D17*
D03*
X1718425Y-1516600D02*
G54D17*
D03*
X1718425Y-1543600D02*
G54D17*
D03*
X1718425Y-1571600D02*
G54D17*
D03*
X1718425Y-1599600D02*
G54D17*
D03*
X1472362Y-1179588D02*
G54D17*
D03*
X1472362Y-1207588D02*
G54D17*
D03*
X1472362Y-1235588D02*
G54D17*
D03*
X1472362Y-1262588D02*
G54D17*
D03*
X1472362Y-1289588D02*
G54D17*
D03*
X48430Y-1951600D02*
G54D18*
D03*
X1948425Y-1951600D02*
G54D18*
D03*
X1948425Y-51600D02*
G54D18*
D03*
X48425Y-51600D02*
G54D18*
D03*
M02*
