%FSLAX34Y34*%
%MOMM*%
%LNSILK_BOTTOM*%
G71*
G01*
%ADD10C, 0.08*%
%ADD11C, 0.10*%
%ADD12C, 0.40*%
%ADD13C, 0.17*%
%ADD14C, 0.04*%
%ADD15C, 0.50*%
%ADD16C, 0.14*%
%ADD17C, 0.15*%
%ADD18C, 0.11*%
%ADD19C, 0.08*%
%ADD20C, 0.06*%
%LPD*%
G54D10*
X374650Y-167062D02*
X374650Y-163862D01*
X376250Y-163862D01*
X376250Y-155962D01*
X373050Y-155962D01*
X373050Y-163862D01*
X374650Y-163862D01*
G54D10*
X374650Y-155962D02*
X374650Y-152762D01*
G54D10*
X382450Y-175412D02*
X382450Y-144212D01*
X366850Y-144212D01*
X366850Y-175412D01*
X382450Y-175412D01*
G54D10*
X374650Y-416300D02*
X374650Y-413100D01*
X376250Y-413100D01*
X376250Y-405200D01*
X373050Y-405200D01*
X373050Y-413100D01*
X374650Y-413100D01*
G54D10*
X374650Y-405200D02*
X374650Y-402000D01*
G54D10*
X382450Y-424650D02*
X382450Y-393450D01*
X366850Y-393450D01*
X366850Y-424650D01*
X382450Y-424650D01*
G54D10*
X399675Y-625475D02*
X402875Y-625475D01*
X402875Y-627075D01*
X410775Y-627075D01*
X410775Y-623875D01*
X402875Y-623875D01*
X402875Y-625475D01*
G54D10*
X410775Y-625475D02*
X413975Y-625475D01*
G54D10*
X391325Y-633275D02*
X422525Y-633275D01*
X422525Y-617675D01*
X391325Y-617675D01*
X391325Y-633275D01*
G54D10*
X337762Y-865188D02*
X340962Y-865188D01*
X340962Y-866788D01*
X348862Y-866788D01*
X348862Y-863588D01*
X340962Y-863588D01*
X340962Y-865188D01*
G54D10*
X348862Y-865188D02*
X352062Y-865188D01*
G54D10*
X329412Y-872988D02*
X360612Y-872988D01*
X360612Y-857388D01*
X329412Y-857388D01*
X329412Y-872988D01*
G54D10*
X414712Y-1127125D02*
X411512Y-1127125D01*
X411512Y-1125525D01*
X403612Y-1125525D01*
X403612Y-1128725D01*
X411512Y-1128725D01*
X411512Y-1127125D01*
G54D10*
X403612Y-1127125D02*
X400412Y-1127125D01*
G54D10*
X423062Y-1119325D02*
X391862Y-1119325D01*
X391862Y-1134925D01*
X423062Y-1134925D01*
X423062Y-1119325D01*
G54D10*
X374650Y-1336300D02*
X374650Y-1339500D01*
X373050Y-1339500D01*
X373050Y-1347400D01*
X376250Y-1347400D01*
X376250Y-1339500D01*
X374650Y-1339500D01*
G54D10*
X374650Y-1347400D02*
X374650Y-1350600D01*
G54D10*
X366850Y-1327950D02*
X366850Y-1359150D01*
X382450Y-1359150D01*
X382450Y-1327950D01*
X366850Y-1327950D01*
G54D10*
X373062Y-1587125D02*
X373062Y-1590325D01*
X371462Y-1590325D01*
X371462Y-1598225D01*
X374662Y-1598225D01*
X374662Y-1590325D01*
X373062Y-1590325D01*
G54D10*
X373062Y-1598225D02*
X373062Y-1601425D01*
G54D10*
X365262Y-1578775D02*
X365262Y-1609975D01*
X380862Y-1609975D01*
X380862Y-1578775D01*
X365262Y-1578775D01*
G54D10*
X373062Y-1849812D02*
X373062Y-1846612D01*
X374662Y-1846612D01*
X374662Y-1838712D01*
X371462Y-1838712D01*
X371462Y-1846612D01*
X373062Y-1846612D01*
G54D10*
X373062Y-1838712D02*
X373062Y-1835512D01*
G54D10*
X380862Y-1858162D02*
X380862Y-1826962D01*
X365262Y-1826962D01*
X365262Y-1858162D01*
X380862Y-1858162D01*
G54D10*
X123825Y-167062D02*
X123825Y-163862D01*
X125425Y-163862D01*
X125425Y-155962D01*
X122225Y-155962D01*
X122225Y-163862D01*
X123825Y-163862D01*
G54D10*
X123825Y-155962D02*
X123825Y-152762D01*
G54D10*
X131625Y-175412D02*
X131625Y-144212D01*
X116025Y-144212D01*
X116025Y-175412D01*
X131625Y-175412D01*
G54D10*
X123825Y-416300D02*
X123825Y-413100D01*
X125425Y-413100D01*
X125425Y-405200D01*
X122225Y-405200D01*
X122225Y-413100D01*
X123825Y-413100D01*
G54D10*
X123825Y-405200D02*
X123825Y-402000D01*
G54D10*
X131625Y-424650D02*
X131625Y-393450D01*
X116025Y-393450D01*
X116025Y-424650D01*
X131625Y-424650D01*
G54D10*
X150438Y-625475D02*
X153638Y-625475D01*
X153638Y-627075D01*
X161538Y-627075D01*
X161538Y-623875D01*
X153638Y-623875D01*
X153638Y-625475D01*
G54D10*
X161538Y-625475D02*
X164738Y-625475D01*
G54D10*
X142088Y-633275D02*
X173288Y-633275D01*
X173288Y-617675D01*
X142088Y-617675D01*
X142088Y-633275D01*
G54D10*
X123825Y-916362D02*
X123825Y-913162D01*
X125425Y-913162D01*
X125425Y-905262D01*
X122225Y-905262D01*
X122225Y-913162D01*
X123825Y-913162D01*
G54D10*
X123825Y-905262D02*
X123825Y-902062D01*
G54D10*
X131625Y-924712D02*
X131625Y-893512D01*
X116025Y-893512D01*
X116025Y-924712D01*
X131625Y-924712D01*
G54D10*
X165475Y-1127125D02*
X162275Y-1127125D01*
X162275Y-1125525D01*
X154375Y-1125525D01*
X154375Y-1128725D01*
X162275Y-1128725D01*
X162275Y-1127125D01*
G54D10*
X154375Y-1127125D02*
X151175Y-1127125D01*
G54D10*
X173825Y-1119325D02*
X142625Y-1119325D01*
X142625Y-1134925D01*
X173825Y-1134925D01*
X173825Y-1119325D01*
G54D10*
X123825Y-1336300D02*
X123825Y-1339500D01*
X122225Y-1339500D01*
X122225Y-1347400D01*
X125425Y-1347400D01*
X125425Y-1339500D01*
X123825Y-1339500D01*
G54D10*
X123825Y-1347400D02*
X123825Y-1350600D01*
G54D10*
X116025Y-1327950D02*
X116025Y-1359150D01*
X131625Y-1359150D01*
X131625Y-1327950D01*
X116025Y-1327950D01*
G54D10*
X123825Y-1587125D02*
X123825Y-1590325D01*
X122225Y-1590325D01*
X122225Y-1598225D01*
X125425Y-1598225D01*
X125425Y-1590325D01*
X123825Y-1590325D01*
G54D10*
X123825Y-1598225D02*
X123825Y-1601425D01*
G54D10*
X116025Y-1578775D02*
X116025Y-1609975D01*
X131625Y-1609975D01*
X131625Y-1578775D01*
X116025Y-1578775D01*
G54D10*
X123825Y-1851400D02*
X123825Y-1848200D01*
X125425Y-1848200D01*
X125425Y-1840300D01*
X122225Y-1840300D01*
X122225Y-1848200D01*
X123825Y-1848200D01*
G54D10*
X123825Y-1840300D02*
X123825Y-1837100D01*
G54D10*
X131625Y-1859750D02*
X131625Y-1828550D01*
X116025Y-1828550D01*
X116025Y-1859750D01*
X131625Y-1859750D01*
G54D11*
X188950Y-698550D02*
X188950Y-800150D01*
X150750Y-800150D01*
X150750Y-698550D01*
X188950Y-698550D01*
G54D12*
G75*
G01X184150Y-704750D02*
G03X184150Y-704750I-1600J0D01*
G01*
G54D13*
X176597Y-719165D02*
X176597Y-724498D01*
X174930Y-723832D01*
X172430Y-722498D01*
X169097Y-721165D01*
X166597Y-720498D01*
X163264Y-720498D01*
G54D13*
X163264Y-732165D02*
X176597Y-732165D01*
X168264Y-728165D01*
X166597Y-728165D01*
X166597Y-733498D01*
G54D13*
X163264Y-737165D02*
X176597Y-737165D01*
G54D13*
X163264Y-742498D02*
X176597Y-742498D01*
G54D13*
X169930Y-737165D02*
X169930Y-742498D01*
G54D13*
X165764Y-751498D02*
X164097Y-750832D01*
X163264Y-749498D01*
X163264Y-748165D01*
X164097Y-746832D01*
X165764Y-746165D01*
X174097Y-746165D01*
X175764Y-746832D01*
X176597Y-748165D01*
X176597Y-749498D01*
X175764Y-750832D01*
X174097Y-751498D01*
G54D13*
X176597Y-760498D02*
X176597Y-755165D01*
X170764Y-755165D01*
X170764Y-755832D01*
X171597Y-757165D01*
X171597Y-758498D01*
X170764Y-759832D01*
X169097Y-760498D01*
X165764Y-760498D01*
X164097Y-759832D01*
X163264Y-758498D01*
X163264Y-757165D01*
X164097Y-755832D01*
X165764Y-755165D01*
G54D13*
X165764Y-764165D02*
X164097Y-764832D01*
X163264Y-766165D01*
X163264Y-767498D01*
X164097Y-768832D01*
X165764Y-769498D01*
X169930Y-769498D01*
X170764Y-769498D01*
X169097Y-767498D01*
X169097Y-766165D01*
X169930Y-764832D01*
X171597Y-764165D01*
X174097Y-764165D01*
X175764Y-764832D01*
X176597Y-766165D01*
X176597Y-767498D01*
X175764Y-768832D01*
X174097Y-769498D01*
X169930Y-769498D01*
G54D13*
X176597Y-778498D02*
X176597Y-773165D01*
X170764Y-773165D01*
X170764Y-773832D01*
X171597Y-775165D01*
X171597Y-776498D01*
X170764Y-777832D01*
X169097Y-778498D01*
X165764Y-778498D01*
X164097Y-777832D01*
X163264Y-776498D01*
X163264Y-775165D01*
X164097Y-773832D01*
X165764Y-773165D01*
G54D14*
X157340Y-702391D02*
X153785Y-703280D01*
X157340Y-704169D01*
G54D14*
X155652Y-706036D02*
X155785Y-705680D01*
X155652Y-705325D01*
X155207Y-705147D01*
X154318Y-705147D01*
X153874Y-705325D01*
X153785Y-705680D01*
X153874Y-706036D01*
G54D14*
X155651Y-707903D02*
X155785Y-707547D01*
X155651Y-707192D01*
X155207Y-707014D01*
X154318Y-707014D01*
X153874Y-707192D01*
X153785Y-707547D01*
X153874Y-707903D01*
G54D14*
X156674Y-718384D02*
X154452Y-718384D01*
X154008Y-718206D01*
X153786Y-717850D01*
X153786Y-717495D01*
X154008Y-717140D01*
X154452Y-716962D01*
X156675Y-716962D01*
X157119Y-717140D01*
X157341Y-717495D01*
X157341Y-717850D01*
X157119Y-718206D01*
X156674Y-718384D01*
G54D14*
X153786Y-728374D02*
X157342Y-728374D01*
X157342Y-729263D01*
X157119Y-729618D01*
X156674Y-729796D01*
X154452Y-729796D01*
X154008Y-729619D01*
X153786Y-729263D01*
X153786Y-728374D01*
G54D14*
X154452Y-730774D02*
X154008Y-730952D01*
X153786Y-731308D01*
X153786Y-731663D01*
X154008Y-732019D01*
X154452Y-732196D01*
X154897Y-732196D01*
X155341Y-732019D01*
X155564Y-731663D01*
X155564Y-731308D01*
X155786Y-730952D01*
X156230Y-730774D01*
X156674Y-730774D01*
X157119Y-730952D01*
X157342Y-731308D01*
X157342Y-731663D01*
X157119Y-732018D01*
X156675Y-732196D01*
G54D14*
X156674Y-741184D02*
X154452Y-741184D01*
X154008Y-741006D01*
X153786Y-740650D01*
X153786Y-740294D01*
X154008Y-739939D01*
X154452Y-739761D01*
X156674Y-739761D01*
X157119Y-739939D01*
X157342Y-740294D01*
X157342Y-740650D01*
X157119Y-741006D01*
X156674Y-741184D01*
G54D14*
X153786Y-743406D02*
X153786Y-742162D01*
X157342Y-742161D01*
X157342Y-743406D01*
G54D14*
X155564Y-742161D02*
X155564Y-743406D01*
G54D14*
X155341Y-744383D02*
X155341Y-745806D01*
G54D14*
X154452Y-748368D02*
X154008Y-748546D01*
X153786Y-748902D01*
X153786Y-749257D01*
X154008Y-749613D01*
X154452Y-749790D01*
X154897Y-749790D01*
X155341Y-749613D01*
X155564Y-749257D01*
X155564Y-748902D01*
X155786Y-748546D01*
X156230Y-748368D01*
X156675Y-748368D01*
X157119Y-748546D01*
X157341Y-748902D01*
X157341Y-749257D01*
X157119Y-749613D01*
X156675Y-749790D01*
G54D14*
X153786Y-751479D02*
X157341Y-751479D01*
G54D14*
X157342Y-750768D02*
X157342Y-752190D01*
G54D14*
X153786Y-753168D02*
X153786Y-754946D01*
G54D14*
X154452Y-757346D02*
X154008Y-757169D01*
X153786Y-756813D01*
X153786Y-756458D01*
X154008Y-756102D01*
X154452Y-755924D01*
X156674Y-755924D01*
X157119Y-756102D01*
X157342Y-756458D01*
X157342Y-756813D01*
X157119Y-757168D01*
X156675Y-757346D01*
G54D14*
X153786Y-758324D02*
X157342Y-758324D01*
X157342Y-759213D01*
X157119Y-759568D01*
X156674Y-759746D01*
X156230Y-759746D01*
X155786Y-759569D01*
X155564Y-759213D01*
X155564Y-758324D01*
G54D14*
X154452Y-762656D02*
X154008Y-762834D01*
X153786Y-763189D01*
X153786Y-763544D01*
X154008Y-763900D01*
X154452Y-764078D01*
X154897Y-764078D01*
X155341Y-763900D01*
X155564Y-763544D01*
X155564Y-763189D01*
X155786Y-762834D01*
X156230Y-762656D01*
X156674Y-762656D01*
X157119Y-762834D01*
X157342Y-763189D01*
X157342Y-763544D01*
X157119Y-763900D01*
X156675Y-764078D01*
G54D14*
X153786Y-765056D02*
X157342Y-765056D01*
G54D14*
X153786Y-766478D02*
X157341Y-766478D01*
G54D14*
X155564Y-765056D02*
X155564Y-766478D01*
G54D14*
X153786Y-767456D02*
X153786Y-769234D01*
G54D14*
X154452Y-771634D02*
X154008Y-771456D01*
X153786Y-771100D01*
X153786Y-770745D01*
X154008Y-770390D01*
X154452Y-770212D01*
X156674Y-770212D01*
X157119Y-770390D01*
X157342Y-770745D01*
X157342Y-771101D01*
X157119Y-771456D01*
X156674Y-771634D01*
G54D14*
X153786Y-772612D02*
X157342Y-772612D01*
X157341Y-773500D01*
X157119Y-773856D01*
X156675Y-774034D01*
X156230Y-774034D01*
X155786Y-773856D01*
X155564Y-773500D01*
X155564Y-772612D01*
G54D14*
X155564Y-777285D02*
X155119Y-777818D01*
X154674Y-777996D01*
X153786Y-777996D01*
G54D14*
X153786Y-776574D02*
X157342Y-776574D01*
X157342Y-777462D01*
X157119Y-777818D01*
X156675Y-777996D01*
X156230Y-777996D01*
X155786Y-777818D01*
X155564Y-777462D01*
X155564Y-776574D01*
G54D14*
X153786Y-780218D02*
X153786Y-778974D01*
X157342Y-778974D01*
X157342Y-780218D01*
G54D14*
X155564Y-778974D02*
X155564Y-780218D01*
G54D14*
X154452Y-781196D02*
X154008Y-781374D01*
X153786Y-781729D01*
X153786Y-782085D01*
X154008Y-782440D01*
X154452Y-782618D01*
X154897Y-782618D01*
X155341Y-782440D01*
X155564Y-782084D01*
X155564Y-781729D01*
X155786Y-781374D01*
X156230Y-781196D01*
X156674Y-781196D01*
X157119Y-781374D01*
X157342Y-781729D01*
X157342Y-782084D01*
X157119Y-782440D01*
X156675Y-782618D01*
G54D14*
X155341Y-783596D02*
X155341Y-785018D01*
G54D14*
X156230Y-784307D02*
X154452Y-784307D01*
G54D14*
X157345Y-793163D02*
X157345Y-794586D01*
X156900Y-794408D01*
X156234Y-794052D01*
X155345Y-793696D01*
X154678Y-793518D01*
X153789Y-793519D01*
G54D14*
X157345Y-795563D02*
X156456Y-795563D01*
G54D14*
X184582Y-709535D02*
X185916Y-710424D01*
X182360Y-710424D01*
G54D14*
X182361Y-718384D02*
X182361Y-716962D01*
X182583Y-716962D01*
X183027Y-717140D01*
X184361Y-718206D01*
X184805Y-718384D01*
X185250Y-718384D01*
X185694Y-718206D01*
X185916Y-717850D01*
X185916Y-717495D01*
X185694Y-717140D01*
X185250Y-716962D01*
G54D14*
X185250Y-729168D02*
X185694Y-729346D01*
X185916Y-729701D01*
X185916Y-730057D01*
X185694Y-730412D01*
X185250Y-730590D01*
X184805Y-730590D01*
X184361Y-730412D01*
X184138Y-730057D01*
X183916Y-730412D01*
X183472Y-730590D01*
X183028Y-730590D01*
X182583Y-730412D01*
X182361Y-730057D01*
X182361Y-729701D01*
X182583Y-729346D01*
X183027Y-729168D01*
G54D14*
X182361Y-743209D02*
X185916Y-743209D01*
X183694Y-742142D01*
X183250Y-742143D01*
X183250Y-743565D01*
G54D14*
X185916Y-756140D02*
X185916Y-754718D01*
X184361Y-754718D01*
X184361Y-754896D01*
X184583Y-755252D01*
X184583Y-755607D01*
X184361Y-755963D01*
X183916Y-756140D01*
X183028Y-756140D01*
X182583Y-755962D01*
X182361Y-755607D01*
X182361Y-755252D01*
X182583Y-754896D01*
X183027Y-754718D01*
G54D14*
X185250Y-768840D02*
X185694Y-768663D01*
X185916Y-768307D01*
X185916Y-767952D01*
X185694Y-767596D01*
X185250Y-767418D01*
X184138Y-767418D01*
X183916Y-767418D01*
X184361Y-767952D01*
X184361Y-768307D01*
X184138Y-768663D01*
X183694Y-768840D01*
X183028Y-768840D01*
X182583Y-768662D01*
X182361Y-768307D01*
X182361Y-767952D01*
X182583Y-767596D01*
X183028Y-767418D01*
X184138Y-767418D01*
G54D14*
X185916Y-780542D02*
X185916Y-781964D01*
X185472Y-781787D01*
X184805Y-781432D01*
X183916Y-781076D01*
X183250Y-780898D01*
X182361Y-780898D01*
G54D14*
X184142Y-791493D02*
X184142Y-792204D01*
X183031Y-792204D01*
X182586Y-792026D01*
X182364Y-791671D01*
X182364Y-791315D01*
X182586Y-790960D01*
X183031Y-790782D01*
X185253Y-790782D01*
X185698Y-790960D01*
X185920Y-791316D01*
X185920Y-791671D01*
X185698Y-792026D01*
X185253Y-792204D01*
G54D14*
X182364Y-793182D02*
X185920Y-793182D01*
X182364Y-794604D01*
X185920Y-794604D01*
G54D14*
X182364Y-795582D02*
X185920Y-795582D01*
X185920Y-796471D01*
X185698Y-796826D01*
X185253Y-797004D01*
X183031Y-797004D01*
X182586Y-796826D01*
X182364Y-796471D01*
X182364Y-795582D01*
G54D15*
X0Y0D02*
X2000000Y0D01*
X2000000Y-2000000D01*
X0Y-2000000D01*
X0Y0D01*
G36*
X0Y2500D02*
X0Y-2500D01*
X-2500Y-2500D01*
X-2500Y2500D01*
X0Y2500D01*
G37*
G36*
X2500Y0D02*
X-2500Y0D01*
X-2500Y2500D01*
X2500Y2500D01*
X2500Y0D01*
G37*
G54D10*
X273425Y-434975D02*
X270225Y-434975D01*
X270225Y-433375D01*
X262325Y-433375D01*
X262325Y-436575D01*
X270225Y-436575D01*
X270225Y-434975D01*
G54D10*
X262325Y-434975D02*
X259125Y-434975D01*
G54D10*
X281775Y-427175D02*
X250575Y-427175D01*
X250575Y-442775D01*
X281775Y-442775D01*
X281775Y-427175D01*
G54D10*
X311525Y-1860550D02*
X308325Y-1860550D01*
X308325Y-1858950D01*
X300425Y-1858950D01*
X300425Y-1862150D01*
X308325Y-1862150D01*
X308325Y-1860550D01*
G54D10*
X300425Y-1860550D02*
X297225Y-1860550D01*
G54D10*
X319875Y-1852750D02*
X288675Y-1852750D01*
X288675Y-1868350D01*
X319875Y-1868350D01*
X319875Y-1852750D01*
G54D11*
X420725Y-701725D02*
X420725Y-803325D01*
X382525Y-803325D01*
X382525Y-701725D01*
X420725Y-701725D01*
G54D12*
G75*
G01X415925Y-707925D02*
G03X415925Y-707925I-1600J0D01*
G01*
G54D13*
X408372Y-722340D02*
X408372Y-727673D01*
X406705Y-727006D01*
X404205Y-725674D01*
X400872Y-724340D01*
X398372Y-723673D01*
X395038Y-723673D01*
G54D13*
X395038Y-735340D02*
X408372Y-735340D01*
X400039Y-731340D01*
X398372Y-731340D01*
X398372Y-736673D01*
G54D13*
X395038Y-740340D02*
X408372Y-740340D01*
G54D13*
X395038Y-745673D02*
X408372Y-745673D01*
G54D13*
X401705Y-740340D02*
X401705Y-745673D01*
G54D13*
X397538Y-754673D02*
X395872Y-754007D01*
X395038Y-752673D01*
X395038Y-751340D01*
X395872Y-750006D01*
X397538Y-749340D01*
X405872Y-749340D01*
X407538Y-750007D01*
X408372Y-751340D01*
X408372Y-752673D01*
X407538Y-754007D01*
X405872Y-754673D01*
G54D13*
X408372Y-763673D02*
X408372Y-758340D01*
X402538Y-758340D01*
X402538Y-759006D01*
X403372Y-760340D01*
X403372Y-761673D01*
X402539Y-763006D01*
X400872Y-763673D01*
X397539Y-763673D01*
X395872Y-763007D01*
X395039Y-761673D01*
X395039Y-760340D01*
X395872Y-759007D01*
X397539Y-758340D01*
G54D13*
X397538Y-767340D02*
X395872Y-768007D01*
X395038Y-769340D01*
X395038Y-770673D01*
X395872Y-772006D01*
X397538Y-772674D01*
X401705Y-772674D01*
X402539Y-772674D01*
X400872Y-770673D01*
X400872Y-769340D01*
X401705Y-768007D01*
X403372Y-767340D01*
X405872Y-767340D01*
X407539Y-768007D01*
X408372Y-769340D01*
X408372Y-770673D01*
X407539Y-772007D01*
X405872Y-772673D01*
X401705Y-772674D01*
G54D13*
X408372Y-781673D02*
X408372Y-776340D01*
X402539Y-776340D01*
X402539Y-777006D01*
X403372Y-778340D01*
X403372Y-779673D01*
X402539Y-781007D01*
X400872Y-781673D01*
X397538Y-781673D01*
X395872Y-781006D01*
X395038Y-779673D01*
X395038Y-778340D01*
X395872Y-777007D01*
X397539Y-776340D01*
G54D14*
X389115Y-705566D02*
X385560Y-706455D01*
X389115Y-707344D01*
G54D14*
X387426Y-709211D02*
X387560Y-708855D01*
X387426Y-708500D01*
X386982Y-708322D01*
X386093Y-708322D01*
X385649Y-708500D01*
X385560Y-708855D01*
X385649Y-709211D01*
G54D14*
X387426Y-711078D02*
X387560Y-710722D01*
X387426Y-710367D01*
X386982Y-710189D01*
X386093Y-710189D01*
X385648Y-710367D01*
X385560Y-710722D01*
X385649Y-711078D01*
G54D14*
X388450Y-721559D02*
X386228Y-721559D01*
X385783Y-721381D01*
X385561Y-721026D01*
X385561Y-720670D01*
X385783Y-720314D01*
X386227Y-720137D01*
X388450Y-720137D01*
X388894Y-720314D01*
X389116Y-720670D01*
X389116Y-721026D01*
X388894Y-721381D01*
X388450Y-721559D01*
G54D14*
X385561Y-731550D02*
X389116Y-731549D01*
X389116Y-732438D01*
X388894Y-732794D01*
X388450Y-732971D01*
X386228Y-732971D01*
X385783Y-732794D01*
X385561Y-732438D01*
X385561Y-731550D01*
G54D14*
X386227Y-733949D02*
X385783Y-734127D01*
X385561Y-734482D01*
X385561Y-734838D01*
X385783Y-735194D01*
X386227Y-735372D01*
X386672Y-735372D01*
X387116Y-735194D01*
X387338Y-734838D01*
X387338Y-734482D01*
X387561Y-734127D01*
X388005Y-733950D01*
X388450Y-733949D01*
X388894Y-734127D01*
X389116Y-734482D01*
X389116Y-734838D01*
X388894Y-735194D01*
X388450Y-735372D01*
G54D14*
X388450Y-744358D02*
X386227Y-744358D01*
X385783Y-744180D01*
X385561Y-743825D01*
X385561Y-743470D01*
X385783Y-743114D01*
X386227Y-742936D01*
X388450Y-742936D01*
X388894Y-743114D01*
X389116Y-743470D01*
X389116Y-743825D01*
X388894Y-744181D01*
X388450Y-744358D01*
G54D14*
X385561Y-746581D02*
X385561Y-745336D01*
X389116Y-745336D01*
X389116Y-746580D01*
G54D14*
X387338Y-745336D02*
X387338Y-746580D01*
G54D14*
X387116Y-747558D02*
X387116Y-748980D01*
G54D14*
X386227Y-751543D02*
X385783Y-751721D01*
X385561Y-752076D01*
X385561Y-752432D01*
X385783Y-752788D01*
X386228Y-752966D01*
X386672Y-752966D01*
X387116Y-752788D01*
X387338Y-752432D01*
X387338Y-752076D01*
X387560Y-751721D01*
X388005Y-751543D01*
X388450Y-751543D01*
X388894Y-751721D01*
X389116Y-752076D01*
X389116Y-752432D01*
X388894Y-752788D01*
X388450Y-752966D01*
G54D14*
X385561Y-754654D02*
X389116Y-754654D01*
G54D14*
X389116Y-753943D02*
X389116Y-755366D01*
G54D14*
X385561Y-756344D02*
X385561Y-758121D01*
G54D14*
X386227Y-760522D02*
X385783Y-760344D01*
X385561Y-759988D01*
X385561Y-759632D01*
X385783Y-759277D01*
X386227Y-759099D01*
X388450Y-759099D01*
X388894Y-759277D01*
X389116Y-759632D01*
X389116Y-759988D01*
X388894Y-760344D01*
X388450Y-760522D01*
G54D14*
X385561Y-761499D02*
X389116Y-761500D01*
X389116Y-762388D01*
X388894Y-762744D01*
X388450Y-762922D01*
X388005Y-762922D01*
X387561Y-762744D01*
X387338Y-762388D01*
X387338Y-761499D01*
G54D14*
X386227Y-765831D02*
X385783Y-766008D01*
X385561Y-766364D01*
X385561Y-766720D01*
X385783Y-767075D01*
X386227Y-767253D01*
X386672Y-767253D01*
X387116Y-767075D01*
X387338Y-766720D01*
X387338Y-766364D01*
X387561Y-766008D01*
X388005Y-765831D01*
X388450Y-765831D01*
X388894Y-766008D01*
X389116Y-766364D01*
X389116Y-766720D01*
X388894Y-767075D01*
X388450Y-767253D01*
G54D14*
X385561Y-768231D02*
X389116Y-768231D01*
G54D14*
X385561Y-769653D02*
X389116Y-769653D01*
G54D14*
X387338Y-768231D02*
X387338Y-769653D01*
G54D14*
X385561Y-770631D02*
X385561Y-772408D01*
G54D14*
X386227Y-774809D02*
X385783Y-774631D01*
X385560Y-774276D01*
X385560Y-773920D01*
X385783Y-773564D01*
X386227Y-773387D01*
X388450Y-773387D01*
X388894Y-773564D01*
X389116Y-773920D01*
X389116Y-774276D01*
X388894Y-774631D01*
X388450Y-774809D01*
G54D14*
X385561Y-775787D02*
X389116Y-775787D01*
X389116Y-776676D01*
X388894Y-777031D01*
X388450Y-777209D01*
X388005Y-777209D01*
X387561Y-777031D01*
X387338Y-776676D01*
X387338Y-775787D01*
G54D14*
X387338Y-780460D02*
X386894Y-780994D01*
X386450Y-781171D01*
X385561Y-781171D01*
G54D14*
X385561Y-779749D02*
X389116Y-779749D01*
X389116Y-780638D01*
X388894Y-780993D01*
X388450Y-781171D01*
X388005Y-781171D01*
X387561Y-780994D01*
X387338Y-780638D01*
X387338Y-779749D01*
G54D14*
X385561Y-783393D02*
X385561Y-782149D01*
X389116Y-782149D01*
X389116Y-783394D01*
G54D14*
X387338Y-782149D02*
X387338Y-783393D01*
G54D14*
X386227Y-784371D02*
X385783Y-784548D01*
X385561Y-784904D01*
X385561Y-785260D01*
X385783Y-785615D01*
X386227Y-785793D01*
X386672Y-785793D01*
X387116Y-785615D01*
X387338Y-785260D01*
X387338Y-784904D01*
X387561Y-784548D01*
X388005Y-784371D01*
X388450Y-784371D01*
X388894Y-784548D01*
X389116Y-784904D01*
X389116Y-785260D01*
X388894Y-785615D01*
X388450Y-785793D01*
G54D14*
X387116Y-786771D02*
X387116Y-788193D01*
G54D14*
X388005Y-787482D02*
X386227Y-787482D01*
G54D14*
X389120Y-796338D02*
X389120Y-797760D01*
X388676Y-797582D01*
X388008Y-797227D01*
X387120Y-796872D01*
X386453Y-796694D01*
X385564Y-796694D01*
G54D14*
X389120Y-798738D02*
X388231Y-798738D01*
G54D14*
X416357Y-712710D02*
X417690Y-713599D01*
X414135Y-713598D01*
G54D14*
X414136Y-721559D02*
X414136Y-720137D01*
X414358Y-720137D01*
X414802Y-720314D01*
X416136Y-721381D01*
X416580Y-721559D01*
X417025Y-721559D01*
X417469Y-721381D01*
X417692Y-721026D01*
X417692Y-720670D01*
X417469Y-720314D01*
X417024Y-720137D01*
G54D14*
X417024Y-732343D02*
X417469Y-732521D01*
X417692Y-732876D01*
X417692Y-733232D01*
X417469Y-733588D01*
X417025Y-733765D01*
X416580Y-733765D01*
X416136Y-733588D01*
X415914Y-733232D01*
X415692Y-733588D01*
X415247Y-733765D01*
X414802Y-733765D01*
X414358Y-733588D01*
X414136Y-733232D01*
X414136Y-732876D01*
X414358Y-732521D01*
X414802Y-732343D01*
G54D14*
X414136Y-746384D02*
X417691Y-746384D01*
X415469Y-745318D01*
X415025Y-745318D01*
X415024Y-746740D01*
G54D14*
X417692Y-759316D02*
X417691Y-757894D01*
X416136Y-757893D01*
X416136Y-758071D01*
X416358Y-758426D01*
X416358Y-758782D01*
X416136Y-759138D01*
X415692Y-759316D01*
X414802Y-759316D01*
X414358Y-759138D01*
X414136Y-758782D01*
X414136Y-758426D01*
X414358Y-758071D01*
X414802Y-757893D01*
G54D14*
X417024Y-772016D02*
X417469Y-771838D01*
X417691Y-771482D01*
X417691Y-771127D01*
X417469Y-770771D01*
X417024Y-770593D01*
X415914Y-770593D01*
X415691Y-770593D01*
X416136Y-771126D01*
X416136Y-771482D01*
X415914Y-771838D01*
X415469Y-772016D01*
X414802Y-772016D01*
X414358Y-771838D01*
X414136Y-771482D01*
X414136Y-771126D01*
X414358Y-770771D01*
X414802Y-770594D01*
X415914Y-770593D01*
G54D14*
X417691Y-783718D02*
X417692Y-785140D01*
X417247Y-784962D01*
X416580Y-784606D01*
X415691Y-784251D01*
X415025Y-784073D01*
X414136Y-784073D01*
G54D14*
X415917Y-794668D02*
X415917Y-795379D01*
X414806Y-795379D01*
X414362Y-795202D01*
X414139Y-794846D01*
X414139Y-794490D01*
X414362Y-794135D01*
X414806Y-793957D01*
X417028Y-793957D01*
X417473Y-794135D01*
X417695Y-794490D01*
X417695Y-794846D01*
X417472Y-795202D01*
X417028Y-795379D01*
G54D14*
X414139Y-796357D02*
X417695Y-796357D01*
X414139Y-797779D01*
X417695Y-797779D01*
G54D14*
X414139Y-798757D02*
X417695Y-798757D01*
X417695Y-799646D01*
X417472Y-800002D01*
X417028Y-800179D01*
X414806Y-800179D01*
X414361Y-800002D01*
X414139Y-799646D01*
X414139Y-798757D01*
G54D16*
X359125Y-702670D02*
X352192Y-702670D01*
X353058Y-704114D01*
X354792Y-706280D01*
X356525Y-709170D01*
X357392Y-711336D01*
X357392Y-714225D01*
G54D16*
X343814Y-714225D02*
X343814Y-702670D01*
X349014Y-709892D01*
X349014Y-711336D01*
X342081Y-711336D01*
G54D16*
X338903Y-714225D02*
X338903Y-702670D01*
G54D16*
X331970Y-714225D02*
X331970Y-702670D01*
G54D16*
X338903Y-708447D02*
X331970Y-708447D01*
G54D16*
X321859Y-712058D02*
X322725Y-713503D01*
X324459Y-714225D01*
X326192Y-714225D01*
X327925Y-713503D01*
X328792Y-712058D01*
X328792Y-704836D01*
X327925Y-703392D01*
X326192Y-702670D01*
X324459Y-702670D01*
X322725Y-703392D01*
X321859Y-704836D01*
G54D16*
X311748Y-702670D02*
X318681Y-702670D01*
X318681Y-707725D01*
X317814Y-707725D01*
X316081Y-707003D01*
X314348Y-707003D01*
X312614Y-707725D01*
X311748Y-709170D01*
X311748Y-712058D01*
X312614Y-713503D01*
X314348Y-714225D01*
X316081Y-714225D01*
X317814Y-713503D01*
X318681Y-712058D01*
G54D16*
X308570Y-712058D02*
X307703Y-713503D01*
X305970Y-714225D01*
X304237Y-714225D01*
X302503Y-713503D01*
X301637Y-712058D01*
X301637Y-708447D01*
X301637Y-707725D01*
X304237Y-709170D01*
X305970Y-709170D01*
X307703Y-708447D01*
X308570Y-707003D01*
X308570Y-704836D01*
X307703Y-703392D01*
X305970Y-702670D01*
X304237Y-702670D01*
X302503Y-703392D01*
X301637Y-704836D01*
X301637Y-708447D01*
G54D16*
X291526Y-702670D02*
X298459Y-702670D01*
X298459Y-707725D01*
X297592Y-707725D01*
X295859Y-707003D01*
X294126Y-707003D01*
X292392Y-707725D01*
X291526Y-709170D01*
X291526Y-712058D01*
X292392Y-713503D01*
X294126Y-714225D01*
X295859Y-714225D01*
X297592Y-713503D01*
X298459Y-712058D01*
G54D10*
X228975Y-434975D02*
X225775Y-434975D01*
X225775Y-433375D01*
X217875Y-433375D01*
X217875Y-436575D01*
X225775Y-436575D01*
X225775Y-434975D01*
G54D10*
X217875Y-434975D02*
X214675Y-434975D01*
G54D10*
X237325Y-427175D02*
X206125Y-427175D01*
X206125Y-442775D01*
X237325Y-442775D01*
X237325Y-427175D01*
G54D10*
X144838Y-279400D02*
X141638Y-279400D01*
X141638Y-277800D01*
X133738Y-277800D01*
X133738Y-281000D01*
X141638Y-281000D01*
X141638Y-279400D01*
G54D10*
X133737Y-279400D02*
X130538Y-279400D01*
G54D10*
X153188Y-271600D02*
X121988Y-271600D01*
X121988Y-287200D01*
X153188Y-287200D01*
X153188Y-271600D01*
G54D10*
X184525Y-263525D02*
X181325Y-263525D01*
X181325Y-261925D01*
X173425Y-261925D01*
X173425Y-265125D01*
X181325Y-265125D01*
X181325Y-263525D01*
G54D10*
X173425Y-263525D02*
X170225Y-263525D01*
G54D10*
X192875Y-255725D02*
X161675Y-255725D01*
X161675Y-271325D01*
X192875Y-271325D01*
X192875Y-255725D01*
G54D10*
X224212Y-279400D02*
X221012Y-279400D01*
X221012Y-277800D01*
X213112Y-277800D01*
X213112Y-281000D01*
X221012Y-281000D01*
X221012Y-279400D01*
G54D10*
X213112Y-279400D02*
X209912Y-279400D01*
G54D10*
X232562Y-271600D02*
X201362Y-271600D01*
X201362Y-287200D01*
X232562Y-287200D01*
X232562Y-271600D01*
G54D10*
X521075Y-434975D02*
X517875Y-434975D01*
X517875Y-433375D01*
X509975Y-433375D01*
X509975Y-436575D01*
X517875Y-436575D01*
X517875Y-434975D01*
G54D10*
X509975Y-434975D02*
X506775Y-434975D01*
G54D10*
X529425Y-427175D02*
X498225Y-427175D01*
X498225Y-442775D01*
X529425Y-442775D01*
X529425Y-427175D01*
G54D10*
X476625Y-434975D02*
X473425Y-434975D01*
X473425Y-433375D01*
X465525Y-433375D01*
X465525Y-436575D01*
X473425Y-436575D01*
X473425Y-434975D01*
G54D10*
X465525Y-434975D02*
X462325Y-434975D01*
G54D10*
X484975Y-427175D02*
X453775Y-427175D01*
X453775Y-442775D01*
X484975Y-442775D01*
X484975Y-427175D01*
G54D10*
X559175Y-1860550D02*
X555975Y-1860550D01*
X555975Y-1858950D01*
X548075Y-1858950D01*
X548075Y-1862150D01*
X555975Y-1862150D01*
X555975Y-1860550D01*
G54D10*
X548075Y-1860550D02*
X544875Y-1860550D01*
G54D10*
X567525Y-1852750D02*
X536325Y-1852750D01*
X536325Y-1868350D01*
X567525Y-1868350D01*
X567525Y-1852750D01*
G54D10*
X330200Y-994150D02*
X330200Y-990950D01*
X331800Y-990950D01*
X331800Y-983050D01*
X328600Y-983050D01*
X328600Y-990950D01*
X330200Y-990950D01*
G54D10*
X330200Y-983050D02*
X330200Y-979850D01*
G54D10*
X338000Y-1002500D02*
X338000Y-971300D01*
X322400Y-971300D01*
X322400Y-1002500D01*
X338000Y-1002500D01*
G54D10*
X330200Y-949700D02*
X330200Y-946500D01*
X331800Y-946500D01*
X331800Y-938600D01*
X328600Y-938600D01*
X328600Y-946500D01*
X330200Y-946500D01*
G54D10*
X330200Y-938600D02*
X330200Y-935400D01*
G54D10*
X338000Y-958050D02*
X338000Y-926850D01*
X322400Y-926850D01*
X322400Y-958050D01*
X338000Y-958050D01*
G54D10*
X312420Y-917156D02*
X312420Y-913956D01*
X314020Y-913956D01*
X314020Y-906056D01*
X310820Y-906056D01*
X310820Y-913956D01*
X312420Y-913956D01*
G54D10*
X312420Y-906056D02*
X312420Y-902856D01*
G54D10*
X320220Y-925506D02*
X320220Y-894306D01*
X304620Y-894306D01*
X304620Y-925506D01*
X320220Y-925506D01*
G54D10*
X623888Y-167062D02*
X623888Y-163862D01*
X625488Y-163862D01*
X625488Y-155962D01*
X622288Y-155962D01*
X622288Y-163862D01*
X623888Y-163862D01*
G54D10*
X623888Y-155962D02*
X623888Y-152762D01*
G54D10*
X631688Y-175412D02*
X631688Y-144212D01*
X616088Y-144212D01*
X616088Y-175412D01*
X631688Y-175412D01*
G54D10*
X623888Y-416300D02*
X623888Y-413100D01*
X625488Y-413100D01*
X625488Y-405200D01*
X622288Y-405200D01*
X622288Y-413100D01*
X623888Y-413100D01*
G54D10*
X623888Y-405200D02*
X623888Y-402000D01*
G54D10*
X631688Y-424650D02*
X631688Y-393450D01*
X616088Y-393450D01*
X616088Y-424650D01*
X631688Y-424650D01*
G54D10*
X648912Y-625475D02*
X652112Y-625475D01*
X652112Y-627075D01*
X660012Y-627075D01*
X660012Y-623875D01*
X652112Y-623875D01*
X652112Y-625475D01*
G54D10*
X660012Y-625475D02*
X663212Y-625475D01*
G54D10*
X640562Y-633275D02*
X671762Y-633275D01*
X671762Y-617675D01*
X640562Y-617675D01*
X640562Y-633275D01*
G54D10*
X587000Y-865188D02*
X590200Y-865188D01*
X590200Y-866788D01*
X598100Y-866788D01*
X598100Y-863588D01*
X590200Y-863588D01*
X590200Y-865188D01*
G54D10*
X598100Y-865188D02*
X601300Y-865188D01*
G54D10*
X578650Y-872988D02*
X609850Y-872988D01*
X609850Y-857388D01*
X578650Y-857388D01*
X578650Y-872988D01*
G54D10*
X663950Y-1127125D02*
X660750Y-1127125D01*
X660750Y-1125525D01*
X652850Y-1125525D01*
X652850Y-1128725D01*
X660750Y-1128725D01*
X660750Y-1127125D01*
G54D10*
X652850Y-1127125D02*
X649650Y-1127125D01*
G54D10*
X672300Y-1119325D02*
X641100Y-1119325D01*
X641100Y-1134925D01*
X672300Y-1134925D01*
X672300Y-1119325D01*
G54D10*
X623887Y-1336300D02*
X623888Y-1339500D01*
X622288Y-1339500D01*
X622288Y-1347400D01*
X625488Y-1347400D01*
X625488Y-1339500D01*
X623888Y-1339500D01*
G54D10*
X623888Y-1347400D02*
X623887Y-1350600D01*
G54D10*
X616088Y-1327950D02*
X616088Y-1359150D01*
X631688Y-1359150D01*
X631688Y-1327950D01*
X616088Y-1327950D01*
G54D10*
X622300Y-1587125D02*
X622300Y-1590325D01*
X620700Y-1590325D01*
X620700Y-1598225D01*
X623900Y-1598225D01*
X623900Y-1590325D01*
X622300Y-1590325D01*
G54D10*
X622300Y-1598225D02*
X622300Y-1601425D01*
G54D10*
X614500Y-1578775D02*
X614500Y-1609975D01*
X630100Y-1609975D01*
X630100Y-1578775D01*
X614500Y-1578775D01*
G54D10*
X622300Y-1849812D02*
X622300Y-1846612D01*
X623900Y-1846612D01*
X623900Y-1838712D01*
X620700Y-1838712D01*
X620700Y-1846612D01*
X622300Y-1846612D01*
G54D10*
X622300Y-1838712D02*
X622300Y-1835512D01*
G54D10*
X630100Y-1858162D02*
X630100Y-1826962D01*
X614500Y-1826962D01*
X614500Y-1858162D01*
X630100Y-1858162D01*
G54D11*
X669963Y-701725D02*
X669962Y-803325D01*
X631763Y-803325D01*
X631763Y-701725D01*
X669963Y-701725D01*
G54D12*
G75*
G01X665163Y-707925D02*
G03X665163Y-707925I-1600J0D01*
G01*
G54D13*
X657610Y-722340D02*
X657610Y-727673D01*
X655943Y-727006D01*
X653443Y-725674D01*
X650110Y-724340D01*
X647610Y-723673D01*
X644276Y-723673D01*
G54D13*
X644276Y-735340D02*
X657610Y-735340D01*
X649276Y-731340D01*
X647610Y-731340D01*
X647610Y-736673D01*
G54D13*
X644276Y-740340D02*
X657610Y-740340D01*
G54D13*
X644276Y-745673D02*
X657610Y-745673D01*
G54D13*
X650943Y-740340D02*
X650943Y-745673D01*
G54D13*
X646776Y-754673D02*
X645109Y-754007D01*
X644276Y-752673D01*
X644276Y-751340D01*
X645109Y-750006D01*
X646776Y-749340D01*
X655110Y-749340D01*
X656776Y-750007D01*
X657610Y-751340D01*
X657610Y-752673D01*
X656776Y-754007D01*
X655110Y-754673D01*
G54D13*
X657609Y-763673D02*
X657610Y-758340D01*
X651776Y-758340D01*
X651776Y-759006D01*
X652610Y-760340D01*
X652610Y-761673D01*
X651776Y-763006D01*
X650110Y-763673D01*
X646776Y-763673D01*
X645109Y-763007D01*
X644276Y-761673D01*
X644276Y-760340D01*
X645110Y-759007D01*
X646776Y-758340D01*
G54D13*
X646776Y-767340D02*
X645109Y-768007D01*
X644276Y-769340D01*
X644276Y-770673D01*
X645110Y-772006D01*
X646776Y-772674D01*
X650943Y-772674D01*
X651776Y-772674D01*
X650110Y-770673D01*
X650110Y-769340D01*
X650943Y-768007D01*
X652610Y-767340D01*
X655110Y-767340D01*
X656776Y-768007D01*
X657610Y-769340D01*
X657610Y-770673D01*
X656776Y-772007D01*
X655110Y-772673D01*
X650943Y-772674D01*
G54D13*
X657610Y-781673D02*
X657610Y-776340D01*
X651776Y-776340D01*
X651776Y-777006D01*
X652610Y-778340D01*
X652610Y-779673D01*
X651776Y-781007D01*
X650110Y-781673D01*
X646776Y-781673D01*
X645110Y-781006D01*
X644276Y-779673D01*
X644276Y-778340D01*
X645109Y-777007D01*
X646776Y-776340D01*
G54D14*
X638353Y-705566D02*
X634797Y-706455D01*
X638353Y-707344D01*
G54D14*
X636664Y-709211D02*
X636797Y-708855D01*
X636664Y-708500D01*
X636220Y-708322D01*
X635331Y-708322D01*
X634886Y-708500D01*
X634797Y-708855D01*
X634886Y-709211D01*
G54D14*
X636664Y-711078D02*
X636797Y-710722D01*
X636664Y-710367D01*
X636220Y-710189D01*
X635330Y-710189D01*
X634886Y-710367D01*
X634797Y-710722D01*
X634886Y-711078D01*
G54D14*
X637687Y-721559D02*
X635465Y-721559D01*
X635020Y-721381D01*
X634798Y-721026D01*
X634798Y-720670D01*
X635020Y-720314D01*
X635465Y-720137D01*
X637687Y-720137D01*
X638132Y-720314D01*
X638354Y-720670D01*
X638354Y-721026D01*
X638132Y-721381D01*
X637687Y-721559D01*
G54D14*
X634798Y-731550D02*
X638354Y-731549D01*
X638354Y-732438D01*
X638132Y-732794D01*
X637687Y-732971D01*
X635465Y-732971D01*
X635020Y-732794D01*
X634798Y-732438D01*
X634798Y-731550D01*
G54D14*
X635465Y-733949D02*
X635020Y-734127D01*
X634798Y-734482D01*
X634798Y-734838D01*
X635020Y-735194D01*
X635465Y-735372D01*
X635909Y-735372D01*
X636354Y-735194D01*
X636576Y-734838D01*
X636576Y-734482D01*
X636798Y-734127D01*
X637242Y-733950D01*
X637687Y-733949D01*
X638132Y-734127D01*
X638354Y-734482D01*
X638354Y-734838D01*
X638132Y-735194D01*
X637687Y-735372D01*
G54D14*
X637687Y-744358D02*
X635465Y-744358D01*
X635020Y-744180D01*
X634798Y-743825D01*
X634798Y-743470D01*
X635020Y-743114D01*
X635465Y-742936D01*
X637687Y-742936D01*
X638132Y-743114D01*
X638354Y-743470D01*
X638354Y-743825D01*
X638132Y-744181D01*
X637687Y-744358D01*
G54D14*
X634798Y-746581D02*
X634798Y-745336D01*
X638354Y-745336D01*
X638354Y-746580D01*
G54D14*
X636576Y-745336D02*
X636576Y-746580D01*
G54D14*
X636354Y-747558D02*
X636354Y-748980D01*
G54D14*
X635465Y-751543D02*
X635020Y-751721D01*
X634798Y-752076D01*
X634798Y-752432D01*
X635020Y-752788D01*
X635465Y-752966D01*
X635909Y-752966D01*
X636354Y-752788D01*
X636576Y-752432D01*
X636576Y-752076D01*
X636798Y-751721D01*
X637242Y-751543D01*
X637687Y-751543D01*
X638132Y-751721D01*
X638354Y-752076D01*
X638354Y-752432D01*
X638132Y-752788D01*
X637687Y-752966D01*
G54D14*
X634798Y-754654D02*
X638354Y-754654D01*
G54D14*
X638354Y-753943D02*
X638354Y-755366D01*
G54D14*
X634798Y-756344D02*
X634798Y-758121D01*
G54D14*
X635465Y-760522D02*
X635020Y-760344D01*
X634798Y-759988D01*
X634798Y-759632D01*
X635020Y-759277D01*
X635465Y-759099D01*
X637687Y-759099D01*
X638132Y-759277D01*
X638354Y-759632D01*
X638354Y-759988D01*
X638132Y-760344D01*
X637687Y-760522D01*
G54D14*
X634798Y-761499D02*
X638354Y-761500D01*
X638354Y-762388D01*
X638132Y-762744D01*
X637687Y-762922D01*
X637242Y-762922D01*
X636798Y-762744D01*
X636576Y-762388D01*
X636576Y-761499D01*
G54D14*
X635465Y-765831D02*
X635020Y-766008D01*
X634798Y-766364D01*
X634798Y-766720D01*
X635020Y-767075D01*
X635465Y-767253D01*
X635909Y-767253D01*
X636354Y-767075D01*
X636576Y-766720D01*
X636576Y-766364D01*
X636798Y-766008D01*
X637242Y-765831D01*
X637687Y-765831D01*
X638132Y-766008D01*
X638354Y-766364D01*
X638354Y-766720D01*
X638132Y-767075D01*
X637687Y-767253D01*
G54D14*
X634798Y-768231D02*
X638354Y-768231D01*
G54D14*
X634798Y-769653D02*
X638354Y-769653D01*
G54D14*
X636576Y-768231D02*
X636576Y-769653D01*
G54D14*
X634798Y-770631D02*
X634798Y-772408D01*
G54D14*
X635465Y-774809D02*
X635020Y-774631D01*
X634798Y-774276D01*
X634798Y-773920D01*
X635020Y-773564D01*
X635465Y-773387D01*
X637687Y-773387D01*
X638132Y-773564D01*
X638354Y-773920D01*
X638354Y-774276D01*
X638132Y-774631D01*
X637687Y-774809D01*
G54D14*
X634798Y-775787D02*
X638354Y-775787D01*
X638354Y-776676D01*
X638132Y-777031D01*
X637687Y-777209D01*
X637243Y-777209D01*
X636798Y-777031D01*
X636576Y-776676D01*
X636576Y-775787D01*
G54D14*
X636576Y-780460D02*
X636132Y-780994D01*
X635687Y-781171D01*
X634798Y-781171D01*
G54D14*
X634798Y-779749D02*
X638354Y-779749D01*
X638354Y-780638D01*
X638132Y-780993D01*
X637687Y-781171D01*
X637243Y-781171D01*
X636798Y-780994D01*
X636576Y-780638D01*
X636576Y-779749D01*
G54D14*
X634798Y-783393D02*
X634798Y-782149D01*
X638354Y-782149D01*
X638354Y-783394D01*
G54D14*
X636576Y-782149D02*
X636576Y-783393D01*
G54D14*
X635465Y-784371D02*
X635020Y-784548D01*
X634798Y-784904D01*
X634798Y-785260D01*
X635020Y-785615D01*
X635465Y-785793D01*
X635910Y-785793D01*
X636354Y-785615D01*
X636576Y-785260D01*
X636576Y-784904D01*
X636798Y-784548D01*
X637242Y-784371D01*
X637687Y-784371D01*
X638132Y-784548D01*
X638354Y-784904D01*
X638354Y-785260D01*
X638132Y-785615D01*
X637687Y-785793D01*
G54D14*
X636354Y-786771D02*
X636354Y-788193D01*
G54D14*
X637242Y-787482D02*
X635465Y-787482D01*
G54D14*
X638358Y-796338D02*
X638358Y-797760D01*
X637913Y-797582D01*
X637246Y-797227D01*
X636358Y-796872D01*
X635691Y-796694D01*
X634802Y-796694D01*
G54D14*
X638358Y-798738D02*
X637468Y-798738D01*
G54D14*
X665594Y-712710D02*
X666928Y-713599D01*
X663372Y-713598D01*
G54D14*
X663373Y-721559D02*
X663373Y-720137D01*
X663596Y-720137D01*
X664040Y-720314D01*
X665373Y-721381D01*
X665818Y-721559D01*
X666262Y-721559D01*
X666707Y-721381D01*
X666929Y-721026D01*
X666929Y-720670D01*
X666707Y-720314D01*
X666262Y-720137D01*
G54D14*
X666262Y-732343D02*
X666706Y-732521D01*
X666929Y-732876D01*
X666929Y-733232D01*
X666707Y-733588D01*
X666262Y-733765D01*
X665818Y-733765D01*
X665373Y-733588D01*
X665151Y-733232D01*
X664929Y-733588D01*
X664484Y-733765D01*
X664040Y-733765D01*
X663596Y-733588D01*
X663373Y-733232D01*
X663373Y-732876D01*
X663596Y-732521D01*
X664040Y-732343D01*
G54D14*
X663373Y-746384D02*
X666929Y-746384D01*
X664707Y-745318D01*
X664262Y-745318D01*
X664262Y-746740D01*
G54D14*
X666929Y-759316D02*
X666929Y-757894D01*
X665373Y-757893D01*
X665373Y-758071D01*
X665595Y-758426D01*
X665596Y-758782D01*
X665373Y-759138D01*
X664929Y-759316D01*
X664040Y-759316D01*
X663596Y-759138D01*
X663373Y-758782D01*
X663373Y-758426D01*
X663596Y-758071D01*
X664040Y-757893D01*
G54D14*
X666262Y-772016D02*
X666706Y-771838D01*
X666929Y-771482D01*
X666929Y-771127D01*
X666706Y-770771D01*
X666262Y-770593D01*
X665151Y-770593D01*
X664929Y-770593D01*
X665373Y-771126D01*
X665373Y-771482D01*
X665151Y-771838D01*
X664707Y-772016D01*
X664040Y-772016D01*
X663596Y-771838D01*
X663373Y-771482D01*
X663373Y-771126D01*
X663596Y-770771D01*
X664040Y-770594D01*
X665151Y-770593D01*
G54D14*
X666929Y-783718D02*
X666929Y-785140D01*
X666484Y-784962D01*
X665818Y-784606D01*
X664929Y-784251D01*
X664262Y-784073D01*
X663373Y-784073D01*
G54D14*
X665154Y-794668D02*
X665154Y-795379D01*
X664043Y-795379D01*
X663599Y-795202D01*
X663377Y-794846D01*
X663377Y-794490D01*
X663599Y-794135D01*
X664044Y-793957D01*
X666266Y-793957D01*
X666710Y-794135D01*
X666932Y-794490D01*
X666932Y-794846D01*
X666710Y-795202D01*
X666266Y-795379D01*
G54D14*
X663377Y-796357D02*
X666932Y-796357D01*
X663377Y-797779D01*
X666932Y-797779D01*
G54D14*
X663377Y-798757D02*
X666932Y-798757D01*
X666932Y-799646D01*
X666710Y-800002D01*
X666266Y-800179D01*
X664044Y-800179D01*
X663599Y-800002D01*
X663377Y-799646D01*
X663377Y-798757D01*
G54D16*
X608362Y-702670D02*
X601429Y-702670D01*
X602295Y-704114D01*
X604029Y-706280D01*
X605762Y-709170D01*
X606629Y-711336D01*
X606629Y-714225D01*
G54D16*
X593051Y-714225D02*
X593051Y-702670D01*
X598251Y-709892D01*
X598251Y-711336D01*
X591318Y-711336D01*
G54D16*
X588140Y-714225D02*
X588140Y-702670D01*
G54D16*
X581207Y-714225D02*
X581207Y-702670D01*
G54D16*
X588140Y-708447D02*
X581207Y-708447D01*
G54D16*
X571096Y-712058D02*
X571962Y-713503D01*
X573696Y-714225D01*
X575429Y-714225D01*
X577162Y-713503D01*
X578029Y-712058D01*
X578029Y-704836D01*
X577162Y-703392D01*
X575429Y-702670D01*
X573696Y-702670D01*
X571962Y-703392D01*
X571096Y-704836D01*
G54D16*
X560985Y-702670D02*
X567918Y-702670D01*
X567918Y-707725D01*
X567051Y-707725D01*
X565318Y-707003D01*
X563585Y-707003D01*
X561851Y-707725D01*
X560985Y-709170D01*
X560985Y-712058D01*
X561851Y-713503D01*
X563585Y-714225D01*
X565318Y-714225D01*
X567051Y-713503D01*
X567918Y-712058D01*
G54D16*
X557807Y-712058D02*
X556940Y-713503D01*
X555207Y-714225D01*
X553474Y-714225D01*
X551740Y-713503D01*
X550874Y-712058D01*
X550874Y-708447D01*
X550874Y-707725D01*
X553474Y-709170D01*
X555207Y-709170D01*
X556940Y-708447D01*
X557807Y-707003D01*
X557807Y-704836D01*
X556940Y-703392D01*
X555207Y-702670D01*
X553474Y-702670D01*
X551740Y-703392D01*
X550874Y-704836D01*
X550874Y-708447D01*
G54D16*
X540763Y-702670D02*
X547696Y-702670D01*
X547696Y-707725D01*
X546829Y-707725D01*
X545096Y-707003D01*
X543363Y-707003D01*
X541629Y-707725D01*
X540763Y-709170D01*
X540763Y-712058D01*
X541629Y-713503D01*
X543363Y-714225D01*
X545096Y-714225D01*
X546829Y-713503D01*
X547696Y-712058D01*
G54D10*
X770312Y-434975D02*
X767112Y-434975D01*
X767112Y-433375D01*
X759212Y-433375D01*
X759212Y-436575D01*
X767112Y-436575D01*
X767112Y-434975D01*
G54D10*
X759212Y-434975D02*
X756012Y-434975D01*
G54D10*
X778662Y-427175D02*
X747462Y-427175D01*
X747462Y-442775D01*
X778662Y-442775D01*
X778662Y-427175D01*
G54D10*
X725862Y-434975D02*
X722662Y-434975D01*
X722662Y-433375D01*
X714762Y-433375D01*
X714762Y-436575D01*
X722662Y-436575D01*
X722662Y-434975D01*
G54D10*
X714762Y-434975D02*
X711562Y-434975D01*
G54D10*
X734212Y-427175D02*
X703012Y-427175D01*
X703012Y-442775D01*
X734212Y-442775D01*
X734212Y-427175D01*
G54D10*
X808412Y-1860550D02*
X805212Y-1860550D01*
X805212Y-1858950D01*
X797312Y-1858950D01*
X797312Y-1862150D01*
X805212Y-1862150D01*
X805212Y-1860550D01*
G54D10*
X797312Y-1860550D02*
X794112Y-1860550D01*
G54D10*
X816762Y-1852750D02*
X785562Y-1852750D01*
X785562Y-1868350D01*
X816762Y-1868350D01*
X816762Y-1852750D01*
G54D10*
X579438Y-994150D02*
X579437Y-990950D01*
X581037Y-990950D01*
X581038Y-983050D01*
X577838Y-983050D01*
X577837Y-990950D01*
X579437Y-990950D01*
G54D10*
X579438Y-983050D02*
X579438Y-979850D01*
G54D10*
X587238Y-1002500D02*
X587238Y-971300D01*
X571638Y-971300D01*
X571638Y-1002500D01*
X587238Y-1002500D01*
G54D10*
X579438Y-949700D02*
X579437Y-946500D01*
X581037Y-946500D01*
X581038Y-938600D01*
X577838Y-938600D01*
X577837Y-946500D01*
X579437Y-946500D01*
G54D10*
X579438Y-938600D02*
X579438Y-935400D01*
G54D10*
X587238Y-958050D02*
X587238Y-926850D01*
X571638Y-926850D01*
X571638Y-958050D01*
X587238Y-958050D01*
G54D10*
X561658Y-917156D02*
X561657Y-913956D01*
X563257Y-913956D01*
X563258Y-906056D01*
X560058Y-906056D01*
X560057Y-913956D01*
X561657Y-913956D01*
G54D10*
X561658Y-906056D02*
X561658Y-902856D01*
G54D10*
X569458Y-925506D02*
X569458Y-894306D01*
X553858Y-894306D01*
X553858Y-925506D01*
X569458Y-925506D01*
G54D10*
X873125Y-167062D02*
X873125Y-163862D01*
X874725Y-163862D01*
X874725Y-155962D01*
X871525Y-155962D01*
X871525Y-163862D01*
X873125Y-163862D01*
G54D10*
X873125Y-155962D02*
X873125Y-152762D01*
G54D10*
X880925Y-175412D02*
X880925Y-144212D01*
X865325Y-144212D01*
X865325Y-175412D01*
X880925Y-175412D01*
G54D10*
X873125Y-416300D02*
X873125Y-413100D01*
X874725Y-413100D01*
X874725Y-405200D01*
X871525Y-405200D01*
X871525Y-413100D01*
X873125Y-413100D01*
G54D10*
X873125Y-405200D02*
X873125Y-402000D01*
G54D10*
X880925Y-424650D02*
X880925Y-393450D01*
X865325Y-393450D01*
X865325Y-424650D01*
X880925Y-424650D01*
G54D10*
X898150Y-625475D02*
X901350Y-625475D01*
X901350Y-627075D01*
X909250Y-627075D01*
X909250Y-623875D01*
X901350Y-623875D01*
X901350Y-625475D01*
G54D10*
X909250Y-625475D02*
X912450Y-625475D01*
G54D10*
X889800Y-633275D02*
X921000Y-633275D01*
X921000Y-617675D01*
X889800Y-617675D01*
X889800Y-633275D01*
G54D10*
X836238Y-865188D02*
X839438Y-865188D01*
X839438Y-866788D01*
X847338Y-866788D01*
X847338Y-863588D01*
X839438Y-863588D01*
X839438Y-865188D01*
G54D10*
X847338Y-865188D02*
X850538Y-865188D01*
G54D10*
X827888Y-872988D02*
X859088Y-872988D01*
X859088Y-857388D01*
X827888Y-857388D01*
X827888Y-872988D01*
G54D10*
X913188Y-1127125D02*
X909988Y-1127125D01*
X909988Y-1125525D01*
X902088Y-1125525D01*
X902088Y-1128725D01*
X909988Y-1128725D01*
X909988Y-1127125D01*
G54D10*
X902087Y-1127125D02*
X898888Y-1127125D01*
G54D10*
X921538Y-1119325D02*
X890338Y-1119325D01*
X890338Y-1134925D01*
X921538Y-1134925D01*
X921538Y-1119325D01*
G54D10*
X873125Y-1336300D02*
X873125Y-1339500D01*
X871525Y-1339500D01*
X871525Y-1347400D01*
X874725Y-1347400D01*
X874725Y-1339500D01*
X873125Y-1339500D01*
G54D10*
X873125Y-1347400D02*
X873125Y-1350600D01*
G54D10*
X865325Y-1327950D02*
X865325Y-1359150D01*
X880925Y-1359150D01*
X880925Y-1327950D01*
X865325Y-1327950D01*
G54D10*
X871537Y-1587125D02*
X871538Y-1590325D01*
X869938Y-1590325D01*
X869938Y-1598225D01*
X873138Y-1598225D01*
X873138Y-1590325D01*
X871538Y-1590325D01*
G54D10*
X871538Y-1598225D02*
X871537Y-1601425D01*
G54D10*
X863738Y-1578775D02*
X863738Y-1609975D01*
X879338Y-1609975D01*
X879338Y-1578775D01*
X863738Y-1578775D01*
G54D10*
X871538Y-1849812D02*
X871538Y-1846612D01*
X873138Y-1846612D01*
X873138Y-1838712D01*
X869938Y-1838712D01*
X869938Y-1846612D01*
X871538Y-1846612D01*
G54D10*
X871538Y-1838712D02*
X871538Y-1835512D01*
G54D10*
X879338Y-1858162D02*
X879338Y-1826962D01*
X863738Y-1826962D01*
X863738Y-1858162D01*
X879338Y-1858162D01*
G54D11*
X919200Y-701725D02*
X919200Y-803325D01*
X881000Y-803325D01*
X881000Y-701725D01*
X919200Y-701725D01*
G54D12*
G75*
G01X914400Y-707925D02*
G03X914400Y-707925I-1600J0D01*
G01*
G54D13*
X906847Y-722340D02*
X906847Y-727673D01*
X905180Y-727006D01*
X902680Y-725674D01*
X899347Y-724340D01*
X896847Y-723673D01*
X893514Y-723673D01*
G54D13*
X893514Y-735340D02*
X906847Y-735340D01*
X898514Y-731340D01*
X896847Y-731340D01*
X896847Y-736673D01*
G54D13*
X893514Y-740340D02*
X906847Y-740340D01*
G54D13*
X893514Y-745673D02*
X906847Y-745673D01*
G54D13*
X900180Y-740340D02*
X900180Y-745673D01*
G54D13*
X896014Y-754673D02*
X894347Y-754007D01*
X893514Y-752673D01*
X893514Y-751340D01*
X894347Y-750006D01*
X896014Y-749340D01*
X904347Y-749340D01*
X906014Y-750007D01*
X906847Y-751340D01*
X906847Y-752673D01*
X906014Y-754007D01*
X904347Y-754673D01*
G54D13*
X906847Y-763673D02*
X906847Y-758340D01*
X901014Y-758340D01*
X901014Y-759006D01*
X901847Y-760340D01*
X901847Y-761673D01*
X901014Y-763006D01*
X899347Y-763673D01*
X896014Y-763673D01*
X894347Y-763007D01*
X893514Y-761673D01*
X893514Y-760340D01*
X894347Y-759007D01*
X896014Y-758340D01*
G54D13*
X896014Y-767340D02*
X894347Y-768007D01*
X893514Y-769340D01*
X893514Y-770673D01*
X894347Y-772006D01*
X896014Y-772674D01*
X900180Y-772674D01*
X901014Y-772674D01*
X899347Y-770673D01*
X899347Y-769340D01*
X900180Y-768007D01*
X901847Y-767340D01*
X904347Y-767340D01*
X906014Y-768007D01*
X906847Y-769340D01*
X906847Y-770673D01*
X906014Y-772007D01*
X904347Y-772673D01*
X900180Y-772674D01*
G54D13*
X906847Y-781673D02*
X906847Y-776340D01*
X901014Y-776340D01*
X901014Y-777006D01*
X901847Y-778340D01*
X901847Y-779673D01*
X901014Y-781007D01*
X899347Y-781673D01*
X896014Y-781673D01*
X894347Y-781006D01*
X893514Y-779673D01*
X893514Y-778340D01*
X894347Y-777007D01*
X896014Y-776340D01*
G54D14*
X887590Y-705566D02*
X884035Y-706455D01*
X887590Y-707344D01*
G54D14*
X885902Y-709211D02*
X886035Y-708855D01*
X885902Y-708500D01*
X885457Y-708322D01*
X884568Y-708322D01*
X884124Y-708500D01*
X884035Y-708855D01*
X884124Y-709211D01*
G54D14*
X885901Y-711078D02*
X886035Y-710722D01*
X885901Y-710367D01*
X885457Y-710189D01*
X884568Y-710189D01*
X884124Y-710367D01*
X884035Y-710722D01*
X884124Y-711078D01*
G54D14*
X886924Y-721559D02*
X884702Y-721559D01*
X884258Y-721381D01*
X884036Y-721026D01*
X884036Y-720670D01*
X884258Y-720314D01*
X884702Y-720137D01*
X886925Y-720137D01*
X887369Y-720314D01*
X887591Y-720670D01*
X887591Y-721026D01*
X887369Y-721381D01*
X886924Y-721559D01*
G54D14*
X884036Y-731550D02*
X887592Y-731549D01*
X887592Y-732438D01*
X887369Y-732794D01*
X886924Y-732971D01*
X884702Y-732971D01*
X884258Y-732794D01*
X884036Y-732438D01*
X884036Y-731550D01*
G54D14*
X884702Y-733949D02*
X884258Y-734127D01*
X884036Y-734482D01*
X884036Y-734838D01*
X884258Y-735194D01*
X884702Y-735372D01*
X885147Y-735372D01*
X885591Y-735194D01*
X885814Y-734838D01*
X885814Y-734482D01*
X886036Y-734127D01*
X886480Y-733950D01*
X886924Y-733949D01*
X887369Y-734127D01*
X887592Y-734482D01*
X887592Y-734838D01*
X887369Y-735194D01*
X886925Y-735372D01*
G54D14*
X886924Y-744358D02*
X884702Y-744358D01*
X884258Y-744180D01*
X884036Y-743825D01*
X884036Y-743470D01*
X884258Y-743114D01*
X884702Y-742936D01*
X886924Y-742936D01*
X887369Y-743114D01*
X887592Y-743470D01*
X887592Y-743825D01*
X887369Y-744181D01*
X886924Y-744358D01*
G54D14*
X884036Y-746581D02*
X884036Y-745336D01*
X887592Y-745336D01*
X887592Y-746580D01*
G54D14*
X885814Y-745336D02*
X885814Y-746580D01*
G54D14*
X885591Y-747558D02*
X885591Y-748980D01*
G54D14*
X884702Y-751543D02*
X884258Y-751721D01*
X884036Y-752076D01*
X884036Y-752432D01*
X884258Y-752788D01*
X884702Y-752966D01*
X885147Y-752966D01*
X885591Y-752788D01*
X885814Y-752432D01*
X885814Y-752076D01*
X886036Y-751721D01*
X886480Y-751543D01*
X886925Y-751543D01*
X887369Y-751721D01*
X887591Y-752076D01*
X887591Y-752432D01*
X887369Y-752788D01*
X886925Y-752966D01*
G54D14*
X884036Y-754654D02*
X887591Y-754654D01*
G54D14*
X887592Y-753943D02*
X887592Y-755366D01*
G54D14*
X884036Y-756344D02*
X884036Y-758121D01*
G54D14*
X884702Y-760522D02*
X884258Y-760344D01*
X884036Y-759988D01*
X884036Y-759632D01*
X884258Y-759277D01*
X884702Y-759099D01*
X886924Y-759099D01*
X887369Y-759277D01*
X887592Y-759632D01*
X887592Y-759988D01*
X887369Y-760344D01*
X886925Y-760522D01*
G54D14*
X884036Y-761499D02*
X887592Y-761500D01*
X887592Y-762388D01*
X887369Y-762744D01*
X886924Y-762922D01*
X886480Y-762922D01*
X886036Y-762744D01*
X885814Y-762388D01*
X885814Y-761499D01*
G54D14*
X884702Y-765831D02*
X884258Y-766008D01*
X884036Y-766364D01*
X884036Y-766720D01*
X884258Y-767075D01*
X884702Y-767253D01*
X885147Y-767253D01*
X885591Y-767075D01*
X885814Y-766720D01*
X885814Y-766364D01*
X886036Y-766008D01*
X886480Y-765831D01*
X886924Y-765831D01*
X887369Y-766008D01*
X887592Y-766364D01*
X887592Y-766720D01*
X887369Y-767075D01*
X886925Y-767253D01*
G54D14*
X884036Y-768231D02*
X887592Y-768231D01*
G54D14*
X884036Y-769653D02*
X887591Y-769653D01*
G54D14*
X885814Y-768231D02*
X885814Y-769653D01*
G54D14*
X884036Y-770631D02*
X884036Y-772408D01*
G54D14*
X884702Y-774809D02*
X884258Y-774631D01*
X884036Y-774276D01*
X884036Y-773920D01*
X884258Y-773564D01*
X884702Y-773387D01*
X886924Y-773387D01*
X887369Y-773564D01*
X887592Y-773920D01*
X887592Y-774276D01*
X887369Y-774631D01*
X886924Y-774809D01*
G54D14*
X884036Y-775787D02*
X887592Y-775787D01*
X887591Y-776676D01*
X887369Y-777031D01*
X886925Y-777209D01*
X886480Y-777209D01*
X886036Y-777031D01*
X885814Y-776676D01*
X885814Y-775787D01*
G54D14*
X885814Y-780460D02*
X885369Y-780994D01*
X884924Y-781171D01*
X884036Y-781171D01*
G54D14*
X884036Y-779749D02*
X887592Y-779749D01*
X887592Y-780638D01*
X887369Y-780993D01*
X886925Y-781171D01*
X886480Y-781171D01*
X886036Y-780994D01*
X885814Y-780638D01*
X885814Y-779749D01*
G54D14*
X884036Y-783393D02*
X884036Y-782149D01*
X887592Y-782149D01*
X887592Y-783394D01*
G54D14*
X885814Y-782149D02*
X885814Y-783393D01*
G54D14*
X884702Y-784371D02*
X884258Y-784548D01*
X884036Y-784904D01*
X884036Y-785260D01*
X884258Y-785615D01*
X884702Y-785793D01*
X885147Y-785793D01*
X885591Y-785615D01*
X885814Y-785260D01*
X885814Y-784904D01*
X886036Y-784548D01*
X886480Y-784371D01*
X886924Y-784371D01*
X887369Y-784548D01*
X887592Y-784904D01*
X887592Y-785260D01*
X887369Y-785615D01*
X886925Y-785793D01*
G54D14*
X885591Y-786771D02*
X885591Y-788193D01*
G54D14*
X886480Y-787482D02*
X884702Y-787482D01*
G54D14*
X887595Y-796338D02*
X887595Y-797760D01*
X887150Y-797582D01*
X886484Y-797227D01*
X885595Y-796872D01*
X884928Y-796694D01*
X884039Y-796694D01*
G54D14*
X887595Y-798738D02*
X886706Y-798738D01*
G54D14*
X914832Y-712710D02*
X916166Y-713599D01*
X912610Y-713598D01*
G54D14*
X912611Y-721559D02*
X912611Y-720137D01*
X912833Y-720137D01*
X913277Y-720314D01*
X914611Y-721381D01*
X915055Y-721559D01*
X915500Y-721559D01*
X915944Y-721381D01*
X916166Y-721026D01*
X916166Y-720670D01*
X915944Y-720314D01*
X915500Y-720137D01*
G54D14*
X915500Y-732343D02*
X915944Y-732521D01*
X916166Y-732876D01*
X916166Y-733232D01*
X915944Y-733588D01*
X915500Y-733765D01*
X915055Y-733765D01*
X914611Y-733588D01*
X914388Y-733232D01*
X914166Y-733588D01*
X913722Y-733765D01*
X913278Y-733765D01*
X912833Y-733588D01*
X912611Y-733232D01*
X912611Y-732876D01*
X912833Y-732521D01*
X913277Y-732343D01*
G54D14*
X912611Y-746384D02*
X916166Y-746384D01*
X913944Y-745318D01*
X913500Y-745318D01*
X913500Y-746740D01*
G54D14*
X916166Y-759316D02*
X916166Y-757894D01*
X914611Y-757893D01*
X914611Y-758071D01*
X914833Y-758426D01*
X914833Y-758782D01*
X914611Y-759138D01*
X914166Y-759316D01*
X913278Y-759316D01*
X912833Y-759138D01*
X912611Y-758782D01*
X912611Y-758426D01*
X912833Y-758071D01*
X913277Y-757893D01*
G54D14*
X915500Y-772016D02*
X915944Y-771838D01*
X916166Y-771482D01*
X916166Y-771127D01*
X915944Y-770771D01*
X915500Y-770593D01*
X914388Y-770593D01*
X914166Y-770593D01*
X914611Y-771126D01*
X914611Y-771482D01*
X914388Y-771838D01*
X913944Y-772016D01*
X913278Y-772016D01*
X912833Y-771838D01*
X912611Y-771482D01*
X912611Y-771126D01*
X912833Y-770771D01*
X913278Y-770594D01*
X914388Y-770593D01*
G54D14*
X916166Y-783718D02*
X916166Y-785140D01*
X915722Y-784962D01*
X915055Y-784606D01*
X914166Y-784251D01*
X913500Y-784073D01*
X912611Y-784073D01*
G54D14*
X914392Y-794668D02*
X914392Y-795379D01*
X913281Y-795379D01*
X912836Y-795202D01*
X912614Y-794846D01*
X912614Y-794490D01*
X912836Y-794135D01*
X913281Y-793957D01*
X915503Y-793957D01*
X915948Y-794135D01*
X916170Y-794490D01*
X916170Y-794846D01*
X915948Y-795202D01*
X915503Y-795379D01*
G54D14*
X912614Y-796357D02*
X916170Y-796357D01*
X912614Y-797779D01*
X916170Y-797779D01*
G54D14*
X912614Y-798757D02*
X916170Y-798757D01*
X916170Y-799646D01*
X915948Y-800002D01*
X915503Y-800179D01*
X913281Y-800179D01*
X912836Y-800002D01*
X912614Y-799646D01*
X912614Y-798757D01*
G54D16*
X858100Y-702670D02*
X851167Y-702670D01*
X852033Y-704114D01*
X853767Y-706280D01*
X855500Y-709170D01*
X856367Y-711336D01*
X856367Y-714225D01*
G54D16*
X842789Y-714225D02*
X842789Y-702670D01*
X847989Y-709892D01*
X847989Y-711336D01*
X841056Y-711336D01*
G54D16*
X837878Y-714225D02*
X837878Y-702670D01*
G54D16*
X830945Y-714225D02*
X830945Y-702670D01*
G54D16*
X837878Y-708447D02*
X830945Y-708447D01*
G54D16*
X820834Y-712058D02*
X821700Y-713503D01*
X823434Y-714225D01*
X825167Y-714225D01*
X826900Y-713503D01*
X827767Y-712058D01*
X827767Y-704836D01*
X826900Y-703392D01*
X825167Y-702670D01*
X823434Y-702670D01*
X821700Y-703392D01*
X820834Y-704836D01*
G54D16*
X810723Y-702670D02*
X817656Y-702670D01*
X817656Y-707725D01*
X816789Y-707725D01*
X815056Y-707003D01*
X813323Y-707003D01*
X811589Y-707725D01*
X810723Y-709170D01*
X810723Y-712058D01*
X811589Y-713503D01*
X813323Y-714225D01*
X815056Y-714225D01*
X816789Y-713503D01*
X817656Y-712058D01*
G54D16*
X807545Y-712058D02*
X806678Y-713503D01*
X804945Y-714225D01*
X803212Y-714225D01*
X801478Y-713503D01*
X800612Y-712058D01*
X800612Y-708447D01*
X800612Y-707725D01*
X803212Y-709170D01*
X804945Y-709170D01*
X806678Y-708447D01*
X807545Y-707003D01*
X807545Y-704836D01*
X806678Y-703392D01*
X804945Y-702670D01*
X803212Y-702670D01*
X801478Y-703392D01*
X800612Y-704836D01*
X800612Y-708447D01*
G54D16*
X790501Y-702670D02*
X797434Y-702670D01*
X797434Y-707725D01*
X796567Y-707725D01*
X794834Y-707003D01*
X793101Y-707003D01*
X791367Y-707725D01*
X790501Y-709170D01*
X790501Y-712058D01*
X791367Y-713503D01*
X793101Y-714225D01*
X794834Y-714225D01*
X796567Y-713503D01*
X797434Y-712058D01*
G54D10*
X1019550Y-434975D02*
X1016350Y-434975D01*
X1016350Y-433375D01*
X1008450Y-433375D01*
X1008450Y-436575D01*
X1016350Y-436575D01*
X1016350Y-434975D01*
G54D10*
X1008450Y-434975D02*
X1005250Y-434975D01*
G54D10*
X1027900Y-427175D02*
X996700Y-427175D01*
X996700Y-442775D01*
X1027900Y-442775D01*
X1027900Y-427175D01*
G54D10*
X975100Y-434975D02*
X971900Y-434975D01*
X971900Y-433375D01*
X964000Y-433375D01*
X964000Y-436575D01*
X971900Y-436575D01*
X971900Y-434975D01*
G54D10*
X964000Y-434975D02*
X960800Y-434975D01*
G54D10*
X983450Y-427175D02*
X952250Y-427175D01*
X952250Y-442775D01*
X983450Y-442775D01*
X983450Y-427175D01*
G54D10*
X1057650Y-1860550D02*
X1054450Y-1860550D01*
X1054450Y-1858950D01*
X1046550Y-1858950D01*
X1046550Y-1862150D01*
X1054450Y-1862150D01*
X1054450Y-1860550D01*
G54D10*
X1046550Y-1860550D02*
X1043350Y-1860550D01*
G54D10*
X1066000Y-1852750D02*
X1034800Y-1852750D01*
X1034800Y-1868350D01*
X1066000Y-1868350D01*
X1066000Y-1852750D01*
G54D10*
X828675Y-994150D02*
X828675Y-990950D01*
X830275Y-990950D01*
X830275Y-983050D01*
X827075Y-983050D01*
X827075Y-990950D01*
X828675Y-990950D01*
G54D10*
X828675Y-983050D02*
X828675Y-979850D01*
G54D10*
X836475Y-1002500D02*
X836475Y-971300D01*
X820875Y-971300D01*
X820875Y-1002500D01*
X836475Y-1002500D01*
G54D10*
X828675Y-949700D02*
X828675Y-946500D01*
X830275Y-946500D01*
X830275Y-938600D01*
X827075Y-938600D01*
X827075Y-946500D01*
X828675Y-946500D01*
G54D10*
X828675Y-938600D02*
X828675Y-935400D01*
G54D10*
X836475Y-958050D02*
X836475Y-926850D01*
X820875Y-926850D01*
X820875Y-958050D01*
X836475Y-958050D01*
G54D10*
X810895Y-917156D02*
X810895Y-913956D01*
X812495Y-913956D01*
X812495Y-906056D01*
X809295Y-906056D01*
X809295Y-913956D01*
X810895Y-913956D01*
G54D10*
X810895Y-906056D02*
X810895Y-902856D01*
G54D10*
X818695Y-925506D02*
X818695Y-894306D01*
X803095Y-894306D01*
X803095Y-925506D01*
X818695Y-925506D01*
G54D10*
X1123950Y-167062D02*
X1123950Y-163862D01*
X1125550Y-163862D01*
X1125550Y-155962D01*
X1122350Y-155962D01*
X1122350Y-163862D01*
X1123950Y-163862D01*
G54D10*
X1123950Y-155962D02*
X1123950Y-152762D01*
G54D10*
X1131750Y-175412D02*
X1131750Y-144212D01*
X1116150Y-144212D01*
X1116150Y-175412D01*
X1131750Y-175412D01*
G54D10*
X1123950Y-416300D02*
X1123950Y-413100D01*
X1125550Y-413100D01*
X1125550Y-405200D01*
X1122350Y-405200D01*
X1122350Y-413100D01*
X1123950Y-413100D01*
G54D10*
X1123950Y-405200D02*
X1123950Y-402000D01*
G54D10*
X1131750Y-424650D02*
X1131750Y-393450D01*
X1116150Y-393450D01*
X1116150Y-424650D01*
X1131750Y-424650D01*
G54D10*
X1148975Y-625475D02*
X1152175Y-625475D01*
X1152175Y-627075D01*
X1160075Y-627075D01*
X1160075Y-623875D01*
X1152175Y-623875D01*
X1152175Y-625475D01*
G54D10*
X1160075Y-625475D02*
X1163275Y-625475D01*
G54D10*
X1140625Y-633275D02*
X1171825Y-633275D01*
X1171825Y-617675D01*
X1140625Y-617675D01*
X1140625Y-633275D01*
G54D10*
X1087062Y-865188D02*
X1090262Y-865188D01*
X1090262Y-866788D01*
X1098162Y-866788D01*
X1098162Y-863588D01*
X1090262Y-863588D01*
X1090262Y-865188D01*
G54D10*
X1098162Y-865188D02*
X1101362Y-865188D01*
G54D10*
X1078712Y-872988D02*
X1109912Y-872988D01*
X1109912Y-857388D01*
X1078712Y-857388D01*
X1078712Y-872988D01*
G54D10*
X1164012Y-1127125D02*
X1160812Y-1127125D01*
X1160812Y-1125525D01*
X1152912Y-1125525D01*
X1152912Y-1128725D01*
X1160812Y-1128725D01*
X1160812Y-1127125D01*
G54D10*
X1152912Y-1127125D02*
X1149712Y-1127125D01*
G54D10*
X1172362Y-1119325D02*
X1141162Y-1119325D01*
X1141162Y-1134925D01*
X1172362Y-1134925D01*
X1172362Y-1119325D01*
G54D10*
X1123950Y-1336300D02*
X1123950Y-1339500D01*
X1122350Y-1339500D01*
X1122350Y-1347400D01*
X1125550Y-1347400D01*
X1125550Y-1339500D01*
X1123950Y-1339500D01*
G54D10*
X1123950Y-1347400D02*
X1123950Y-1350600D01*
G54D10*
X1116150Y-1327950D02*
X1116150Y-1359150D01*
X1131750Y-1359150D01*
X1131750Y-1327950D01*
X1116150Y-1327950D01*
G54D10*
X1122362Y-1587125D02*
X1122362Y-1590325D01*
X1120762Y-1590325D01*
X1120762Y-1598225D01*
X1123962Y-1598225D01*
X1123962Y-1590325D01*
X1122362Y-1590325D01*
G54D10*
X1122362Y-1598225D02*
X1122362Y-1601425D01*
G54D10*
X1114562Y-1578775D02*
X1114562Y-1609975D01*
X1130162Y-1609975D01*
X1130162Y-1578775D01*
X1114562Y-1578775D01*
G54D10*
X1122362Y-1849812D02*
X1122362Y-1846612D01*
X1123962Y-1846612D01*
X1123962Y-1838712D01*
X1120762Y-1838712D01*
X1120762Y-1846612D01*
X1122362Y-1846612D01*
G54D10*
X1122362Y-1838712D02*
X1122362Y-1835512D01*
G54D10*
X1130162Y-1858162D02*
X1130162Y-1826962D01*
X1114562Y-1826962D01*
X1114562Y-1858162D01*
X1130162Y-1858162D01*
G54D11*
X1170025Y-701725D02*
X1170025Y-803325D01*
X1131825Y-803325D01*
X1131825Y-701725D01*
X1170025Y-701725D01*
G54D12*
G75*
G01X1165225Y-707925D02*
G03X1165225Y-707925I-1600J0D01*
G01*
G54D13*
X1157672Y-781785D02*
X1157672Y-776452D01*
X1156005Y-777118D01*
X1153505Y-778452D01*
X1150172Y-779785D01*
X1147672Y-780452D01*
X1144338Y-780452D01*
G54D13*
X1144338Y-768785D02*
X1157672Y-768785D01*
X1149338Y-772785D01*
X1147672Y-772785D01*
X1147672Y-767452D01*
G54D13*
X1144338Y-763785D02*
X1157672Y-763785D01*
G54D13*
X1144338Y-758452D02*
X1157672Y-758452D01*
G54D13*
X1151005Y-763785D02*
X1151005Y-758452D01*
G54D13*
X1146838Y-749452D02*
X1145172Y-750118D01*
X1144338Y-751452D01*
X1144338Y-752785D01*
X1145172Y-754118D01*
X1146838Y-754785D01*
X1155172Y-754785D01*
X1156838Y-754118D01*
X1157672Y-752785D01*
X1157672Y-751452D01*
X1156838Y-750118D01*
X1155172Y-749452D01*
G54D13*
X1157672Y-740452D02*
X1157672Y-745785D01*
X1151838Y-745785D01*
X1151838Y-745118D01*
X1152672Y-743785D01*
X1152672Y-742452D01*
X1151838Y-741118D01*
X1150172Y-740452D01*
X1146838Y-740452D01*
X1145172Y-741118D01*
X1144338Y-742452D01*
X1144338Y-743785D01*
X1145172Y-745118D01*
X1146838Y-745785D01*
G54D13*
X1146838Y-736785D02*
X1145172Y-736118D01*
X1144338Y-734785D01*
X1144338Y-733452D01*
X1145172Y-732118D01*
X1146838Y-731452D01*
X1151005Y-731452D01*
X1151838Y-731452D01*
X1150172Y-733452D01*
X1150172Y-734785D01*
X1151005Y-736118D01*
X1152672Y-736785D01*
X1155172Y-736785D01*
X1156838Y-736118D01*
X1157672Y-734785D01*
X1157672Y-733452D01*
X1156838Y-732118D01*
X1155172Y-731452D01*
X1151005Y-731452D01*
G54D13*
X1157672Y-722452D02*
X1157672Y-727785D01*
X1151838Y-727785D01*
X1151838Y-727118D01*
X1152672Y-725785D01*
X1152672Y-724452D01*
X1151838Y-723118D01*
X1150172Y-722452D01*
X1146838Y-722452D01*
X1145172Y-723118D01*
X1144338Y-724452D01*
X1144338Y-725785D01*
X1145172Y-727118D01*
X1146838Y-727785D01*
G54D14*
X1138415Y-711082D02*
X1134860Y-710193D01*
X1138415Y-709304D01*
G54D14*
X1136726Y-707437D02*
X1136860Y-707792D01*
X1136726Y-708148D01*
X1136282Y-708326D01*
X1135393Y-708326D01*
X1134949Y-708148D01*
X1134860Y-707792D01*
X1134949Y-707437D01*
G54D14*
X1136726Y-705570D02*
X1136860Y-705926D01*
X1136726Y-706281D01*
X1136282Y-706459D01*
X1135393Y-706459D01*
X1134949Y-706281D01*
X1134860Y-705926D01*
X1134949Y-705570D01*
G54D14*
X1137749Y-720137D02*
X1135527Y-720137D01*
X1135083Y-720315D01*
X1134860Y-720670D01*
X1134860Y-721026D01*
X1135083Y-721382D01*
X1135527Y-721559D01*
X1137749Y-721559D01*
X1138194Y-721382D01*
X1138416Y-721026D01*
X1138416Y-720670D01*
X1138194Y-720315D01*
X1137749Y-720137D01*
G54D14*
X1134861Y-735371D02*
X1138417Y-735371D01*
X1138417Y-734482D01*
X1138194Y-734126D01*
X1137750Y-733949D01*
X1135528Y-733949D01*
X1135084Y-734126D01*
X1134861Y-734482D01*
X1134861Y-735371D01*
G54D14*
X1135528Y-732971D02*
X1135084Y-732793D01*
X1134861Y-732438D01*
X1134861Y-732082D01*
X1135084Y-731726D01*
X1135528Y-731549D01*
X1135972Y-731549D01*
X1136417Y-731726D01*
X1136639Y-732082D01*
X1136639Y-732438D01*
X1136861Y-732793D01*
X1137306Y-732971D01*
X1137750Y-732971D01*
X1138194Y-732793D01*
X1138417Y-732438D01*
X1138417Y-732082D01*
X1138194Y-731726D01*
X1137750Y-731549D01*
G54D14*
X1137750Y-747528D02*
X1135528Y-747528D01*
X1135084Y-747706D01*
X1134861Y-748062D01*
X1134861Y-748417D01*
X1135084Y-748772D01*
X1135528Y-748950D01*
X1137750Y-748950D01*
X1138194Y-748772D01*
X1138417Y-748417D01*
X1138417Y-748062D01*
X1138194Y-747706D01*
X1137750Y-747528D01*
G54D14*
X1134861Y-745306D02*
X1134861Y-746550D01*
X1138417Y-746550D01*
X1138417Y-745306D01*
G54D14*
X1136639Y-746550D02*
X1136639Y-745306D01*
G54D14*
X1136417Y-744328D02*
X1136417Y-742906D01*
G54D14*
X1135528Y-762922D02*
X1135083Y-762744D01*
X1134861Y-762388D01*
X1134861Y-762033D01*
X1135083Y-761677D01*
X1135528Y-761500D01*
X1135972Y-761500D01*
X1136416Y-761677D01*
X1136639Y-762033D01*
X1136639Y-762388D01*
X1136861Y-762744D01*
X1137306Y-762922D01*
X1137750Y-762922D01*
X1138194Y-762744D01*
X1138416Y-762388D01*
X1138416Y-762033D01*
X1138194Y-761677D01*
X1137750Y-761500D01*
G54D14*
X1134861Y-759810D02*
X1138416Y-759810D01*
G54D14*
X1138416Y-760522D02*
X1138416Y-759100D01*
G54D14*
X1134861Y-758122D02*
X1134861Y-756344D01*
G54D14*
X1135528Y-753944D02*
X1135083Y-754121D01*
X1134861Y-754477D01*
X1134861Y-754832D01*
X1135083Y-755188D01*
X1135528Y-755366D01*
X1137750Y-755366D01*
X1138194Y-755188D01*
X1138416Y-754832D01*
X1138416Y-754477D01*
X1138194Y-754121D01*
X1137750Y-753944D01*
G54D14*
X1134861Y-752966D02*
X1138416Y-752966D01*
X1138416Y-752077D01*
X1138194Y-751721D01*
X1137750Y-751544D01*
X1137306Y-751544D01*
X1136861Y-751721D01*
X1136639Y-752077D01*
X1136639Y-752966D01*
G54D14*
X1135528Y-777209D02*
X1135084Y-777032D01*
X1134861Y-776676D01*
X1134861Y-776320D01*
X1135084Y-775965D01*
X1135528Y-775787D01*
X1135972Y-775787D01*
X1136417Y-775965D01*
X1136639Y-776320D01*
X1136639Y-776676D01*
X1136861Y-777032D01*
X1137306Y-777209D01*
X1137750Y-777209D01*
X1138194Y-777032D01*
X1138417Y-776676D01*
X1138417Y-776320D01*
X1138194Y-775965D01*
X1137750Y-775787D01*
G54D14*
X1134861Y-774809D02*
X1138417Y-774809D01*
G54D14*
X1134861Y-773387D02*
X1138417Y-773387D01*
G54D14*
X1136639Y-774809D02*
X1136639Y-773387D01*
G54D14*
X1134861Y-772409D02*
X1134861Y-770632D01*
G54D14*
X1135528Y-768231D02*
X1135084Y-768409D01*
X1134861Y-768764D01*
X1134861Y-769120D01*
X1135084Y-769476D01*
X1135528Y-769653D01*
X1137750Y-769653D01*
X1138194Y-769476D01*
X1138417Y-769120D01*
X1138417Y-768764D01*
X1138194Y-768409D01*
X1137750Y-768231D01*
G54D14*
X1134861Y-767253D02*
X1138417Y-767253D01*
X1138417Y-766364D01*
X1138194Y-766009D01*
X1137750Y-765831D01*
X1137306Y-765831D01*
X1136861Y-766009D01*
X1136639Y-766364D01*
X1136639Y-767253D01*
G54D14*
X1136639Y-787452D02*
X1136194Y-786919D01*
X1135750Y-786741D01*
X1134861Y-786741D01*
G54D14*
X1134861Y-788163D02*
X1138417Y-788163D01*
X1138417Y-787274D01*
X1138194Y-786919D01*
X1137750Y-786741D01*
X1137306Y-786741D01*
X1136861Y-786919D01*
X1136639Y-787274D01*
X1136639Y-788163D01*
G54D14*
X1134861Y-784519D02*
X1134861Y-785763D01*
X1138417Y-785763D01*
X1138417Y-784519D01*
G54D14*
X1136639Y-785763D02*
X1136639Y-784519D01*
G54D14*
X1135528Y-783541D02*
X1135084Y-783364D01*
X1134861Y-783008D01*
X1134861Y-782652D01*
X1135084Y-782297D01*
X1135528Y-782119D01*
X1135972Y-782119D01*
X1136417Y-782297D01*
X1136639Y-782652D01*
X1136639Y-783008D01*
X1136861Y-783364D01*
X1137306Y-783541D01*
X1137750Y-783541D01*
X1138194Y-783364D01*
X1138417Y-783008D01*
X1138417Y-782652D01*
X1138194Y-782297D01*
X1137750Y-782119D01*
G54D14*
X1136417Y-781141D02*
X1136417Y-779719D01*
G54D14*
X1137306Y-780430D02*
X1135528Y-780430D01*
G54D14*
X1138420Y-798768D02*
X1138420Y-797346D01*
X1137975Y-797524D01*
X1137309Y-797880D01*
X1136420Y-798235D01*
X1135753Y-798413D01*
X1134864Y-798413D01*
G54D14*
X1138420Y-796368D02*
X1137531Y-796368D01*
G54D14*
X1165658Y-713622D02*
X1166991Y-712733D01*
X1163435Y-712733D01*
G54D14*
X1163436Y-720137D02*
X1163436Y-721559D01*
X1163658Y-721559D01*
X1164102Y-721382D01*
X1165436Y-720315D01*
X1165880Y-720137D01*
X1166325Y-720137D01*
X1166769Y-720315D01*
X1166991Y-720670D01*
X1166991Y-721026D01*
X1166769Y-721382D01*
X1166325Y-721559D01*
G54D14*
X1166325Y-733781D02*
X1166769Y-733603D01*
X1166991Y-733248D01*
X1166991Y-732892D01*
X1166769Y-732536D01*
X1166325Y-732359D01*
X1165880Y-732359D01*
X1165436Y-732536D01*
X1165214Y-732892D01*
X1164991Y-732536D01*
X1164547Y-732359D01*
X1164102Y-732359D01*
X1163658Y-732536D01*
X1163436Y-732892D01*
X1163436Y-733248D01*
X1163658Y-733603D01*
X1164102Y-733781D01*
G54D14*
X1163436Y-745644D02*
X1166991Y-745644D01*
X1164769Y-746710D01*
X1164325Y-746710D01*
X1164325Y-745288D01*
G54D14*
X1166991Y-757893D02*
X1166991Y-759315D01*
X1165436Y-759315D01*
X1165436Y-759138D01*
X1165658Y-758782D01*
X1165658Y-758426D01*
X1165436Y-758071D01*
X1164991Y-757893D01*
X1164102Y-757893D01*
X1163658Y-758071D01*
X1163436Y-758426D01*
X1163436Y-758782D01*
X1163658Y-759138D01*
X1164102Y-759315D01*
G54D14*
X1166325Y-770593D02*
X1166769Y-770770D01*
X1166991Y-771126D01*
X1166991Y-771482D01*
X1166769Y-771837D01*
X1166325Y-772015D01*
X1165214Y-772015D01*
X1164991Y-772015D01*
X1165436Y-771482D01*
X1165436Y-771126D01*
X1165214Y-770770D01*
X1164769Y-770593D01*
X1164102Y-770593D01*
X1163658Y-770770D01*
X1163436Y-771126D01*
X1163436Y-771482D01*
X1163658Y-771837D01*
X1164102Y-772015D01*
X1165214Y-772015D01*
G54D14*
X1166991Y-785154D02*
X1166991Y-783732D01*
X1166547Y-783910D01*
X1165880Y-784265D01*
X1164991Y-784621D01*
X1164325Y-784798D01*
X1163436Y-784798D01*
G54D14*
X1165217Y-799468D02*
X1165217Y-798757D01*
X1164106Y-798757D01*
X1163662Y-798934D01*
X1163439Y-799290D01*
X1163439Y-799646D01*
X1163662Y-800001D01*
X1164106Y-800179D01*
X1166328Y-800179D01*
X1166772Y-800001D01*
X1166995Y-799646D01*
X1166995Y-799290D01*
X1166772Y-798934D01*
X1166328Y-798757D01*
G54D14*
X1163439Y-797779D02*
X1166995Y-797779D01*
X1163439Y-796357D01*
X1166995Y-796357D01*
G54D14*
X1163439Y-795379D02*
X1166995Y-795379D01*
X1166995Y-794490D01*
X1166772Y-794134D01*
X1166328Y-793957D01*
X1164106Y-793957D01*
X1163662Y-794134D01*
X1163439Y-794490D01*
X1163439Y-795379D01*
G54D16*
X1108425Y-702670D02*
X1101492Y-702670D01*
X1102358Y-704114D01*
X1104092Y-706280D01*
X1105825Y-709170D01*
X1106692Y-711336D01*
X1106692Y-714225D01*
G54D16*
X1093114Y-714225D02*
X1093114Y-702670D01*
X1098314Y-709892D01*
X1098314Y-711336D01*
X1091381Y-711336D01*
G54D16*
X1088203Y-714225D02*
X1088203Y-702670D01*
G54D16*
X1081270Y-714225D02*
X1081270Y-702670D01*
G54D16*
X1088203Y-708447D02*
X1081270Y-708447D01*
G54D16*
X1071159Y-712058D02*
X1072025Y-713503D01*
X1073759Y-714225D01*
X1075492Y-714225D01*
X1077225Y-713503D01*
X1078092Y-712058D01*
X1078092Y-704836D01*
X1077225Y-703392D01*
X1075492Y-702670D01*
X1073759Y-702670D01*
X1072025Y-703392D01*
X1071159Y-704836D01*
G54D16*
X1061048Y-702670D02*
X1067981Y-702670D01*
X1067981Y-707725D01*
X1067114Y-707725D01*
X1065381Y-707003D01*
X1063648Y-707003D01*
X1061914Y-707725D01*
X1061048Y-709170D01*
X1061048Y-712058D01*
X1061914Y-713503D01*
X1063648Y-714225D01*
X1065381Y-714225D01*
X1067114Y-713503D01*
X1067981Y-712058D01*
G54D16*
X1057870Y-712058D02*
X1057003Y-713503D01*
X1055270Y-714225D01*
X1053537Y-714225D01*
X1051803Y-713503D01*
X1050937Y-712058D01*
X1050937Y-708447D01*
X1050937Y-707725D01*
X1053537Y-709170D01*
X1055270Y-709170D01*
X1057003Y-708447D01*
X1057870Y-707003D01*
X1057870Y-704836D01*
X1057003Y-703392D01*
X1055270Y-702670D01*
X1053537Y-702670D01*
X1051803Y-703392D01*
X1050937Y-704836D01*
X1050937Y-708447D01*
G54D16*
X1040826Y-702670D02*
X1047759Y-702670D01*
X1047759Y-707725D01*
X1046892Y-707725D01*
X1045159Y-707003D01*
X1043426Y-707003D01*
X1041692Y-707725D01*
X1040826Y-709170D01*
X1040826Y-712058D01*
X1041692Y-713503D01*
X1043426Y-714225D01*
X1045159Y-714225D01*
X1046892Y-713503D01*
X1047759Y-712058D01*
G54D10*
X1270375Y-434975D02*
X1267175Y-434975D01*
X1267175Y-433375D01*
X1259275Y-433375D01*
X1259275Y-436575D01*
X1267175Y-436575D01*
X1267175Y-434975D01*
G54D10*
X1259275Y-434975D02*
X1256075Y-434975D01*
G54D10*
X1278725Y-427175D02*
X1247525Y-427175D01*
X1247525Y-442775D01*
X1278725Y-442775D01*
X1278725Y-427175D01*
G54D10*
X1225925Y-434975D02*
X1222725Y-434975D01*
X1222725Y-433375D01*
X1214825Y-433375D01*
X1214825Y-436575D01*
X1222725Y-436575D01*
X1222725Y-434975D01*
G54D10*
X1214825Y-434975D02*
X1211625Y-434975D01*
G54D10*
X1234275Y-427175D02*
X1203075Y-427175D01*
X1203075Y-442775D01*
X1234275Y-442775D01*
X1234275Y-427175D01*
G54D10*
X1308475Y-1860550D02*
X1305275Y-1860550D01*
X1305275Y-1858950D01*
X1297375Y-1858950D01*
X1297375Y-1862150D01*
X1305275Y-1862150D01*
X1305275Y-1860550D01*
G54D10*
X1297375Y-1860550D02*
X1294175Y-1860550D01*
G54D10*
X1316825Y-1852750D02*
X1285625Y-1852750D01*
X1285625Y-1868350D01*
X1316825Y-1868350D01*
X1316825Y-1852750D01*
G54D10*
X1079500Y-994150D02*
X1079500Y-990950D01*
X1081100Y-990950D01*
X1081100Y-983050D01*
X1077900Y-983050D01*
X1077900Y-990950D01*
X1079500Y-990950D01*
G54D10*
X1079500Y-983050D02*
X1079500Y-979850D01*
G54D10*
X1087300Y-1002500D02*
X1087300Y-971300D01*
X1071700Y-971300D01*
X1071700Y-1002500D01*
X1087300Y-1002500D01*
G54D10*
X1079500Y-949700D02*
X1079500Y-946500D01*
X1081100Y-946500D01*
X1081100Y-938600D01*
X1077900Y-938600D01*
X1077900Y-946500D01*
X1079500Y-946500D01*
G54D10*
X1079500Y-938600D02*
X1079500Y-935400D01*
G54D10*
X1087300Y-958050D02*
X1087300Y-926850D01*
X1071700Y-926850D01*
X1071700Y-958050D01*
X1087300Y-958050D01*
G54D10*
X1061720Y-917156D02*
X1061720Y-913956D01*
X1063320Y-913956D01*
X1063320Y-906056D01*
X1060120Y-906056D01*
X1060120Y-913956D01*
X1061720Y-913956D01*
G54D10*
X1061720Y-906056D02*
X1061720Y-902856D01*
G54D10*
X1069520Y-925506D02*
X1069520Y-894306D01*
X1053920Y-894306D01*
X1053920Y-925506D01*
X1069520Y-925506D01*
G54D10*
X1373188Y-167062D02*
X1373188Y-163862D01*
X1374788Y-163862D01*
X1374788Y-155962D01*
X1371588Y-155962D01*
X1371588Y-163862D01*
X1373188Y-163862D01*
G54D10*
X1373188Y-155962D02*
X1373188Y-152762D01*
G54D10*
X1380988Y-175412D02*
X1380988Y-144212D01*
X1365388Y-144212D01*
X1365388Y-175412D01*
X1380988Y-175412D01*
G54D10*
X1373188Y-416300D02*
X1373188Y-413100D01*
X1374788Y-413100D01*
X1374788Y-405200D01*
X1371588Y-405200D01*
X1371588Y-413100D01*
X1373188Y-413100D01*
G54D10*
X1373188Y-405200D02*
X1373188Y-402000D01*
G54D10*
X1380988Y-424650D02*
X1380988Y-393450D01*
X1365388Y-393450D01*
X1365388Y-424650D01*
X1380988Y-424650D01*
G54D10*
X1398212Y-625475D02*
X1401412Y-625475D01*
X1401412Y-627075D01*
X1409312Y-627075D01*
X1409312Y-623875D01*
X1401412Y-623875D01*
X1401412Y-625475D01*
G54D10*
X1409312Y-625475D02*
X1412512Y-625475D01*
G54D10*
X1389862Y-633275D02*
X1421062Y-633275D01*
X1421062Y-617675D01*
X1389862Y-617675D01*
X1389862Y-633275D01*
G54D10*
X1336300Y-865188D02*
X1339500Y-865188D01*
X1339500Y-866788D01*
X1347400Y-866788D01*
X1347400Y-863588D01*
X1339500Y-863588D01*
X1339500Y-865188D01*
G54D10*
X1347400Y-865188D02*
X1350600Y-865188D01*
G54D10*
X1327950Y-872988D02*
X1359150Y-872988D01*
X1359150Y-857388D01*
X1327950Y-857388D01*
X1327950Y-872988D01*
G54D10*
X1413250Y-1127125D02*
X1410050Y-1127125D01*
X1410050Y-1125525D01*
X1402150Y-1125525D01*
X1402150Y-1128725D01*
X1410050Y-1128725D01*
X1410050Y-1127125D01*
G54D10*
X1402150Y-1127125D02*
X1398950Y-1127125D01*
G54D10*
X1421600Y-1119325D02*
X1390400Y-1119325D01*
X1390400Y-1134925D01*
X1421600Y-1134925D01*
X1421600Y-1119325D01*
G54D10*
X1373187Y-1336300D02*
X1373188Y-1339500D01*
X1371588Y-1339500D01*
X1371588Y-1347400D01*
X1374788Y-1347400D01*
X1374788Y-1339500D01*
X1373188Y-1339500D01*
G54D10*
X1373188Y-1347400D02*
X1373187Y-1350600D01*
G54D10*
X1365388Y-1327950D02*
X1365388Y-1359150D01*
X1380988Y-1359150D01*
X1380988Y-1327950D01*
X1365388Y-1327950D01*
G54D10*
X1371600Y-1587125D02*
X1371600Y-1590325D01*
X1370000Y-1590325D01*
X1370000Y-1598225D01*
X1373200Y-1598225D01*
X1373200Y-1590325D01*
X1371600Y-1590325D01*
G54D10*
X1371600Y-1598225D02*
X1371600Y-1601425D01*
G54D10*
X1363800Y-1578775D02*
X1363800Y-1609975D01*
X1379400Y-1609975D01*
X1379400Y-1578775D01*
X1363800Y-1578775D01*
G54D10*
X1371600Y-1849812D02*
X1371600Y-1846612D01*
X1373200Y-1846612D01*
X1373200Y-1838712D01*
X1370000Y-1838712D01*
X1370000Y-1846612D01*
X1371600Y-1846612D01*
G54D10*
X1371600Y-1838712D02*
X1371600Y-1835512D01*
G54D10*
X1379400Y-1858162D02*
X1379400Y-1826962D01*
X1363800Y-1826962D01*
X1363800Y-1858162D01*
X1379400Y-1858162D01*
G54D11*
X1419263Y-701725D02*
X1419262Y-803325D01*
X1381063Y-803325D01*
X1381063Y-701725D01*
X1419263Y-701725D01*
G54D12*
G75*
G01X1414463Y-707925D02*
G03X1414463Y-707925I-1600J0D01*
G01*
G54D13*
X1406910Y-722340D02*
X1406910Y-727673D01*
X1405243Y-727006D01*
X1402743Y-725674D01*
X1399410Y-724340D01*
X1396910Y-723673D01*
X1393576Y-723673D01*
G54D13*
X1393576Y-735340D02*
X1406910Y-735340D01*
X1398576Y-731340D01*
X1396910Y-731340D01*
X1396910Y-736673D01*
G54D13*
X1393576Y-740340D02*
X1406910Y-740340D01*
G54D13*
X1393576Y-745673D02*
X1406910Y-745673D01*
G54D13*
X1400243Y-740340D02*
X1400243Y-745673D01*
G54D13*
X1396076Y-754673D02*
X1394409Y-754007D01*
X1393576Y-752673D01*
X1393576Y-751340D01*
X1394409Y-750006D01*
X1396076Y-749340D01*
X1404410Y-749340D01*
X1406076Y-750007D01*
X1406910Y-751340D01*
X1406910Y-752673D01*
X1406076Y-754007D01*
X1404410Y-754673D01*
G54D13*
X1406909Y-763673D02*
X1406910Y-758340D01*
X1401076Y-758340D01*
X1401076Y-759006D01*
X1401910Y-760340D01*
X1401910Y-761673D01*
X1401076Y-763006D01*
X1399410Y-763673D01*
X1396076Y-763673D01*
X1394409Y-763007D01*
X1393576Y-761673D01*
X1393576Y-760340D01*
X1394410Y-759007D01*
X1396076Y-758340D01*
G54D13*
X1396076Y-767340D02*
X1394409Y-768007D01*
X1393576Y-769340D01*
X1393576Y-770673D01*
X1394410Y-772006D01*
X1396076Y-772674D01*
X1400243Y-772674D01*
X1401076Y-772674D01*
X1399410Y-770673D01*
X1399410Y-769340D01*
X1400243Y-768007D01*
X1401910Y-767340D01*
X1404410Y-767340D01*
X1406076Y-768007D01*
X1406910Y-769340D01*
X1406910Y-770673D01*
X1406076Y-772007D01*
X1404410Y-772673D01*
X1400243Y-772674D01*
G54D13*
X1406910Y-781673D02*
X1406910Y-776340D01*
X1401076Y-776340D01*
X1401076Y-777006D01*
X1401910Y-778340D01*
X1401910Y-779673D01*
X1401076Y-781007D01*
X1399410Y-781673D01*
X1396076Y-781673D01*
X1394410Y-781006D01*
X1393576Y-779673D01*
X1393576Y-778340D01*
X1394409Y-777007D01*
X1396076Y-776340D01*
G54D14*
X1387653Y-705566D02*
X1384097Y-706455D01*
X1387653Y-707344D01*
G54D14*
X1385964Y-709211D02*
X1386097Y-708855D01*
X1385964Y-708500D01*
X1385520Y-708322D01*
X1384631Y-708322D01*
X1384186Y-708500D01*
X1384097Y-708855D01*
X1384186Y-709211D01*
G54D14*
X1385964Y-711078D02*
X1386097Y-710722D01*
X1385964Y-710367D01*
X1385520Y-710189D01*
X1384630Y-710189D01*
X1384186Y-710367D01*
X1384097Y-710722D01*
X1384186Y-711078D01*
G54D14*
X1386987Y-721559D02*
X1384765Y-721559D01*
X1384320Y-721381D01*
X1384098Y-721026D01*
X1384098Y-720670D01*
X1384320Y-720314D01*
X1384765Y-720137D01*
X1386987Y-720137D01*
X1387432Y-720314D01*
X1387654Y-720670D01*
X1387654Y-721026D01*
X1387432Y-721381D01*
X1386987Y-721559D01*
G54D14*
X1384098Y-731550D02*
X1387654Y-731549D01*
X1387654Y-732438D01*
X1387432Y-732794D01*
X1386987Y-732971D01*
X1384765Y-732971D01*
X1384320Y-732794D01*
X1384098Y-732438D01*
X1384098Y-731550D01*
G54D14*
X1384765Y-733949D02*
X1384320Y-734127D01*
X1384098Y-734482D01*
X1384098Y-734838D01*
X1384320Y-735194D01*
X1384765Y-735372D01*
X1385209Y-735372D01*
X1385654Y-735194D01*
X1385876Y-734838D01*
X1385876Y-734482D01*
X1386098Y-734127D01*
X1386542Y-733950D01*
X1386987Y-733949D01*
X1387432Y-734127D01*
X1387654Y-734482D01*
X1387654Y-734838D01*
X1387432Y-735194D01*
X1386987Y-735372D01*
G54D14*
X1386987Y-744358D02*
X1384765Y-744358D01*
X1384320Y-744180D01*
X1384098Y-743825D01*
X1384098Y-743470D01*
X1384320Y-743114D01*
X1384765Y-742936D01*
X1386987Y-742936D01*
X1387432Y-743114D01*
X1387654Y-743470D01*
X1387654Y-743825D01*
X1387432Y-744181D01*
X1386987Y-744358D01*
G54D14*
X1384098Y-746581D02*
X1384098Y-745336D01*
X1387654Y-745336D01*
X1387654Y-746580D01*
G54D14*
X1385876Y-745336D02*
X1385876Y-746580D01*
G54D14*
X1385654Y-747558D02*
X1385654Y-748980D01*
G54D14*
X1384765Y-751543D02*
X1384320Y-751721D01*
X1384098Y-752076D01*
X1384098Y-752432D01*
X1384320Y-752788D01*
X1384765Y-752966D01*
X1385209Y-752966D01*
X1385654Y-752788D01*
X1385876Y-752432D01*
X1385876Y-752076D01*
X1386098Y-751721D01*
X1386542Y-751543D01*
X1386987Y-751543D01*
X1387432Y-751721D01*
X1387654Y-752076D01*
X1387654Y-752432D01*
X1387432Y-752788D01*
X1386987Y-752966D01*
G54D14*
X1384098Y-754654D02*
X1387654Y-754654D01*
G54D14*
X1387654Y-753943D02*
X1387654Y-755366D01*
G54D14*
X1384098Y-756344D02*
X1384098Y-758121D01*
G54D14*
X1384765Y-760522D02*
X1384320Y-760344D01*
X1384098Y-759988D01*
X1384098Y-759632D01*
X1384320Y-759277D01*
X1384765Y-759099D01*
X1386987Y-759099D01*
X1387432Y-759277D01*
X1387654Y-759632D01*
X1387654Y-759988D01*
X1387432Y-760344D01*
X1386987Y-760522D01*
G54D14*
X1384098Y-761499D02*
X1387654Y-761500D01*
X1387654Y-762388D01*
X1387432Y-762744D01*
X1386987Y-762922D01*
X1386542Y-762922D01*
X1386098Y-762744D01*
X1385876Y-762388D01*
X1385876Y-761499D01*
G54D14*
X1384765Y-765831D02*
X1384320Y-766008D01*
X1384098Y-766364D01*
X1384098Y-766720D01*
X1384320Y-767075D01*
X1384765Y-767253D01*
X1385209Y-767253D01*
X1385654Y-767075D01*
X1385876Y-766720D01*
X1385876Y-766364D01*
X1386098Y-766008D01*
X1386542Y-765831D01*
X1386987Y-765831D01*
X1387432Y-766008D01*
X1387654Y-766364D01*
X1387654Y-766720D01*
X1387432Y-767075D01*
X1386987Y-767253D01*
G54D14*
X1384098Y-768231D02*
X1387654Y-768231D01*
G54D14*
X1384098Y-769653D02*
X1387654Y-769653D01*
G54D14*
X1385876Y-768231D02*
X1385876Y-769653D01*
G54D14*
X1384098Y-770631D02*
X1384098Y-772408D01*
G54D14*
X1384765Y-774809D02*
X1384320Y-774631D01*
X1384098Y-774276D01*
X1384098Y-773920D01*
X1384320Y-773564D01*
X1384765Y-773387D01*
X1386987Y-773387D01*
X1387432Y-773564D01*
X1387654Y-773920D01*
X1387654Y-774276D01*
X1387432Y-774631D01*
X1386987Y-774809D01*
G54D14*
X1384098Y-775787D02*
X1387654Y-775787D01*
X1387654Y-776676D01*
X1387432Y-777031D01*
X1386987Y-777209D01*
X1386543Y-777209D01*
X1386098Y-777031D01*
X1385876Y-776676D01*
X1385876Y-775787D01*
G54D14*
X1385876Y-780460D02*
X1385432Y-780994D01*
X1384987Y-781171D01*
X1384098Y-781171D01*
G54D14*
X1384098Y-779749D02*
X1387654Y-779749D01*
X1387654Y-780638D01*
X1387432Y-780993D01*
X1386987Y-781171D01*
X1386543Y-781171D01*
X1386098Y-780994D01*
X1385876Y-780638D01*
X1385876Y-779749D01*
G54D14*
X1384098Y-783393D02*
X1384098Y-782149D01*
X1387654Y-782149D01*
X1387654Y-783394D01*
G54D14*
X1385876Y-782149D02*
X1385876Y-783393D01*
G54D14*
X1384765Y-784371D02*
X1384320Y-784548D01*
X1384098Y-784904D01*
X1384098Y-785260D01*
X1384320Y-785615D01*
X1384765Y-785793D01*
X1385210Y-785793D01*
X1385654Y-785615D01*
X1385876Y-785260D01*
X1385876Y-784904D01*
X1386098Y-784548D01*
X1386542Y-784371D01*
X1386987Y-784371D01*
X1387432Y-784548D01*
X1387654Y-784904D01*
X1387654Y-785260D01*
X1387432Y-785615D01*
X1386987Y-785793D01*
G54D14*
X1385654Y-786771D02*
X1385654Y-788193D01*
G54D14*
X1386542Y-787482D02*
X1384765Y-787482D01*
G54D14*
X1387658Y-796338D02*
X1387658Y-797760D01*
X1387213Y-797582D01*
X1386546Y-797227D01*
X1385658Y-796872D01*
X1384991Y-796694D01*
X1384102Y-796694D01*
G54D14*
X1387658Y-798738D02*
X1386768Y-798738D01*
G54D14*
X1414894Y-712710D02*
X1416228Y-713599D01*
X1412672Y-713598D01*
G54D14*
X1412673Y-721559D02*
X1412673Y-720137D01*
X1412896Y-720137D01*
X1413340Y-720314D01*
X1414673Y-721381D01*
X1415118Y-721559D01*
X1415562Y-721559D01*
X1416007Y-721381D01*
X1416229Y-721026D01*
X1416229Y-720670D01*
X1416007Y-720314D01*
X1415562Y-720137D01*
G54D14*
X1415562Y-732343D02*
X1416006Y-732521D01*
X1416229Y-732876D01*
X1416229Y-733232D01*
X1416007Y-733588D01*
X1415562Y-733765D01*
X1415118Y-733765D01*
X1414673Y-733588D01*
X1414451Y-733232D01*
X1414229Y-733588D01*
X1413784Y-733765D01*
X1413340Y-733765D01*
X1412896Y-733588D01*
X1412673Y-733232D01*
X1412673Y-732876D01*
X1412896Y-732521D01*
X1413340Y-732343D01*
G54D14*
X1412673Y-746384D02*
X1416229Y-746384D01*
X1414007Y-745318D01*
X1413562Y-745318D01*
X1413562Y-746740D01*
G54D14*
X1416229Y-759316D02*
X1416229Y-757894D01*
X1414673Y-757893D01*
X1414673Y-758071D01*
X1414895Y-758426D01*
X1414896Y-758782D01*
X1414673Y-759138D01*
X1414229Y-759316D01*
X1413340Y-759316D01*
X1412896Y-759138D01*
X1412673Y-758782D01*
X1412673Y-758426D01*
X1412896Y-758071D01*
X1413340Y-757893D01*
G54D14*
X1415562Y-772016D02*
X1416006Y-771838D01*
X1416229Y-771482D01*
X1416229Y-771127D01*
X1416006Y-770771D01*
X1415562Y-770593D01*
X1414451Y-770593D01*
X1414229Y-770593D01*
X1414673Y-771126D01*
X1414673Y-771482D01*
X1414451Y-771838D01*
X1414007Y-772016D01*
X1413340Y-772016D01*
X1412896Y-771838D01*
X1412673Y-771482D01*
X1412673Y-771126D01*
X1412896Y-770771D01*
X1413340Y-770594D01*
X1414451Y-770593D01*
G54D14*
X1416229Y-783718D02*
X1416229Y-785140D01*
X1415784Y-784962D01*
X1415118Y-784606D01*
X1414229Y-784251D01*
X1413562Y-784073D01*
X1412673Y-784073D01*
G54D14*
X1414454Y-794668D02*
X1414454Y-795379D01*
X1413343Y-795379D01*
X1412899Y-795202D01*
X1412677Y-794846D01*
X1412677Y-794490D01*
X1412899Y-794135D01*
X1413344Y-793957D01*
X1415566Y-793957D01*
X1416010Y-794135D01*
X1416232Y-794490D01*
X1416232Y-794846D01*
X1416010Y-795202D01*
X1415566Y-795379D01*
G54D14*
X1412677Y-796357D02*
X1416232Y-796357D01*
X1412677Y-797779D01*
X1416232Y-797779D01*
G54D14*
X1412677Y-798757D02*
X1416232Y-798757D01*
X1416232Y-799646D01*
X1416010Y-800002D01*
X1415566Y-800179D01*
X1413344Y-800179D01*
X1412899Y-800002D01*
X1412677Y-799646D01*
X1412677Y-798757D01*
G54D16*
X1357663Y-702670D02*
X1350730Y-702670D01*
X1351596Y-704114D01*
X1353330Y-706280D01*
X1355063Y-709170D01*
X1355930Y-711336D01*
X1355930Y-714225D01*
G54D16*
X1342352Y-714225D02*
X1342352Y-702670D01*
X1347552Y-709892D01*
X1347552Y-711336D01*
X1340619Y-711336D01*
G54D16*
X1337441Y-714225D02*
X1337441Y-702670D01*
G54D16*
X1330508Y-714225D02*
X1330508Y-702670D01*
G54D16*
X1337441Y-708447D02*
X1330508Y-708447D01*
G54D16*
X1320397Y-712058D02*
X1321263Y-713503D01*
X1322997Y-714225D01*
X1324730Y-714225D01*
X1326463Y-713503D01*
X1327330Y-712058D01*
X1327330Y-704836D01*
X1326463Y-703392D01*
X1324730Y-702670D01*
X1322997Y-702670D01*
X1321263Y-703392D01*
X1320397Y-704836D01*
G54D16*
X1310286Y-702670D02*
X1317219Y-702670D01*
X1317219Y-707725D01*
X1316352Y-707725D01*
X1314619Y-707003D01*
X1312886Y-707003D01*
X1311152Y-707725D01*
X1310286Y-709170D01*
X1310286Y-712058D01*
X1311152Y-713503D01*
X1312886Y-714225D01*
X1314619Y-714225D01*
X1316352Y-713503D01*
X1317219Y-712058D01*
G54D16*
X1307108Y-712058D02*
X1306241Y-713503D01*
X1304508Y-714225D01*
X1302775Y-714225D01*
X1301041Y-713503D01*
X1300175Y-712058D01*
X1300175Y-708447D01*
X1300175Y-707725D01*
X1302775Y-709170D01*
X1304508Y-709170D01*
X1306241Y-708447D01*
X1307108Y-707003D01*
X1307108Y-704836D01*
X1306241Y-703392D01*
X1304508Y-702670D01*
X1302775Y-702670D01*
X1301041Y-703392D01*
X1300175Y-704836D01*
X1300175Y-708447D01*
G54D16*
X1290064Y-702670D02*
X1296997Y-702670D01*
X1296997Y-707725D01*
X1296130Y-707725D01*
X1294397Y-707003D01*
X1292664Y-707003D01*
X1290930Y-707725D01*
X1290064Y-709170D01*
X1290064Y-712058D01*
X1290930Y-713503D01*
X1292664Y-714225D01*
X1294397Y-714225D01*
X1296130Y-713503D01*
X1296997Y-712058D01*
G54D10*
X1519612Y-434975D02*
X1516412Y-434975D01*
X1516412Y-433375D01*
X1508512Y-433375D01*
X1508512Y-436575D01*
X1516412Y-436575D01*
X1516412Y-434975D01*
G54D10*
X1508512Y-434975D02*
X1505312Y-434975D01*
G54D10*
X1527962Y-427175D02*
X1496762Y-427175D01*
X1496762Y-442775D01*
X1527962Y-442775D01*
X1527962Y-427175D01*
G54D10*
X1475162Y-434975D02*
X1471962Y-434975D01*
X1471962Y-433375D01*
X1464062Y-433375D01*
X1464062Y-436575D01*
X1471962Y-436575D01*
X1471962Y-434975D01*
G54D10*
X1464062Y-434975D02*
X1460862Y-434975D01*
G54D10*
X1483512Y-427175D02*
X1452312Y-427175D01*
X1452312Y-442775D01*
X1483512Y-442775D01*
X1483512Y-427175D01*
G54D10*
X1559300Y-1860550D02*
X1556100Y-1860550D01*
X1556100Y-1858950D01*
X1548200Y-1858950D01*
X1548200Y-1862150D01*
X1556100Y-1862150D01*
X1556100Y-1860550D01*
G54D10*
X1548200Y-1860550D02*
X1545000Y-1860550D01*
G54D10*
X1567650Y-1852750D02*
X1536450Y-1852750D01*
X1536450Y-1868350D01*
X1567650Y-1868350D01*
X1567650Y-1852750D01*
G54D10*
X1328738Y-994150D02*
X1328737Y-990950D01*
X1330337Y-990950D01*
X1330338Y-983050D01*
X1327138Y-983050D01*
X1327137Y-990950D01*
X1328737Y-990950D01*
G54D10*
X1328738Y-983050D02*
X1328738Y-979850D01*
G54D10*
X1336538Y-1002500D02*
X1336538Y-971300D01*
X1320938Y-971300D01*
X1320938Y-1002500D01*
X1336538Y-1002500D01*
G54D10*
X1328738Y-949700D02*
X1328737Y-946500D01*
X1330337Y-946500D01*
X1330338Y-938600D01*
X1327138Y-938600D01*
X1327137Y-946500D01*
X1328737Y-946500D01*
G54D10*
X1328738Y-938600D02*
X1328738Y-935400D01*
G54D10*
X1336538Y-958050D02*
X1336538Y-926850D01*
X1320938Y-926850D01*
X1320938Y-958050D01*
X1336538Y-958050D01*
G54D10*
X1310958Y-917156D02*
X1310957Y-913956D01*
X1312557Y-913956D01*
X1312558Y-906056D01*
X1309358Y-906056D01*
X1309357Y-913956D01*
X1310957Y-913956D01*
G54D10*
X1310958Y-906056D02*
X1310958Y-902856D01*
G54D10*
X1318758Y-925506D02*
X1318758Y-894306D01*
X1303158Y-894306D01*
X1303158Y-925506D01*
X1318758Y-925506D01*
G54D10*
X1622425Y-167062D02*
X1622425Y-163862D01*
X1624025Y-163862D01*
X1624025Y-155962D01*
X1620825Y-155962D01*
X1620825Y-163862D01*
X1622425Y-163862D01*
G54D10*
X1622425Y-155962D02*
X1622425Y-152762D01*
G54D10*
X1630225Y-175412D02*
X1630225Y-144212D01*
X1614625Y-144212D01*
X1614625Y-175412D01*
X1630225Y-175412D01*
G54D10*
X1622425Y-416300D02*
X1622425Y-413100D01*
X1624025Y-413100D01*
X1624025Y-405200D01*
X1620825Y-405200D01*
X1620825Y-413100D01*
X1622425Y-413100D01*
G54D10*
X1622425Y-405200D02*
X1622425Y-402000D01*
G54D10*
X1630225Y-424650D02*
X1630225Y-393450D01*
X1614625Y-393450D01*
X1614625Y-424650D01*
X1630225Y-424650D01*
G54D10*
X1647450Y-625475D02*
X1650650Y-625475D01*
X1650650Y-627075D01*
X1658550Y-627075D01*
X1658550Y-623875D01*
X1650650Y-623875D01*
X1650650Y-625475D01*
G54D10*
X1658550Y-625475D02*
X1661750Y-625475D01*
G54D10*
X1639100Y-633275D02*
X1670300Y-633275D01*
X1670300Y-617675D01*
X1639100Y-617675D01*
X1639100Y-633275D01*
G54D10*
X1585538Y-865188D02*
X1588738Y-865188D01*
X1588738Y-866788D01*
X1596638Y-866788D01*
X1596638Y-863588D01*
X1588738Y-863588D01*
X1588738Y-865188D01*
G54D10*
X1596638Y-865188D02*
X1599838Y-865188D01*
G54D10*
X1577188Y-872988D02*
X1608388Y-872988D01*
X1608388Y-857388D01*
X1577188Y-857388D01*
X1577188Y-872988D01*
G54D10*
X1662488Y-1127125D02*
X1659288Y-1127125D01*
X1659288Y-1125525D01*
X1651388Y-1125525D01*
X1651388Y-1128725D01*
X1659288Y-1128725D01*
X1659288Y-1127125D01*
G54D10*
X1651387Y-1127125D02*
X1648188Y-1127125D01*
G54D10*
X1670838Y-1119325D02*
X1639638Y-1119325D01*
X1639638Y-1134925D01*
X1670838Y-1134925D01*
X1670838Y-1119325D01*
G54D10*
X1622425Y-1336300D02*
X1622425Y-1339500D01*
X1620825Y-1339500D01*
X1620825Y-1347400D01*
X1624025Y-1347400D01*
X1624025Y-1339500D01*
X1622425Y-1339500D01*
G54D10*
X1622425Y-1347400D02*
X1622425Y-1350600D01*
G54D10*
X1614625Y-1327950D02*
X1614625Y-1359150D01*
X1630225Y-1359150D01*
X1630225Y-1327950D01*
X1614625Y-1327950D01*
G54D10*
X1623286Y-1665947D02*
X1623286Y-1662747D01*
X1624886Y-1662747D01*
X1624886Y-1654847D01*
X1621686Y-1654847D01*
X1621686Y-1662747D01*
X1623286Y-1662747D01*
G54D10*
X1623286Y-1654847D02*
X1623286Y-1651647D01*
G54D10*
X1631086Y-1674297D02*
X1631086Y-1643097D01*
X1615486Y-1643097D01*
X1615486Y-1674297D01*
X1631086Y-1674297D01*
G54D10*
X1620838Y-1849812D02*
X1620838Y-1846612D01*
X1622438Y-1846612D01*
X1622438Y-1838712D01*
X1619238Y-1838712D01*
X1619238Y-1846612D01*
X1620838Y-1846612D01*
G54D10*
X1620838Y-1838712D02*
X1620838Y-1835512D01*
G54D10*
X1628638Y-1858162D02*
X1628638Y-1826962D01*
X1613038Y-1826962D01*
X1613038Y-1858162D01*
X1628638Y-1858162D01*
G54D11*
X1668500Y-701725D02*
X1668500Y-803325D01*
X1630300Y-803325D01*
X1630300Y-701725D01*
X1668500Y-701725D01*
G54D12*
G75*
G01X1663700Y-707925D02*
G03X1663700Y-707925I-1600J0D01*
G01*
G54D13*
X1656147Y-722340D02*
X1656147Y-727673D01*
X1654480Y-727006D01*
X1651980Y-725674D01*
X1648647Y-724340D01*
X1646147Y-723673D01*
X1642814Y-723673D01*
G54D13*
X1642814Y-735340D02*
X1656147Y-735340D01*
X1647814Y-731340D01*
X1646147Y-731340D01*
X1646147Y-736673D01*
G54D13*
X1642814Y-740340D02*
X1656147Y-740340D01*
G54D13*
X1642814Y-745673D02*
X1656147Y-745673D01*
G54D13*
X1649480Y-740340D02*
X1649480Y-745673D01*
G54D13*
X1645314Y-754673D02*
X1643647Y-754007D01*
X1642814Y-752673D01*
X1642814Y-751340D01*
X1643647Y-750006D01*
X1645314Y-749340D01*
X1653647Y-749340D01*
X1655314Y-750007D01*
X1656147Y-751340D01*
X1656147Y-752673D01*
X1655314Y-754007D01*
X1653647Y-754673D01*
G54D13*
X1656147Y-763673D02*
X1656147Y-758340D01*
X1650314Y-758340D01*
X1650314Y-759006D01*
X1651147Y-760340D01*
X1651147Y-761673D01*
X1650314Y-763006D01*
X1648647Y-763673D01*
X1645314Y-763673D01*
X1643647Y-763007D01*
X1642814Y-761673D01*
X1642814Y-760340D01*
X1643647Y-759007D01*
X1645314Y-758340D01*
G54D13*
X1645314Y-767340D02*
X1643647Y-768007D01*
X1642814Y-769340D01*
X1642814Y-770673D01*
X1643647Y-772006D01*
X1645314Y-772674D01*
X1649480Y-772674D01*
X1650314Y-772674D01*
X1648647Y-770673D01*
X1648647Y-769340D01*
X1649480Y-768007D01*
X1651147Y-767340D01*
X1653647Y-767340D01*
X1655314Y-768007D01*
X1656147Y-769340D01*
X1656147Y-770673D01*
X1655314Y-772007D01*
X1653647Y-772673D01*
X1649480Y-772674D01*
G54D13*
X1656147Y-781673D02*
X1656147Y-776340D01*
X1650314Y-776340D01*
X1650314Y-777006D01*
X1651147Y-778340D01*
X1651147Y-779673D01*
X1650314Y-781007D01*
X1648647Y-781673D01*
X1645314Y-781673D01*
X1643647Y-781006D01*
X1642814Y-779673D01*
X1642814Y-778340D01*
X1643647Y-777007D01*
X1645314Y-776340D01*
G54D14*
X1636890Y-705566D02*
X1633335Y-706455D01*
X1636890Y-707344D01*
G54D14*
X1635202Y-709211D02*
X1635335Y-708855D01*
X1635202Y-708500D01*
X1634757Y-708322D01*
X1633868Y-708322D01*
X1633424Y-708500D01*
X1633335Y-708855D01*
X1633424Y-709211D01*
G54D14*
X1635201Y-711078D02*
X1635335Y-710722D01*
X1635201Y-710367D01*
X1634757Y-710189D01*
X1633868Y-710189D01*
X1633424Y-710367D01*
X1633335Y-710722D01*
X1633424Y-711078D01*
G54D14*
X1636224Y-721559D02*
X1634002Y-721559D01*
X1633558Y-721381D01*
X1633336Y-721026D01*
X1633336Y-720670D01*
X1633558Y-720314D01*
X1634002Y-720137D01*
X1636225Y-720137D01*
X1636669Y-720314D01*
X1636891Y-720670D01*
X1636891Y-721026D01*
X1636669Y-721381D01*
X1636224Y-721559D01*
G54D14*
X1633336Y-731550D02*
X1636892Y-731549D01*
X1636892Y-732438D01*
X1636669Y-732794D01*
X1636224Y-732971D01*
X1634002Y-732971D01*
X1633558Y-732794D01*
X1633336Y-732438D01*
X1633336Y-731550D01*
G54D14*
X1634002Y-733949D02*
X1633558Y-734127D01*
X1633336Y-734482D01*
X1633336Y-734838D01*
X1633558Y-735194D01*
X1634002Y-735372D01*
X1634447Y-735372D01*
X1634891Y-735194D01*
X1635114Y-734838D01*
X1635114Y-734482D01*
X1635336Y-734127D01*
X1635780Y-733950D01*
X1636224Y-733949D01*
X1636669Y-734127D01*
X1636892Y-734482D01*
X1636892Y-734838D01*
X1636669Y-735194D01*
X1636225Y-735372D01*
G54D14*
X1636224Y-744358D02*
X1634002Y-744358D01*
X1633558Y-744180D01*
X1633336Y-743825D01*
X1633336Y-743470D01*
X1633558Y-743114D01*
X1634002Y-742936D01*
X1636224Y-742936D01*
X1636669Y-743114D01*
X1636892Y-743470D01*
X1636892Y-743825D01*
X1636669Y-744181D01*
X1636224Y-744358D01*
G54D14*
X1633336Y-746581D02*
X1633336Y-745336D01*
X1636892Y-745336D01*
X1636892Y-746580D01*
G54D14*
X1635114Y-745336D02*
X1635114Y-746580D01*
G54D14*
X1634891Y-747558D02*
X1634891Y-748980D01*
G54D14*
X1634002Y-751543D02*
X1633558Y-751721D01*
X1633336Y-752076D01*
X1633336Y-752432D01*
X1633558Y-752788D01*
X1634002Y-752966D01*
X1634447Y-752966D01*
X1634891Y-752788D01*
X1635114Y-752432D01*
X1635114Y-752076D01*
X1635336Y-751721D01*
X1635780Y-751543D01*
X1636225Y-751543D01*
X1636669Y-751721D01*
X1636891Y-752076D01*
X1636891Y-752432D01*
X1636669Y-752788D01*
X1636225Y-752966D01*
G54D14*
X1633336Y-754654D02*
X1636891Y-754654D01*
G54D14*
X1636892Y-753943D02*
X1636892Y-755366D01*
G54D14*
X1633336Y-756344D02*
X1633336Y-758121D01*
G54D14*
X1634002Y-760522D02*
X1633558Y-760344D01*
X1633336Y-759988D01*
X1633336Y-759632D01*
X1633558Y-759277D01*
X1634002Y-759099D01*
X1636224Y-759099D01*
X1636669Y-759277D01*
X1636892Y-759632D01*
X1636892Y-759988D01*
X1636669Y-760344D01*
X1636225Y-760522D01*
G54D14*
X1633336Y-761499D02*
X1636892Y-761500D01*
X1636892Y-762388D01*
X1636669Y-762744D01*
X1636224Y-762922D01*
X1635780Y-762922D01*
X1635336Y-762744D01*
X1635114Y-762388D01*
X1635114Y-761499D01*
G54D14*
X1634002Y-765831D02*
X1633558Y-766008D01*
X1633336Y-766364D01*
X1633336Y-766720D01*
X1633558Y-767075D01*
X1634002Y-767253D01*
X1634447Y-767253D01*
X1634891Y-767075D01*
X1635114Y-766720D01*
X1635114Y-766364D01*
X1635336Y-766008D01*
X1635780Y-765831D01*
X1636224Y-765831D01*
X1636669Y-766008D01*
X1636892Y-766364D01*
X1636892Y-766720D01*
X1636669Y-767075D01*
X1636225Y-767253D01*
G54D14*
X1633336Y-768231D02*
X1636892Y-768231D01*
G54D14*
X1633336Y-769653D02*
X1636891Y-769653D01*
G54D14*
X1635114Y-768231D02*
X1635114Y-769653D01*
G54D14*
X1633336Y-770631D02*
X1633336Y-772408D01*
G54D14*
X1634002Y-774809D02*
X1633558Y-774631D01*
X1633336Y-774276D01*
X1633336Y-773920D01*
X1633558Y-773564D01*
X1634002Y-773387D01*
X1636224Y-773387D01*
X1636669Y-773564D01*
X1636892Y-773920D01*
X1636892Y-774276D01*
X1636669Y-774631D01*
X1636224Y-774809D01*
G54D14*
X1633336Y-775787D02*
X1636892Y-775787D01*
X1636891Y-776676D01*
X1636669Y-777031D01*
X1636225Y-777209D01*
X1635780Y-777209D01*
X1635336Y-777031D01*
X1635114Y-776676D01*
X1635114Y-775787D01*
G54D14*
X1635114Y-780460D02*
X1634669Y-780994D01*
X1634224Y-781171D01*
X1633336Y-781171D01*
G54D14*
X1633336Y-779749D02*
X1636892Y-779749D01*
X1636892Y-780638D01*
X1636669Y-780993D01*
X1636225Y-781171D01*
X1635780Y-781171D01*
X1635336Y-780994D01*
X1635114Y-780638D01*
X1635114Y-779749D01*
G54D14*
X1633336Y-783393D02*
X1633336Y-782149D01*
X1636892Y-782149D01*
X1636892Y-783394D01*
G54D14*
X1635114Y-782149D02*
X1635114Y-783393D01*
G54D14*
X1634002Y-784371D02*
X1633558Y-784548D01*
X1633336Y-784904D01*
X1633336Y-785260D01*
X1633558Y-785615D01*
X1634002Y-785793D01*
X1634447Y-785793D01*
X1634891Y-785615D01*
X1635114Y-785260D01*
X1635114Y-784904D01*
X1635336Y-784548D01*
X1635780Y-784371D01*
X1636224Y-784371D01*
X1636669Y-784548D01*
X1636892Y-784904D01*
X1636892Y-785260D01*
X1636669Y-785615D01*
X1636225Y-785793D01*
G54D14*
X1634891Y-786771D02*
X1634891Y-788193D01*
G54D14*
X1635780Y-787482D02*
X1634002Y-787482D01*
G54D14*
X1636895Y-796338D02*
X1636895Y-797760D01*
X1636450Y-797582D01*
X1635784Y-797227D01*
X1634895Y-796872D01*
X1634228Y-796694D01*
X1633339Y-796694D01*
G54D14*
X1636895Y-798738D02*
X1636006Y-798738D01*
G54D14*
X1664132Y-712710D02*
X1665466Y-713599D01*
X1661910Y-713598D01*
G54D14*
X1661911Y-721559D02*
X1661911Y-720137D01*
X1662133Y-720137D01*
X1662577Y-720314D01*
X1663911Y-721381D01*
X1664355Y-721559D01*
X1664800Y-721559D01*
X1665244Y-721381D01*
X1665466Y-721026D01*
X1665466Y-720670D01*
X1665244Y-720314D01*
X1664800Y-720137D01*
G54D14*
X1664800Y-732343D02*
X1665244Y-732521D01*
X1665466Y-732876D01*
X1665466Y-733232D01*
X1665244Y-733588D01*
X1664800Y-733765D01*
X1664355Y-733765D01*
X1663911Y-733588D01*
X1663688Y-733232D01*
X1663466Y-733588D01*
X1663022Y-733765D01*
X1662578Y-733765D01*
X1662133Y-733588D01*
X1661911Y-733232D01*
X1661911Y-732876D01*
X1662133Y-732521D01*
X1662577Y-732343D01*
G54D14*
X1661911Y-746384D02*
X1665466Y-746384D01*
X1663244Y-745318D01*
X1662800Y-745318D01*
X1662800Y-746740D01*
G54D14*
X1665466Y-759316D02*
X1665466Y-757894D01*
X1663911Y-757893D01*
X1663911Y-758071D01*
X1664133Y-758426D01*
X1664133Y-758782D01*
X1663911Y-759138D01*
X1663466Y-759316D01*
X1662578Y-759316D01*
X1662133Y-759138D01*
X1661911Y-758782D01*
X1661911Y-758426D01*
X1662133Y-758071D01*
X1662577Y-757893D01*
G54D14*
X1664800Y-772016D02*
X1665244Y-771838D01*
X1665466Y-771482D01*
X1665466Y-771127D01*
X1665244Y-770771D01*
X1664800Y-770593D01*
X1663688Y-770593D01*
X1663466Y-770593D01*
X1663911Y-771126D01*
X1663911Y-771482D01*
X1663688Y-771838D01*
X1663244Y-772016D01*
X1662578Y-772016D01*
X1662133Y-771838D01*
X1661911Y-771482D01*
X1661911Y-771126D01*
X1662133Y-770771D01*
X1662578Y-770594D01*
X1663688Y-770593D01*
G54D14*
X1665466Y-783718D02*
X1665466Y-785140D01*
X1665022Y-784962D01*
X1664355Y-784606D01*
X1663466Y-784251D01*
X1662800Y-784073D01*
X1661911Y-784073D01*
G54D14*
X1663692Y-794668D02*
X1663692Y-795379D01*
X1662581Y-795379D01*
X1662136Y-795202D01*
X1661914Y-794846D01*
X1661914Y-794490D01*
X1662136Y-794135D01*
X1662581Y-793957D01*
X1664803Y-793957D01*
X1665248Y-794135D01*
X1665470Y-794490D01*
X1665470Y-794846D01*
X1665248Y-795202D01*
X1664803Y-795379D01*
G54D14*
X1661914Y-796357D02*
X1665470Y-796357D01*
X1661914Y-797779D01*
X1665470Y-797779D01*
G54D14*
X1661914Y-798757D02*
X1665470Y-798757D01*
X1665470Y-799646D01*
X1665248Y-800002D01*
X1664803Y-800179D01*
X1662581Y-800179D01*
X1662136Y-800002D01*
X1661914Y-799646D01*
X1661914Y-798757D01*
G54D16*
X1606900Y-702670D02*
X1599967Y-702670D01*
X1600833Y-704114D01*
X1602567Y-706280D01*
X1604300Y-709170D01*
X1605167Y-711336D01*
X1605167Y-714225D01*
G54D16*
X1591589Y-714225D02*
X1591589Y-702670D01*
X1596789Y-709892D01*
X1596789Y-711336D01*
X1589856Y-711336D01*
G54D16*
X1586678Y-714225D02*
X1586678Y-702670D01*
G54D16*
X1579745Y-714225D02*
X1579745Y-702670D01*
G54D16*
X1586678Y-708447D02*
X1579745Y-708447D01*
G54D16*
X1569634Y-712058D02*
X1570500Y-713503D01*
X1572234Y-714225D01*
X1573967Y-714225D01*
X1575700Y-713503D01*
X1576567Y-712058D01*
X1576567Y-704836D01*
X1575700Y-703392D01*
X1573967Y-702670D01*
X1572234Y-702670D01*
X1570500Y-703392D01*
X1569634Y-704836D01*
G54D16*
X1559523Y-702670D02*
X1566456Y-702670D01*
X1566456Y-707725D01*
X1565589Y-707725D01*
X1563856Y-707003D01*
X1562123Y-707003D01*
X1560389Y-707725D01*
X1559523Y-709170D01*
X1559523Y-712058D01*
X1560389Y-713503D01*
X1562123Y-714225D01*
X1563856Y-714225D01*
X1565589Y-713503D01*
X1566456Y-712058D01*
G54D16*
X1556345Y-712058D02*
X1555478Y-713503D01*
X1553745Y-714225D01*
X1552012Y-714225D01*
X1550278Y-713503D01*
X1549412Y-712058D01*
X1549412Y-708447D01*
X1549412Y-707725D01*
X1552012Y-709170D01*
X1553745Y-709170D01*
X1555478Y-708447D01*
X1556345Y-707003D01*
X1556345Y-704836D01*
X1555478Y-703392D01*
X1553745Y-702670D01*
X1552012Y-702670D01*
X1550278Y-703392D01*
X1549412Y-704836D01*
X1549412Y-708447D01*
G54D16*
X1539301Y-702670D02*
X1546234Y-702670D01*
X1546234Y-707725D01*
X1545367Y-707725D01*
X1543634Y-707003D01*
X1541901Y-707003D01*
X1540167Y-707725D01*
X1539301Y-709170D01*
X1539301Y-712058D01*
X1540167Y-713503D01*
X1541901Y-714225D01*
X1543634Y-714225D01*
X1545367Y-713503D01*
X1546234Y-712058D01*
G54D10*
X1727575Y-434975D02*
X1724375Y-434975D01*
X1724375Y-433375D01*
X1716475Y-433375D01*
X1716475Y-436575D01*
X1724375Y-436575D01*
X1724375Y-434975D01*
G54D10*
X1716475Y-434975D02*
X1713275Y-434975D01*
G54D10*
X1735925Y-427175D02*
X1704725Y-427175D01*
X1704725Y-442775D01*
X1735925Y-442775D01*
X1735925Y-427175D01*
G54D10*
X1689475Y-1882775D02*
X1686275Y-1882775D01*
X1686275Y-1881175D01*
X1678375Y-1881175D01*
X1678375Y-1884375D01*
X1686275Y-1884375D01*
X1686275Y-1882775D01*
G54D10*
X1678375Y-1882775D02*
X1675175Y-1882775D01*
G54D10*
X1697825Y-1874975D02*
X1666625Y-1874975D01*
X1666625Y-1890575D01*
X1697825Y-1890575D01*
X1697825Y-1874975D01*
G54D10*
X1577975Y-994150D02*
X1577975Y-990950D01*
X1579575Y-990950D01*
X1579575Y-983050D01*
X1576375Y-983050D01*
X1576375Y-990950D01*
X1577975Y-990950D01*
G54D10*
X1577975Y-983050D02*
X1577975Y-979850D01*
G54D10*
X1585775Y-1002500D02*
X1585775Y-971300D01*
X1570175Y-971300D01*
X1570175Y-1002500D01*
X1585775Y-1002500D01*
G54D10*
X1577975Y-949700D02*
X1577975Y-946500D01*
X1579575Y-946500D01*
X1579575Y-938600D01*
X1576375Y-938600D01*
X1576375Y-946500D01*
X1577975Y-946500D01*
G54D10*
X1577975Y-938600D02*
X1577975Y-935400D01*
G54D10*
X1585775Y-958050D02*
X1585775Y-926850D01*
X1570175Y-926850D01*
X1570175Y-958050D01*
X1585775Y-958050D01*
G54D10*
X1560195Y-917156D02*
X1560195Y-913956D01*
X1561795Y-913956D01*
X1561795Y-906056D01*
X1558595Y-906056D01*
X1558595Y-913956D01*
X1560195Y-913956D01*
G54D10*
X1560195Y-906056D02*
X1560195Y-902856D01*
G54D10*
X1567995Y-925506D02*
X1567995Y-894306D01*
X1552395Y-894306D01*
X1552395Y-925506D01*
X1567995Y-925506D01*
G54D10*
X1873250Y-167062D02*
X1873250Y-163862D01*
X1874850Y-163862D01*
X1874850Y-155962D01*
X1871650Y-155962D01*
X1871650Y-163862D01*
X1873250Y-163862D01*
G54D10*
X1873250Y-155962D02*
X1873250Y-152762D01*
G54D10*
X1881050Y-175412D02*
X1881050Y-144212D01*
X1865450Y-144212D01*
X1865450Y-175412D01*
X1881050Y-175412D01*
G54D10*
X1873250Y-416300D02*
X1873250Y-413100D01*
X1874850Y-413100D01*
X1874850Y-405200D01*
X1871650Y-405200D01*
X1871650Y-413100D01*
X1873250Y-413100D01*
G54D10*
X1873250Y-405200D02*
X1873250Y-402000D01*
G54D10*
X1881050Y-424650D02*
X1881050Y-393450D01*
X1865450Y-393450D01*
X1865450Y-424650D01*
X1881050Y-424650D01*
G54D10*
X1898275Y-625475D02*
X1901475Y-625475D01*
X1901475Y-627075D01*
X1909375Y-627075D01*
X1909375Y-623875D01*
X1901475Y-623875D01*
X1901475Y-625475D01*
G54D10*
X1909375Y-625475D02*
X1912575Y-625475D01*
G54D10*
X1889925Y-633275D02*
X1921125Y-633275D01*
X1921125Y-617675D01*
X1889925Y-617675D01*
X1889925Y-633275D01*
G54D10*
X1836362Y-865188D02*
X1839562Y-865188D01*
X1839562Y-866788D01*
X1847462Y-866788D01*
X1847462Y-863588D01*
X1839562Y-863588D01*
X1839562Y-865188D01*
G54D10*
X1847462Y-865188D02*
X1850662Y-865188D01*
G54D10*
X1828012Y-872988D02*
X1859212Y-872988D01*
X1859212Y-857388D01*
X1828012Y-857388D01*
X1828012Y-872988D01*
G54D10*
X1913312Y-1127125D02*
X1910112Y-1127125D01*
X1910112Y-1125525D01*
X1902212Y-1125525D01*
X1902212Y-1128725D01*
X1910112Y-1128725D01*
X1910112Y-1127125D01*
G54D10*
X1902212Y-1127125D02*
X1899012Y-1127125D01*
G54D10*
X1921662Y-1119325D02*
X1890462Y-1119325D01*
X1890462Y-1134925D01*
X1921662Y-1134925D01*
X1921662Y-1119325D01*
G54D10*
X1873250Y-1336300D02*
X1873250Y-1339500D01*
X1871650Y-1339500D01*
X1871650Y-1347400D01*
X1874850Y-1347400D01*
X1874850Y-1339500D01*
X1873250Y-1339500D01*
G54D10*
X1873250Y-1347400D02*
X1873250Y-1350600D01*
G54D10*
X1865450Y-1327950D02*
X1865450Y-1359150D01*
X1881050Y-1359150D01*
X1881050Y-1327950D01*
X1865450Y-1327950D01*
G54D10*
X1871662Y-1587125D02*
X1871662Y-1590325D01*
X1870062Y-1590325D01*
X1870062Y-1598225D01*
X1873262Y-1598225D01*
X1873262Y-1590325D01*
X1871662Y-1590325D01*
G54D10*
X1871662Y-1598225D02*
X1871662Y-1601425D01*
G54D10*
X1863862Y-1578775D02*
X1863862Y-1609975D01*
X1879462Y-1609975D01*
X1879462Y-1578775D01*
X1863862Y-1578775D01*
G54D10*
X1871662Y-1849812D02*
X1871662Y-1846612D01*
X1873262Y-1846612D01*
X1873262Y-1838712D01*
X1870062Y-1838712D01*
X1870062Y-1846612D01*
X1871662Y-1846612D01*
G54D10*
X1871662Y-1838712D02*
X1871662Y-1835512D01*
G54D10*
X1879462Y-1858162D02*
X1879462Y-1826962D01*
X1863862Y-1826962D01*
X1863862Y-1858162D01*
X1879462Y-1858162D01*
G54D11*
X1919325Y-701725D02*
X1919325Y-803325D01*
X1881125Y-803325D01*
X1881125Y-701725D01*
X1919325Y-701725D01*
G54D12*
G75*
G01X1914525Y-707925D02*
G03X1914525Y-707925I-1600J0D01*
G01*
G54D13*
X1906972Y-722340D02*
X1906972Y-727673D01*
X1905305Y-727006D01*
X1902805Y-725674D01*
X1899472Y-724340D01*
X1896972Y-723673D01*
X1893638Y-723673D01*
G54D13*
X1893638Y-735340D02*
X1906972Y-735340D01*
X1898639Y-731340D01*
X1896972Y-731340D01*
X1896972Y-736673D01*
G54D13*
X1893638Y-740340D02*
X1906972Y-740340D01*
G54D13*
X1893638Y-745673D02*
X1906972Y-745673D01*
G54D13*
X1900305Y-740340D02*
X1900305Y-745673D01*
G54D13*
X1896138Y-754673D02*
X1894472Y-754007D01*
X1893638Y-752673D01*
X1893638Y-751340D01*
X1894472Y-750006D01*
X1896138Y-749340D01*
X1904472Y-749340D01*
X1906138Y-750007D01*
X1906972Y-751340D01*
X1906972Y-752673D01*
X1906138Y-754007D01*
X1904472Y-754673D01*
G54D13*
X1906972Y-763673D02*
X1906972Y-758340D01*
X1901138Y-758340D01*
X1901138Y-759006D01*
X1901972Y-760340D01*
X1901972Y-761673D01*
X1901139Y-763006D01*
X1899472Y-763673D01*
X1896139Y-763673D01*
X1894472Y-763007D01*
X1893639Y-761673D01*
X1893639Y-760340D01*
X1894472Y-759007D01*
X1896139Y-758340D01*
G54D13*
X1896138Y-767340D02*
X1894472Y-768007D01*
X1893638Y-769340D01*
X1893638Y-770673D01*
X1894472Y-772006D01*
X1896138Y-772674D01*
X1900305Y-772674D01*
X1901139Y-772674D01*
X1899472Y-770673D01*
X1899472Y-769340D01*
X1900305Y-768007D01*
X1901972Y-767340D01*
X1904472Y-767340D01*
X1906139Y-768007D01*
X1906972Y-769340D01*
X1906972Y-770673D01*
X1906139Y-772007D01*
X1904472Y-772673D01*
X1900305Y-772674D01*
G54D13*
X1906972Y-781673D02*
X1906972Y-776340D01*
X1901139Y-776340D01*
X1901139Y-777006D01*
X1901972Y-778340D01*
X1901972Y-779673D01*
X1901139Y-781007D01*
X1899472Y-781673D01*
X1896138Y-781673D01*
X1894472Y-781006D01*
X1893638Y-779673D01*
X1893638Y-778340D01*
X1894472Y-777007D01*
X1896139Y-776340D01*
G54D14*
X1887715Y-705566D02*
X1884160Y-706455D01*
X1887715Y-707344D01*
G54D14*
X1886026Y-709211D02*
X1886160Y-708855D01*
X1886026Y-708500D01*
X1885582Y-708322D01*
X1884693Y-708322D01*
X1884249Y-708500D01*
X1884160Y-708855D01*
X1884249Y-709211D01*
G54D14*
X1886026Y-711078D02*
X1886160Y-710722D01*
X1886026Y-710367D01*
X1885582Y-710189D01*
X1884693Y-710189D01*
X1884248Y-710367D01*
X1884160Y-710722D01*
X1884249Y-711078D01*
G54D14*
X1887050Y-721559D02*
X1884828Y-721559D01*
X1884383Y-721381D01*
X1884161Y-721026D01*
X1884161Y-720670D01*
X1884383Y-720314D01*
X1884827Y-720137D01*
X1887050Y-720137D01*
X1887494Y-720314D01*
X1887716Y-720670D01*
X1887716Y-721026D01*
X1887494Y-721381D01*
X1887050Y-721559D01*
G54D14*
X1884161Y-731550D02*
X1887716Y-731549D01*
X1887716Y-732438D01*
X1887494Y-732794D01*
X1887050Y-732971D01*
X1884828Y-732971D01*
X1884383Y-732794D01*
X1884161Y-732438D01*
X1884161Y-731550D01*
G54D14*
X1884827Y-733949D02*
X1884383Y-734127D01*
X1884161Y-734482D01*
X1884161Y-734838D01*
X1884383Y-735194D01*
X1884827Y-735372D01*
X1885272Y-735372D01*
X1885716Y-735194D01*
X1885938Y-734838D01*
X1885938Y-734482D01*
X1886161Y-734127D01*
X1886605Y-733950D01*
X1887050Y-733949D01*
X1887494Y-734127D01*
X1887716Y-734482D01*
X1887716Y-734838D01*
X1887494Y-735194D01*
X1887050Y-735372D01*
G54D14*
X1887050Y-744358D02*
X1884827Y-744358D01*
X1884383Y-744180D01*
X1884161Y-743825D01*
X1884161Y-743470D01*
X1884383Y-743114D01*
X1884827Y-742936D01*
X1887050Y-742936D01*
X1887494Y-743114D01*
X1887716Y-743470D01*
X1887716Y-743825D01*
X1887494Y-744181D01*
X1887050Y-744358D01*
G54D14*
X1884161Y-746581D02*
X1884161Y-745336D01*
X1887716Y-745336D01*
X1887716Y-746580D01*
G54D14*
X1885938Y-745336D02*
X1885938Y-746580D01*
G54D14*
X1885716Y-747558D02*
X1885716Y-748980D01*
G54D14*
X1884827Y-751543D02*
X1884383Y-751721D01*
X1884161Y-752076D01*
X1884161Y-752432D01*
X1884383Y-752788D01*
X1884828Y-752966D01*
X1885272Y-752966D01*
X1885716Y-752788D01*
X1885938Y-752432D01*
X1885938Y-752076D01*
X1886160Y-751721D01*
X1886605Y-751543D01*
X1887050Y-751543D01*
X1887494Y-751721D01*
X1887716Y-752076D01*
X1887716Y-752432D01*
X1887494Y-752788D01*
X1887050Y-752966D01*
G54D14*
X1884161Y-754654D02*
X1887716Y-754654D01*
G54D14*
X1887716Y-753943D02*
X1887716Y-755366D01*
G54D14*
X1884161Y-756344D02*
X1884161Y-758121D01*
G54D14*
X1884827Y-760522D02*
X1884383Y-760344D01*
X1884161Y-759988D01*
X1884161Y-759632D01*
X1884383Y-759277D01*
X1884827Y-759099D01*
X1887050Y-759099D01*
X1887494Y-759277D01*
X1887716Y-759632D01*
X1887716Y-759988D01*
X1887494Y-760344D01*
X1887050Y-760522D01*
G54D14*
X1884161Y-761499D02*
X1887716Y-761500D01*
X1887716Y-762388D01*
X1887494Y-762744D01*
X1887050Y-762922D01*
X1886605Y-762922D01*
X1886161Y-762744D01*
X1885938Y-762388D01*
X1885938Y-761499D01*
G54D14*
X1884827Y-765831D02*
X1884383Y-766008D01*
X1884161Y-766364D01*
X1884161Y-766720D01*
X1884383Y-767075D01*
X1884827Y-767253D01*
X1885272Y-767253D01*
X1885716Y-767075D01*
X1885938Y-766720D01*
X1885938Y-766364D01*
X1886161Y-766008D01*
X1886605Y-765831D01*
X1887050Y-765831D01*
X1887494Y-766008D01*
X1887716Y-766364D01*
X1887716Y-766720D01*
X1887494Y-767075D01*
X1887050Y-767253D01*
G54D14*
X1884161Y-768231D02*
X1887716Y-768231D01*
G54D14*
X1884161Y-769653D02*
X1887716Y-769653D01*
G54D14*
X1885938Y-768231D02*
X1885938Y-769653D01*
G54D14*
X1884161Y-770631D02*
X1884161Y-772408D01*
G54D14*
X1884827Y-774809D02*
X1884383Y-774631D01*
X1884160Y-774276D01*
X1884160Y-773920D01*
X1884383Y-773564D01*
X1884827Y-773387D01*
X1887050Y-773387D01*
X1887494Y-773564D01*
X1887716Y-773920D01*
X1887716Y-774276D01*
X1887494Y-774631D01*
X1887050Y-774809D01*
G54D14*
X1884161Y-775787D02*
X1887716Y-775787D01*
X1887716Y-776676D01*
X1887494Y-777031D01*
X1887050Y-777209D01*
X1886605Y-777209D01*
X1886161Y-777031D01*
X1885938Y-776676D01*
X1885938Y-775787D01*
G54D14*
X1885938Y-780460D02*
X1885494Y-780994D01*
X1885050Y-781171D01*
X1884161Y-781171D01*
G54D14*
X1884161Y-779749D02*
X1887716Y-779749D01*
X1887716Y-780638D01*
X1887494Y-780993D01*
X1887050Y-781171D01*
X1886605Y-781171D01*
X1886161Y-780994D01*
X1885938Y-780638D01*
X1885938Y-779749D01*
G54D14*
X1884161Y-783393D02*
X1884161Y-782149D01*
X1887716Y-782149D01*
X1887716Y-783394D01*
G54D14*
X1885938Y-782149D02*
X1885938Y-783393D01*
G54D14*
X1884827Y-784371D02*
X1884383Y-784548D01*
X1884161Y-784904D01*
X1884161Y-785260D01*
X1884383Y-785615D01*
X1884827Y-785793D01*
X1885272Y-785793D01*
X1885716Y-785615D01*
X1885938Y-785260D01*
X1885938Y-784904D01*
X1886161Y-784548D01*
X1886605Y-784371D01*
X1887050Y-784371D01*
X1887494Y-784548D01*
X1887716Y-784904D01*
X1887716Y-785260D01*
X1887494Y-785615D01*
X1887050Y-785793D01*
G54D14*
X1885716Y-786771D02*
X1885716Y-788193D01*
G54D14*
X1886605Y-787482D02*
X1884827Y-787482D01*
G54D14*
X1887720Y-796338D02*
X1887720Y-797760D01*
X1887276Y-797582D01*
X1886608Y-797227D01*
X1885720Y-796872D01*
X1885053Y-796694D01*
X1884164Y-796694D01*
G54D14*
X1887720Y-798738D02*
X1886831Y-798738D01*
G54D14*
X1914957Y-712710D02*
X1916290Y-713599D01*
X1912735Y-713598D01*
G54D14*
X1912736Y-721559D02*
X1912736Y-720137D01*
X1912958Y-720137D01*
X1913402Y-720314D01*
X1914736Y-721381D01*
X1915180Y-721559D01*
X1915625Y-721559D01*
X1916069Y-721381D01*
X1916292Y-721026D01*
X1916292Y-720670D01*
X1916069Y-720314D01*
X1915624Y-720137D01*
G54D14*
X1915624Y-732343D02*
X1916069Y-732521D01*
X1916292Y-732876D01*
X1916292Y-733232D01*
X1916069Y-733588D01*
X1915625Y-733765D01*
X1915180Y-733765D01*
X1914736Y-733588D01*
X1914514Y-733232D01*
X1914292Y-733588D01*
X1913847Y-733765D01*
X1913402Y-733765D01*
X1912958Y-733588D01*
X1912736Y-733232D01*
X1912736Y-732876D01*
X1912958Y-732521D01*
X1913402Y-732343D01*
G54D14*
X1912736Y-746384D02*
X1916291Y-746384D01*
X1914069Y-745318D01*
X1913625Y-745318D01*
X1913624Y-746740D01*
G54D14*
X1916292Y-759316D02*
X1916291Y-757894D01*
X1914736Y-757893D01*
X1914736Y-758071D01*
X1914958Y-758426D01*
X1914958Y-758782D01*
X1914736Y-759138D01*
X1914292Y-759316D01*
X1913402Y-759316D01*
X1912958Y-759138D01*
X1912736Y-758782D01*
X1912736Y-758426D01*
X1912958Y-758071D01*
X1913402Y-757893D01*
G54D14*
X1915624Y-772016D02*
X1916069Y-771838D01*
X1916291Y-771482D01*
X1916291Y-771127D01*
X1916069Y-770771D01*
X1915624Y-770593D01*
X1914514Y-770593D01*
X1914291Y-770593D01*
X1914736Y-771126D01*
X1914736Y-771482D01*
X1914514Y-771838D01*
X1914069Y-772016D01*
X1913402Y-772016D01*
X1912958Y-771838D01*
X1912736Y-771482D01*
X1912736Y-771126D01*
X1912958Y-770771D01*
X1913402Y-770594D01*
X1914514Y-770593D01*
G54D14*
X1916291Y-783718D02*
X1916292Y-785140D01*
X1915847Y-784962D01*
X1915180Y-784606D01*
X1914291Y-784251D01*
X1913625Y-784073D01*
X1912736Y-784073D01*
G54D14*
X1914517Y-794668D02*
X1914517Y-795379D01*
X1913406Y-795379D01*
X1912962Y-795202D01*
X1912739Y-794846D01*
X1912739Y-794490D01*
X1912962Y-794135D01*
X1913406Y-793957D01*
X1915628Y-793957D01*
X1916073Y-794135D01*
X1916295Y-794490D01*
X1916295Y-794846D01*
X1916072Y-795202D01*
X1915628Y-795379D01*
G54D14*
X1912739Y-796357D02*
X1916295Y-796357D01*
X1912739Y-797779D01*
X1916295Y-797779D01*
G54D14*
X1912739Y-798757D02*
X1916295Y-798757D01*
X1916295Y-799646D01*
X1916072Y-800002D01*
X1915628Y-800179D01*
X1913406Y-800179D01*
X1912961Y-800002D01*
X1912739Y-799646D01*
X1912739Y-798757D01*
G54D16*
X1857725Y-702670D02*
X1850792Y-702670D01*
X1851658Y-704114D01*
X1853392Y-706280D01*
X1855125Y-709170D01*
X1855992Y-711336D01*
X1855992Y-714225D01*
G54D16*
X1842414Y-714225D02*
X1842414Y-702670D01*
X1847614Y-709892D01*
X1847614Y-711336D01*
X1840681Y-711336D01*
G54D16*
X1837503Y-714225D02*
X1837503Y-702670D01*
G54D16*
X1830570Y-714225D02*
X1830570Y-702670D01*
G54D16*
X1837503Y-708447D02*
X1830570Y-708447D01*
G54D16*
X1820459Y-712058D02*
X1821325Y-713503D01*
X1823059Y-714225D01*
X1824792Y-714225D01*
X1826525Y-713503D01*
X1827392Y-712058D01*
X1827392Y-704836D01*
X1826525Y-703392D01*
X1824792Y-702670D01*
X1823059Y-702670D01*
X1821325Y-703392D01*
X1820459Y-704836D01*
G54D16*
X1810348Y-702670D02*
X1817281Y-702670D01*
X1817281Y-707725D01*
X1816414Y-707725D01*
X1814681Y-707003D01*
X1812948Y-707003D01*
X1811214Y-707725D01*
X1810348Y-709170D01*
X1810348Y-712058D01*
X1811214Y-713503D01*
X1812948Y-714225D01*
X1814681Y-714225D01*
X1816414Y-713503D01*
X1817281Y-712058D01*
G54D16*
X1807170Y-712058D02*
X1806303Y-713503D01*
X1804570Y-714225D01*
X1802837Y-714225D01*
X1801103Y-713503D01*
X1800237Y-712058D01*
X1800237Y-708447D01*
X1800237Y-707725D01*
X1802837Y-709170D01*
X1804570Y-709170D01*
X1806303Y-708447D01*
X1807170Y-707003D01*
X1807170Y-704836D01*
X1806303Y-703392D01*
X1804570Y-702670D01*
X1802837Y-702670D01*
X1801103Y-703392D01*
X1800237Y-704836D01*
X1800237Y-708447D01*
G54D16*
X1790126Y-702670D02*
X1797059Y-702670D01*
X1797059Y-707725D01*
X1796192Y-707725D01*
X1794459Y-707003D01*
X1792726Y-707003D01*
X1790992Y-707725D01*
X1790126Y-709170D01*
X1790126Y-712058D01*
X1790992Y-713503D01*
X1792726Y-714225D01*
X1794459Y-714225D01*
X1796192Y-713503D01*
X1797059Y-712058D01*
G54D10*
X1828800Y-994150D02*
X1828800Y-990950D01*
X1830400Y-990950D01*
X1830400Y-983050D01*
X1827200Y-983050D01*
X1827200Y-990950D01*
X1828800Y-990950D01*
G54D10*
X1828800Y-983050D02*
X1828800Y-979850D01*
G54D10*
X1836600Y-1002500D02*
X1836600Y-971300D01*
X1821000Y-971300D01*
X1821000Y-1002500D01*
X1836600Y-1002500D01*
G54D10*
X233363Y-82925D02*
X233362Y-79725D01*
X234962Y-79725D01*
X234962Y-71825D01*
X231762Y-71825D01*
X231762Y-79725D01*
X233362Y-79725D01*
G54D10*
X233362Y-71825D02*
X233363Y-68625D01*
G54D10*
X241162Y-91275D02*
X241162Y-60075D01*
X225562Y-60075D01*
X225563Y-91275D01*
X241162Y-91275D01*
G54D10*
X1467699Y-1873636D02*
X1467699Y-1870436D01*
X1469299Y-1870436D01*
X1469299Y-1862536D01*
X1466099Y-1862536D01*
X1466099Y-1870436D01*
X1467699Y-1870436D01*
G54D10*
X1467699Y-1862536D02*
X1467699Y-1859336D01*
G54D10*
X1475499Y-1881986D02*
X1475499Y-1850786D01*
X1459899Y-1850786D01*
X1459899Y-1881986D01*
X1475499Y-1881986D01*
G54D10*
X1467699Y-1918086D02*
X1467699Y-1914886D01*
X1469299Y-1914886D01*
X1469299Y-1906986D01*
X1466099Y-1906986D01*
X1466099Y-1914886D01*
X1467699Y-1914886D01*
G54D10*
X1467699Y-1906986D02*
X1467699Y-1903786D01*
G54D10*
X1475499Y-1926436D02*
X1475499Y-1895236D01*
X1459899Y-1895236D01*
X1459899Y-1926436D01*
X1475499Y-1926436D01*
G54D17*
X1518425Y-1402600D02*
X1658425Y-1402600D01*
X1658425Y-1602600D01*
X1518425Y-1602600D01*
X1518425Y-1402600D01*
G54D17*
X1658425Y-1402600D02*
X1678425Y-1402600D01*
X1678425Y-1602600D01*
X1658425Y-1602600D01*
X1658425Y-1402600D01*
G54D17*
X1678425Y-1516100D02*
X1748425Y-1516100D01*
G54D17*
X1678425Y-1489600D02*
X1748425Y-1489600D01*
G54D17*
X1678425Y-1462100D02*
X1748425Y-1462100D01*
G54D17*
X1678425Y-1434600D02*
X1748425Y-1434600D01*
G54D17*
X1678425Y-1406600D02*
X1748425Y-1406600D01*
G54D18*
X1665342Y-1406289D02*
X1671564Y-1406289D01*
X1671564Y-1409556D01*
G54D18*
X1666508Y-1415468D02*
X1670397Y-1415468D01*
X1671175Y-1415000D01*
X1671564Y-1414068D01*
X1671564Y-1413134D01*
X1671175Y-1412200D01*
X1670397Y-1411734D01*
X1666508Y-1411734D01*
X1665730Y-1412200D01*
X1665342Y-1413134D01*
X1665342Y-1414068D01*
X1665730Y-1415000D01*
X1666508Y-1415468D01*
G54D18*
X1665339Y-1431489D02*
X1671561Y-1431489D01*
X1671561Y-1434756D01*
G54D18*
X1667672Y-1436934D02*
X1665339Y-1439268D01*
X1671561Y-1439268D01*
G54D18*
X1665342Y-1458789D02*
X1671564Y-1458789D01*
X1671564Y-1462056D01*
G54D18*
X1671564Y-1467968D02*
X1671564Y-1464234D01*
X1671175Y-1464234D01*
X1670397Y-1464701D01*
X1668064Y-1467501D01*
X1667286Y-1467968D01*
X1666508Y-1467968D01*
X1665730Y-1467501D01*
X1665342Y-1466568D01*
X1665342Y-1465634D01*
X1665730Y-1464701D01*
X1666508Y-1464234D01*
G54D18*
X1665342Y-1486289D02*
X1671564Y-1486289D01*
X1671564Y-1489556D01*
G54D18*
X1666508Y-1491734D02*
X1665730Y-1492200D01*
X1665342Y-1493134D01*
X1665342Y-1494068D01*
X1665730Y-1495000D01*
X1666508Y-1495468D01*
X1667286Y-1495468D01*
X1668064Y-1495000D01*
X1668453Y-1494068D01*
X1668842Y-1495000D01*
X1669619Y-1495468D01*
X1670397Y-1495468D01*
X1671175Y-1495000D01*
X1671564Y-1494068D01*
X1671564Y-1493134D01*
X1671175Y-1492200D01*
X1670397Y-1491734D01*
G54D18*
X1665341Y-1511300D02*
X1671563Y-1511300D01*
X1671563Y-1514566D01*
G54D18*
X1671563Y-1519545D02*
X1665341Y-1519545D01*
X1669230Y-1516745D01*
X1670008Y-1516745D01*
X1670008Y-1520478D01*
G54D18*
X1665342Y-1591299D02*
X1671564Y-1591299D01*
X1671564Y-1594566D01*
G54D18*
X1665342Y-1596744D02*
X1665342Y-1600478D01*
X1666119Y-1600011D01*
X1667286Y-1599078D01*
X1668842Y-1598144D01*
X1670008Y-1597678D01*
X1671564Y-1597678D01*
G54D18*
X1665342Y-1566288D02*
X1671564Y-1566288D01*
X1671564Y-1569555D01*
G54D18*
X1666508Y-1575467D02*
X1665730Y-1575000D01*
X1665342Y-1574067D01*
X1665342Y-1573134D01*
X1665730Y-1572200D01*
X1666508Y-1571734D01*
X1668453Y-1571734D01*
X1668842Y-1571734D01*
X1668064Y-1573134D01*
X1668064Y-1574067D01*
X1668453Y-1575000D01*
X1669230Y-1575467D01*
X1670397Y-1575467D01*
X1671175Y-1575000D01*
X1671564Y-1574067D01*
X1671564Y-1573134D01*
X1671175Y-1572200D01*
X1670397Y-1571734D01*
X1668453Y-1571734D01*
G54D18*
X1665342Y-1538788D02*
X1671564Y-1538788D01*
X1671564Y-1542055D01*
G54D18*
X1665342Y-1547967D02*
X1665342Y-1544234D01*
X1668064Y-1544234D01*
X1668064Y-1544700D01*
X1667675Y-1545634D01*
X1667675Y-1546567D01*
X1668064Y-1547500D01*
X1668842Y-1547967D01*
X1670397Y-1547967D01*
X1671175Y-1547500D01*
X1671564Y-1546567D01*
X1671564Y-1545634D01*
X1671175Y-1544700D01*
X1670397Y-1544234D01*
G54D17*
X1678425Y-1543600D02*
X1748425Y-1543600D01*
G54D17*
X1678425Y-1572100D02*
X1748425Y-1572100D01*
G54D17*
X1678425Y-1599100D02*
X1748425Y-1599100D01*
G54D19*
X1426752Y-1294233D02*
X1427307Y-1293900D01*
X1427585Y-1293233D01*
X1427585Y-1292566D01*
X1427307Y-1291900D01*
X1426752Y-1291566D01*
X1426196Y-1291566D01*
X1425640Y-1291900D01*
X1425363Y-1292566D01*
X1425363Y-1293233D01*
X1425085Y-1293900D01*
X1424530Y-1294233D01*
X1423974Y-1294233D01*
X1423418Y-1293900D01*
X1423140Y-1293233D01*
X1423140Y-1292566D01*
X1423418Y-1291900D01*
X1423974Y-1291566D01*
G54D19*
X1427585Y-1288676D02*
X1423140Y-1288676D01*
G54D19*
X1423140Y-1290010D02*
X1423140Y-1287343D01*
G54D19*
X1427585Y-1285787D02*
X1427585Y-1282454D01*
G54D19*
X1426752Y-1278231D02*
X1427307Y-1278564D01*
X1427585Y-1279231D01*
X1427585Y-1279898D01*
X1427307Y-1280564D01*
X1426752Y-1280898D01*
X1423974Y-1280898D01*
X1423418Y-1280564D01*
X1423140Y-1279898D01*
X1423140Y-1279231D01*
X1423418Y-1278564D01*
X1423974Y-1278231D01*
G54D19*
X1427585Y-1276675D02*
X1423140Y-1276675D01*
X1423140Y-1275008D01*
X1423418Y-1274342D01*
X1423974Y-1274008D01*
X1424530Y-1274008D01*
X1425085Y-1274342D01*
X1425363Y-1275008D01*
X1425363Y-1276675D01*
G54D19*
X1427585Y-1264337D02*
X1423140Y-1264337D01*
X1423140Y-1262670D01*
X1423418Y-1262004D01*
X1423974Y-1261670D01*
X1426752Y-1261670D01*
X1427307Y-1262004D01*
X1427585Y-1262670D01*
X1427585Y-1264337D01*
G54D19*
X1426752Y-1260114D02*
X1427307Y-1259780D01*
X1427585Y-1259114D01*
X1427585Y-1258447D01*
X1427307Y-1257780D01*
X1426752Y-1257447D01*
X1426196Y-1257447D01*
X1425640Y-1257780D01*
X1425363Y-1258447D01*
X1425363Y-1259114D01*
X1425085Y-1259780D01*
X1424530Y-1260114D01*
X1423974Y-1260114D01*
X1423418Y-1259780D01*
X1423140Y-1259114D01*
X1423140Y-1258447D01*
X1423418Y-1257780D01*
X1423974Y-1257447D01*
G54D19*
X1426752Y-1242907D02*
X1427307Y-1242574D01*
X1427585Y-1241907D01*
X1427585Y-1241240D01*
X1427307Y-1240574D01*
X1426752Y-1240240D01*
X1426196Y-1240240D01*
X1425640Y-1240574D01*
X1425363Y-1241240D01*
X1425363Y-1241907D01*
X1425085Y-1242574D01*
X1424530Y-1242907D01*
X1423974Y-1242907D01*
X1423418Y-1242574D01*
X1423140Y-1241907D01*
X1423140Y-1241240D01*
X1423418Y-1240574D01*
X1423974Y-1240240D01*
G54D19*
X1427585Y-1238684D02*
X1423140Y-1238684D01*
G54D19*
X1427585Y-1236018D02*
X1423140Y-1236018D01*
G54D19*
X1425363Y-1238684D02*
X1425363Y-1236018D01*
G54D19*
X1427585Y-1234461D02*
X1427585Y-1231128D01*
G54D19*
X1426752Y-1226906D02*
X1427307Y-1227238D01*
X1427585Y-1227906D01*
X1427585Y-1228572D01*
X1427307Y-1229238D01*
X1426752Y-1229572D01*
X1423974Y-1229572D01*
X1423418Y-1229238D01*
X1423140Y-1228572D01*
X1423140Y-1227906D01*
X1423418Y-1227238D01*
X1423974Y-1226906D01*
G54D19*
X1427585Y-1225349D02*
X1423140Y-1225349D01*
X1423140Y-1223682D01*
X1423418Y-1223016D01*
X1423974Y-1222682D01*
X1424530Y-1222682D01*
X1425085Y-1223016D01*
X1425363Y-1223682D01*
X1425363Y-1225349D01*
G54D19*
X1425640Y-1206519D02*
X1425640Y-1203852D01*
G54D19*
X1424530Y-1205186D02*
X1426752Y-1205186D01*
G54D19*
X1425640Y-1179574D02*
X1425640Y-1176907D01*
G54D20*
X1421892Y-1201062D02*
X1417448Y-1201062D01*
X1417448Y-1199396D01*
X1417726Y-1198730D01*
X1418282Y-1198396D01*
X1418837Y-1198396D01*
X1419392Y-1198730D01*
X1419670Y-1199396D01*
X1419670Y-1201062D01*
G54D20*
X1418282Y-1194507D02*
X1421059Y-1194507D01*
X1421615Y-1194840D01*
X1421892Y-1195507D01*
X1421892Y-1196174D01*
X1421615Y-1196840D01*
X1421059Y-1197174D01*
X1418282Y-1197174D01*
X1417726Y-1196840D01*
X1417448Y-1196174D01*
X1417448Y-1195507D01*
X1417726Y-1194840D01*
X1418282Y-1194507D01*
G54D20*
X1417448Y-1193284D02*
X1421892Y-1193284D01*
X1419115Y-1191618D01*
X1421892Y-1189952D01*
X1417448Y-1189952D01*
G54D20*
X1421892Y-1186396D02*
X1421892Y-1188730D01*
X1417448Y-1188730D01*
X1417448Y-1186396D01*
G54D20*
X1419670Y-1188730D02*
X1419670Y-1186396D01*
G54D20*
X1419670Y-1183841D02*
X1420226Y-1182841D01*
X1420782Y-1182508D01*
X1421892Y-1182508D01*
G54D20*
X1421892Y-1185174D02*
X1417448Y-1185174D01*
X1417448Y-1183508D01*
X1417726Y-1182841D01*
X1418282Y-1182508D01*
X1418837Y-1182508D01*
X1419392Y-1182841D01*
X1419670Y-1183508D01*
X1419670Y-1185174D01*
G54D17*
X1274210Y-1298633D02*
X1414210Y-1298633D01*
X1414210Y-1168633D01*
X1274210Y-1168633D01*
X1274210Y-1298633D01*
G54D17*
X1414210Y-1298633D02*
X1434210Y-1298633D01*
X1434210Y-1168633D01*
X1414210Y-1168633D01*
X1414210Y-1298633D01*
G54D17*
X1434522Y-1293632D02*
X1461822Y-1293632D01*
G54D17*
X1434522Y-1263470D02*
X1461822Y-1263470D01*
G54D17*
X1434522Y-1233308D02*
X1461822Y-1233308D01*
G54D17*
X1434522Y-1203939D02*
X1461822Y-1203939D01*
G54D17*
X1434522Y-1173776D02*
X1461822Y-1173776D01*
M02*
