%FSLAX34Y34*%
%MOMM*%
%LNSILK_BOTTOM*%
G71*
G01*
%ADD10C, 0.00*%
%ADD11C, 0.14*%
%ADD12C, 0.08*%
%ADD13C, 0.17*%
%LPD*%
G54D10*
X314031Y-367800D02*
X314031Y-367800D01*
G54D10*
X298481Y-489000D02*
X298481Y-474700D01*
X319881Y-474700D01*
X319881Y-489000D01*
X298481Y-489000D01*
G54D10*
X303981Y-481800D02*
X308781Y-481800D01*
X308781Y-478700D01*
X308781Y-485000D01*
G54D10*
X310381Y-478700D02*
X310381Y-485000D01*
G54D10*
X310381Y-481800D02*
X314381Y-481800D01*
X315181Y-481800D01*
G54D11*
X295828Y-504662D02*
X288894Y-504662D01*
X288894Y-503940D01*
X289761Y-502496D01*
X294961Y-498162D01*
X295828Y-496718D01*
X295828Y-495274D01*
X294961Y-493829D01*
X293228Y-493107D01*
X291494Y-493107D01*
X289761Y-493829D01*
X288894Y-495274D01*
G54D11*
X299006Y-493107D02*
X305939Y-493107D01*
X305072Y-494551D01*
X303339Y-496718D01*
X301606Y-499607D01*
X300739Y-501774D01*
X300739Y-504662D01*
G54D11*
X312468Y-504662D02*
X312468Y-498162D01*
X317668Y-498162D01*
X317668Y-504662D01*
G54D11*
X320846Y-500329D02*
X320846Y-495996D01*
X322579Y-494551D01*
X327779Y-494551D01*
X329512Y-495996D01*
X329512Y-500329D01*
X327779Y-501774D01*
X322579Y-501774D01*
X320846Y-500329D01*
G54D11*
X325179Y-493107D02*
X325179Y-504662D01*
G54D10*
X298481Y-463600D02*
X298481Y-449300D01*
X319881Y-449300D01*
X319881Y-463600D01*
X298481Y-463600D01*
G54D10*
X303981Y-456400D02*
X308781Y-456400D01*
X308781Y-453300D01*
X308781Y-459600D01*
G54D10*
X310381Y-453300D02*
X310381Y-459600D01*
G54D10*
X310381Y-456400D02*
X314381Y-456400D01*
X315181Y-456400D01*
G54D11*
X295828Y-479262D02*
X288894Y-479262D01*
X288894Y-478540D01*
X289761Y-477096D01*
X294961Y-472762D01*
X295828Y-471318D01*
X295828Y-469874D01*
X294961Y-468429D01*
X293228Y-467707D01*
X291494Y-467707D01*
X289761Y-468429D01*
X288894Y-469874D01*
G54D11*
X299006Y-467707D02*
X305939Y-467707D01*
X305072Y-469151D01*
X303339Y-471318D01*
X301606Y-474207D01*
X300739Y-476374D01*
X300739Y-479262D01*
G54D11*
X312468Y-479262D02*
X312468Y-472762D01*
X317668Y-472762D01*
X317668Y-479262D01*
G54D11*
X320846Y-474929D02*
X320846Y-470596D01*
X322579Y-469151D01*
X327779Y-469151D01*
X329512Y-470596D01*
X329512Y-474929D01*
X327779Y-476374D01*
X322579Y-476374D01*
X320846Y-474929D01*
G54D11*
X325179Y-467707D02*
X325179Y-479262D01*
G54D12*
X600075Y-664788D02*
X600075Y-667988D01*
X598475Y-667988D01*
X598475Y-675888D01*
X601675Y-675888D01*
X601675Y-667988D01*
X600075Y-667988D01*
G54D12*
X600075Y-675888D02*
X600075Y-679088D01*
G54D12*
X592275Y-656438D02*
X592275Y-687638D01*
X607875Y-687638D01*
X607875Y-656438D01*
X592275Y-656438D01*
G54D13*
X580306Y-697156D02*
X575306Y-692156D01*
X588639Y-692156D01*
G54D13*
X577806Y-680489D02*
X586139Y-680489D01*
X587806Y-681489D01*
X588639Y-683489D01*
X588639Y-685489D01*
X587806Y-687489D01*
X586139Y-688489D01*
X577806Y-688489D01*
X576139Y-687489D01*
X575306Y-685489D01*
X575306Y-683489D01*
X576139Y-681489D01*
X577806Y-680489D01*
G54D13*
X588639Y-672955D02*
X581139Y-672955D01*
G54D13*
X583639Y-669955D02*
X588639Y-666955D01*
G54D13*
X585306Y-672955D02*
X581139Y-666955D01*
G54D13*
X577806Y-655288D02*
X586139Y-655288D01*
X587806Y-656288D01*
X588639Y-658288D01*
X588639Y-660288D01*
X587806Y-662288D01*
X586139Y-663288D01*
X577806Y-663288D01*
X576139Y-662288D01*
X575306Y-660288D01*
X575306Y-658288D01*
X576139Y-656288D01*
X577806Y-655288D01*
G54D13*
X588639Y-651621D02*
X581139Y-651621D01*
X585306Y-647621D01*
X581139Y-643621D01*
X588639Y-643621D01*
M02*
