%FSLAX34Y34*%
%MOMM*%
%LNCOPPER_BOTTOM*%
G71*
G01*
%ADD10C, 1.80*%
%ADD11C, 2.50*%
%ADD12C, 2.30*%
%ADD13C, 0.80*%
%ADD14C, 0.60*%
%ADD15C, 1.20*%
%ADD16C, 1.00*%
%ADD17C, 1.50*%
%ADD18C, 2.00*%
%ADD19C, 0.35*%
%ADD20C, 0.00*%
%ADD21C, 0.50*%
%ADD22C, 2.20*%
%ADD23C, 2.50*%
%ADD24R, 1.80X1.30*%
%ADD25C, 0.30*%
%ADD26C, 0.29*%
%ADD27C, 0.25*%
%ADD28C, 0.20*%
%ADD29C, 0.24*%
%ADD30C, 0.21*%
%ADD31C, 0.05*%
%ADD32C, 4.50*%
%ADD33C, 4.00*%
%ADD34C, 3.00*%
%ADD35C, 1.52*%
%LPD*%
X275431Y-253200D02*
G54D10*
D03*
X275431Y-278600D02*
G54D10*
D03*
X275431Y-304000D02*
G54D10*
D03*
X275431Y-329400D02*
G54D10*
D03*
X351631Y-253200D02*
G54D10*
D03*
X351631Y-278600D02*
G54D10*
D03*
X351631Y-304000D02*
G54D10*
D03*
X351631Y-329400D02*
G54D10*
D03*
X275431Y-354800D02*
G54D10*
D03*
X275431Y-380200D02*
G54D10*
D03*
X275431Y-405600D02*
G54D10*
D03*
X351631Y-354800D02*
G54D10*
D03*
X351631Y-380200D02*
G54D10*
D03*
X351631Y-405600D02*
G54D10*
D03*
X275431Y-431000D02*
G54D10*
D03*
X351631Y-431000D02*
G54D10*
D03*
X275431Y-456400D02*
G54D10*
D03*
X275431Y-481800D02*
G54D10*
D03*
X351631Y-456400D02*
G54D10*
D03*
X351631Y-481800D02*
G54D10*
D03*
X351631Y-507200D02*
G54D10*
D03*
X351631Y-532600D02*
G54D10*
D03*
X351631Y-558000D02*
G54D10*
D03*
X351631Y-583400D02*
G54D10*
D03*
X275431Y-507200D02*
G54D10*
D03*
X275431Y-532600D02*
G54D10*
D03*
X275431Y-558000D02*
G54D10*
D03*
X275431Y-583400D02*
G54D10*
D03*
X237331Y-443700D02*
G54D11*
D03*
X237331Y-493700D02*
G54D11*
D03*
X548481Y-253200D02*
G54D12*
D03*
X526256Y-275425D02*
G54D12*
D03*
X504031Y-253200D02*
G54D12*
D03*
X548481Y-304000D02*
G54D12*
D03*
X526256Y-326225D02*
G54D12*
D03*
X504031Y-304000D02*
G54D12*
D03*
X548481Y-351625D02*
G54D12*
D03*
X526256Y-373850D02*
G54D12*
D03*
X504031Y-351625D02*
G54D12*
D03*
X548481Y-402425D02*
G54D12*
D03*
X526256Y-424650D02*
G54D12*
D03*
X504031Y-402425D02*
G54D12*
D03*
X548481Y-453225D02*
G54D12*
D03*
X526256Y-475450D02*
G54D12*
D03*
X504031Y-453225D02*
G54D12*
D03*
X548481Y-504025D02*
G54D12*
D03*
X526256Y-526250D02*
G54D12*
D03*
X504031Y-504025D02*
G54D12*
D03*
X548481Y-551650D02*
G54D12*
D03*
X526256Y-573875D02*
G54D12*
D03*
X504031Y-551650D02*
G54D12*
D03*
X548481Y-602450D02*
G54D12*
D03*
X526256Y-624675D02*
G54D12*
D03*
X504031Y-602450D02*
G54D12*
D03*
G54D13*
X351631Y-253200D02*
X504031Y-253200D01*
G54D14*
X237331Y-494500D02*
X250032Y-481765D01*
X275431Y-481800D01*
G54D14*
X237331Y-443700D02*
X250031Y-456400D01*
X278606Y-456400D01*
G54D13*
X526256Y-275425D02*
X526256Y-326225D01*
X526256Y-373850D01*
X526256Y-424650D01*
X526256Y-475450D01*
X526256Y-526250D01*
X526256Y-573875D01*
X526256Y-624675D01*
G54D13*
X623888Y-325438D02*
X587375Y-325438D01*
X565150Y-303212D01*
X547688Y-303212D01*
G54D13*
X275431Y-278600D02*
X262731Y-278600D01*
X250031Y-265900D01*
X250031Y-205575D01*
X294481Y-161125D01*
X624681Y-161125D01*
G54D13*
X275431Y-300825D02*
X250031Y-300825D01*
X230981Y-281775D01*
X230981Y-192875D01*
X292894Y-130962D01*
X624681Y-130963D01*
G54D13*
X351631Y-329400D02*
X402431Y-329400D01*
X475511Y-402467D01*
X504031Y-402425D01*
G54D13*
X354806Y-354800D02*
X390525Y-354800D01*
X488950Y-453225D01*
X504031Y-453225D01*
G54D13*
X354806Y-380200D02*
X380206Y-380200D01*
X504031Y-504025D01*
G54D13*
X350838Y-404812D02*
X373062Y-404812D01*
X469900Y-501650D01*
X469900Y-534988D01*
X485775Y-550862D01*
X503238Y-550862D01*
G54D13*
X504031Y-351625D02*
X462756Y-351625D01*
X415131Y-304000D01*
X354806Y-304000D01*
G54D13*
X504031Y-304000D02*
X456406Y-304000D01*
X431006Y-278600D01*
X354806Y-278600D01*
G54D13*
X275431Y-326225D02*
X243206Y-326225D01*
X210431Y-293450D01*
X210431Y-182175D01*
X293206Y-99400D01*
X623581Y-99800D01*
G54D15*
X354806Y-456400D02*
X362744Y-456400D01*
X386556Y-480212D01*
X386562Y-683425D01*
G54D16*
X326231Y-453225D02*
X326231Y-481800D01*
G54D17*
X351631Y-481800D02*
X326231Y-481800D01*
G54D14*
X297656Y-481800D02*
X281781Y-481800D01*
X275431Y-481800D01*
G54D17*
X324644Y-481800D02*
X324650Y-640562D01*
X315125Y-650088D01*
X291306Y-650400D01*
X25006Y-875000D02*
G54D18*
D03*
G54D19*
G75*
G01X40256Y-875000D02*
G03X40256Y-875000I-15250J0D01*
G01*
G36*
X12506Y-872500D02*
X17506Y-872500D01*
X17506Y-877500D01*
X10006Y-877500D01*
X10006Y-872500D01*
X12506Y-872500D01*
G37*
G54D20*
X12506Y-872500D02*
X17506Y-872500D01*
X17506Y-877500D01*
X10006Y-877500D01*
X10006Y-872500D01*
X12506Y-872500D01*
G36*
X22506Y-867500D02*
X22506Y-860000D01*
X27506Y-860000D01*
X27506Y-867500D01*
X22506Y-867500D01*
G37*
G54D20*
X22506Y-867500D02*
X22506Y-860000D01*
X27506Y-860000D01*
X27506Y-867500D01*
X22506Y-867500D01*
G36*
X32506Y-872500D02*
X40006Y-872500D01*
X40006Y-877500D01*
X32506Y-877500D01*
X32506Y-872500D01*
G37*
G54D20*
X32506Y-872500D02*
X40006Y-872500D01*
X40006Y-877500D01*
X32506Y-877500D01*
X32506Y-872500D01*
G36*
X22506Y-882500D02*
X22506Y-890000D01*
X27506Y-890000D01*
X27506Y-882500D01*
X22506Y-882500D01*
G37*
G54D20*
X22506Y-882500D02*
X22506Y-890000D01*
X27506Y-890000D01*
X27506Y-882500D01*
X22506Y-882500D01*
X875006Y-875000D02*
G54D18*
D03*
G54D19*
G75*
G01X890256Y-875000D02*
G03X890256Y-875000I-15250J0D01*
G01*
G36*
X862506Y-872500D02*
X867506Y-872500D01*
X867506Y-877500D01*
X860006Y-877500D01*
X860006Y-872500D01*
X862506Y-872500D01*
G37*
G54D20*
X862506Y-872500D02*
X867506Y-872500D01*
X867506Y-877500D01*
X860006Y-877500D01*
X860006Y-872500D01*
X862506Y-872500D01*
G36*
X872506Y-867500D02*
X872506Y-860000D01*
X877506Y-860000D01*
X877506Y-867500D01*
X872506Y-867500D01*
G37*
G54D20*
X872506Y-867500D02*
X872506Y-860000D01*
X877506Y-860000D01*
X877506Y-867500D01*
X872506Y-867500D01*
G36*
X882506Y-872500D02*
X890006Y-872500D01*
X890006Y-877500D01*
X882506Y-877500D01*
X882506Y-872500D01*
G37*
G54D20*
X882506Y-872500D02*
X890006Y-872500D01*
X890006Y-877500D01*
X882506Y-877500D01*
X882506Y-872500D01*
G36*
X872506Y-882500D02*
X872506Y-890000D01*
X877506Y-890000D01*
X877506Y-882500D01*
X872506Y-882500D01*
G37*
G54D20*
X872506Y-882500D02*
X872506Y-890000D01*
X877506Y-890000D01*
X877506Y-882500D01*
X872506Y-882500D01*
X875006Y-25000D02*
G54D18*
D03*
G54D19*
G75*
G01X890256Y-25000D02*
G03X890256Y-25000I-15250J0D01*
G01*
G36*
X862506Y-22500D02*
X867506Y-22500D01*
X867506Y-27500D01*
X860006Y-27500D01*
X860006Y-22500D01*
X862506Y-22500D01*
G37*
G54D20*
X862506Y-22500D02*
X867506Y-22500D01*
X867506Y-27500D01*
X860006Y-27500D01*
X860006Y-22500D01*
X862506Y-22500D01*
G36*
X872506Y-17500D02*
X872506Y-10000D01*
X877506Y-10000D01*
X877506Y-17500D01*
X872506Y-17500D01*
G37*
G54D20*
X872506Y-17500D02*
X872506Y-10000D01*
X877506Y-10000D01*
X877506Y-17500D01*
X872506Y-17500D01*
G36*
X882506Y-22500D02*
X890006Y-22500D01*
X890006Y-27500D01*
X882506Y-27500D01*
X882506Y-22500D01*
G37*
G54D20*
X882506Y-22500D02*
X890006Y-22500D01*
X890006Y-27500D01*
X882506Y-27500D01*
X882506Y-22500D01*
G36*
X872506Y-32500D02*
X872506Y-40000D01*
X877506Y-40000D01*
X877506Y-32500D01*
X872506Y-32500D01*
G37*
G54D20*
X872506Y-32500D02*
X872506Y-40000D01*
X877506Y-40000D01*
X877506Y-32500D01*
X872506Y-32500D01*
X25006Y-25000D02*
G54D18*
D03*
G54D19*
G75*
G01X40256Y-25000D02*
G03X40256Y-25000I-15250J0D01*
G01*
G36*
X12506Y-22500D02*
X17506Y-22500D01*
X17506Y-27500D01*
X10006Y-27500D01*
X10006Y-22500D01*
X12506Y-22500D01*
G37*
G54D20*
X12506Y-22500D02*
X17506Y-22500D01*
X17506Y-27500D01*
X10006Y-27500D01*
X10006Y-22500D01*
X12506Y-22500D01*
G36*
X22506Y-17500D02*
X22506Y-10000D01*
X27506Y-10000D01*
X27506Y-17500D01*
X22506Y-17500D01*
G37*
G54D20*
X22506Y-17500D02*
X22506Y-10000D01*
X27506Y-10000D01*
X27506Y-17500D01*
X22506Y-17500D01*
G36*
X32506Y-22500D02*
X40006Y-22500D01*
X40006Y-27500D01*
X32506Y-27500D01*
X32506Y-22500D01*
G37*
G54D20*
X32506Y-22500D02*
X40006Y-22500D01*
X40006Y-27500D01*
X32506Y-27500D01*
X32506Y-22500D01*
G36*
X22506Y-32500D02*
X22506Y-40000D01*
X27506Y-40000D01*
X27506Y-32500D01*
X22506Y-32500D01*
G37*
G54D20*
X22506Y-32500D02*
X22506Y-40000D01*
X27506Y-40000D01*
X27506Y-32500D01*
X22506Y-32500D01*
G54D13*
X623888Y-379412D02*
X587375Y-379412D01*
X565150Y-401638D01*
X547688Y-401638D01*
G54D13*
X623888Y-406400D02*
X601662Y-406400D01*
X554038Y-454025D01*
X547688Y-454025D01*
G54D13*
X623888Y-433388D02*
X608012Y-433388D01*
X568325Y-473075D01*
X568325Y-493712D01*
X558800Y-503238D01*
X547688Y-503238D01*
G54D13*
X623888Y-461962D02*
X612775Y-461962D01*
X593725Y-481012D01*
X593725Y-506412D01*
X547688Y-552450D01*
G54D13*
X623888Y-352425D02*
X547688Y-352425D01*
G54D13*
X624681Y-221450D02*
X538956Y-221450D01*
X526256Y-234150D01*
X526256Y-275425D01*
G54D13*
X623888Y-296862D02*
X606425Y-296862D01*
X561975Y-252412D01*
X547688Y-252412D01*
G54D13*
X623888Y-487362D02*
X623888Y-525462D01*
X547688Y-601662D01*
G54D14*
X275431Y-456400D02*
X298881Y-456400D01*
G36*
X316381Y-474800D02*
X323381Y-474800D01*
X323381Y-488800D01*
X316381Y-488800D01*
X316381Y-474800D01*
G37*
G36*
X295381Y-474800D02*
X302381Y-474800D01*
X302381Y-488800D01*
X295381Y-488800D01*
X295381Y-474800D01*
G37*
G36*
X316381Y-449400D02*
X323381Y-449400D01*
X323381Y-463400D01*
X316381Y-463400D01*
X316381Y-449400D01*
G37*
G36*
X295381Y-449400D02*
X302381Y-449400D01*
X302381Y-463400D01*
X295381Y-463400D01*
X295381Y-449400D01*
G37*
G54D21*
X351631Y-278600D02*
X342106Y-278600D01*
X329406Y-291300D01*
X329406Y-357975D01*
X294481Y-392900D01*
X197644Y-392900D01*
X179388Y-411162D01*
X179394Y-445775D01*
G54D21*
X351631Y-253200D02*
X335756Y-253200D01*
X313531Y-275425D01*
X313531Y-348450D01*
X294481Y-367500D01*
X181769Y-367500D01*
X141288Y-407988D01*
X141288Y-574675D01*
X159550Y-592938D01*
X216700Y-592938D01*
G54D21*
X275431Y-253200D02*
X284956Y-253200D01*
X297656Y-265900D01*
X297656Y-334162D01*
X288131Y-343688D01*
X145256Y-343688D01*
X68262Y-420688D01*
X68262Y-660400D01*
X89700Y-681838D01*
X216700Y-681838D01*
G54D22*
X649175Y-100800D02*
X627175Y-100800D01*
G54D22*
X649175Y-130963D02*
X627175Y-130963D01*
G54D22*
X649175Y-161125D02*
X627175Y-161125D01*
G54D22*
X649175Y-190494D02*
X627175Y-190494D01*
G54D22*
X649175Y-220656D02*
X627175Y-220656D01*
X216700Y-681838D02*
G54D23*
D03*
X216700Y-651675D02*
G54D23*
D03*
X216700Y-621512D02*
G54D23*
D03*
X216700Y-592144D02*
G54D23*
D03*
X216700Y-561981D02*
G54D23*
D03*
G54D13*
X292900Y-650088D02*
X277025Y-650088D01*
X250038Y-623100D01*
X250038Y-573888D01*
X237338Y-561188D01*
X216700Y-561188D01*
G54D17*
X386562Y-683425D02*
X269088Y-683425D01*
X237338Y-651675D01*
X216700Y-651675D01*
G54D13*
X504031Y-602450D02*
X456412Y-602462D01*
X446888Y-611988D01*
X446888Y-618338D01*
X446888Y-618338D02*
G54D23*
D03*
G54D17*
X624681Y-189700D02*
X659606Y-189700D01*
X707231Y-237325D01*
X706762Y-729000D01*
X729462Y-751688D01*
X600075Y-655638D02*
G54D24*
D03*
X600075Y-688138D02*
G54D24*
D03*
G54D13*
X351631Y-431000D02*
X369094Y-431000D01*
X410369Y-472275D01*
X410369Y-638962D01*
X427831Y-656425D01*
X600075Y-655638D01*
G54D25*
X78519Y-116450D02*
X153519Y-116450D01*
X153519Y-191450D01*
X78519Y-191450D01*
X78519Y-116450D01*
G54D25*
X78519Y-116450D02*
X118519Y-76450D01*
X193519Y-76450D01*
G54D25*
X153519Y-116450D02*
X193519Y-76450D01*
X193519Y-151450D01*
X153519Y-191450D01*
G54D26*
X143541Y-168411D02*
X145541Y-167211D01*
X146541Y-164811D01*
X146541Y-162411D01*
X145541Y-160011D01*
X143541Y-158811D01*
X141541Y-158811D01*
X139541Y-160011D01*
X138541Y-162411D01*
X137541Y-160011D01*
X135541Y-158811D01*
X133541Y-158811D01*
X131541Y-160011D01*
X130541Y-162411D01*
X130541Y-164811D01*
X131541Y-167211D01*
X133541Y-168411D01*
G54D26*
X130541Y-153211D02*
X146541Y-153211D01*
X146541Y-147211D01*
X145541Y-144811D01*
X143541Y-143611D01*
X133541Y-143611D01*
X131541Y-144811D01*
X130541Y-147211D01*
X130541Y-153211D01*
G54D26*
X89721Y-170320D02*
X87721Y-171520D01*
X86721Y-173920D01*
X86721Y-176320D01*
X87721Y-178720D01*
X89721Y-179920D01*
X99721Y-179920D01*
X101721Y-178720D01*
X102721Y-176320D01*
X102721Y-173920D01*
X101721Y-171520D01*
X99721Y-170320D01*
G54D26*
X95721Y-157520D02*
X86721Y-157520D01*
G54D26*
X88721Y-157520D02*
X87121Y-158720D01*
X86721Y-161120D01*
X87121Y-163520D01*
X88721Y-164720D01*
X95721Y-164720D01*
G54D26*
X86721Y-151920D02*
X102721Y-151920D01*
G54D26*
X93121Y-151920D02*
X95121Y-150720D01*
X95721Y-148320D01*
X95121Y-145920D01*
X93121Y-144720D01*
X89121Y-144720D01*
X87121Y-145920D01*
X86721Y-148320D01*
X87121Y-150720D01*
X89121Y-151920D01*
G54D26*
X87721Y-131920D02*
X86721Y-133840D01*
X86721Y-136240D01*
X87721Y-138640D01*
X89721Y-139120D01*
X93121Y-139120D01*
X95121Y-137920D01*
X95721Y-135520D01*
X95121Y-133120D01*
X93721Y-131920D01*
X91721Y-131920D01*
X91721Y-139120D01*
G54D26*
X125276Y-172922D02*
X109276Y-172922D01*
X109276Y-164522D01*
G54D26*
X110276Y-151722D02*
X109276Y-153642D01*
X109276Y-156042D01*
X110276Y-158442D01*
X112276Y-158922D01*
X115676Y-158922D01*
X117676Y-157722D01*
X118276Y-155322D01*
X117676Y-152922D01*
X116276Y-151722D01*
X114276Y-151722D01*
X114276Y-158922D01*
G54D26*
X109276Y-138922D02*
X125276Y-138922D01*
G54D26*
X115676Y-138922D02*
X117676Y-140122D01*
X118276Y-142522D01*
X117676Y-144922D01*
X115676Y-146122D01*
X111676Y-146122D01*
X109676Y-144922D01*
X109276Y-142522D01*
X109676Y-140122D01*
X111676Y-138922D01*
G54D27*
X711840Y-794628D02*
X720374Y-794628D01*
X720374Y-800850D01*
X719307Y-800850D01*
X717174Y-799961D01*
X715040Y-799961D01*
X712907Y-800850D01*
X711840Y-802628D01*
X711840Y-806183D01*
X712907Y-807961D01*
X715040Y-808850D01*
X717174Y-808850D01*
X719307Y-807961D01*
X720374Y-806183D01*
G54D27*
X701672Y-794628D02*
X696338Y-808850D01*
X691005Y-794628D01*
G54D27*
X651538Y-808850D02*
X660072Y-808850D01*
X660072Y-807961D01*
X659005Y-806183D01*
X652605Y-800850D01*
X651538Y-799072D01*
X651538Y-797294D01*
X652605Y-795517D01*
X654738Y-794628D01*
X656872Y-794628D01*
X659005Y-795517D01*
X660072Y-797294D01*
G54D27*
X646560Y-808850D02*
X641227Y-794628D01*
X635894Y-808850D01*
G54D27*
X644427Y-803517D02*
X638027Y-803517D01*
G54D26*
X133210Y-744850D02*
X133210Y-754450D01*
G54D26*
X137210Y-749650D02*
X129210Y-749650D01*
G54D20*
X106272Y-827476D02*
X106272Y-827476D01*
G54D20*
X106472Y-821176D02*
X106472Y-821176D01*
G54D20*
X106472Y-828176D02*
X106472Y-828176D01*
G54D28*
X100172Y-828176D02*
X106472Y-828176D01*
G54D28*
X106472Y-828176D02*
X112772Y-828176D01*
G54D28*
X106472Y-821876D02*
X106472Y-828176D01*
G54D28*
X102172Y-831876D02*
X110172Y-831876D01*
G54D28*
X105372Y-835376D02*
X107372Y-835376D01*
G54D17*
X169862Y-822325D02*
X169862Y-836612D01*
X184150Y-850900D01*
X849312Y-849312D01*
X849312Y-598488D01*
X825500Y-574675D01*
X804862Y-574675D01*
G54D29*
X660400Y-266067D02*
X660400Y-279400D01*
X653400Y-279400D01*
G54D29*
X640733Y-268567D02*
X640733Y-276900D01*
X641733Y-278567D01*
X643733Y-279400D01*
X645733Y-279400D01*
X647733Y-278567D01*
X648733Y-276900D01*
X648733Y-268567D01*
X647733Y-266900D01*
X645733Y-266067D01*
X643733Y-266067D01*
X641733Y-266900D01*
X640733Y-268567D01*
G54D29*
X660251Y-507367D02*
X660251Y-520700D01*
X653251Y-520700D01*
G54D29*
X648584Y-507367D02*
X640584Y-507367D01*
X641584Y-509033D01*
X643584Y-511533D01*
X645584Y-514867D01*
X646584Y-517367D01*
X646584Y-520700D01*
G54D28*
X106514Y-821438D02*
X109689Y-818263D01*
X125563Y-818263D01*
G54D26*
X595041Y-190606D02*
X604641Y-190606D01*
G54D26*
X599841Y-186606D02*
X599841Y-194606D01*
G54D20*
X624697Y-238912D02*
X624697Y-238912D01*
G54D20*
X624897Y-232612D02*
X624897Y-232612D01*
G54D20*
X624897Y-239612D02*
X624897Y-239612D01*
G54D28*
X618597Y-239612D02*
X624897Y-239612D01*
G54D28*
X624897Y-239612D02*
X631197Y-239612D01*
G54D28*
X624897Y-233313D02*
X624897Y-239612D01*
G54D28*
X620597Y-243313D02*
X628597Y-243313D01*
G54D28*
X623797Y-246813D02*
X625797Y-246812D01*
G54D28*
X624881Y-230138D02*
X624882Y-221220D01*
G54D30*
X604475Y-87447D02*
X603608Y-88891D01*
X601875Y-89614D01*
X600141Y-89614D01*
X598408Y-88891D01*
X597541Y-87447D01*
X597541Y-86002D01*
X598408Y-84558D01*
X600141Y-83836D01*
X601875Y-83836D01*
X603608Y-83114D01*
X604475Y-81669D01*
X604475Y-80225D01*
X603608Y-78780D01*
X601875Y-78058D01*
X600141Y-78058D01*
X598408Y-78780D01*
X597541Y-80225D01*
G54D30*
X590031Y-89614D02*
X590031Y-78058D01*
G54D30*
X593498Y-78058D02*
X586564Y-78058D01*
G54D30*
X582521Y-89614D02*
X573854Y-89614D01*
G54D30*
X562876Y-87447D02*
X563743Y-88891D01*
X565476Y-89614D01*
X567210Y-89614D01*
X568943Y-88891D01*
X569810Y-87447D01*
X569810Y-80225D01*
X568943Y-78780D01*
X567210Y-78058D01*
X565476Y-78058D01*
X563743Y-78780D01*
X562876Y-80225D01*
G54D30*
X558833Y-89614D02*
X558833Y-78058D01*
X554499Y-78058D01*
X552766Y-78780D01*
X551899Y-80225D01*
X551899Y-81669D01*
X552766Y-83114D01*
X554499Y-83836D01*
X558833Y-83836D01*
G54D30*
X604476Y-121363D02*
X604476Y-109808D01*
X600142Y-109808D01*
X598409Y-110530D01*
X597542Y-111974D01*
X597542Y-119196D01*
X598409Y-120641D01*
X600142Y-121363D01*
X604476Y-121363D01*
G54D30*
X593499Y-119196D02*
X592632Y-120641D01*
X590899Y-121363D01*
X589165Y-121363D01*
X587432Y-120641D01*
X586565Y-119196D01*
X586565Y-117752D01*
X587432Y-116308D01*
X589165Y-115585D01*
X590899Y-115585D01*
X592632Y-114863D01*
X593499Y-113418D01*
X593499Y-111974D01*
X592632Y-110530D01*
X590899Y-109808D01*
X589165Y-109808D01*
X587432Y-110530D01*
X586565Y-111974D01*
G54D30*
X604475Y-149359D02*
X603608Y-150804D01*
X601875Y-151526D01*
X600141Y-151526D01*
X598408Y-150804D01*
X597541Y-149359D01*
X597541Y-147915D01*
X598408Y-146470D01*
X600141Y-145748D01*
X601875Y-145748D01*
X603608Y-145026D01*
X604475Y-143582D01*
X604475Y-142137D01*
X603608Y-140693D01*
X601875Y-139970D01*
X600141Y-139970D01*
X598408Y-140693D01*
X597541Y-142137D01*
G54D30*
X593498Y-151526D02*
X593498Y-139970D01*
G54D30*
X586564Y-151526D02*
X586564Y-139970D01*
G54D30*
X593498Y-145748D02*
X586564Y-145748D01*
G54D30*
X582521Y-151526D02*
X573854Y-151526D01*
G54D30*
X562876Y-149359D02*
X563743Y-150804D01*
X565476Y-151526D01*
X567210Y-151526D01*
X568943Y-150804D01*
X569810Y-149359D01*
X569810Y-142137D01*
X568943Y-140693D01*
X567210Y-139970D01*
X565476Y-139970D01*
X563743Y-140693D01*
X562876Y-142137D01*
G54D30*
X558833Y-151526D02*
X558833Y-139970D01*
X554499Y-139970D01*
X552766Y-140693D01*
X551899Y-142137D01*
X551899Y-143582D01*
X552766Y-145026D01*
X554499Y-145748D01*
X558833Y-145748D01*
G54D30*
X230988Y-532170D02*
X226654Y-543725D01*
X222321Y-532170D01*
G54D30*
X218276Y-543003D02*
X216543Y-543725D01*
X214810Y-543725D01*
X213076Y-543003D01*
X213076Y-541558D01*
X213943Y-540836D01*
X217410Y-540114D01*
X218276Y-539392D01*
X218276Y-537947D01*
X216543Y-537225D01*
X214810Y-537225D01*
X213076Y-537947D01*
G54D30*
X209032Y-543003D02*
X207299Y-543725D01*
X205566Y-543725D01*
X203832Y-543003D01*
X203832Y-541558D01*
X204699Y-540836D01*
X208166Y-540114D01*
X209032Y-539392D01*
X209032Y-537947D01*
X207299Y-537225D01*
X205566Y-537225D01*
X203832Y-537947D01*
G54D30*
X160910Y-543678D02*
X159466Y-541078D01*
X158021Y-540212D01*
X155132Y-540212D01*
G54D30*
X155132Y-547145D02*
X166688Y-547145D01*
X166688Y-542812D01*
X165966Y-541078D01*
X164521Y-540212D01*
X163077Y-540212D01*
X161632Y-541078D01*
X160910Y-542812D01*
X160910Y-547145D01*
G54D30*
X155132Y-536168D02*
X166688Y-536168D01*
X166688Y-531835D01*
X165966Y-530101D01*
X164521Y-529235D01*
X163077Y-529235D01*
X161632Y-530101D01*
X160910Y-531835D01*
X160188Y-530101D01*
X158744Y-529235D01*
X157299Y-529235D01*
X155855Y-530101D01*
X155132Y-531835D01*
X155132Y-536168D01*
G54D30*
X160910Y-536168D02*
X160910Y-531835D01*
G54D30*
X166688Y-525191D02*
X166688Y-518258D01*
X165244Y-519124D01*
X163077Y-520858D01*
X160188Y-522591D01*
X158021Y-523458D01*
X155132Y-523458D01*
G54D30*
X122810Y-543679D02*
X121366Y-541079D01*
X119921Y-540212D01*
X117033Y-540212D01*
G54D30*
X117032Y-547146D02*
X128588Y-547146D01*
X128588Y-542812D01*
X127866Y-541079D01*
X126422Y-540212D01*
X124977Y-540212D01*
X123532Y-541079D01*
X122810Y-542812D01*
X122810Y-547146D01*
G54D30*
X117032Y-536168D02*
X128588Y-536168D01*
X128588Y-531835D01*
X127866Y-530102D01*
X126421Y-529235D01*
X124977Y-529235D01*
X123532Y-530102D01*
X122810Y-531835D01*
X122088Y-530102D01*
X120644Y-529235D01*
X119199Y-529235D01*
X117755Y-530102D01*
X117033Y-531835D01*
X117032Y-536168D01*
G54D30*
X122810Y-536168D02*
X122810Y-531835D01*
G54D30*
X126421Y-518258D02*
X127866Y-519125D01*
X128588Y-520858D01*
X128588Y-522592D01*
X127866Y-524325D01*
X126421Y-525192D01*
X122810Y-525192D01*
X122088Y-525192D01*
X123532Y-522592D01*
X123533Y-520858D01*
X122810Y-519125D01*
X121366Y-518258D01*
X119199Y-518258D01*
X117755Y-519125D01*
X117032Y-520858D01*
X117032Y-522592D01*
X117755Y-524325D01*
X119199Y-525192D01*
X122810Y-525192D01*
G54D30*
X375450Y-652820D02*
X371117Y-664375D01*
X366783Y-652820D01*
G54D30*
X357539Y-664375D02*
X357539Y-652820D01*
G54D30*
X357539Y-659753D02*
X358406Y-658308D01*
X360139Y-657875D01*
X361872Y-658308D01*
X362739Y-659753D01*
X362739Y-662642D01*
X361872Y-664086D01*
X360139Y-664375D01*
X358406Y-664086D01*
X357539Y-662642D01*
G54D30*
X348295Y-664375D02*
X348295Y-652820D01*
G54D30*
X348295Y-659753D02*
X349162Y-658308D01*
X350895Y-657875D01*
X352628Y-658308D01*
X353495Y-659753D01*
X353495Y-662642D01*
X352628Y-664086D01*
X350895Y-664375D01*
X349162Y-664086D01*
X348295Y-662642D01*
G54D30*
X82106Y-547144D02*
X93662Y-547144D01*
X86440Y-542811D01*
X93662Y-538478D01*
X82107Y-538478D01*
G54D30*
X84273Y-527500D02*
X82829Y-528367D01*
X82106Y-530100D01*
X82106Y-531834D01*
X82829Y-533567D01*
X84273Y-534434D01*
X91495Y-534433D01*
X92940Y-533567D01*
X93662Y-531834D01*
X93662Y-530100D01*
X92940Y-528367D01*
X91495Y-527500D01*
G54D30*
X93662Y-523456D02*
X82106Y-523456D01*
X82106Y-517390D01*
G54D30*
X87884Y-509879D02*
X86440Y-507279D01*
X84995Y-506412D01*
X82107Y-506412D01*
G54D30*
X82107Y-513346D02*
X93662Y-513345D01*
X93662Y-509012D01*
X92940Y-507279D01*
X91495Y-506412D01*
X90051Y-506412D01*
X88607Y-507279D01*
X87884Y-509012D01*
X87884Y-513346D01*
G36*
X127506Y-262500D02*
X115006Y-262498D01*
X107506Y-270000D01*
X117506Y-272500D01*
X127506Y-262500D01*
G37*
G54D20*
X127506Y-262500D02*
X115006Y-262498D01*
X107506Y-270000D01*
X117506Y-272500D01*
X127506Y-262500D01*
G36*
X77506Y-262500D02*
X77506Y-252498D01*
X127506Y-252500D01*
X127506Y-262500D01*
X77506Y-262500D01*
G37*
G54D20*
X77506Y-262500D02*
X77506Y-252498D01*
X127506Y-252500D01*
X127506Y-262500D01*
X77506Y-262500D01*
G36*
X107506Y-242498D02*
X107506Y-252498D01*
X97506Y-252498D01*
X97506Y-242498D01*
X107506Y-242498D01*
G37*
G54D20*
X107506Y-242498D02*
X107506Y-252498D01*
X97506Y-252498D01*
X97506Y-242498D01*
X107506Y-242498D01*
G36*
X87506Y-242498D02*
X87506Y-252498D01*
X77506Y-252498D01*
X77506Y-242498D01*
X87506Y-242498D01*
G37*
G54D20*
X87506Y-242498D02*
X87506Y-252498D01*
X77506Y-252498D01*
X77506Y-242498D01*
X87506Y-242498D01*
G36*
X77506Y-242500D02*
X77506Y-237500D01*
X82506Y-232498D01*
X97506Y-232500D01*
X102506Y-237500D01*
X107506Y-232500D01*
X122506Y-232500D01*
X127506Y-237500D01*
X127506Y-242500D01*
X77506Y-242500D01*
G37*
G54D20*
X77506Y-242500D02*
X77506Y-237500D01*
X82506Y-232498D01*
X97506Y-232500D01*
X102506Y-237500D01*
X107506Y-232500D01*
X122506Y-232500D01*
X127506Y-237500D01*
X127506Y-242500D01*
X77506Y-242500D01*
G36*
X77506Y-287500D02*
X77506Y-277498D01*
X127506Y-277500D01*
X127506Y-287500D01*
X77506Y-287500D01*
G37*
G54D20*
X77506Y-287500D02*
X77506Y-277498D01*
X127506Y-277500D01*
X127506Y-287500D01*
X77506Y-287500D01*
G36*
X127506Y-242500D02*
X127506Y-252500D01*
X117506Y-252500D01*
X117506Y-242500D01*
X127506Y-242500D01*
G37*
G54D20*
X127506Y-242500D02*
X127506Y-252500D01*
X117506Y-252500D01*
X117506Y-242500D01*
X127506Y-242500D01*
G36*
X77506Y-217500D02*
X77506Y-207498D01*
X127506Y-207500D01*
X127506Y-217500D01*
X77506Y-217500D01*
G37*
G54D20*
X77506Y-217500D02*
X77506Y-207498D01*
X127506Y-207500D01*
X127506Y-217500D01*
X77506Y-217500D01*
G36*
X127506Y-277500D02*
X115006Y-277500D01*
X107506Y-270000D01*
X117506Y-267498D01*
X127506Y-277500D01*
G37*
G54D20*
X127506Y-277500D02*
X115006Y-277500D01*
X107506Y-270000D01*
X117506Y-267498D01*
X127506Y-277500D01*
G36*
X112506Y-217500D02*
X97506Y-217498D01*
X82506Y-232498D01*
X97506Y-232500D01*
X112506Y-217500D01*
G37*
G54D20*
X112506Y-217500D02*
X97506Y-217498D01*
X82506Y-232498D01*
X97506Y-232500D01*
X112506Y-217500D01*
G36*
X153736Y-814449D02*
X183736Y-814449D01*
X183736Y-809449D01*
X193736Y-809449D01*
X193736Y-819449D01*
X188736Y-824449D01*
X148736Y-824449D01*
X143736Y-819449D01*
X143736Y-809449D01*
X153736Y-809449D01*
X153736Y-814449D01*
G37*
G54D31*
X153736Y-814449D02*
X183736Y-814449D01*
X183736Y-809449D01*
X193736Y-809449D01*
X193736Y-819449D01*
X188736Y-824449D01*
X148736Y-824449D01*
X143736Y-819449D01*
X143736Y-809449D01*
X153736Y-809449D01*
X153736Y-814449D01*
G36*
X143736Y-804449D02*
X143736Y-809449D01*
X193736Y-809449D01*
X193736Y-804449D01*
X188736Y-799449D01*
X148736Y-799449D01*
X143736Y-804449D01*
G37*
G54D31*
X143736Y-804449D02*
X143736Y-809449D01*
X193736Y-809449D01*
X193736Y-804449D01*
X188736Y-799449D01*
X148736Y-799449D01*
X143736Y-804449D01*
G36*
X213736Y-779449D02*
X218736Y-779449D01*
X218736Y-769449D01*
X211236Y-769449D01*
X203736Y-776949D01*
X203736Y-806949D01*
X211236Y-814449D01*
X218736Y-814449D01*
X218736Y-804449D01*
X213736Y-804449D01*
X213736Y-779449D01*
G37*
G54D31*
X213736Y-779449D02*
X218736Y-779449D01*
X218736Y-769449D01*
X211236Y-769449D01*
X203736Y-776949D01*
X203736Y-806949D01*
X211236Y-814449D01*
X218736Y-814449D01*
X218736Y-804449D01*
X213736Y-804449D01*
X213736Y-779449D01*
G36*
X218736Y-769449D02*
X226236Y-776949D01*
X226236Y-806949D01*
X218736Y-814449D01*
X218736Y-769449D01*
G37*
G54D31*
X218736Y-769449D02*
X226236Y-776949D01*
X226236Y-806949D01*
X218736Y-814449D01*
X218736Y-769449D01*
G36*
X153736Y-759449D02*
X183736Y-759449D01*
X183736Y-754449D01*
X193736Y-754449D01*
X193736Y-764449D01*
X188736Y-769449D01*
X148736Y-769449D01*
X143736Y-764449D01*
X143736Y-754449D01*
X153736Y-754449D01*
X153736Y-759449D01*
G37*
G54D31*
X153736Y-759449D02*
X183736Y-759449D01*
X183736Y-754449D01*
X193736Y-754449D01*
X193736Y-764449D01*
X188736Y-769449D01*
X148736Y-769449D01*
X143736Y-764449D01*
X143736Y-754449D01*
X153736Y-754449D01*
X153736Y-759449D01*
G36*
X143736Y-749448D02*
X143736Y-754449D01*
X193736Y-754449D01*
X193736Y-749449D01*
X188736Y-744449D01*
X148736Y-744449D01*
X143736Y-749448D01*
G37*
G54D31*
X143736Y-749448D02*
X143736Y-754449D01*
X193736Y-754449D01*
X193736Y-749449D01*
X188736Y-744449D01*
X148736Y-744449D01*
X143736Y-749448D01*
X779775Y-751700D02*
G54D32*
D03*
X728975Y-751700D02*
G54D32*
D03*
X627375Y-751700D02*
G54D32*
D03*
X576575Y-751700D02*
G54D32*
D03*
X357575Y-720000D02*
G54D33*
D03*
X457575Y-720000D02*
G54D33*
D03*
X457575Y-800000D02*
G54D33*
D03*
X357575Y-800000D02*
G54D33*
D03*
G54D17*
X458000Y-799312D02*
X505625Y-751688D01*
X577062Y-751688D01*
X745338Y-619925D02*
G54D34*
D03*
X745338Y-574925D02*
G54D34*
D03*
X805338Y-619925D02*
G54D34*
D03*
X805338Y-574925D02*
G54D34*
D03*
G54D13*
X745338Y-619925D02*
X805338Y-619925D01*
G54D13*
X745338Y-574925D02*
X802838Y-574925D01*
G54D17*
X153988Y-749300D02*
X247650Y-749300D01*
X298450Y-800100D01*
X357188Y-800100D01*
X669925Y-655638D02*
G54D23*
D03*
G54D13*
X600075Y-655638D02*
X670715Y-654850D01*
X744538Y-657225D02*
G54D23*
D03*
G54D13*
X744538Y-657225D02*
X744538Y-622300D01*
X669135Y-542125D02*
G54D23*
D03*
X743750Y-542138D02*
G54D23*
D03*
G54D13*
X743750Y-542138D02*
X743750Y-573338D01*
X745338Y-574925D01*
G54D13*
X526256Y-624675D02*
X535788Y-634212D01*
X650100Y-634200D01*
X669138Y-615162D01*
X669135Y-542125D01*
G36*
X228150Y-712338D02*
X243350Y-712338D01*
X243350Y-727538D01*
X228150Y-727538D01*
X228150Y-712338D01*
G37*
X261150Y-719938D02*
G54D35*
D03*
X292900Y-719938D02*
G54D23*
D03*
X292894Y-650400D02*
G54D23*
D03*
G54D17*
X261150Y-719938D02*
X292900Y-719938D01*
G54D17*
X235750Y-719938D02*
X129388Y-719938D01*
X113512Y-735812D01*
X113512Y-796138D01*
X129388Y-812012D01*
X146850Y-812012D01*
X292894Y-618650D02*
G54D23*
D03*
G54D13*
X292894Y-618650D02*
X297661Y-613893D01*
X297656Y-565944D01*
X289725Y-558012D01*
X275431Y-558000D01*
G54D17*
X706438Y-687388D02*
X600081Y-687400D01*
X591350Y-683425D01*
X386562Y-683425D01*
X179394Y-445775D02*
G54D23*
D03*
X104775Y-446088D02*
G54D23*
D03*
G54D21*
X216700Y-621512D02*
X126212Y-621512D01*
X104775Y-600075D01*
X104775Y-446088D01*
G54D22*
X649175Y-379412D02*
X627175Y-379412D01*
G54D22*
X649175Y-406400D02*
X627175Y-406400D01*
G54D22*
X649175Y-433388D02*
X627175Y-433388D01*
G54D22*
X649175Y-461962D02*
X627175Y-461962D01*
G54D22*
X649175Y-488950D02*
X627175Y-488950D01*
G54D22*
X649175Y-352425D02*
X627175Y-352425D01*
G54D22*
X649175Y-325438D02*
X627175Y-325438D01*
G54D22*
X649175Y-296862D02*
X627175Y-296862D01*
M02*
