; Drill file
; Format: 2.4 (00.0000)
M48
INCH
T01C0.0236
T02C0.0283
T03C0.0315
T04C0.0591
%
G05
G90
T01
X000980Y-034450
X009340Y-019440
X009340Y-017470
X019840Y-017840
X020720Y-018720
X021590Y-017840
X020720Y-016720
X021590Y-015840
X020720Y-014720
X021590Y-013840
X020720Y-012840
X019840Y-011970
X020720Y-010840
X019840Y-009970
X021590Y-009970
X021590Y-011970
X019840Y-013840
X019840Y-015840
X019840Y-019840
X020720Y-020720
X021590Y-019840
X021590Y-021720
X020720Y-022590
X019840Y-021720
X019840Y-023720
X020720Y-024590
X021590Y-023720
X034450Y-034450
X034450Y-000980
X000980Y-000980
T02
X009280Y-028340
X010280Y-028340
T03
X008530Y-026840
X008530Y-025660
X008530Y-024470
X008530Y-023310
X008530Y-022130
X010840Y-021970
X010840Y-020970
X010840Y-019970
X010840Y-018970
X010840Y-017970
X010840Y-016970
X010840Y-015970
X010840Y-014970
X010840Y-013970
X010840Y-012970
X010840Y-011970
X010840Y-010970
X010840Y-009970
X013840Y-009970
X013840Y-010970
X013840Y-011970
X013840Y-012970
X013840Y-013970
X013840Y-014970
X013840Y-015970
X013840Y-016970
X013840Y-017970
X013840Y-018970
X013840Y-019970
X013840Y-020970
X013840Y-021970
X013840Y-022970
X011530Y-024360
X011530Y-025610
X010840Y-022970
X011530Y-028340
X017590Y-024340
X026380Y-025810
X029310Y-025870
X029340Y-024410
X029340Y-022630
X029280Y-021340
X031710Y-022630
X031710Y-024410
X026340Y-021340
X025130Y-019250
X025130Y-018190
X025130Y-017060
X025130Y-016000
X025130Y-014940
X025130Y-013870
X025130Y-012810
X025130Y-011690
X025130Y-008690
X025130Y-007500
X025130Y-006340
X025130Y-005160
X025130Y-003970
X007060Y-017550
X004120Y-017560
T04
X014080Y-031500
X014080Y-028350
X018010Y-028350
X018010Y-031500
X022700Y-029590
X024700Y-029590
X028700Y-029590
X030700Y-029590
M30
