%FSLAX34Y34*%
%MOMM*%
%LNSILK_TOP*%
G71*
G01*
%ADD10C, 0.20*%
%ADD11C, 0.06*%
%ADD12C, 0.10*%
%ADD13C, 0.06*%
%ADD14C, 0.17*%
%ADD15C, 0.11*%
%ADD16C, 0.00*%
%ADD17C, 0.08*%
%ADD18C, 0.15*%
%ADD19C, 0.05*%
%ADD20C, 0.30*%
%LPD*%
G54D10*
X275431Y-240500D02*
X307231Y-240500D01*
X307231Y-253200D01*
X319831Y-253200D01*
X319831Y-240500D01*
X351631Y-240500D01*
X351631Y-596100D01*
X275431Y-596100D01*
X275431Y-240500D01*
G54D11*
X292481Y-248000D02*
X296926Y-248000D01*
X294148Y-249111D01*
X296926Y-250222D01*
X292481Y-250222D01*
G54D11*
X293315Y-253222D02*
X292759Y-253000D01*
X292481Y-252555D01*
X292481Y-252111D01*
X292759Y-251666D01*
X293315Y-251444D01*
X296092Y-251444D01*
X296648Y-251666D01*
X296926Y-252111D01*
X296926Y-252555D01*
X296648Y-253000D01*
X296092Y-253222D01*
G54D11*
X296926Y-254444D02*
X292481Y-254444D01*
X292481Y-256000D01*
G54D11*
X294704Y-258111D02*
X294148Y-258778D01*
X293592Y-259000D01*
X292481Y-259000D01*
G54D11*
X292481Y-257222D02*
X296926Y-257222D01*
X296926Y-258333D01*
X296648Y-258778D01*
X296092Y-259000D01*
X295537Y-259000D01*
X294981Y-258778D01*
X294704Y-258333D01*
X294704Y-257222D01*
G54D11*
X292481Y-260222D02*
X296926Y-262000D01*
G54D12*
X299281Y-246800D02*
X299281Y-259600D01*
G54D13*
X288331Y-267900D02*
X287831Y-268600D01*
X287231Y-268800D01*
X286131Y-268800D01*
G54D13*
X286131Y-267000D02*
X290531Y-267000D01*
X290531Y-268100D01*
X290331Y-268600D01*
X289731Y-268800D01*
X289231Y-268800D01*
X288631Y-268600D01*
X288331Y-268100D01*
X288331Y-267000D01*
G54D13*
X286131Y-270000D02*
X290531Y-271100D01*
X286131Y-272200D01*
G54D13*
X287831Y-270400D02*
X287831Y-271800D01*
G54D13*
X289731Y-275200D02*
X286931Y-275200D01*
X286431Y-275000D01*
X286131Y-274500D01*
X286131Y-274100D01*
X286431Y-273600D01*
X286931Y-273400D01*
X289731Y-273400D01*
X290331Y-273600D01*
X290531Y-274100D01*
X290531Y-274500D01*
X290331Y-275000D01*
X289731Y-275200D01*
G54D13*
X286131Y-276400D02*
X290531Y-278200D01*
G54D13*
X286131Y-279400D02*
X290531Y-280500D01*
X286131Y-281600D01*
G54D13*
X287831Y-279800D02*
X287831Y-281200D01*
G54D13*
X286131Y-282800D02*
X290531Y-282800D01*
X286131Y-284600D01*
X290531Y-284600D01*
G54D13*
X289731Y-287600D02*
X286931Y-287600D01*
X286431Y-287400D01*
X286131Y-286900D01*
X286131Y-286500D01*
X286431Y-286000D01*
X286931Y-285800D01*
X289731Y-285800D01*
X290331Y-286000D01*
X290531Y-286500D01*
X290531Y-286900D01*
X290331Y-287400D01*
X289731Y-287600D01*
G54D13*
X288231Y-294900D02*
X287731Y-295600D01*
X287131Y-295800D01*
X286031Y-295800D01*
G54D13*
X286031Y-294000D02*
X290431Y-294000D01*
X290431Y-295100D01*
X290231Y-295600D01*
X289631Y-295800D01*
X289131Y-295800D01*
X288531Y-295600D01*
X288231Y-295100D01*
X288231Y-294000D01*
G54D13*
X286031Y-297000D02*
X290431Y-298100D01*
X286031Y-299200D01*
G54D13*
X287731Y-297400D02*
X287731Y-298800D01*
G54D13*
X288831Y-300400D02*
X290431Y-301500D01*
X286031Y-301500D01*
G54D13*
X286031Y-302700D02*
X290431Y-304500D01*
G54D13*
X286031Y-305700D02*
X290431Y-306800D01*
X286031Y-307900D01*
G54D13*
X287731Y-306100D02*
X287731Y-307500D01*
G54D13*
X286031Y-309100D02*
X290431Y-309100D01*
X286031Y-310900D01*
X290431Y-310900D01*
G54D13*
X288831Y-312100D02*
X290431Y-313200D01*
X286031Y-313200D01*
G54D11*
X286965Y-325978D02*
X286409Y-325756D01*
X286131Y-325311D01*
X286131Y-324867D01*
X286409Y-324422D01*
X286965Y-324200D01*
X289742Y-324200D01*
X290298Y-324422D01*
X290576Y-324867D01*
X290576Y-325311D01*
X290298Y-325756D01*
X289742Y-325978D01*
G54D11*
X290576Y-327200D02*
X286131Y-328311D01*
X290576Y-329422D01*
G54D11*
X286131Y-330644D02*
X288631Y-330644D01*
G54D11*
X288076Y-330644D02*
X288631Y-331088D01*
X288631Y-331533D01*
G54D11*
X286409Y-334088D02*
X286131Y-333733D01*
X286131Y-333288D01*
X286409Y-332844D01*
X286965Y-332755D01*
X287909Y-332755D01*
X288465Y-332977D01*
X288631Y-333422D01*
X288465Y-333866D01*
X288076Y-334088D01*
X287520Y-334088D01*
X287520Y-332755D01*
G54D11*
X286131Y-335754D02*
X290298Y-335754D01*
X290576Y-335977D01*
X290409Y-336199D01*
G54D11*
X288631Y-335310D02*
X288631Y-336199D01*
G54D13*
X294631Y-345700D02*
X294131Y-346400D01*
X293531Y-346600D01*
X292431Y-346600D01*
G54D13*
X292431Y-344800D02*
X296831Y-344800D01*
X296831Y-345900D01*
X296631Y-346400D01*
X296031Y-346600D01*
X295531Y-346600D01*
X294931Y-346400D01*
X294631Y-345900D01*
X294631Y-344800D01*
G54D13*
X292431Y-347800D02*
X296831Y-348900D01*
X292431Y-350000D01*
G54D13*
X294131Y-348200D02*
X294131Y-349600D01*
G54D13*
X296031Y-351200D02*
X296631Y-351400D01*
X296831Y-351900D01*
X296831Y-352300D01*
X296631Y-352800D01*
X296031Y-353000D01*
X295531Y-353000D01*
X294931Y-352800D01*
X294631Y-352300D01*
X294331Y-352800D01*
X293831Y-353000D01*
X293231Y-353000D01*
X292731Y-352800D01*
X292431Y-352300D01*
X292431Y-351900D01*
X292731Y-351400D01*
X293231Y-351200D01*
G54D13*
X292431Y-354200D02*
X296831Y-356000D01*
G54D13*
X292431Y-357200D02*
X296831Y-358300D01*
X292431Y-359400D01*
G54D13*
X294131Y-357600D02*
X294131Y-359000D01*
G54D13*
X292431Y-360600D02*
X296831Y-360600D01*
X292431Y-362400D01*
X296831Y-362400D01*
G54D13*
X296031Y-363600D02*
X296631Y-363800D01*
X296831Y-364300D01*
X296831Y-364700D01*
X296631Y-365200D01*
X296031Y-365400D01*
X295531Y-365400D01*
X294931Y-365200D01*
X294631Y-364700D01*
X294331Y-365200D01*
X293831Y-365400D01*
X293231Y-365400D01*
X292731Y-365200D01*
X292431Y-364700D01*
X292431Y-364300D01*
X292731Y-363800D01*
X293231Y-363600D01*
G54D13*
X292431Y-366600D02*
X296831Y-368400D01*
G54D13*
X290531Y-349600D02*
X286131Y-350700D01*
X290531Y-351800D01*
G54D13*
X286131Y-353000D02*
X288631Y-353000D01*
G54D13*
X288031Y-353000D02*
X288631Y-353400D01*
X288631Y-353900D01*
G54D13*
X286431Y-356400D02*
X286131Y-356100D01*
X286131Y-355600D01*
X286431Y-355200D01*
X286931Y-355100D01*
X287931Y-355100D01*
X288431Y-355300D01*
X288631Y-355800D01*
X288431Y-356200D01*
X288031Y-356400D01*
X287531Y-356400D01*
X287531Y-355100D01*
G54D13*
X286131Y-358000D02*
X290331Y-358000D01*
X290531Y-358300D01*
X290431Y-358500D01*
G54D13*
X288631Y-357600D02*
X288631Y-358500D01*
G54D13*
X288031Y-359700D02*
X288031Y-361500D01*
G54D13*
X289231Y-360600D02*
X286931Y-360600D01*
G54D11*
X286965Y-370378D02*
X286409Y-370156D01*
X286131Y-369711D01*
X286131Y-369267D01*
X286409Y-368822D01*
X286965Y-368600D01*
X289742Y-368600D01*
X290298Y-368822D01*
X290576Y-369267D01*
X290576Y-369711D01*
X290298Y-370156D01*
X289742Y-370378D01*
G54D11*
X288909Y-371600D02*
X290576Y-372711D01*
X286131Y-372711D01*
G54D11*
X289742Y-375711D02*
X286965Y-375711D01*
X286409Y-375488D01*
X286131Y-375044D01*
X286131Y-374600D01*
X286409Y-374155D01*
X286965Y-373933D01*
X289742Y-373933D01*
X290298Y-374155D01*
X290576Y-374600D01*
X290576Y-375044D01*
X290298Y-375488D01*
X289742Y-375711D01*
G54D11*
X290576Y-376933D02*
X286965Y-376933D01*
X286409Y-377155D01*
X286131Y-377600D01*
X286131Y-378044D01*
X286409Y-378488D01*
X286965Y-378711D01*
X290576Y-378711D01*
G54D11*
X286131Y-380822D02*
X290576Y-380822D01*
G54D11*
X290576Y-379933D02*
X290576Y-381711D01*
G54D11*
X286131Y-382933D02*
X290576Y-384711D01*
G54D11*
X288354Y-386822D02*
X287798Y-387488D01*
X287242Y-387711D01*
X286131Y-387711D01*
G54D11*
X286131Y-385933D02*
X290576Y-385933D01*
X290576Y-387044D01*
X290298Y-387488D01*
X289742Y-387711D01*
X289187Y-387711D01*
X288631Y-387488D01*
X288354Y-387044D01*
X288354Y-385933D01*
G54D11*
X286965Y-390711D02*
X286409Y-390488D01*
X286131Y-390044D01*
X286131Y-389600D01*
X286409Y-389155D01*
X286965Y-388933D01*
X289742Y-388933D01*
X290298Y-389155D01*
X290576Y-389600D01*
X290576Y-390044D01*
X290298Y-390488D01*
X289742Y-390711D01*
G54D11*
X290576Y-391933D02*
X286131Y-393044D01*
X290576Y-394155D01*
G54D13*
X300981Y-396500D02*
X300481Y-397200D01*
X299881Y-397400D01*
X298781Y-397400D01*
G54D13*
X298781Y-395600D02*
X303181Y-395600D01*
X303181Y-396700D01*
X302981Y-397200D01*
X302381Y-397400D01*
X301881Y-397400D01*
X301281Y-397200D01*
X300981Y-396700D01*
X300981Y-395600D01*
G54D13*
X298781Y-398600D02*
X303181Y-399700D01*
X298781Y-400800D01*
G54D13*
X300481Y-399000D02*
X300481Y-400400D01*
G54D13*
X303181Y-403800D02*
X303181Y-402000D01*
X301281Y-402000D01*
X301281Y-402200D01*
X301581Y-402700D01*
X301581Y-403100D01*
X301281Y-403600D01*
X300681Y-403800D01*
X299581Y-403800D01*
X299081Y-403600D01*
X298781Y-403100D01*
X298781Y-402700D01*
X299081Y-402200D01*
X299581Y-402000D01*
G54D13*
X298781Y-405000D02*
X303181Y-406800D01*
G54D13*
X298781Y-408000D02*
X303181Y-409100D01*
X298781Y-410200D01*
G54D13*
X300481Y-408400D02*
X300481Y-409800D01*
G54D13*
X298781Y-411400D02*
X303181Y-411400D01*
X298781Y-413200D01*
X303181Y-413200D01*
G54D13*
X298781Y-415700D02*
X303181Y-415700D01*
X300481Y-414400D01*
X299881Y-414400D01*
X299881Y-416200D01*
G54D13*
X298781Y-417400D02*
X303181Y-419200D01*
G54D11*
X293315Y-393975D02*
X292759Y-394197D01*
X292481Y-394642D01*
X292481Y-395086D01*
X292759Y-395530D01*
X293315Y-395753D01*
X293870Y-395753D01*
X294426Y-395530D01*
X294704Y-395086D01*
X294704Y-394642D01*
X294981Y-394197D01*
X295537Y-393975D01*
X296092Y-393975D01*
X296648Y-394197D01*
X296926Y-394642D01*
X296926Y-395086D01*
X296648Y-395530D01*
X296092Y-395753D01*
G54D11*
X293315Y-396975D02*
X292759Y-397197D01*
X292481Y-397642D01*
X292481Y-398086D01*
X292759Y-398530D01*
X293315Y-398753D01*
X293870Y-398753D01*
X294426Y-398530D01*
X294704Y-398086D01*
X294704Y-397642D01*
X294981Y-397197D01*
X295537Y-396975D01*
X296092Y-396975D01*
X296648Y-397197D01*
X296926Y-397642D01*
X296926Y-398086D01*
X296648Y-398530D01*
X296092Y-398753D01*
G54D11*
X292481Y-399975D02*
X296926Y-401753D01*
G54D11*
X292481Y-402975D02*
X296926Y-402975D01*
G54D11*
X292481Y-404753D02*
X296926Y-404753D01*
G54D11*
X294704Y-402975D02*
X294704Y-404753D01*
G54D11*
X296926Y-405975D02*
X292481Y-405975D01*
X292481Y-407530D01*
G54D11*
X296926Y-408753D02*
X292481Y-409864D01*
X296926Y-410975D01*
G54D11*
X292481Y-412197D02*
X296926Y-412197D01*
X296926Y-413308D01*
X296648Y-413752D01*
X296092Y-413975D01*
X293315Y-413975D01*
X292759Y-413752D01*
X292481Y-413308D01*
X292481Y-412197D01*
G54D11*
X292481Y-415197D02*
X292481Y-416975D01*
G54D11*
X292481Y-416086D02*
X296926Y-416086D01*
G54D11*
X296926Y-415197D02*
X296926Y-416975D01*
G54D11*
X292481Y-418197D02*
X296926Y-418197D01*
X292481Y-419975D01*
X296926Y-419975D01*
G54D11*
X292481Y-421197D02*
X296926Y-422975D01*
G54D12*
X297681Y-392875D02*
X297681Y-399275D01*
G54D13*
X292031Y-427400D02*
X287631Y-428500D01*
X292031Y-429600D01*
G54D13*
X287931Y-430800D02*
X287631Y-431200D01*
X287631Y-431700D01*
X287931Y-432100D01*
X288431Y-432100D01*
X288731Y-431900D01*
X289031Y-431000D01*
X289331Y-430800D01*
X289831Y-430800D01*
X290131Y-431200D01*
X290131Y-431700D01*
X289831Y-432100D01*
G54D13*
X287931Y-433300D02*
X287631Y-433700D01*
X287631Y-434200D01*
X287931Y-434600D01*
X288431Y-434600D01*
X288731Y-434400D01*
X289031Y-433500D01*
X289331Y-433300D01*
X289831Y-433300D01*
X290131Y-433700D01*
X290131Y-434200D01*
X289831Y-434600D01*
G54D11*
X301041Y-502926D02*
X300486Y-503593D01*
X299930Y-503815D01*
X298819Y-503815D01*
G54D11*
X298819Y-502038D02*
X303263Y-502038D01*
X303263Y-503149D01*
X302986Y-503593D01*
X302430Y-503815D01*
X301874Y-503815D01*
X301319Y-503593D01*
X301041Y-503149D01*
X301041Y-502038D01*
G54D11*
X299652Y-506815D02*
X299097Y-506593D01*
X298819Y-506149D01*
X298819Y-505704D01*
X299097Y-505260D01*
X299652Y-505038D01*
X302430Y-505038D01*
X302986Y-505260D01*
X303263Y-505704D01*
X303263Y-506149D01*
X302986Y-506593D01*
X302430Y-506815D01*
G54D11*
X302430Y-509815D02*
X299652Y-509815D01*
X299097Y-509593D01*
X298819Y-509149D01*
X298819Y-508704D01*
X299097Y-508260D01*
X299652Y-508038D01*
X302430Y-508038D01*
X302986Y-508260D01*
X303263Y-508704D01*
X303263Y-509149D01*
X302986Y-509593D01*
X302430Y-509815D01*
G54D11*
X298819Y-511038D02*
X303263Y-512815D01*
G54D11*
X286069Y-499714D02*
X290513Y-499714D01*
G54D11*
X290513Y-498825D02*
X290513Y-500603D01*
G54D11*
X288847Y-501825D02*
X290513Y-502936D01*
X286069Y-502936D01*
G54D11*
X289680Y-504158D02*
X290236Y-504380D01*
X290513Y-504825D01*
X290513Y-505269D01*
X290236Y-505714D01*
X289680Y-505936D01*
X289124Y-505936D01*
X288569Y-505714D01*
X288291Y-505269D01*
X288013Y-505714D01*
X287458Y-505936D01*
X286902Y-505936D01*
X286347Y-505714D01*
X286069Y-505269D01*
X286069Y-504825D01*
X286347Y-504380D01*
X286902Y-504158D01*
G54D11*
X286902Y-508936D02*
X286347Y-508714D01*
X286069Y-508269D01*
X286069Y-507825D01*
X286347Y-507380D01*
X286902Y-507158D01*
X289680Y-507158D01*
X290236Y-507380D01*
X290513Y-507825D01*
X290513Y-508269D01*
X290236Y-508714D01*
X289680Y-508936D01*
G54D11*
X286069Y-510158D02*
X290513Y-510158D01*
G54D11*
X287458Y-510158D02*
X290513Y-511936D01*
G54D11*
X288291Y-510825D02*
X286069Y-511936D01*
G54D11*
X286069Y-513158D02*
X286069Y-514936D01*
G54D11*
X286069Y-514047D02*
X290513Y-514047D01*
G54D11*
X290513Y-513158D02*
X290513Y-514936D01*
G54D13*
X302481Y-478400D02*
X299681Y-478400D01*
X299181Y-478200D01*
X298881Y-477700D01*
X298881Y-477300D01*
X299181Y-476800D01*
X299681Y-476600D01*
X302481Y-476600D01*
X303081Y-476800D01*
X303281Y-477300D01*
X303281Y-477700D01*
X303081Y-478200D01*
X302481Y-478400D01*
G54D13*
X299681Y-479600D02*
X299181Y-479800D01*
X298881Y-480300D01*
X298881Y-480700D01*
X299181Y-481200D01*
X299681Y-481400D01*
X300281Y-481400D01*
X300781Y-481200D01*
X301081Y-480700D01*
X301081Y-480300D01*
X301381Y-479800D01*
X301981Y-479600D01*
X302481Y-479600D01*
X303081Y-479800D01*
X303281Y-480300D01*
X303281Y-480700D01*
X303081Y-481200D01*
X302481Y-481400D01*
G54D13*
X299681Y-484400D02*
X299181Y-484200D01*
X298881Y-483700D01*
X298881Y-483300D01*
X299181Y-482800D01*
X299681Y-482600D01*
X302481Y-482600D01*
X303081Y-482800D01*
X303281Y-483300D01*
X303281Y-483700D01*
X303081Y-484200D01*
X302481Y-484400D01*
G54D13*
X298881Y-487400D02*
X298881Y-485600D01*
X299181Y-485600D01*
X299681Y-485800D01*
X301381Y-487200D01*
X301981Y-487400D01*
X302481Y-487400D01*
X303081Y-487200D01*
X303281Y-486700D01*
X303281Y-486300D01*
X303081Y-485800D01*
X302481Y-485600D01*
G54D13*
X298881Y-488600D02*
X303281Y-490400D01*
G54D11*
X293315Y-473603D02*
X292759Y-473381D01*
X292481Y-472936D01*
X292481Y-472492D01*
X292759Y-472047D01*
X293315Y-471825D01*
X296092Y-471825D01*
X296648Y-472047D01*
X296926Y-472492D01*
X296926Y-472936D01*
X296648Y-473381D01*
X296092Y-473603D01*
G54D11*
X296926Y-474825D02*
X292481Y-474825D01*
X292481Y-476381D01*
G54D11*
X292481Y-477603D02*
X296926Y-477603D01*
G54D11*
X293870Y-477603D02*
X296926Y-479381D01*
G54D11*
X294704Y-478270D02*
X292481Y-479381D01*
G54D11*
X296092Y-482381D02*
X293315Y-482381D01*
X292759Y-482159D01*
X292481Y-481714D01*
X292481Y-481270D01*
X292759Y-480825D01*
X293315Y-480603D01*
X296092Y-480603D01*
X296648Y-480825D01*
X296926Y-481270D01*
X296926Y-481714D01*
X296648Y-482159D01*
X296092Y-482381D01*
G54D11*
X296926Y-483603D02*
X293315Y-483603D01*
X292759Y-483825D01*
X292481Y-484270D01*
X292481Y-484714D01*
X292759Y-485159D01*
X293315Y-485381D01*
X296926Y-485381D01*
G54D11*
X292481Y-487492D02*
X296926Y-487492D01*
G54D11*
X296926Y-486603D02*
X296926Y-488381D01*
G54D11*
X292481Y-489603D02*
X296926Y-491381D01*
G54D13*
X296031Y-453000D02*
X293231Y-453000D01*
X292731Y-452800D01*
X292431Y-452300D01*
X292431Y-451900D01*
X292731Y-451400D01*
X293231Y-451200D01*
X296031Y-451200D01*
X296631Y-451400D01*
X296831Y-451900D01*
X296831Y-452300D01*
X296631Y-452800D01*
X296031Y-453000D01*
G54D13*
X293231Y-454200D02*
X292731Y-454400D01*
X292431Y-454900D01*
X292431Y-455300D01*
X292731Y-455800D01*
X293231Y-456000D01*
X293831Y-456000D01*
X294331Y-455800D01*
X294631Y-455300D01*
X294631Y-454900D01*
X294931Y-454400D01*
X295531Y-454200D01*
X296031Y-454200D01*
X296631Y-454400D01*
X296831Y-454900D01*
X296831Y-455300D01*
X296631Y-455800D01*
X296031Y-456000D01*
G54D13*
X293231Y-459000D02*
X292731Y-458800D01*
X292431Y-458300D01*
X292431Y-457900D01*
X292731Y-457400D01*
X293231Y-457200D01*
X296031Y-457200D01*
X296631Y-457400D01*
X296831Y-457900D01*
X296831Y-458300D01*
X296631Y-458800D01*
X296031Y-459000D01*
G54D13*
X295231Y-460200D02*
X296831Y-461300D01*
X292431Y-461300D01*
G54D13*
X292431Y-462500D02*
X296831Y-464300D01*
G54D13*
X286931Y-453000D02*
X286431Y-452800D01*
X286131Y-452300D01*
X286131Y-451900D01*
X286431Y-451400D01*
X286931Y-451200D01*
X289731Y-451200D01*
X290331Y-451400D01*
X290531Y-451900D01*
X290531Y-452300D01*
X290331Y-452800D01*
X289731Y-453000D01*
G54D13*
X290531Y-454200D02*
X286131Y-454200D01*
X286131Y-455800D01*
G54D13*
X286131Y-457000D02*
X290531Y-457000D01*
G54D13*
X287531Y-457000D02*
X290531Y-458800D01*
G54D13*
X288331Y-457700D02*
X286131Y-458800D01*
G54D13*
X286131Y-460000D02*
X290531Y-460000D01*
G54D13*
X286131Y-461200D02*
X290531Y-461200D01*
X286131Y-463000D01*
X290531Y-463000D01*
G54D13*
X300969Y-521900D02*
X300469Y-522600D01*
X299869Y-522800D01*
X298769Y-522800D01*
G54D13*
X298769Y-521000D02*
X303169Y-521000D01*
X303169Y-522100D01*
X302969Y-522600D01*
X302369Y-522800D01*
X301869Y-522800D01*
X301269Y-522600D01*
X300969Y-522100D01*
X300969Y-521000D01*
G54D13*
X299569Y-525800D02*
X299069Y-525600D01*
X298769Y-525100D01*
X298769Y-524700D01*
X299069Y-524200D01*
X299569Y-524000D01*
X302369Y-524000D01*
X302969Y-524200D01*
X303169Y-524700D01*
X303169Y-525100D01*
X302969Y-525600D01*
X302369Y-525800D01*
G54D13*
X301569Y-527000D02*
X303169Y-528100D01*
X298769Y-528100D01*
G54D13*
X298769Y-529300D02*
X303169Y-531100D01*
G54D13*
X298769Y-533200D02*
X303169Y-533200D01*
G54D13*
X303169Y-532300D02*
X303169Y-534100D01*
G54D13*
X301569Y-535300D02*
X303169Y-536400D01*
X298769Y-536400D01*
G54D13*
X302369Y-539400D02*
X299569Y-539400D01*
X299069Y-539200D01*
X298769Y-538700D01*
X298769Y-538300D01*
X299069Y-537800D01*
X299569Y-537600D01*
X302369Y-537600D01*
X302969Y-537800D01*
X303169Y-538300D01*
X303169Y-538700D01*
X302969Y-539200D01*
X302369Y-539400D01*
G54D13*
X299569Y-540600D02*
X299069Y-540800D01*
X298769Y-541300D01*
X298769Y-541700D01*
X299069Y-542200D01*
X299569Y-542400D01*
X300169Y-542400D01*
X300669Y-542200D01*
X300969Y-541700D01*
X300969Y-541300D01*
X301269Y-540800D01*
X301869Y-540600D01*
X302369Y-540600D01*
X302969Y-540800D01*
X303169Y-541300D01*
X303169Y-541700D01*
X302969Y-542200D01*
X302369Y-542400D01*
G54D13*
X298769Y-543600D02*
X303169Y-543600D01*
G54D13*
X298769Y-544800D02*
X303169Y-546600D01*
G54D13*
X288331Y-547300D02*
X287831Y-548000D01*
X287231Y-548200D01*
X286131Y-548200D01*
G54D13*
X286131Y-546400D02*
X290531Y-546400D01*
X290531Y-547500D01*
X290331Y-548000D01*
X289731Y-548200D01*
X289231Y-548200D01*
X288631Y-548000D01*
X288331Y-547500D01*
X288331Y-546400D01*
G54D13*
X286931Y-551200D02*
X286431Y-551000D01*
X286131Y-550500D01*
X286131Y-550100D01*
X286431Y-549600D01*
X286931Y-549400D01*
X289731Y-549400D01*
X290331Y-549600D01*
X290531Y-550100D01*
X290531Y-550500D01*
X290331Y-551000D01*
X289731Y-551200D01*
G54D13*
X286131Y-554200D02*
X286131Y-552400D01*
X286431Y-552400D01*
X286931Y-552600D01*
X288631Y-554000D01*
X289231Y-554200D01*
X289731Y-554200D01*
X290331Y-554000D01*
X290531Y-553500D01*
X290531Y-553100D01*
X290331Y-552600D01*
X289731Y-552400D01*
G54D13*
X286131Y-555400D02*
X290531Y-557200D01*
G54D13*
X286931Y-560200D02*
X286431Y-560000D01*
X286131Y-559500D01*
X286131Y-559100D01*
X286431Y-558600D01*
X286931Y-558400D01*
X289731Y-558400D01*
X290331Y-558600D01*
X290531Y-559100D01*
X290531Y-559500D01*
X290331Y-560000D01*
X289731Y-560200D01*
G54D13*
X286931Y-563200D02*
X286431Y-563000D01*
X286131Y-562500D01*
X286131Y-562100D01*
X286431Y-561600D01*
X286931Y-561400D01*
X289731Y-561400D01*
X290331Y-561600D01*
X290531Y-562100D01*
X290531Y-562500D01*
X290331Y-563000D01*
X289731Y-563200D01*
G54D13*
X286131Y-564400D02*
X290531Y-564400D01*
X290531Y-565500D01*
X290331Y-566000D01*
X289731Y-566200D01*
X289231Y-566200D01*
X288631Y-566000D01*
X288331Y-565500D01*
X288331Y-564400D01*
G54D13*
X288931Y-567400D02*
X290531Y-568500D01*
X286131Y-568500D01*
G54D11*
X290476Y-578200D02*
X286031Y-579311D01*
X290476Y-580422D01*
G54D11*
X288531Y-582977D02*
X286031Y-582977D01*
G54D11*
X286587Y-582977D02*
X286142Y-582755D01*
X286031Y-582311D01*
X286142Y-581866D01*
X286587Y-581644D01*
X288531Y-581644D01*
G54D11*
X286309Y-584199D02*
X286031Y-584644D01*
X286031Y-585088D01*
X286309Y-585532D01*
X286865Y-585532D01*
X287142Y-585310D01*
X287420Y-584421D01*
X287698Y-584199D01*
X288254Y-584199D01*
X288531Y-584644D01*
X288531Y-585088D01*
X288254Y-585532D01*
G54D11*
X286031Y-586754D02*
X290476Y-586754D01*
G54D11*
X287809Y-586754D02*
X288365Y-586976D01*
X288531Y-587421D01*
X288365Y-587865D01*
X287809Y-588087D01*
X286698Y-588087D01*
X286142Y-587865D01*
X286031Y-587421D01*
X286142Y-586976D01*
X286698Y-586754D01*
G54D11*
X339166Y-574289D02*
X338610Y-574956D01*
X338055Y-575178D01*
X336944Y-575178D01*
G54D11*
X336944Y-573400D02*
X341388Y-573400D01*
X341388Y-574511D01*
X341110Y-574956D01*
X340555Y-575178D01*
X339999Y-575178D01*
X339444Y-574956D01*
X339166Y-574511D01*
X339166Y-573400D01*
G54D11*
X337777Y-578178D02*
X337222Y-577956D01*
X336944Y-577511D01*
X336944Y-577067D01*
X337222Y-576622D01*
X337777Y-576400D01*
X340555Y-576400D01*
X341110Y-576622D01*
X341388Y-577067D01*
X341388Y-577511D01*
X341110Y-577956D01*
X340555Y-578178D01*
G54D11*
X336944Y-580733D02*
X341388Y-580733D01*
X338610Y-579400D01*
X338055Y-579400D01*
X338055Y-581178D01*
G54D11*
X336944Y-582400D02*
X341388Y-584178D01*
G54D11*
X336944Y-585400D02*
X341388Y-585400D01*
X341388Y-586511D01*
X341110Y-586956D01*
X340555Y-587178D01*
X337777Y-587178D01*
X337222Y-586956D01*
X336944Y-586511D01*
X336944Y-585400D01*
G54D11*
X338888Y-588400D02*
X338888Y-590178D01*
G54D11*
X336944Y-591400D02*
X341388Y-593178D01*
G54D11*
X334988Y-579800D02*
X330544Y-580911D01*
X334988Y-582022D01*
G54D11*
X330544Y-583244D02*
X334988Y-583244D01*
X332210Y-584355D01*
X334988Y-585466D01*
X330544Y-585466D01*
G54D13*
X339144Y-523500D02*
X338644Y-524200D01*
X338044Y-524400D01*
X336944Y-524400D01*
G54D13*
X336944Y-522600D02*
X341344Y-522600D01*
X341344Y-523700D01*
X341144Y-524200D01*
X340544Y-524400D01*
X340044Y-524400D01*
X339444Y-524200D01*
X339144Y-523700D01*
X339144Y-522600D01*
G54D13*
X337744Y-527400D02*
X337244Y-527200D01*
X336944Y-526700D01*
X336944Y-526300D01*
X337244Y-525800D01*
X337744Y-525600D01*
X340544Y-525600D01*
X341144Y-525800D01*
X341344Y-526300D01*
X341344Y-526700D01*
X341144Y-527200D01*
X340544Y-527400D01*
G54D13*
X340544Y-530400D02*
X341144Y-530200D01*
X341344Y-529700D01*
X341344Y-529300D01*
X341144Y-528800D01*
X340544Y-528600D01*
X339144Y-528600D01*
X338844Y-528600D01*
X339444Y-529300D01*
X339444Y-529700D01*
X339144Y-530200D01*
X338644Y-530400D01*
X337744Y-530400D01*
X337244Y-530200D01*
X336944Y-529700D01*
X336944Y-529300D01*
X337244Y-528800D01*
X337744Y-528600D01*
X339144Y-528600D01*
G54D13*
X336944Y-531600D02*
X341344Y-533400D01*
G54D13*
X336944Y-535500D02*
X341344Y-535500D01*
G54D13*
X341344Y-534600D02*
X341344Y-536400D01*
G54D13*
X341344Y-537600D02*
X336944Y-539800D01*
G54D13*
X336944Y-537600D02*
X341344Y-539800D01*
G54D13*
X336944Y-541000D02*
X341344Y-542800D01*
G54D13*
X331344Y-532300D02*
X330844Y-532100D01*
X330544Y-531600D01*
X330544Y-531200D01*
X330844Y-530700D01*
X331344Y-530500D01*
X334144Y-530500D01*
X334744Y-530700D01*
X334944Y-531200D01*
X334944Y-531600D01*
X334744Y-532100D01*
X334144Y-532300D01*
G54D13*
X330544Y-533500D02*
X334944Y-533500D01*
G54D13*
X331944Y-533500D02*
X334944Y-535300D01*
G54D13*
X332744Y-534200D02*
X330544Y-535300D01*
G54D13*
X339044Y-498100D02*
X338544Y-498800D01*
X337944Y-499000D01*
X336844Y-499000D01*
G54D13*
X336844Y-497200D02*
X341244Y-497200D01*
X341244Y-498300D01*
X341044Y-498800D01*
X340444Y-499000D01*
X339944Y-499000D01*
X339344Y-498800D01*
X339044Y-498300D01*
X339044Y-497200D01*
G54D13*
X337644Y-502000D02*
X337144Y-501800D01*
X336844Y-501300D01*
X336844Y-500900D01*
X337144Y-500400D01*
X337644Y-500200D01*
X340444Y-500200D01*
X341044Y-500400D01*
X341244Y-500900D01*
X341244Y-501300D01*
X341044Y-501800D01*
X340444Y-502000D01*
G54D13*
X341244Y-503200D02*
X341244Y-505000D01*
X340744Y-504800D01*
X339944Y-504300D01*
X338744Y-503900D01*
X337944Y-503600D01*
X336844Y-503600D01*
G54D13*
X336844Y-506200D02*
X341244Y-508000D01*
G54D13*
X339044Y-510100D02*
X338544Y-510800D01*
X337944Y-511000D01*
X336844Y-511000D01*
G54D13*
X336844Y-509200D02*
X341244Y-509200D01*
X341244Y-510300D01*
X341044Y-510800D01*
X340444Y-511000D01*
X339944Y-511000D01*
X339344Y-510800D01*
X339044Y-510300D01*
X339044Y-509200D01*
G54D13*
X341244Y-512200D02*
X336844Y-514400D01*
G54D13*
X336844Y-512200D02*
X341244Y-514400D01*
G54D13*
X336844Y-515600D02*
X341244Y-517400D01*
G54D11*
X330544Y-498750D02*
X334988Y-498750D01*
X334988Y-499861D01*
X334710Y-500306D01*
X334155Y-500528D01*
X331377Y-500528D01*
X330822Y-500306D01*
X330544Y-499861D01*
X330544Y-498750D01*
G54D11*
X330544Y-502639D02*
X334988Y-502639D01*
G54D11*
X334988Y-501750D02*
X334988Y-503528D01*
G54D11*
X330544Y-504750D02*
X334988Y-506528D01*
G54D11*
X331377Y-507750D02*
X330822Y-507972D01*
X330544Y-508417D01*
X330544Y-508861D01*
X330822Y-509306D01*
X331377Y-509528D01*
X331933Y-509528D01*
X332488Y-509306D01*
X332766Y-508861D01*
X332766Y-508417D01*
X333044Y-507972D01*
X333599Y-507750D01*
X334155Y-507750D01*
X334710Y-507972D01*
X334988Y-508417D01*
X334988Y-508861D01*
X334710Y-509306D01*
X334155Y-509528D01*
G54D11*
X330544Y-510750D02*
X334988Y-510750D01*
X334988Y-511861D01*
X334710Y-512306D01*
X334155Y-512528D01*
X331377Y-512528D01*
X330822Y-512306D01*
X330544Y-511861D01*
X330544Y-510750D01*
G54D11*
X334155Y-515528D02*
X331377Y-515528D01*
X330822Y-515306D01*
X330544Y-514861D01*
X330544Y-514417D01*
X330822Y-513972D01*
X331377Y-513750D01*
X334155Y-513750D01*
X334710Y-513972D01*
X334988Y-514417D01*
X334988Y-514861D01*
X334710Y-515306D01*
X334155Y-515528D01*
G54D13*
X341244Y-478200D02*
X336844Y-479300D01*
X341244Y-480400D01*
G54D13*
X337144Y-481600D02*
X336844Y-482000D01*
X336844Y-482500D01*
X337144Y-482900D01*
X337644Y-482900D01*
X337944Y-482700D01*
X338244Y-481800D01*
X338544Y-481600D01*
X339044Y-481600D01*
X339344Y-482000D01*
X339344Y-482500D01*
X339044Y-482900D01*
G54D13*
X337144Y-484100D02*
X336844Y-484500D01*
X336844Y-485000D01*
X337144Y-485400D01*
X337644Y-485400D01*
X337944Y-485200D01*
X338244Y-484300D01*
X338544Y-484100D01*
X339044Y-484100D01*
X339344Y-484500D01*
X339344Y-485000D01*
X339044Y-485400D01*
G54D13*
X341244Y-452800D02*
X336844Y-453900D01*
X341244Y-455000D01*
G54D13*
X336844Y-457500D02*
X341244Y-457500D01*
G54D13*
X338644Y-457500D02*
X339144Y-457300D01*
X339344Y-456900D01*
X339144Y-456400D01*
X338644Y-456200D01*
X337544Y-456200D01*
X336944Y-456400D01*
X336844Y-456900D01*
X336944Y-457300D01*
X337544Y-457500D01*
G54D13*
X336844Y-460000D02*
X341244Y-460000D01*
G54D13*
X338644Y-460000D02*
X339144Y-459800D01*
X339344Y-459400D01*
X339144Y-458900D01*
X338644Y-458700D01*
X337544Y-458700D01*
X336944Y-458900D01*
X336844Y-459400D01*
X336944Y-459800D01*
X337544Y-460000D01*
G54D11*
X339066Y-423489D02*
X338510Y-424156D01*
X337955Y-424378D01*
X336844Y-424378D01*
G54D11*
X336844Y-422600D02*
X341288Y-422600D01*
X341288Y-423711D01*
X341010Y-424156D01*
X340455Y-424378D01*
X339899Y-424378D01*
X339344Y-424156D01*
X339066Y-423711D01*
X339066Y-422600D01*
G54D11*
X336844Y-425600D02*
X341288Y-425600D01*
X341288Y-426711D01*
X341010Y-427156D01*
X340455Y-427378D01*
X339899Y-427378D01*
X339344Y-427156D01*
X339066Y-426711D01*
X338788Y-427156D01*
X338233Y-427378D01*
X337677Y-427378D01*
X337122Y-427156D01*
X336844Y-426711D01*
X336844Y-425600D01*
G54D11*
X339066Y-425600D02*
X339066Y-426711D01*
G54D11*
X340455Y-430378D02*
X337677Y-430378D01*
X337122Y-430156D01*
X336844Y-429711D01*
X336844Y-429267D01*
X337122Y-428822D01*
X337677Y-428600D01*
X340455Y-428600D01*
X341010Y-428822D01*
X341288Y-429267D01*
X341288Y-429711D01*
X341010Y-430156D01*
X340455Y-430378D01*
G54D11*
X336844Y-431600D02*
X341288Y-433378D01*
G54D11*
X336844Y-434600D02*
X341288Y-435711D01*
X336844Y-436822D01*
G54D11*
X338510Y-435044D02*
X338510Y-436378D01*
G54D11*
X336844Y-438044D02*
X341288Y-438044D01*
X336844Y-439822D01*
X341288Y-439822D01*
G54D11*
X339622Y-441044D02*
X341288Y-442155D01*
X336844Y-442155D01*
G54D11*
X336844Y-445155D02*
X336844Y-443377D01*
X337122Y-443377D01*
X337677Y-443599D01*
X339344Y-444932D01*
X339899Y-445155D01*
X340455Y-445155D01*
X341010Y-444932D01*
X341288Y-444488D01*
X341288Y-444044D01*
X341010Y-443599D01*
X340455Y-443377D01*
G54D11*
X336844Y-446377D02*
X341288Y-448155D01*
G54D14*
X306831Y-365600D02*
X320165Y-365600D01*
X320165Y-368933D01*
X319331Y-370267D01*
X317665Y-370933D01*
X315998Y-370933D01*
X314331Y-370267D01*
X313498Y-368933D01*
X313498Y-365600D01*
G54D14*
X306831Y-374600D02*
X306831Y-379933D01*
G54D14*
X306831Y-377267D02*
X320165Y-377267D01*
G54D14*
X320165Y-374600D02*
X320165Y-379933D01*
G54D14*
X309331Y-388933D02*
X307665Y-388267D01*
X306831Y-386933D01*
X306831Y-385600D01*
X307665Y-384267D01*
X309331Y-383600D01*
X317665Y-383600D01*
X319331Y-384267D01*
X320165Y-385600D01*
X320165Y-386933D01*
X319331Y-388267D01*
X317665Y-388933D01*
G54D14*
X315165Y-392600D02*
X320165Y-395933D01*
X306831Y-395933D01*
G54D14*
X313498Y-402933D02*
X313498Y-401600D01*
X314331Y-400267D01*
X315998Y-399600D01*
X317665Y-399600D01*
X319331Y-400267D01*
X320165Y-401600D01*
X320165Y-402933D01*
X319331Y-404267D01*
X317665Y-404933D01*
X315998Y-404933D01*
X314331Y-404267D01*
X313498Y-402933D01*
X312665Y-404267D01*
X310998Y-404933D01*
X309331Y-404933D01*
X307665Y-404267D01*
X306831Y-402933D01*
X306831Y-401600D01*
X307665Y-400267D01*
X309331Y-399600D01*
X310998Y-399600D01*
X312665Y-400267D01*
X313498Y-401600D01*
G54D14*
X306831Y-408600D02*
X320165Y-408600D01*
X320165Y-413267D01*
G54D14*
X313498Y-408600D02*
X313498Y-413267D01*
G54D14*
X306831Y-422267D02*
X306831Y-416934D01*
X307665Y-416934D01*
X309331Y-417601D01*
X314331Y-421601D01*
X315998Y-422267D01*
X317665Y-422267D01*
X319331Y-421601D01*
X320165Y-420267D01*
X320165Y-418934D01*
X319331Y-417601D01*
X317665Y-416934D01*
G54D14*
X306831Y-429934D02*
X320165Y-429934D01*
X311831Y-425934D01*
X310165Y-425934D01*
X310165Y-431267D01*
G54D14*
X320165Y-440267D02*
X320165Y-434934D01*
X314331Y-434934D01*
X314331Y-435601D01*
X315165Y-436934D01*
X315165Y-438267D01*
X314331Y-439601D01*
X312665Y-440267D01*
X309331Y-440267D01*
X307665Y-439601D01*
X306831Y-438267D01*
X306831Y-436934D01*
X307665Y-435601D01*
X309331Y-434934D01*
G54D14*
X320165Y-449267D02*
X320165Y-443934D01*
X314331Y-443934D01*
X314331Y-444601D01*
X315165Y-445934D01*
X315165Y-447267D01*
X314331Y-448601D01*
X312665Y-449267D01*
X309331Y-449267D01*
X307665Y-448601D01*
X306831Y-447267D01*
X306831Y-445934D01*
X307665Y-444601D01*
X309331Y-443934D01*
G54D14*
X306831Y-452934D02*
X320165Y-458267D01*
G54D14*
X306831Y-467267D02*
X306831Y-461934D01*
X307665Y-461934D01*
X309331Y-462601D01*
X314331Y-466601D01*
X315998Y-467267D01*
X317665Y-467267D01*
X319331Y-466601D01*
X320165Y-465267D01*
X320165Y-463934D01*
X319331Y-462601D01*
X317665Y-461934D01*
G54D14*
X320165Y-476267D02*
X320165Y-470934D01*
X314331Y-470934D01*
X314331Y-471601D01*
X315165Y-472934D01*
X315165Y-474267D01*
X314331Y-475601D01*
X312665Y-476267D01*
X309331Y-476267D01*
X307665Y-475601D01*
X306831Y-474267D01*
X306831Y-472934D01*
X307665Y-471601D01*
X309331Y-470934D01*
G54D14*
X320165Y-485267D02*
X320165Y-479934D01*
X314331Y-479934D01*
X314331Y-480601D01*
X315165Y-481934D01*
X315165Y-483267D01*
X314331Y-484601D01*
X312665Y-485267D01*
X309331Y-485267D01*
X307665Y-484601D01*
X306831Y-483267D01*
X306831Y-481934D01*
X307665Y-480601D01*
X309331Y-479934D01*
G54D14*
X317665Y-494267D02*
X309331Y-494267D01*
X307665Y-493601D01*
X306831Y-492267D01*
X306831Y-490934D01*
X307665Y-489601D01*
X309331Y-488934D01*
X317665Y-488934D01*
X319331Y-489601D01*
X320165Y-490934D01*
X320165Y-492267D01*
X319331Y-493601D01*
X317665Y-494267D01*
G54D11*
X290576Y-244825D02*
X286131Y-245936D01*
X290576Y-247047D01*
G54D11*
X288631Y-248269D02*
X285020Y-248269D01*
G54D11*
X286965Y-248269D02*
X286242Y-248491D01*
X286131Y-248936D01*
X286242Y-249380D01*
X286798Y-249602D01*
X287909Y-249602D01*
X288465Y-249380D01*
X288631Y-248936D01*
X288465Y-248491D01*
X287798Y-248269D01*
G54D11*
X288631Y-250824D02*
X285020Y-250824D01*
G54D11*
X286965Y-250824D02*
X286242Y-251046D01*
X286131Y-251491D01*
X286242Y-251935D01*
X286798Y-252157D01*
X287909Y-252157D01*
X288465Y-251935D01*
X288631Y-251491D01*
X288465Y-251046D01*
X287798Y-250824D01*
G54D11*
X286131Y-253379D02*
X290576Y-255157D01*
G54D11*
X288354Y-257268D02*
X287798Y-257935D01*
X287242Y-258157D01*
X286131Y-258157D01*
G54D11*
X286131Y-256379D02*
X290576Y-256379D01*
X290576Y-257490D01*
X290298Y-257935D01*
X289742Y-258157D01*
X289187Y-258157D01*
X288631Y-257935D01*
X288354Y-257490D01*
X288354Y-256379D01*
G54D11*
X286131Y-260935D02*
X286131Y-259379D01*
X290576Y-259379D01*
X290576Y-260935D01*
G54D11*
X288354Y-259379D02*
X288354Y-260935D01*
G54D11*
X289742Y-262157D02*
X290298Y-262379D01*
X290576Y-262824D01*
X290576Y-263268D01*
X290298Y-263713D01*
X289742Y-263935D01*
X289187Y-263935D01*
X288631Y-263713D01*
X288354Y-263268D01*
X288076Y-263713D01*
X287520Y-263935D01*
X286965Y-263935D01*
X286409Y-263713D01*
X286131Y-263268D01*
X286131Y-262824D01*
X286409Y-262379D01*
X286965Y-262157D01*
G54D11*
X292481Y-372664D02*
X296926Y-372664D01*
G54D11*
X296926Y-371775D02*
X296926Y-373553D01*
G54D11*
X296092Y-376553D02*
X293315Y-376553D01*
X292759Y-376330D01*
X292481Y-375886D01*
X292481Y-375442D01*
X292759Y-374997D01*
X293315Y-374775D01*
X296092Y-374775D01*
X296648Y-374997D01*
X296926Y-375442D01*
X296926Y-375886D01*
X296648Y-376330D01*
X296092Y-376553D01*
G54D11*
X293315Y-379553D02*
X292759Y-379330D01*
X292481Y-378886D01*
X292481Y-378442D01*
X292759Y-377997D01*
X293315Y-377775D01*
X296092Y-377775D01*
X296648Y-377997D01*
X296926Y-378442D01*
X296926Y-378886D01*
X296648Y-379330D01*
X296092Y-379553D01*
G54D11*
X292481Y-380775D02*
X296926Y-380775D01*
G54D11*
X293870Y-380775D02*
X296926Y-382553D01*
G54D11*
X294704Y-381442D02*
X292481Y-382553D01*
G54D11*
X292481Y-383775D02*
X292481Y-385553D01*
G54D11*
X292481Y-384664D02*
X296926Y-384664D01*
G54D11*
X296926Y-383775D02*
X296926Y-385553D01*
G54D11*
X286965Y-402103D02*
X286409Y-401880D01*
X286131Y-401436D01*
X286131Y-400992D01*
X286409Y-400547D01*
X286965Y-400325D01*
X289742Y-400325D01*
X290298Y-400547D01*
X290576Y-400992D01*
X290576Y-401436D01*
X290298Y-401880D01*
X289742Y-402103D01*
G54D11*
X286131Y-405103D02*
X286131Y-403325D01*
X286409Y-403325D01*
X286965Y-403547D01*
X288631Y-404880D01*
X289187Y-405103D01*
X289742Y-405103D01*
X290298Y-404880D01*
X290576Y-404436D01*
X290576Y-403992D01*
X290298Y-403547D01*
X289742Y-403325D01*
G54D11*
X289742Y-408103D02*
X286965Y-408103D01*
X286409Y-407880D01*
X286131Y-407436D01*
X286131Y-406992D01*
X286409Y-406547D01*
X286965Y-406325D01*
X289742Y-406325D01*
X290298Y-406547D01*
X290576Y-406992D01*
X290576Y-407436D01*
X290298Y-407880D01*
X289742Y-408103D01*
G54D11*
X290576Y-409325D02*
X286965Y-409325D01*
X286409Y-409547D01*
X286131Y-409992D01*
X286131Y-410436D01*
X286409Y-410880D01*
X286965Y-411103D01*
X290576Y-411103D01*
G54D11*
X286131Y-413214D02*
X290576Y-413214D01*
G54D11*
X290576Y-412325D02*
X290576Y-414103D01*
G54D11*
X301054Y-375839D02*
X300498Y-376506D01*
X299942Y-376728D01*
X298831Y-376728D01*
G54D11*
X298831Y-374950D02*
X303276Y-374950D01*
X303276Y-376061D01*
X302998Y-376506D01*
X302442Y-376728D01*
X301887Y-376728D01*
X301331Y-376506D01*
X301054Y-376061D01*
X301054Y-374950D01*
G54D11*
X298831Y-377950D02*
X303276Y-379061D01*
X298831Y-380172D01*
G54D11*
X300498Y-378394D02*
X300498Y-379728D01*
G54D11*
X298831Y-382727D02*
X303276Y-382727D01*
X300498Y-381394D01*
X299942Y-381394D01*
X299942Y-383172D01*
G54D11*
X298831Y-384394D02*
X303276Y-386172D01*
G54D13*
X300981Y-318700D02*
X300481Y-319400D01*
X299881Y-319600D01*
X298781Y-319600D01*
G54D13*
X298781Y-317800D02*
X303181Y-317800D01*
X303181Y-318900D01*
X302981Y-319400D01*
X302381Y-319600D01*
X301881Y-319600D01*
X301281Y-319400D01*
X300981Y-318900D01*
X300981Y-317800D01*
G54D13*
X298781Y-320800D02*
X303181Y-321900D01*
X298781Y-323000D01*
G54D13*
X300481Y-321200D02*
X300481Y-322600D01*
G54D13*
X298781Y-326000D02*
X298781Y-324200D01*
X299081Y-324200D01*
X299581Y-324400D01*
X301281Y-325800D01*
X301881Y-326000D01*
X302381Y-326000D01*
X302981Y-325800D01*
X303181Y-325300D01*
X303181Y-324900D01*
X302981Y-324400D01*
X302381Y-324200D01*
G54D13*
X298781Y-327200D02*
X303181Y-329000D01*
G54D13*
X298781Y-330200D02*
X303181Y-331300D01*
X298781Y-332400D01*
G54D13*
X300481Y-330600D02*
X300481Y-332000D01*
G54D13*
X298781Y-333600D02*
X303181Y-333600D01*
X298781Y-335400D01*
X303181Y-335400D01*
G54D13*
X298781Y-338400D02*
X298781Y-336600D01*
X299081Y-336600D01*
X299581Y-336800D01*
X301281Y-338200D01*
X301881Y-338400D01*
X302381Y-338400D01*
X302981Y-338200D01*
X303181Y-337700D01*
X303181Y-337300D01*
X302981Y-336800D01*
X302381Y-336600D01*
G54D13*
X298781Y-339600D02*
X303181Y-341400D01*
G54D11*
X296926Y-321025D02*
X292481Y-322136D01*
X296926Y-323247D01*
G54D11*
X292481Y-324469D02*
X294981Y-324469D01*
G54D11*
X294426Y-324469D02*
X294981Y-324914D01*
X294981Y-325358D01*
G54D11*
X292759Y-327913D02*
X292481Y-327558D01*
X292481Y-327113D01*
X292759Y-326669D01*
X293315Y-326580D01*
X294259Y-326580D01*
X294815Y-326802D01*
X294981Y-327247D01*
X294815Y-327691D01*
X294426Y-327913D01*
X293870Y-327913D01*
X293870Y-326580D01*
G54D11*
X292481Y-329580D02*
X296648Y-329580D01*
X296926Y-329802D01*
X296759Y-330024D01*
G54D11*
X294981Y-329135D02*
X294981Y-330024D01*
G54D11*
X294426Y-331246D02*
X294426Y-333024D01*
G54D11*
X292481Y-334246D02*
X296926Y-336024D01*
G54D11*
X288354Y-479064D02*
X287798Y-479731D01*
X287242Y-479953D01*
X286131Y-479953D01*
G54D11*
X286131Y-478175D02*
X290576Y-478175D01*
X290576Y-479286D01*
X290298Y-479731D01*
X289742Y-479953D01*
X289187Y-479953D01*
X288631Y-479731D01*
X288354Y-479286D01*
X288354Y-478175D01*
G54D11*
X286131Y-481175D02*
X290576Y-482286D01*
X286131Y-483397D01*
G54D11*
X287798Y-481620D02*
X287798Y-482953D01*
G54D11*
X289742Y-486397D02*
X290298Y-486175D01*
X290576Y-485730D01*
X290576Y-485286D01*
X290298Y-484841D01*
X289742Y-484619D01*
X288354Y-484619D01*
X288076Y-484619D01*
X288631Y-485286D01*
X288631Y-485730D01*
X288354Y-486175D01*
X287798Y-486397D01*
X286965Y-486397D01*
X286409Y-486175D01*
X286131Y-485730D01*
X286131Y-485286D01*
X286409Y-484841D01*
X286965Y-484619D01*
X288354Y-484619D01*
G54D11*
X292469Y-500545D02*
X296913Y-500545D01*
G54D11*
X296913Y-499656D02*
X296913Y-501434D01*
G54D11*
X295247Y-502656D02*
X296913Y-503767D01*
X292469Y-503767D01*
G54D11*
X296080Y-506767D02*
X293302Y-506767D01*
X292747Y-506545D01*
X292469Y-506100D01*
X292469Y-505656D01*
X292747Y-505212D01*
X293302Y-504989D01*
X296080Y-504989D01*
X296636Y-505212D01*
X296913Y-505656D01*
X296913Y-506100D01*
X296636Y-506545D01*
X296080Y-506767D01*
G54D11*
X293302Y-507989D02*
X292747Y-508212D01*
X292469Y-508656D01*
X292469Y-509100D01*
X292747Y-509545D01*
X293302Y-509767D01*
X293858Y-509767D01*
X294413Y-509545D01*
X294691Y-509100D01*
X294691Y-508656D01*
X294969Y-508212D01*
X295524Y-507989D01*
X296080Y-507989D01*
X296636Y-508212D01*
X296913Y-508656D01*
X296913Y-509100D01*
X296636Y-509545D01*
X296080Y-509767D01*
G54D11*
X296080Y-512767D02*
X293302Y-512767D01*
X292747Y-512545D01*
X292469Y-512100D01*
X292469Y-511656D01*
X292747Y-511212D01*
X293302Y-510989D01*
X296080Y-510989D01*
X296636Y-511212D01*
X296913Y-511656D01*
X296913Y-512100D01*
X296636Y-512545D01*
X296080Y-512767D01*
G54D11*
X292469Y-513989D02*
X296913Y-515767D01*
G54D11*
X293252Y-525159D02*
X292697Y-524937D01*
X292419Y-524492D01*
X292419Y-524048D01*
X292697Y-523604D01*
X293252Y-523381D01*
X296030Y-523381D01*
X296586Y-523604D01*
X296863Y-524048D01*
X296863Y-524492D01*
X296586Y-524937D01*
X296030Y-525159D01*
G54D11*
X293252Y-528159D02*
X292697Y-527937D01*
X292419Y-527492D01*
X292419Y-527048D01*
X292697Y-526604D01*
X293252Y-526381D01*
X296030Y-526381D01*
X296586Y-526604D01*
X296863Y-527048D01*
X296863Y-527492D01*
X296586Y-527937D01*
X296030Y-528159D01*
G54D11*
X292419Y-529381D02*
X296863Y-529381D01*
X296863Y-530492D01*
X296586Y-530937D01*
X296030Y-531159D01*
X295474Y-531159D01*
X294919Y-530937D01*
X294641Y-530492D01*
X294641Y-529381D01*
G54D11*
X292419Y-534159D02*
X292419Y-532381D01*
X292697Y-532381D01*
X293252Y-532604D01*
X294919Y-533937D01*
X295474Y-534159D01*
X296030Y-534159D01*
X296586Y-533937D01*
X296863Y-533492D01*
X296863Y-533048D01*
X296586Y-532604D01*
X296030Y-532381D01*
G54D11*
X296863Y-536048D02*
X296586Y-535604D01*
X296030Y-535381D01*
X293252Y-535381D01*
X292697Y-535604D01*
X292419Y-536048D01*
G54D11*
X295197Y-537270D02*
X296863Y-538381D01*
X292419Y-538381D01*
G54D11*
X296863Y-539603D02*
X296586Y-540048D01*
X296030Y-540270D01*
X293252Y-540270D01*
X292697Y-540048D01*
X292419Y-539603D01*
G54D11*
X292419Y-541492D02*
X296863Y-543270D01*
G54D11*
X290513Y-528938D02*
X286902Y-528938D01*
X286347Y-529160D01*
X286069Y-529604D01*
X286069Y-530049D01*
X286347Y-530493D01*
X286902Y-530715D01*
X290513Y-530715D01*
G54D11*
X289680Y-533715D02*
X286902Y-533715D01*
X286347Y-533493D01*
X286069Y-533049D01*
X286069Y-532604D01*
X286347Y-532160D01*
X286902Y-531938D01*
X289680Y-531938D01*
X290236Y-532160D01*
X290513Y-532604D01*
X290513Y-533049D01*
X290236Y-533493D01*
X289680Y-533715D01*
G54D11*
X286069Y-536493D02*
X286069Y-534938D01*
X290513Y-534938D01*
X290513Y-536493D01*
G54D11*
X288291Y-534938D02*
X288291Y-536493D01*
G54D12*
X291331Y-527812D02*
X291331Y-537388D01*
G54D11*
X339166Y-548889D02*
X338610Y-549556D01*
X338055Y-549778D01*
X336944Y-549778D01*
G54D11*
X336944Y-548000D02*
X341388Y-548000D01*
X341388Y-549111D01*
X341110Y-549556D01*
X340555Y-549778D01*
X339999Y-549778D01*
X339444Y-549556D01*
X339166Y-549111D01*
X339166Y-548000D01*
G54D11*
X337777Y-552778D02*
X337222Y-552556D01*
X336944Y-552111D01*
X336944Y-551667D01*
X337222Y-551222D01*
X337777Y-551000D01*
X340555Y-551000D01*
X341110Y-551222D01*
X341388Y-551667D01*
X341388Y-552111D01*
X341110Y-552556D01*
X340555Y-552778D01*
G54D11*
X341388Y-555778D02*
X341388Y-554000D01*
X339444Y-554000D01*
X339444Y-554222D01*
X339722Y-554667D01*
X339722Y-555111D01*
X339444Y-555556D01*
X338888Y-555778D01*
X337777Y-555778D01*
X337222Y-555556D01*
X336944Y-555111D01*
X336944Y-554667D01*
X337222Y-554222D01*
X337777Y-554000D01*
G54D11*
X336944Y-557000D02*
X341388Y-558778D01*
G54D11*
X336944Y-560000D02*
X341388Y-560000D01*
X341388Y-561111D01*
X341110Y-561556D01*
X340555Y-561778D01*
X337777Y-561778D01*
X337222Y-561556D01*
X336944Y-561111D01*
X336944Y-560000D01*
G54D11*
X338888Y-563000D02*
X338888Y-564778D01*
G54D11*
X339999Y-563889D02*
X337777Y-563889D01*
G54D11*
X336944Y-566000D02*
X341388Y-567778D01*
G54D11*
X334988Y-554400D02*
X330544Y-555511D01*
X334988Y-556622D01*
G54D11*
X330544Y-557844D02*
X334988Y-557844D01*
X334988Y-558955D01*
X334710Y-559400D01*
X334155Y-559622D01*
X333599Y-559622D01*
X333044Y-559400D01*
X332766Y-558955D01*
X332766Y-557844D01*
G54D11*
X330494Y-419425D02*
X330494Y-421203D01*
G54D11*
X330494Y-420314D02*
X334938Y-420314D01*
G54D11*
X334938Y-419425D02*
X334938Y-421203D01*
G54D11*
X330494Y-422425D02*
X334938Y-422425D01*
X330494Y-424203D01*
X334938Y-424203D01*
G54D11*
X330494Y-426314D02*
X334938Y-426314D01*
G54D11*
X334938Y-425425D02*
X334938Y-427203D01*
G54D11*
X334105Y-430203D02*
X331327Y-430203D01*
X330772Y-429980D01*
X330494Y-429536D01*
X330494Y-429092D01*
X330772Y-428647D01*
X331327Y-428425D01*
X334105Y-428425D01*
X334660Y-428647D01*
X334938Y-429092D01*
X334938Y-429536D01*
X334660Y-429980D01*
X334105Y-430203D01*
G54D11*
X330494Y-431425D02*
X334938Y-433203D01*
G54D11*
X330494Y-434425D02*
X334938Y-434425D01*
X334938Y-435980D01*
G54D11*
X332716Y-434425D02*
X332716Y-435980D01*
G54D11*
X334938Y-437203D02*
X330494Y-437203D01*
X330494Y-438758D01*
G54D11*
X330494Y-440870D02*
X334938Y-440870D01*
G54D11*
X334938Y-439981D02*
X334938Y-441759D01*
G54D11*
X334105Y-444759D02*
X331327Y-444759D01*
X330772Y-444536D01*
X330494Y-444092D01*
X330494Y-443648D01*
X330772Y-443203D01*
X331327Y-442981D01*
X334105Y-442981D01*
X334660Y-443203D01*
X334938Y-443648D01*
X334938Y-444092D01*
X334660Y-444536D01*
X334105Y-444759D01*
G54D11*
X330494Y-445981D02*
X334938Y-447759D01*
G54D11*
X324977Y-422600D02*
X324422Y-422822D01*
X324144Y-423267D01*
X324144Y-423711D01*
X324422Y-424156D01*
X324977Y-424378D01*
X325533Y-424378D01*
X326088Y-424156D01*
X326366Y-423711D01*
X326366Y-423267D01*
X326644Y-422822D01*
X327199Y-422600D01*
X327755Y-422600D01*
X328310Y-422822D01*
X328588Y-423267D01*
X328588Y-423711D01*
X328310Y-424156D01*
X327755Y-424378D01*
G54D11*
X324144Y-425600D02*
X328588Y-425600D01*
X328588Y-426711D01*
X328310Y-427156D01*
X327755Y-427378D01*
X324977Y-427378D01*
X324422Y-427156D01*
X324144Y-426711D01*
X324144Y-425600D01*
G54D11*
X324144Y-428600D02*
X324144Y-430378D01*
G54D11*
X324144Y-429489D02*
X328588Y-429489D01*
G54D11*
X328588Y-428600D02*
X328588Y-430378D01*
G54D11*
X324144Y-431600D02*
X328588Y-433378D01*
G54D11*
X324977Y-434600D02*
X324422Y-434822D01*
X324144Y-435267D01*
X324144Y-435711D01*
X324422Y-436156D01*
X324977Y-436378D01*
X325533Y-436378D01*
X326088Y-436156D01*
X326366Y-435711D01*
X326366Y-435267D01*
X326644Y-434822D01*
X327199Y-434600D01*
X327755Y-434600D01*
X328310Y-434822D01*
X328588Y-435267D01*
X328588Y-435711D01*
X328310Y-436156D01*
X327755Y-436378D01*
G54D11*
X324144Y-437600D02*
X328588Y-437600D01*
X328588Y-438711D01*
X328310Y-439156D01*
X327755Y-439378D01*
X324977Y-439378D01*
X324422Y-439156D01*
X324144Y-438711D01*
X324144Y-437600D01*
G54D11*
X324144Y-440600D02*
X328588Y-441711D01*
X324144Y-442822D01*
G54D11*
X325810Y-441044D02*
X325810Y-442378D01*
G54D11*
X339066Y-394914D02*
X338510Y-395580D01*
X337955Y-395803D01*
X336844Y-395803D01*
G54D11*
X336844Y-394025D02*
X341288Y-394025D01*
X341288Y-395136D01*
X341010Y-395580D01*
X340455Y-395803D01*
X339899Y-395803D01*
X339344Y-395580D01*
X339066Y-395136D01*
X339066Y-394025D01*
G54D11*
X336844Y-397025D02*
X341288Y-397025D01*
X341288Y-398136D01*
X341010Y-398580D01*
X340455Y-398803D01*
X339899Y-398803D01*
X339344Y-398580D01*
X339066Y-398136D01*
X338788Y-398580D01*
X338233Y-398803D01*
X337677Y-398803D01*
X337122Y-398580D01*
X336844Y-398136D01*
X336844Y-397025D01*
G54D11*
X339066Y-397025D02*
X339066Y-398136D01*
G54D11*
X339622Y-400025D02*
X341288Y-401136D01*
X336844Y-401136D01*
G54D11*
X336844Y-402358D02*
X341288Y-404136D01*
G54D11*
X336844Y-405358D02*
X341288Y-406469D01*
X336844Y-407580D01*
G54D11*
X338510Y-405802D02*
X338510Y-407136D01*
G54D11*
X336844Y-408802D02*
X341288Y-408802D01*
X336844Y-410580D01*
X341288Y-410580D01*
G54D11*
X339066Y-412913D02*
X339066Y-412469D01*
X339344Y-412024D01*
X339899Y-411802D01*
X340455Y-411802D01*
X341010Y-412024D01*
X341288Y-412469D01*
X341288Y-412913D01*
X341010Y-413358D01*
X340455Y-413580D01*
X339899Y-413580D01*
X339344Y-413358D01*
X339066Y-412913D01*
X338788Y-413358D01*
X338233Y-413580D01*
X337677Y-413580D01*
X337122Y-413358D01*
X336844Y-412913D01*
X336844Y-412469D01*
X337122Y-412024D01*
X337677Y-411802D01*
X338233Y-411802D01*
X338788Y-412024D01*
X339066Y-412469D01*
G54D11*
X336844Y-414802D02*
X341288Y-416580D01*
G54D11*
X330494Y-390850D02*
X330494Y-392628D01*
G54D11*
X330494Y-391739D02*
X334938Y-391739D01*
G54D11*
X334938Y-390850D02*
X334938Y-392628D01*
G54D11*
X330494Y-393850D02*
X334938Y-393850D01*
X330494Y-395628D01*
X334938Y-395628D01*
G54D11*
X330494Y-397739D02*
X334938Y-397739D01*
G54D11*
X334938Y-396850D02*
X334938Y-398628D01*
G54D11*
X333272Y-399850D02*
X334938Y-400961D01*
X330494Y-400961D01*
G54D11*
X330494Y-402183D02*
X334938Y-403961D01*
G54D11*
X331327Y-405183D02*
X330772Y-405405D01*
X330494Y-405850D01*
X330494Y-406294D01*
X330772Y-406738D01*
X331327Y-406961D01*
X331883Y-406961D01*
X332438Y-406738D01*
X332716Y-406294D01*
X332716Y-405850D01*
X332994Y-405405D01*
X333549Y-405183D01*
X334105Y-405183D01*
X334660Y-405405D01*
X334938Y-405850D01*
X334938Y-406294D01*
X334660Y-406738D01*
X334105Y-406961D01*
G54D11*
X331327Y-409961D02*
X330772Y-409738D01*
X330494Y-409294D01*
X330494Y-408850D01*
X330772Y-408405D01*
X331327Y-408183D01*
X334105Y-408183D01*
X334660Y-408405D01*
X334938Y-408850D01*
X334938Y-409294D01*
X334660Y-409738D01*
X334105Y-409961D01*
G54D11*
X330494Y-411183D02*
X334938Y-411183D01*
G54D11*
X331883Y-411183D02*
X334938Y-412961D01*
G54D11*
X332716Y-411850D02*
X330494Y-412961D01*
G54D11*
X330494Y-414183D02*
X334938Y-415961D01*
G54D11*
X324977Y-400375D02*
X324422Y-400597D01*
X324144Y-401042D01*
X324144Y-401486D01*
X324422Y-401930D01*
X324977Y-402153D01*
X325533Y-402153D01*
X326088Y-401930D01*
X326366Y-401486D01*
X326366Y-401042D01*
X326644Y-400597D01*
X327199Y-400375D01*
X327755Y-400375D01*
X328310Y-400597D01*
X328588Y-401042D01*
X328588Y-401486D01*
X328310Y-401930D01*
X327755Y-402153D01*
G54D11*
X324977Y-405153D02*
X324422Y-404930D01*
X324144Y-404486D01*
X324144Y-404042D01*
X324422Y-403597D01*
X324977Y-403375D01*
X327755Y-403375D01*
X328310Y-403597D01*
X328588Y-404042D01*
X328588Y-404486D01*
X328310Y-404930D01*
X327755Y-405153D01*
G54D11*
X328588Y-406375D02*
X324144Y-406375D01*
X324144Y-407930D01*
G54D11*
X339066Y-372689D02*
X338510Y-373356D01*
X337955Y-373578D01*
X336844Y-373578D01*
G54D11*
X336844Y-371800D02*
X341288Y-371800D01*
X341288Y-372911D01*
X341010Y-373356D01*
X340455Y-373578D01*
X339899Y-373578D01*
X339344Y-373356D01*
X339066Y-372911D01*
X339066Y-371800D01*
G54D11*
X336844Y-374800D02*
X341288Y-374800D01*
X341288Y-375911D01*
X341010Y-376356D01*
X340455Y-376578D01*
X339899Y-376578D01*
X339344Y-376356D01*
X339066Y-375911D01*
X338788Y-376356D01*
X338233Y-376578D01*
X337677Y-376578D01*
X337122Y-376356D01*
X336844Y-375911D01*
X336844Y-374800D01*
G54D11*
X339066Y-374800D02*
X339066Y-375911D01*
G54D11*
X336844Y-379578D02*
X336844Y-377800D01*
X337122Y-377800D01*
X337677Y-378022D01*
X339344Y-379356D01*
X339899Y-379578D01*
X340455Y-379578D01*
X341010Y-379356D01*
X341288Y-378911D01*
X341288Y-378467D01*
X341010Y-378022D01*
X340455Y-377800D01*
G54D11*
X336844Y-380800D02*
X341288Y-382578D01*
G54D11*
X330494Y-371800D02*
X334938Y-372911D01*
X330494Y-374022D01*
G54D11*
X332160Y-372244D02*
X332160Y-373578D01*
G54D11*
X330494Y-375244D02*
X334938Y-375244D01*
X330494Y-377022D01*
X334938Y-377022D01*
G54D11*
X332716Y-379355D02*
X332716Y-378911D01*
X332994Y-378466D01*
X333549Y-378244D01*
X334105Y-378244D01*
X334660Y-378466D01*
X334938Y-378911D01*
X334938Y-379355D01*
X334660Y-379800D01*
X334105Y-380022D01*
X333549Y-380022D01*
X332994Y-379800D01*
X332716Y-379355D01*
X332438Y-379800D01*
X331883Y-380022D01*
X331327Y-380022D01*
X330772Y-379800D01*
X330494Y-379355D01*
X330494Y-378911D01*
X330772Y-378466D01*
X331327Y-378244D01*
X331883Y-378244D01*
X332438Y-378466D01*
X332716Y-378911D01*
G54D11*
X330494Y-381244D02*
X334938Y-383022D01*
G54D11*
X324144Y-365450D02*
X324144Y-367228D01*
G54D11*
X324144Y-366339D02*
X328588Y-366339D01*
G54D11*
X328588Y-365450D02*
X328588Y-367228D01*
G54D11*
X324144Y-368450D02*
X328588Y-368450D01*
X324144Y-370228D01*
X328588Y-370228D01*
G54D11*
X324144Y-372339D02*
X328588Y-372339D01*
G54D11*
X328588Y-371450D02*
X328588Y-373228D01*
G54D11*
X324144Y-376228D02*
X324144Y-374450D01*
X324422Y-374450D01*
X324977Y-374672D01*
X326644Y-376006D01*
X327199Y-376228D01*
X327755Y-376228D01*
X328310Y-376006D01*
X328588Y-375561D01*
X328588Y-375117D01*
X328310Y-374672D01*
X327755Y-374450D01*
G54D11*
X324144Y-377450D02*
X328588Y-379228D01*
G54D11*
X328588Y-380450D02*
X324144Y-381561D01*
X328588Y-382672D01*
G54D11*
X324144Y-383894D02*
X328588Y-383894D01*
X325810Y-385005D01*
X328588Y-386116D01*
X324144Y-386116D01*
G54D11*
X327755Y-389116D02*
X324977Y-389116D01*
X324422Y-388894D01*
X324144Y-388449D01*
X324144Y-388005D01*
X324422Y-387560D01*
X324977Y-387338D01*
X327755Y-387338D01*
X328310Y-387560D01*
X328588Y-388005D01*
X328588Y-388449D01*
X328310Y-388894D01*
X327755Y-389116D01*
G54D11*
X339066Y-344114D02*
X338510Y-344780D01*
X337955Y-345003D01*
X336844Y-345003D01*
G54D11*
X336844Y-343225D02*
X341288Y-343225D01*
X341288Y-344336D01*
X341010Y-344780D01*
X340455Y-345003D01*
X339899Y-345003D01*
X339344Y-344780D01*
X339066Y-344336D01*
X339066Y-343225D01*
G54D11*
X336844Y-346225D02*
X341288Y-346225D01*
X341288Y-347336D01*
X341010Y-347780D01*
X340455Y-348003D01*
X339899Y-348003D01*
X339344Y-347780D01*
X339066Y-347336D01*
X338788Y-347780D01*
X338233Y-348003D01*
X337677Y-348003D01*
X337122Y-347780D01*
X336844Y-347336D01*
X336844Y-346225D01*
G54D11*
X339066Y-346225D02*
X339066Y-347336D01*
G54D11*
X340455Y-349225D02*
X341010Y-349447D01*
X341288Y-349892D01*
X341288Y-350336D01*
X341010Y-350780D01*
X340455Y-351003D01*
X339899Y-351003D01*
X339344Y-350780D01*
X339066Y-350336D01*
X338788Y-350780D01*
X338233Y-351003D01*
X337677Y-351003D01*
X337122Y-350780D01*
X336844Y-350336D01*
X336844Y-349892D01*
X337122Y-349447D01*
X337677Y-349225D01*
G54D11*
X336844Y-352225D02*
X341288Y-354003D01*
G54D11*
X336844Y-355225D02*
X341288Y-356336D01*
X336844Y-357447D01*
G54D11*
X338510Y-355670D02*
X338510Y-357003D01*
G54D11*
X336844Y-358669D02*
X341288Y-358669D01*
X336844Y-360447D01*
X341288Y-360447D01*
G54D11*
X337677Y-361669D02*
X337122Y-361891D01*
X336844Y-362336D01*
X336844Y-362780D01*
X337122Y-363224D01*
X337677Y-363447D01*
X339066Y-363447D01*
X339344Y-363447D01*
X338788Y-362780D01*
X338788Y-362336D01*
X339066Y-361891D01*
X339622Y-361669D01*
X340455Y-361669D01*
X341010Y-361891D01*
X341288Y-362336D01*
X341288Y-362780D01*
X341010Y-363224D01*
X340455Y-363447D01*
X339066Y-363447D01*
G54D11*
X336844Y-364669D02*
X341288Y-366447D01*
G54D11*
X331327Y-345003D02*
X330772Y-344780D01*
X330494Y-344336D01*
X330494Y-343892D01*
X330772Y-343447D01*
X331327Y-343225D01*
X334105Y-343225D01*
X334660Y-343447D01*
X334938Y-343892D01*
X334938Y-344336D01*
X334660Y-344780D01*
X334105Y-345003D01*
G54D11*
X331327Y-348003D02*
X330772Y-347780D01*
X330494Y-347336D01*
X330494Y-346892D01*
X330772Y-346447D01*
X331327Y-346225D01*
X334105Y-346225D01*
X334660Y-346447D01*
X334938Y-346892D01*
X334938Y-347336D01*
X334660Y-347780D01*
X334105Y-348003D01*
G54D11*
X330494Y-349225D02*
X334938Y-349225D01*
X334938Y-350336D01*
X334660Y-350780D01*
X334105Y-351003D01*
X333549Y-351003D01*
X332994Y-350780D01*
X332716Y-350336D01*
X332716Y-349225D01*
G54D11*
X330494Y-354003D02*
X330494Y-352225D01*
X330772Y-352225D01*
X331327Y-352447D01*
X332994Y-353780D01*
X333549Y-354003D01*
X334105Y-354003D01*
X334660Y-353780D01*
X334938Y-353336D01*
X334938Y-352892D01*
X334660Y-352447D01*
X334105Y-352225D01*
G54D11*
X334938Y-355892D02*
X334660Y-355447D01*
X334105Y-355225D01*
X331327Y-355225D01*
X330772Y-355447D01*
X330494Y-355892D01*
G54D11*
X333272Y-357114D02*
X334938Y-358225D01*
X330494Y-358225D01*
G54D11*
X334938Y-359447D02*
X334660Y-359892D01*
X334105Y-360114D01*
X331327Y-360114D01*
X330772Y-359892D01*
X330494Y-359447D01*
G54D11*
X330494Y-361336D02*
X334938Y-363114D01*
G54D11*
X328588Y-349575D02*
X324144Y-350686D01*
X328588Y-351797D01*
G54D11*
X324144Y-353019D02*
X328588Y-353019D01*
X328588Y-354130D01*
X328310Y-354574D01*
X327755Y-354797D01*
X327199Y-354797D01*
X326644Y-354574D01*
X326366Y-354130D01*
X326366Y-353019D01*
G54D11*
X327755Y-357797D02*
X324977Y-357797D01*
X324422Y-357574D01*
X324144Y-357130D01*
X324144Y-356686D01*
X324422Y-356241D01*
X324977Y-356019D01*
X327755Y-356019D01*
X328310Y-356241D01*
X328588Y-356686D01*
X328588Y-357130D01*
X328310Y-357574D01*
X327755Y-357797D01*
G54D11*
X339066Y-325064D02*
X338510Y-325730D01*
X337955Y-325953D01*
X336844Y-325953D01*
G54D11*
X336844Y-324175D02*
X341288Y-324175D01*
X341288Y-325286D01*
X341010Y-325730D01*
X340455Y-325953D01*
X339899Y-325953D01*
X339344Y-325730D01*
X339066Y-325286D01*
X339066Y-324175D01*
G54D11*
X336844Y-327175D02*
X341288Y-327175D01*
X341288Y-328286D01*
X341010Y-328730D01*
X340455Y-328953D01*
X339899Y-328953D01*
X339344Y-328730D01*
X339066Y-328286D01*
X338788Y-328730D01*
X338233Y-328953D01*
X337677Y-328953D01*
X337122Y-328730D01*
X336844Y-328286D01*
X336844Y-327175D01*
G54D11*
X339066Y-327175D02*
X339066Y-328286D01*
G54D11*
X336844Y-331508D02*
X341288Y-331508D01*
X338510Y-330175D01*
X337955Y-330175D01*
X337955Y-331953D01*
G54D11*
X336844Y-333175D02*
X341288Y-334953D01*
G54D11*
X330494Y-314650D02*
X334938Y-315761D01*
X330494Y-316872D01*
G54D11*
X332160Y-315094D02*
X332160Y-316428D01*
G54D11*
X330494Y-318094D02*
X334938Y-318094D01*
X330494Y-319872D01*
X334938Y-319872D01*
G54D11*
X333272Y-321094D02*
X334938Y-322205D01*
X330494Y-322205D01*
G54D11*
X333272Y-323427D02*
X334938Y-324538D01*
X330494Y-324538D01*
G54D11*
X330494Y-325760D02*
X334938Y-327538D01*
G54D11*
X330494Y-328760D02*
X334938Y-328760D01*
G54D11*
X331883Y-328760D02*
X334938Y-330538D01*
G54D11*
X332716Y-329427D02*
X330494Y-330538D01*
G54D11*
X330494Y-331760D02*
X334938Y-331760D01*
X334938Y-332871D01*
X334660Y-333316D01*
X334105Y-333538D01*
X333549Y-333538D01*
X332994Y-333316D01*
X332716Y-332871D01*
X332438Y-333316D01*
X331883Y-333538D01*
X331327Y-333538D01*
X330772Y-333316D01*
X330494Y-332871D01*
X330494Y-331760D01*
G54D11*
X332716Y-331760D02*
X332716Y-332871D01*
G54D11*
X330494Y-334760D02*
X330494Y-336538D01*
G54D11*
X330494Y-335649D02*
X334938Y-335649D01*
G54D11*
X334938Y-334760D02*
X334938Y-336538D01*
G54D11*
X334105Y-339538D02*
X331327Y-339538D01*
X330772Y-339316D01*
X330494Y-338871D01*
X330494Y-338427D01*
X330772Y-337982D01*
X331327Y-337760D01*
X334105Y-337760D01*
X334660Y-337982D01*
X334938Y-338427D01*
X334938Y-338871D01*
X334660Y-339316D01*
X334105Y-339538D01*
G54D11*
X339066Y-293314D02*
X338510Y-293980D01*
X337955Y-294203D01*
X336844Y-294203D01*
G54D11*
X336844Y-292425D02*
X341288Y-292425D01*
X341288Y-293536D01*
X341010Y-293980D01*
X340455Y-294203D01*
X339899Y-294203D01*
X339344Y-293980D01*
X339066Y-293536D01*
X339066Y-292425D01*
G54D11*
X336844Y-295425D02*
X341288Y-295425D01*
X341288Y-296536D01*
X341010Y-296980D01*
X340455Y-297203D01*
X339899Y-297203D01*
X339344Y-296980D01*
X339066Y-296536D01*
X338788Y-296980D01*
X338233Y-297203D01*
X337677Y-297203D01*
X337122Y-296980D01*
X336844Y-296536D01*
X336844Y-295425D01*
G54D11*
X339066Y-295425D02*
X339066Y-296536D01*
G54D11*
X341288Y-300203D02*
X341288Y-298425D01*
X339344Y-298425D01*
X339344Y-298647D01*
X339622Y-299092D01*
X339622Y-299536D01*
X339344Y-299980D01*
X338788Y-300203D01*
X337677Y-300203D01*
X337122Y-299980D01*
X336844Y-299536D01*
X336844Y-299092D01*
X337122Y-298647D01*
X337677Y-298425D01*
G54D11*
X336844Y-301425D02*
X341288Y-303203D01*
G54D11*
X336844Y-304425D02*
X341288Y-304425D01*
G54D11*
X338233Y-304425D02*
X341288Y-306203D01*
G54D11*
X339066Y-305092D02*
X336844Y-306203D01*
G54D11*
X336844Y-307425D02*
X341288Y-307425D01*
X341288Y-308536D01*
X341010Y-308980D01*
X340455Y-309203D01*
X339899Y-309203D01*
X339344Y-308980D01*
X339066Y-308536D01*
X338788Y-308980D01*
X338233Y-309203D01*
X337677Y-309203D01*
X337122Y-308980D01*
X336844Y-308536D01*
X336844Y-307425D01*
G54D11*
X339066Y-307425D02*
X339066Y-308536D01*
G54D11*
X336844Y-310425D02*
X336844Y-312203D01*
G54D11*
X336844Y-311314D02*
X341288Y-311314D01*
G54D11*
X341288Y-310425D02*
X341288Y-312203D01*
G54D11*
X339622Y-313425D02*
X341288Y-314536D01*
X336844Y-314536D01*
G54D11*
X336844Y-315758D02*
X341288Y-317536D01*
G54D11*
X330494Y-298775D02*
X334938Y-298775D01*
X334938Y-299886D01*
X334660Y-300330D01*
X334105Y-300553D01*
X333549Y-300553D01*
X332994Y-300330D01*
X332716Y-299886D01*
X332716Y-298775D01*
G54D11*
X332716Y-302664D02*
X332716Y-303553D01*
X331327Y-303553D01*
X330772Y-303330D01*
X330494Y-302886D01*
X330494Y-302442D01*
X330772Y-301997D01*
X331327Y-301775D01*
X334105Y-301775D01*
X334660Y-301997D01*
X334938Y-302442D01*
X334938Y-302886D01*
X334660Y-303330D01*
X334105Y-303553D01*
G54D11*
X330494Y-304775D02*
X334938Y-304775D01*
X332160Y-305886D01*
X334938Y-306997D01*
X330494Y-306997D01*
G54D11*
X339066Y-274264D02*
X338510Y-274930D01*
X337955Y-275153D01*
X336844Y-275153D01*
G54D11*
X336844Y-273375D02*
X341288Y-273375D01*
X341288Y-274486D01*
X341010Y-274930D01*
X340455Y-275153D01*
X339899Y-275153D01*
X339344Y-274930D01*
X339066Y-274486D01*
X339066Y-273375D01*
G54D11*
X336844Y-276375D02*
X341288Y-276375D01*
X341288Y-277486D01*
X341010Y-277930D01*
X340455Y-278153D01*
X339899Y-278153D01*
X339344Y-277930D01*
X339066Y-277486D01*
X338788Y-277930D01*
X338233Y-278153D01*
X337677Y-278153D01*
X337122Y-277930D01*
X336844Y-277486D01*
X336844Y-276375D01*
G54D11*
X339066Y-276375D02*
X339066Y-277486D01*
G54D11*
X340455Y-281153D02*
X341010Y-280930D01*
X341288Y-280486D01*
X341288Y-280042D01*
X341010Y-279597D01*
X340455Y-279375D01*
X339066Y-279375D01*
X338788Y-279375D01*
X339344Y-280042D01*
X339344Y-280486D01*
X339066Y-280930D01*
X338510Y-281153D01*
X337677Y-281153D01*
X337122Y-280930D01*
X336844Y-280486D01*
X336844Y-280042D01*
X337122Y-279597D01*
X337677Y-279375D01*
X339066Y-279375D01*
G54D11*
X336844Y-282375D02*
X341288Y-284153D01*
G54D11*
X330494Y-267025D02*
X334938Y-267025D01*
G54D11*
X331883Y-267025D02*
X334938Y-268803D01*
G54D11*
X332716Y-267692D02*
X330494Y-268803D01*
G54D11*
X330494Y-270025D02*
X334938Y-270025D01*
X334938Y-271136D01*
X334660Y-271580D01*
X334105Y-271803D01*
X333549Y-271803D01*
X332994Y-271580D01*
X332716Y-271136D01*
X332438Y-271580D01*
X331883Y-271803D01*
X331327Y-271803D01*
X330772Y-271580D01*
X330494Y-271136D01*
X330494Y-270025D01*
G54D11*
X332716Y-270025D02*
X332716Y-271136D01*
G54D11*
X330494Y-273025D02*
X330494Y-274803D01*
G54D11*
X330494Y-273914D02*
X334938Y-273914D01*
G54D11*
X334938Y-273025D02*
X334938Y-274803D01*
G54D11*
X330494Y-277803D02*
X330494Y-276025D01*
X330772Y-276025D01*
X331327Y-276247D01*
X332994Y-277580D01*
X333549Y-277803D01*
X334105Y-277803D01*
X334660Y-277580D01*
X334938Y-277136D01*
X334938Y-276692D01*
X334660Y-276247D01*
X334105Y-276025D01*
G54D11*
X330494Y-279025D02*
X334938Y-280803D01*
G54D11*
X330494Y-282025D02*
X334938Y-282025D01*
X334938Y-283136D01*
X334660Y-283580D01*
X334105Y-283803D01*
X333549Y-283803D01*
X332994Y-283580D01*
X332716Y-283136D01*
X332716Y-282025D01*
G54D11*
X332716Y-285914D02*
X332716Y-286803D01*
X331327Y-286803D01*
X330772Y-286580D01*
X330494Y-286136D01*
X330494Y-285692D01*
X330772Y-285247D01*
X331327Y-285025D01*
X334105Y-285025D01*
X334660Y-285247D01*
X334938Y-285692D01*
X334938Y-286136D01*
X334660Y-286580D01*
X334105Y-286803D01*
G54D11*
X331327Y-289803D02*
X330772Y-289580D01*
X330494Y-289136D01*
X330494Y-288692D01*
X330772Y-288247D01*
X331327Y-288025D01*
X334105Y-288025D01*
X334660Y-288247D01*
X334938Y-288692D01*
X334938Y-289136D01*
X334660Y-289580D01*
X334105Y-289803D01*
G54D11*
X339066Y-244101D02*
X338510Y-244768D01*
X337955Y-244990D01*
X336844Y-244990D01*
G54D11*
X336844Y-243212D02*
X341288Y-243212D01*
X341288Y-244324D01*
X341010Y-244768D01*
X340455Y-244990D01*
X339899Y-244990D01*
X339344Y-244768D01*
X339066Y-244324D01*
X339066Y-243212D01*
G54D11*
X336844Y-246212D02*
X341288Y-246212D01*
X341288Y-247324D01*
X341010Y-247768D01*
X340455Y-247990D01*
X339899Y-247990D01*
X339344Y-247768D01*
X339066Y-247324D01*
X338788Y-247768D01*
X338233Y-247990D01*
X337677Y-247990D01*
X337122Y-247768D01*
X336844Y-247324D01*
X336844Y-246212D01*
G54D11*
X339066Y-246212D02*
X339066Y-247324D01*
G54D11*
X341288Y-249212D02*
X341288Y-250990D01*
X340733Y-250768D01*
X339899Y-250324D01*
X338788Y-249879D01*
X337955Y-249657D01*
X336844Y-249657D01*
G54D11*
X336844Y-252212D02*
X341288Y-253990D01*
G54D11*
X336844Y-255212D02*
X341288Y-255212D01*
G54D11*
X338233Y-255212D02*
X341288Y-256990D01*
G54D11*
X339066Y-255879D02*
X336844Y-256990D01*
G54D11*
X336844Y-258212D02*
X341288Y-258212D01*
X341288Y-259324D01*
X341010Y-259768D01*
X340455Y-259990D01*
X339899Y-259990D01*
X339344Y-259768D01*
X339066Y-259324D01*
X338788Y-259768D01*
X338233Y-259990D01*
X337677Y-259990D01*
X337122Y-259768D01*
X336844Y-259324D01*
X336844Y-258212D01*
G54D11*
X339066Y-258212D02*
X339066Y-259324D01*
G54D11*
X336844Y-261212D02*
X336844Y-262990D01*
G54D11*
X336844Y-262101D02*
X341288Y-262101D01*
G54D11*
X341288Y-261212D02*
X341288Y-262990D01*
G54D11*
X340455Y-264212D02*
X341010Y-264435D01*
X341288Y-264879D01*
X341288Y-265324D01*
X341010Y-265768D01*
X340455Y-265990D01*
X339899Y-265990D01*
X339344Y-265768D01*
X339066Y-265324D01*
X338788Y-265768D01*
X338233Y-265990D01*
X337677Y-265990D01*
X337122Y-265768D01*
X336844Y-265324D01*
X336844Y-264879D01*
X337122Y-264435D01*
X337677Y-264212D01*
G54D11*
X336844Y-267212D02*
X341288Y-268990D01*
G54D11*
X330494Y-251150D02*
X334938Y-251150D01*
X334938Y-252261D01*
X334660Y-252706D01*
X334105Y-252928D01*
X333549Y-252928D01*
X332994Y-252706D01*
X332716Y-252261D01*
X332716Y-251150D01*
G54D11*
X332716Y-255039D02*
X332716Y-255928D01*
X331327Y-255928D01*
X330772Y-255706D01*
X330494Y-255261D01*
X330494Y-254817D01*
X330772Y-254372D01*
X331327Y-254150D01*
X334105Y-254150D01*
X334660Y-254372D01*
X334938Y-254817D01*
X334938Y-255261D01*
X334660Y-255706D01*
X334105Y-255928D01*
G54D11*
X330494Y-257150D02*
X334938Y-257150D01*
X334938Y-258261D01*
X334660Y-258706D01*
X334105Y-258928D01*
X331327Y-258928D01*
X330772Y-258706D01*
X330494Y-258261D01*
X330494Y-257150D01*
G54D12*
G75*
G01X259631Y-435300D02*
G03X215631Y-435300I-22000J0D01*
G01*
G54D12*
G75*
G01X215631Y-501400D02*
G03X259631Y-501400I22000J0D01*
G01*
G54D12*
X215731Y-435700D02*
X215731Y-501500D01*
G54D12*
X259531Y-435400D02*
X259531Y-501400D01*
G54D12*
X227331Y-463700D02*
X247331Y-463700D01*
G54D12*
X227331Y-473700D02*
X247331Y-473700D01*
G54D12*
X229831Y-466200D02*
X229831Y-471200D01*
X244831Y-471200D01*
X244831Y-466200D01*
X229831Y-466200D01*
G54D12*
X237331Y-443700D02*
X237331Y-463700D01*
G54D12*
X237331Y-473700D02*
X237331Y-493700D01*
G54D15*
X207370Y-482611D02*
X207370Y-487944D01*
X206814Y-487944D01*
X205703Y-487277D01*
X202370Y-483277D01*
X201259Y-482611D01*
X200148Y-482611D01*
X199036Y-483277D01*
X198481Y-484611D01*
X198481Y-485944D01*
X199036Y-487277D01*
X200148Y-487944D01*
G54D15*
X200148Y-474834D02*
X205703Y-474834D01*
X206814Y-475500D01*
X207370Y-476834D01*
X207370Y-478167D01*
X206814Y-479500D01*
X205703Y-480167D01*
X200148Y-480167D01*
X199036Y-479500D01*
X198481Y-478167D01*
X198481Y-476834D01*
X199036Y-475500D01*
X200148Y-474834D01*
G54D15*
X207370Y-469813D02*
X198481Y-469813D01*
X204036Y-466480D01*
X198481Y-463146D01*
X207370Y-463146D01*
G54D15*
X207370Y-460702D02*
X198481Y-460702D01*
X198481Y-455369D01*
X199592Y-455369D01*
G54D15*
X202370Y-452925D02*
X207370Y-452925D01*
X207370Y-448258D01*
X207925Y-448258D01*
G54D15*
X202370Y-448925D02*
X207370Y-448925D01*
G54D12*
G75*
G01X510297Y-241714D02*
G03X542415Y-241714I16059J-17836D01*
G01*
G54D12*
X510356Y-241750D02*
X542356Y-241750D01*
G54D15*
X507954Y-225579D02*
X511288Y-234468D01*
X514621Y-225579D01*
G54D15*
X519732Y-234468D02*
X519732Y-225579D01*
G54D15*
X517065Y-225579D02*
X522399Y-225579D01*
G54D15*
X524842Y-234468D02*
X531509Y-234468D01*
G54D15*
X533953Y-225579D02*
X533953Y-234468D01*
X538620Y-234468D01*
G54D15*
X546398Y-227245D02*
X546398Y-232801D01*
X545731Y-233912D01*
X544398Y-234468D01*
X543064Y-234468D01*
X541731Y-233912D01*
X541064Y-232801D01*
X541064Y-227245D01*
X541731Y-226134D01*
X543064Y-225579D01*
X544398Y-225579D01*
X545731Y-226134D01*
X546398Y-227245D01*
G54D12*
G75*
G01X510297Y-292514D02*
G03X542415Y-292514I16059J-17836D01*
G01*
G54D12*
X510356Y-292550D02*
X542356Y-292550D01*
G54D15*
X508254Y-276379D02*
X511587Y-285268D01*
X514920Y-276379D01*
G54D15*
X520031Y-285268D02*
X520031Y-276379D01*
G54D15*
X517365Y-276379D02*
X522698Y-276379D01*
G54D15*
X525142Y-285268D02*
X531808Y-285268D01*
G54D15*
X534253Y-276379D02*
X534253Y-285268D01*
X538919Y-285268D01*
G54D15*
X541364Y-279712D02*
X544697Y-276379D01*
X544697Y-285268D01*
G54D12*
G75*
G01X510297Y-340140D02*
G03X542415Y-340140I16059J-17835D01*
G01*
G54D12*
X510356Y-340175D02*
X542356Y-340175D01*
G54D15*
X507954Y-324004D02*
X511288Y-332892D01*
X514621Y-324004D01*
G54D15*
X519732Y-332892D02*
X519732Y-324004D01*
G54D15*
X517065Y-324004D02*
X522399Y-324004D01*
G54D15*
X524842Y-332892D02*
X531509Y-332892D01*
G54D15*
X533953Y-324004D02*
X533953Y-332892D01*
X538620Y-332892D01*
G54D15*
X546398Y-332892D02*
X541064Y-332892D01*
X541064Y-332337D01*
X541731Y-331226D01*
X545731Y-327892D01*
X546398Y-326781D01*
X546398Y-325670D01*
X545731Y-324559D01*
X544398Y-324004D01*
X543064Y-324004D01*
X541731Y-324559D01*
X541064Y-325670D01*
G54D12*
G75*
G01X510297Y-390940D02*
G03X542415Y-390940I16059J-17835D01*
G01*
G54D12*
X510356Y-390975D02*
X542356Y-390975D01*
G54D15*
X508254Y-374804D02*
X511587Y-383692D01*
X514920Y-374804D01*
G54D15*
X520031Y-383692D02*
X520031Y-374804D01*
G54D15*
X517365Y-374804D02*
X522698Y-374804D01*
G54D15*
X525142Y-383692D02*
X531808Y-383692D01*
G54D15*
X534253Y-374804D02*
X534253Y-383692D01*
X538919Y-383692D01*
G54D15*
X541364Y-376470D02*
X542030Y-375359D01*
X543364Y-374804D01*
X544697Y-374804D01*
X546030Y-375359D01*
X546697Y-376470D01*
X546697Y-377581D01*
X546030Y-378692D01*
X544697Y-379248D01*
X546030Y-379804D01*
X546697Y-380915D01*
X546697Y-382026D01*
X546030Y-383137D01*
X544697Y-383692D01*
X543364Y-383692D01*
X542030Y-383137D01*
X541364Y-382026D01*
G54D12*
G75*
G01X510297Y-441740D02*
G03X542415Y-441740I16059J-17835D01*
G01*
G54D12*
X510356Y-441775D02*
X542356Y-441775D01*
G54D15*
X507954Y-425604D02*
X511288Y-434492D01*
X514621Y-425604D01*
G54D15*
X519732Y-434492D02*
X519732Y-425604D01*
G54D15*
X517065Y-425604D02*
X522399Y-425604D01*
G54D15*
X524842Y-434492D02*
X531509Y-434492D01*
G54D15*
X533953Y-425604D02*
X533953Y-434492D01*
X538620Y-434492D01*
G54D15*
X545064Y-434492D02*
X545064Y-425604D01*
X541064Y-431159D01*
X541064Y-432270D01*
X546398Y-432270D01*
G54D12*
G75*
G01X510297Y-492540D02*
G03X542415Y-492540I16059J-17835D01*
G01*
G54D12*
X510356Y-492575D02*
X542356Y-492575D01*
G54D15*
X508254Y-476404D02*
X511587Y-485292D01*
X514920Y-476404D01*
G54D15*
X520031Y-485292D02*
X520031Y-476404D01*
G54D15*
X517365Y-476404D02*
X522698Y-476404D01*
G54D15*
X525142Y-485292D02*
X531808Y-485292D01*
G54D15*
X534253Y-476404D02*
X534253Y-485292D01*
X538919Y-485292D01*
G54D15*
X546697Y-476404D02*
X541364Y-476404D01*
X541364Y-480292D01*
X542030Y-480292D01*
X543364Y-479737D01*
X544697Y-479737D01*
X546030Y-480292D01*
X546697Y-481404D01*
X546697Y-483626D01*
X546030Y-484737D01*
X544697Y-485292D01*
X543364Y-485292D01*
X542030Y-484737D01*
X541364Y-483626D01*
G54D12*
G75*
G01X510297Y-540164D02*
G03X542415Y-540164I16059J-17836D01*
G01*
G54D12*
X510356Y-540200D02*
X542356Y-540200D01*
G54D15*
X507954Y-524029D02*
X511288Y-532918D01*
X514621Y-524029D01*
G54D15*
X519732Y-532918D02*
X519732Y-524029D01*
G54D15*
X517065Y-524029D02*
X522399Y-524029D01*
G54D15*
X524842Y-532918D02*
X531509Y-532918D01*
G54D15*
X533953Y-524029D02*
X533953Y-532918D01*
X538620Y-532918D01*
G54D15*
X546398Y-525695D02*
X545731Y-524584D01*
X544398Y-524029D01*
X543064Y-524029D01*
X541731Y-524584D01*
X541064Y-525695D01*
X541064Y-528473D01*
X541064Y-529029D01*
X543064Y-527918D01*
X544398Y-527918D01*
X545731Y-528473D01*
X546398Y-529584D01*
X546398Y-531251D01*
X545731Y-532362D01*
X544398Y-532918D01*
X543064Y-532918D01*
X541731Y-532362D01*
X541064Y-531251D01*
X541064Y-528473D01*
G54D12*
G75*
G01X510297Y-590964D02*
G03X542415Y-590964I16059J-17836D01*
G01*
G54D12*
X510356Y-591000D02*
X542356Y-591000D01*
G54D15*
X508254Y-574829D02*
X511587Y-583718D01*
X514920Y-574829D01*
G54D15*
X520031Y-583718D02*
X520031Y-574829D01*
G54D15*
X517365Y-574829D02*
X522698Y-574829D01*
G54D15*
X525142Y-583718D02*
X531808Y-583718D01*
G54D15*
X534253Y-574829D02*
X534253Y-583718D01*
X538919Y-583718D01*
G54D15*
X541364Y-574829D02*
X546697Y-574829D01*
X546030Y-575940D01*
X544697Y-577606D01*
X543364Y-579829D01*
X542697Y-581495D01*
X542697Y-583718D01*
G36*
X440206Y-246200D02*
X447206Y-246200D01*
X447206Y-260200D01*
X440206Y-260200D01*
X440206Y-246200D01*
G37*
G36*
X419206Y-246200D02*
X426206Y-246200D01*
X426206Y-260200D01*
X419206Y-260200D01*
X419206Y-246200D01*
G37*
G54D16*
X422306Y-260400D02*
X422306Y-246100D01*
X443706Y-246100D01*
X443706Y-260400D01*
X422306Y-260400D01*
G54D16*
X425906Y-253200D02*
X429106Y-253200D01*
X429106Y-251600D01*
X437006Y-251600D01*
X437006Y-254800D01*
X429106Y-254800D01*
X429106Y-253200D01*
G54D16*
X437006Y-253200D02*
X440206Y-253200D01*
G54D17*
X672934Y-100200D02*
X672378Y-100533D01*
X672100Y-101200D01*
X672100Y-101867D01*
X672378Y-102533D01*
X672934Y-102867D01*
X673489Y-102867D01*
X674045Y-102533D01*
X674322Y-101867D01*
X674322Y-101200D01*
X674600Y-100533D01*
X675156Y-100200D01*
X675711Y-100200D01*
X676267Y-100533D01*
X676545Y-101200D01*
X676545Y-101867D01*
X676267Y-102533D01*
X675711Y-102867D01*
G54D17*
X672100Y-105756D02*
X676545Y-105756D01*
G54D17*
X676545Y-104423D02*
X676545Y-107090D01*
G54D17*
X672100Y-108646D02*
X672100Y-111979D01*
G54D17*
X672934Y-116202D02*
X672378Y-115868D01*
X672100Y-115202D01*
X672100Y-114535D01*
X672378Y-113868D01*
X672934Y-113535D01*
X675711Y-113535D01*
X676267Y-113868D01*
X676545Y-114535D01*
X676545Y-115202D01*
X676267Y-115868D01*
X675711Y-116202D01*
G54D17*
X672100Y-117758D02*
X676545Y-117758D01*
X676545Y-119425D01*
X676267Y-120091D01*
X675711Y-120425D01*
X675156Y-120425D01*
X674600Y-120091D01*
X674322Y-119425D01*
X674322Y-117758D01*
G54D17*
X672100Y-130096D02*
X676545Y-130096D01*
X676545Y-131763D01*
X676267Y-132429D01*
X675711Y-132763D01*
X672934Y-132763D01*
X672378Y-132429D01*
X672100Y-131763D01*
X672100Y-130096D01*
G54D17*
X672934Y-134319D02*
X672378Y-134652D01*
X672100Y-135319D01*
X672100Y-135986D01*
X672378Y-136652D01*
X672934Y-136986D01*
X673489Y-136986D01*
X674045Y-136652D01*
X674322Y-135986D01*
X674322Y-135319D01*
X674600Y-134652D01*
X675156Y-134319D01*
X675711Y-134319D01*
X676267Y-134652D01*
X676545Y-135319D01*
X676545Y-135986D01*
X676267Y-136652D01*
X675711Y-136986D01*
G54D17*
X672934Y-151526D02*
X672378Y-151859D01*
X672100Y-152526D01*
X672100Y-153193D01*
X672378Y-153859D01*
X672934Y-154193D01*
X673489Y-154193D01*
X674045Y-153859D01*
X674322Y-153193D01*
X674322Y-152526D01*
X674600Y-151859D01*
X675156Y-151526D01*
X675711Y-151526D01*
X676267Y-151859D01*
X676545Y-152526D01*
X676545Y-153193D01*
X676267Y-153859D01*
X675711Y-154193D01*
G54D17*
X672100Y-155749D02*
X676545Y-155749D01*
G54D17*
X672100Y-158416D02*
X676545Y-158416D01*
G54D17*
X674322Y-155749D02*
X674322Y-158416D01*
G54D17*
X672100Y-159972D02*
X672100Y-163305D01*
G54D17*
X672934Y-167528D02*
X672378Y-167194D01*
X672100Y-166528D01*
X672100Y-165861D01*
X672378Y-165194D01*
X672934Y-164861D01*
X675711Y-164861D01*
X676267Y-165194D01*
X676545Y-165861D01*
X676545Y-166528D01*
X676267Y-167194D01*
X675711Y-167528D01*
G54D17*
X672100Y-169084D02*
X676545Y-169084D01*
X676545Y-170751D01*
X676267Y-171417D01*
X675711Y-171751D01*
X675156Y-171751D01*
X674600Y-171417D01*
X674322Y-170751D01*
X674322Y-169084D01*
G54D17*
X674045Y-187914D02*
X674045Y-190581D01*
G54D17*
X675156Y-189247D02*
X672934Y-189247D01*
G54D17*
X674045Y-214859D02*
X674045Y-217526D01*
G54D11*
X677793Y-193370D02*
X682237Y-193370D01*
X682237Y-195037D01*
X681959Y-195704D01*
X681404Y-196037D01*
X680848Y-196037D01*
X680293Y-195704D01*
X680015Y-195037D01*
X680015Y-193370D01*
G54D11*
X681404Y-199926D02*
X678626Y-199926D01*
X678070Y-199593D01*
X677793Y-198926D01*
X677793Y-198259D01*
X678070Y-197593D01*
X678626Y-197259D01*
X681404Y-197259D01*
X681959Y-197593D01*
X682237Y-198259D01*
X682237Y-198926D01*
X681959Y-199593D01*
X681404Y-199926D01*
G54D11*
X682237Y-201148D02*
X677793Y-201148D01*
X680570Y-202815D01*
X677793Y-204482D01*
X682237Y-204482D01*
G54D11*
X677793Y-208037D02*
X677793Y-205703D01*
X682237Y-205703D01*
X682237Y-208037D01*
G54D11*
X680015Y-205703D02*
X680015Y-208037D01*
G54D11*
X680015Y-210592D02*
X679459Y-211592D01*
X678904Y-211925D01*
X677793Y-211925D01*
G54D11*
X677793Y-209258D02*
X682237Y-209258D01*
X682237Y-210925D01*
X681959Y-211592D01*
X681404Y-211925D01*
X680848Y-211925D01*
X680293Y-211592D01*
X680015Y-210925D01*
X680015Y-209258D01*
G54D18*
X825475Y-95800D02*
X685475Y-95800D01*
X685475Y-225800D01*
X825475Y-225800D01*
X825475Y-95800D01*
G54D18*
X685475Y-95800D02*
X665475Y-95800D01*
X665475Y-225800D01*
X685475Y-225800D01*
X685475Y-95800D01*
G54D18*
X665163Y-100800D02*
X637863Y-100800D01*
G54D18*
X665163Y-130963D02*
X637863Y-130963D01*
G54D18*
X665163Y-161125D02*
X637863Y-161125D01*
G54D18*
X665163Y-190494D02*
X637863Y-190494D01*
G54D18*
X665163Y-220656D02*
X637863Y-220656D01*
G54D15*
X182394Y-560195D02*
X176172Y-562528D01*
X182394Y-564862D01*
G54D15*
X176560Y-567040D02*
X176172Y-567973D01*
X176172Y-568906D01*
X176560Y-569840D01*
X177338Y-569840D01*
X177727Y-569373D01*
X178116Y-567506D01*
X178505Y-567040D01*
X179283Y-567040D01*
X179672Y-567973D01*
X179672Y-568906D01*
X179283Y-569840D01*
G54D15*
X176560Y-572018D02*
X176172Y-572951D01*
X176172Y-573884D01*
X176560Y-574818D01*
X177338Y-574818D01*
X177727Y-574351D01*
X178116Y-572484D01*
X178505Y-572018D01*
X179283Y-572018D01*
X179672Y-572951D01*
X179672Y-573884D01*
X179283Y-574818D01*
G54D15*
X179283Y-585676D02*
X178505Y-587076D01*
X177727Y-587542D01*
X176172Y-587542D01*
G54D15*
X176172Y-583809D02*
X182394Y-583809D01*
X182394Y-586142D01*
X182005Y-587076D01*
X181227Y-587542D01*
X180449Y-587542D01*
X179672Y-587076D01*
X179283Y-586142D01*
X179283Y-583809D01*
G54D15*
X176172Y-589720D02*
X182394Y-589720D01*
X182394Y-592053D01*
X182005Y-592986D01*
X181227Y-593453D01*
X180449Y-593453D01*
X179672Y-592986D01*
X179283Y-592053D01*
X178894Y-592986D01*
X178116Y-593453D01*
X177338Y-593453D01*
X176560Y-592986D01*
X176172Y-592053D01*
X176172Y-589720D01*
G54D15*
X179283Y-589720D02*
X179283Y-592053D01*
G54D15*
X182394Y-595631D02*
X182394Y-599364D01*
X181616Y-598898D01*
X180449Y-597964D01*
X178894Y-597031D01*
X177727Y-596564D01*
X176172Y-596564D01*
G54D15*
X179283Y-612492D02*
X178505Y-613892D01*
X177727Y-614359D01*
X176172Y-614359D01*
G54D15*
X176172Y-610626D02*
X182394Y-610626D01*
X182394Y-612959D01*
X182005Y-613892D01*
X181227Y-614359D01*
X180449Y-614359D01*
X179672Y-613892D01*
X179283Y-612959D01*
X179283Y-610626D01*
G54D15*
X176172Y-616537D02*
X182394Y-616537D01*
X182394Y-618870D01*
X182005Y-619804D01*
X181227Y-620270D01*
X180449Y-620270D01*
X179672Y-619804D01*
X179283Y-618870D01*
X178894Y-619804D01*
X178116Y-620270D01*
X177338Y-620270D01*
X176560Y-619804D01*
X176172Y-618870D01*
X176172Y-616537D01*
G54D15*
X179283Y-616537D02*
X179283Y-618870D01*
G54D15*
X181227Y-626181D02*
X182005Y-625714D01*
X182394Y-624781D01*
X182394Y-623848D01*
X182005Y-622914D01*
X181227Y-622448D01*
X179283Y-622448D01*
X178894Y-622448D01*
X179672Y-623848D01*
X179672Y-624781D01*
X179283Y-625714D01*
X178505Y-626181D01*
X177338Y-626181D01*
X176560Y-625714D01*
X176172Y-624781D01*
X176172Y-623848D01*
X176560Y-622914D01*
X177338Y-622448D01*
X179283Y-622448D01*
G54D15*
X182394Y-637443D02*
X176172Y-639776D01*
X182394Y-642110D01*
G54D15*
X176172Y-647088D02*
X182394Y-647088D01*
G54D15*
X178660Y-647088D02*
X179438Y-646621D01*
X179672Y-645688D01*
X179438Y-644754D01*
X178660Y-644288D01*
X177105Y-644288D01*
X176327Y-644754D01*
X176172Y-645688D01*
X176327Y-646621D01*
X177105Y-647088D01*
G54D15*
X176172Y-652066D02*
X182394Y-652066D01*
G54D15*
X178660Y-652066D02*
X179438Y-651599D01*
X179672Y-650666D01*
X179438Y-649732D01*
X178660Y-649266D01*
X177105Y-649266D01*
X176327Y-649732D01*
X176172Y-650666D01*
X176327Y-651599D01*
X177105Y-652066D01*
G54D15*
X176172Y-661057D02*
X182394Y-661057D01*
X178505Y-663390D01*
X182394Y-665724D01*
X176172Y-665724D01*
G54D15*
X177338Y-671635D02*
X176560Y-671168D01*
X176172Y-670235D01*
X176172Y-669302D01*
X176560Y-668368D01*
X177338Y-667902D01*
X181227Y-667902D01*
X182005Y-668368D01*
X182394Y-669302D01*
X182394Y-670235D01*
X182005Y-671168D01*
X181227Y-671635D01*
G54D15*
X182394Y-673813D02*
X176172Y-673813D01*
X176172Y-677080D01*
G54D15*
X179283Y-681124D02*
X178505Y-682524D01*
X177727Y-682991D01*
X176172Y-682991D01*
G54D15*
X176172Y-679258D02*
X182394Y-679258D01*
X182394Y-681591D01*
X182005Y-682524D01*
X181227Y-682991D01*
X180449Y-682991D01*
X179672Y-682524D01*
X179283Y-681591D01*
X179283Y-679258D01*
G54D18*
X29400Y-686838D02*
X169400Y-686838D01*
X169400Y-556838D01*
X29400Y-556838D01*
X29400Y-686838D01*
G54D18*
X169400Y-686838D02*
X189400Y-686838D01*
X189400Y-556838D01*
X169400Y-556838D01*
X169400Y-686838D01*
G54D18*
X189712Y-681838D02*
X217012Y-681838D01*
G54D18*
X189712Y-651675D02*
X217012Y-651675D01*
G54D18*
X189712Y-621512D02*
X217012Y-621512D01*
G54D18*
X189712Y-592144D02*
X217012Y-592144D01*
G54D18*
X189712Y-561981D02*
X217012Y-561981D01*
G54D19*
X123012Y-900000D02*
X123012Y-760000D01*
X213012Y-760000D01*
X213012Y-760000D01*
X213012Y-900000D01*
X123012Y-900000D01*
G54D19*
X163736Y-749449D02*
X173736Y-749449D01*
G54D19*
X168736Y-744449D02*
X168736Y-754449D01*
G54D19*
X163736Y-804449D02*
X173736Y-804449D01*
G54D10*
X678175Y-751700D02*
X678175Y-751700D01*
G54D20*
X779775Y-726300D02*
X728975Y-726300D01*
G54D20*
X728975Y-726300D02*
X728975Y-777100D01*
G54D20*
X779775Y-777100D02*
X728975Y-777100D01*
G54D20*
X779775Y-726300D02*
X779775Y-777100D01*
G54D20*
X627375Y-726300D02*
X576575Y-726300D01*
G54D20*
X576575Y-726300D02*
X576575Y-777100D01*
G54D20*
X627375Y-777100D02*
X576575Y-777100D01*
G54D20*
X627375Y-726300D02*
X627375Y-777100D01*
G54D20*
X728175Y-729900D02*
X628175Y-729900D01*
G54D20*
X728175Y-772900D02*
X629175Y-772900D01*
G54D10*
X728975Y-751700D02*
X627375Y-751700D01*
G54D12*
X502575Y-800000D02*
X502575Y-900000D01*
X322575Y-900000D01*
X322575Y-800000D01*
X502575Y-800000D01*
G54D12*
X512575Y-900000D02*
X512575Y-920000D01*
X312575Y-920000D01*
X312575Y-900000D01*
X512575Y-900000D01*
G54D12*
X745338Y-567425D02*
X745338Y-627425D01*
X805338Y-627425D01*
X805338Y-567425D01*
X745338Y-567425D01*
G54D12*
G75*
G01X790337Y-597425D02*
G03X790337Y-597425I-15000J0D01*
G01*
G54D18*
X223050Y-732638D02*
X223050Y-707238D01*
X273850Y-707238D01*
X273850Y-732638D01*
X223050Y-732638D01*
G54D18*
X825475Y-292862D02*
X685475Y-292862D01*
X685475Y-492862D01*
X825475Y-492862D01*
X825475Y-292862D01*
G54D18*
X685475Y-292862D02*
X665475Y-292862D01*
X665475Y-492862D01*
X685475Y-492862D01*
X685475Y-292862D01*
G54D15*
X678559Y-296551D02*
X672336Y-296551D01*
X672336Y-299818D01*
G54D15*
X677392Y-305729D02*
X673503Y-305729D01*
X672725Y-305263D01*
X672336Y-304329D01*
X672336Y-303396D01*
X672725Y-302463D01*
X673503Y-301996D01*
X677392Y-301996D01*
X678170Y-302463D01*
X678559Y-303396D01*
X678559Y-304329D01*
X678170Y-305263D01*
X677392Y-305729D01*
G54D15*
X678561Y-321751D02*
X672339Y-321751D01*
X672339Y-325018D01*
G54D15*
X676228Y-327196D02*
X678561Y-329529D01*
X672339Y-329529D01*
G54D15*
X678559Y-349051D02*
X672336Y-349051D01*
X672336Y-352318D01*
G54D15*
X672336Y-358229D02*
X672336Y-354496D01*
X672725Y-354496D01*
X673503Y-354963D01*
X675836Y-357763D01*
X676614Y-358229D01*
X677392Y-358229D01*
X678170Y-357763D01*
X678559Y-356829D01*
X678559Y-355896D01*
X678170Y-354963D01*
X677392Y-354496D01*
G54D15*
X678559Y-376551D02*
X672336Y-376551D01*
X672336Y-379818D01*
G54D15*
X677392Y-381996D02*
X678170Y-382463D01*
X678559Y-383396D01*
X678559Y-384329D01*
X678170Y-385263D01*
X677392Y-385729D01*
X676614Y-385729D01*
X675836Y-385263D01*
X675448Y-384329D01*
X675059Y-385263D01*
X674281Y-385729D01*
X673503Y-385729D01*
X672725Y-385263D01*
X672336Y-384329D01*
X672336Y-383396D01*
X672725Y-382463D01*
X673503Y-381996D01*
G54D15*
X678559Y-401562D02*
X672337Y-401562D01*
X672337Y-404829D01*
G54D15*
X672337Y-409808D02*
X678559Y-409808D01*
X674670Y-407008D01*
X673893Y-407008D01*
X673893Y-410741D01*
G54D15*
X678559Y-481562D02*
X672336Y-481562D01*
X672336Y-484828D01*
G54D15*
X678559Y-487006D02*
X678559Y-490740D01*
X677781Y-490273D01*
X676614Y-489340D01*
X675059Y-488406D01*
X673892Y-487940D01*
X672336Y-487940D01*
G54D15*
X678559Y-456551D02*
X672336Y-456551D01*
X672336Y-459818D01*
G54D15*
X677392Y-465729D02*
X678170Y-465263D01*
X678559Y-464329D01*
X678559Y-463396D01*
X678170Y-462463D01*
X677392Y-461996D01*
X675448Y-461996D01*
X675059Y-461996D01*
X675836Y-463396D01*
X675836Y-464329D01*
X675448Y-465263D01*
X674670Y-465729D01*
X673503Y-465729D01*
X672725Y-465263D01*
X672336Y-464329D01*
X672336Y-463396D01*
X672725Y-462463D01*
X673503Y-461996D01*
X675448Y-461996D01*
G54D15*
X678559Y-429051D02*
X672336Y-429051D01*
X672336Y-432318D01*
G54D15*
X678559Y-438229D02*
X678559Y-434496D01*
X675836Y-434496D01*
X675836Y-434963D01*
X676225Y-435896D01*
X676225Y-436829D01*
X675836Y-437763D01*
X675059Y-438229D01*
X673503Y-438229D01*
X672725Y-437763D01*
X672336Y-436829D01*
X672336Y-435896D01*
X672725Y-434963D01*
X673503Y-434496D01*
G54D18*
X665162Y-379413D02*
X637862Y-379413D01*
G54D18*
X665162Y-406400D02*
X637862Y-406400D01*
G54D18*
X665162Y-433388D02*
X637862Y-433388D01*
G54D18*
X665162Y-461963D02*
X637862Y-461963D01*
G54D18*
X665162Y-488950D02*
X637862Y-488950D01*
G54D18*
X665162Y-352425D02*
X637862Y-352425D01*
G54D18*
X665162Y-325438D02*
X637862Y-325438D01*
G54D18*
X665162Y-296863D02*
X637862Y-296863D01*
M02*
