%FSLAX34Y34*%
%MOMM*%
%LNSOLDERMASK_BOTTOM*%
G71*
G01*
%ADD10C, 2.40*%
%ADD11C, 3.10*%
%ADD12C, 2.90*%
%ADD13C, 2.60*%
%ADD14C, 2.80*%
%ADD15C, 3.10*%
%ADD16R, 2.00X1.50*%
%ADD17C, 5.10*%
%ADD18C, 4.60*%
%ADD19C, 3.60*%
%ADD20C, 2.12*%
%LPD*%
X275431Y-253200D02*
G54D10*
D03*
X275431Y-278600D02*
G54D10*
D03*
X275431Y-304000D02*
G54D10*
D03*
X275431Y-329400D02*
G54D10*
D03*
X351631Y-253200D02*
G54D10*
D03*
X351631Y-278600D02*
G54D10*
D03*
X351631Y-304000D02*
G54D10*
D03*
X351631Y-329400D02*
G54D10*
D03*
X275431Y-354800D02*
G54D10*
D03*
X275431Y-380200D02*
G54D10*
D03*
X275431Y-405600D02*
G54D10*
D03*
X351631Y-354800D02*
G54D10*
D03*
X351631Y-380200D02*
G54D10*
D03*
X351631Y-405600D02*
G54D10*
D03*
X275431Y-431000D02*
G54D10*
D03*
X351631Y-431000D02*
G54D10*
D03*
X275431Y-456400D02*
G54D10*
D03*
X275431Y-481800D02*
G54D10*
D03*
X351631Y-456400D02*
G54D10*
D03*
X351631Y-481800D02*
G54D10*
D03*
X351631Y-507200D02*
G54D10*
D03*
X351631Y-532600D02*
G54D10*
D03*
X351631Y-558000D02*
G54D10*
D03*
X351631Y-583400D02*
G54D10*
D03*
X275431Y-507200D02*
G54D10*
D03*
X275431Y-532600D02*
G54D10*
D03*
X275431Y-558000D02*
G54D10*
D03*
X275431Y-583400D02*
G54D10*
D03*
X237331Y-443700D02*
G54D11*
D03*
X237331Y-493700D02*
G54D11*
D03*
X548481Y-253200D02*
G54D12*
D03*
X526256Y-275425D02*
G54D12*
D03*
X504031Y-253200D02*
G54D12*
D03*
X548481Y-304000D02*
G54D12*
D03*
X526256Y-326225D02*
G54D12*
D03*
X504031Y-304000D02*
G54D12*
D03*
X548481Y-351625D02*
G54D12*
D03*
X526256Y-373850D02*
G54D12*
D03*
X504031Y-351625D02*
G54D12*
D03*
X548481Y-402425D02*
G54D12*
D03*
X526256Y-424650D02*
G54D12*
D03*
X504031Y-402425D02*
G54D12*
D03*
X548481Y-453225D02*
G54D12*
D03*
X526256Y-475450D02*
G54D12*
D03*
X504031Y-453225D02*
G54D12*
D03*
X548481Y-504025D02*
G54D12*
D03*
X526256Y-526250D02*
G54D12*
D03*
X504031Y-504025D02*
G54D12*
D03*
X548481Y-551650D02*
G54D12*
D03*
X526256Y-573875D02*
G54D12*
D03*
X504031Y-551650D02*
G54D12*
D03*
X548481Y-602450D02*
G54D12*
D03*
X526256Y-624675D02*
G54D12*
D03*
X504031Y-602450D02*
G54D12*
D03*
X25006Y-875000D02*
G54D13*
D03*
X875006Y-875000D02*
G54D13*
D03*
X875006Y-25000D02*
G54D13*
D03*
X25006Y-25000D02*
G54D13*
D03*
G36*
X313381Y-471800D02*
X326381Y-471800D01*
X326381Y-491800D01*
X313381Y-491800D01*
X313381Y-471800D01*
G37*
G36*
X292381Y-471800D02*
X305381Y-471800D01*
X305381Y-491800D01*
X292381Y-491800D01*
X292381Y-471800D01*
G37*
G36*
X313381Y-446400D02*
X326381Y-446400D01*
X326381Y-466400D01*
X313381Y-466400D01*
X313381Y-446400D01*
G37*
G36*
X292381Y-446400D02*
X305381Y-446400D01*
X305381Y-466400D01*
X292381Y-466400D01*
X292381Y-446400D01*
G37*
G54D14*
X649175Y-100800D02*
X627175Y-100800D01*
G54D14*
X649175Y-130963D02*
X627175Y-130963D01*
G54D14*
X649175Y-161125D02*
X627175Y-161125D01*
G54D14*
X649175Y-190494D02*
X627175Y-190494D01*
G54D14*
X649175Y-220656D02*
X627175Y-220656D01*
X216700Y-681838D02*
G54D15*
D03*
X216700Y-651675D02*
G54D15*
D03*
X216700Y-621512D02*
G54D15*
D03*
X216700Y-592144D02*
G54D15*
D03*
X216700Y-561981D02*
G54D15*
D03*
X446888Y-618338D02*
G54D15*
D03*
X600075Y-655638D02*
G54D16*
D03*
X600075Y-688138D02*
G54D16*
D03*
X779775Y-751700D02*
G54D17*
D03*
X728975Y-751700D02*
G54D17*
D03*
X627375Y-751700D02*
G54D17*
D03*
X576575Y-751700D02*
G54D17*
D03*
X357575Y-720000D02*
G54D18*
D03*
X457575Y-720000D02*
G54D18*
D03*
X457575Y-800000D02*
G54D18*
D03*
X357575Y-800000D02*
G54D18*
D03*
X745338Y-619925D02*
G54D19*
D03*
X745338Y-574925D02*
G54D19*
D03*
X805338Y-619925D02*
G54D19*
D03*
X805338Y-574925D02*
G54D19*
D03*
X669925Y-655638D02*
G54D15*
D03*
X744538Y-657225D02*
G54D15*
D03*
X669135Y-542125D02*
G54D15*
D03*
X743750Y-542138D02*
G54D15*
D03*
G36*
X225150Y-709338D02*
X246350Y-709338D01*
X246350Y-730538D01*
X225150Y-730538D01*
X225150Y-709338D01*
G37*
X261150Y-719938D02*
G54D20*
D03*
X292900Y-719938D02*
G54D15*
D03*
X292894Y-650400D02*
G54D15*
D03*
X292894Y-618650D02*
G54D15*
D03*
X179394Y-445775D02*
G54D15*
D03*
X104775Y-446088D02*
G54D15*
D03*
G54D14*
X649175Y-379412D02*
X627175Y-379412D01*
G54D14*
X649175Y-406400D02*
X627175Y-406400D01*
G54D14*
X649175Y-433388D02*
X627175Y-433388D01*
G54D14*
X649175Y-461962D02*
X627175Y-461962D01*
G54D14*
X649175Y-488950D02*
X627175Y-488950D01*
G54D14*
X649175Y-352425D02*
X627175Y-352425D01*
G54D14*
X649175Y-325438D02*
X627175Y-325438D01*
G54D14*
X649175Y-296862D02*
X627175Y-296862D01*
M02*
